<svg width="48" height="21" viewBox="0 0 48 21" fill="none" xml:space="preserve" xmlns:xlink="http://www.w3.org/1999/xlink" xmlns="http://www.w3.org/2000/svg" xmlns:svg="http://www.w3.org/2000/svg">
  <linearGradient
       id="linearGradient2277"><stop
         style="stop-color:#0240bc;stop-opacity:1;"
         offset="0"
         id="stop2273" /><stop
         style="stop-color:#9dd0f0;stop-opacity:1;"
         offset="1"
         id="stop2275" />
  </linearGradient>
  <linearGradient xlink:href="#linearGradient2277" id="linearGradient2271" gradientUnits="userSpaceOnUse"
       x1="97.389809"
       y1="302.42535"
       x2="740.34424"
       y2="545.52002"
       gradientTransform="matrix(0.06346779,0,0,0.0648113,-1.3857549,-16.314222)" />
  <path
     id="path1367"
     style="display:inline;fill:#0975cf;fill-opacity:1;stroke-width:0.112869"
     d="m 40.107805,4.2447609 c -0.505825,0.00473 -1.005338,0.2862462 -0.941483,0.8557122 0.115663,1.5066021 0.09954,2.7512925 -0.246307,4.1400749 l 1.24382,0.864446 1.212828,-0.9524223 C 41.078948,7.7043112 40.924253,6.4195244 41.087462,5.0497121 41.125842,4.5120906 40.61363,4.2400341 40.107805,4.2447609 Z m -10.320707,0.028862 c -0.312093,0.00194 -0.645028,0.07839 -0.642613,0.2915245 l 0.01077,2.2251038 c -0.0053,0.3376385 1.35644,0.3200694 1.365302,-0.019871 l 0.0233,-1.6880053 c 5e-4,-0.1385842 -0.278222,-0.1482178 -0.274325,-0.020889 l 0.0186,1.6090164 c -0.0017,0.1480538 -0.889585,0.1727643 -0.885572,-0.014179 l 0.02406,-2.0302911 c -0.0083,-0.1102189 0.239162,-0.1179825 0.408327,-0.11342 0.302735,0.0069 0.482083,0.1149391 0.482083,0.1149391 0,0 -0.280268,0.090738 -0.566005,0.086837 -0.24374,-1.908e-4 -0.24365,0.2467507 -0.0098,0.2572198 0.315617,-0.00548 0.822295,-0.1055103 0.82409,-0.351272 -0.0031,-0.178268 -0.19388,-0.3332574 -0.71612,-0.346082 -0.02052,-5.061e-4 -0.0413,-7.591e-4 -0.0621,-6.326e-4 z m 10.357894,0.1906366 c 0.166846,0.00121 0.332031,0.038122 0.513198,0.1196221 l 0.0094,0.1189899 c -0.4215,0.1151108 -0.64938,0.125605 -1.044963,0.00747 l -7.49e-4,-0.1517746 c 0.187867,-0.061107 0.356389,-0.095531 0.523237,-0.094306 z m -0.671495,0.4801347 c 0.367081,0.17161 0.890343,0.1869535 1.310635,0.014558 -0.08521,1.6330547 0.12288,2.8853891 0.28387,4.0745049 L 40.15404,9.7585343 39.245783,9.0716853 C 39.570408,7.8573549 39.49882,6.3575739 39.473498,4.9443948 Z M 7.273137,5.6917491 c -0.05852,0.00522 -0.1113778,0.032895 -0.1137958,0.085825 0.160795,0.8108765 0.1795453,1.5547029 0.00334,2.2067493 -0.054319,0.1292538 -0.024152,0.3082654 0.066195,0.3878551 0.7704977,0.3249831 1.0481355,0.8072261 1.0707715,1.4352164 0.01064,2.1413441 0.019018,4.0659961 -0.1875526,6.5412571 -0.1414392,0.247805 0.29093,0.306282 0.2759358,-9.5e-5 C 8.5019841,14.085174 8.5755261,11.672534 8.5753359,9.6222311 8.5847959,8.969461 7.8304491,8.3291381 7.4128336,8.2043576 7.6564974,7.4871717 7.5705161,6.5579596 7.4211436,5.7406417 7.39589,5.7037538 7.3316547,5.6865574 7.273135,5.6917796 Z M 5.9394455,5.7154209 C 5.88638,5.7151679 5.8333147,5.7414951 5.8167242,5.793144 5.5749417,6.664228 5.63845,7.4574724 5.8094117,8.2231884 4.890547,8.6101989 4.7183882,9.2282648 4.6433147,9.8763833 c 0.1515438,3.5420307 0.073956,6.6657487 0.2341615,6.7550597 0.9229473,0.58565 1.9654473,0.683028 3.1477306,0.20937 C 8.1931678,16.723536 8.0774013,16.51289 7.915625,16.599797 7.1665713,16.975352 5.6379885,16.8405 5.1487018,16.404728 5.0196565,16.289529 5.017505,13.197249 4.9421838,9.8057479 4.916432,8.8435876 5.6327163,8.7132299 6.0656383,8.2700242 5.9596248,7.4500776 5.8846098,6.6435949 6.0621658,5.7973209 c -0.01659,-0.054729 -0.069657,-0.08165 -0.1227203,-0.0819 z M 28.05289,10.341581 c -0.0983,-0.0052 -0.19359,0.188441 -0.08305,0.265068 0.31241,0.731506 2.268523,0.973443 3.232395,0.483681 0.14174,-0.102541 0.04577,-0.359292 -0.126812,-0.258993 -0.77937,0.436589 -2.829303,0.324421 -2.95646,-0.450641 -0.0205,-0.02624 -0.04339,-0.03793 -0.06607,-0.03912 z m 12.177262,1.968137 c -1.364267,-0.0076 -1.850185,0.924374 -1.849367,1.792058 0.0026,1.315994 0.794652,1.792145 1.80809,1.798135 1.128202,-0.01761 1.747087,-0.777991 1.758627,-1.748639 -0.0049,-0.93532 -0.565667,-1.843291 -1.71735,-1.841554 z m 0.0046,0.404058 c 0.750438,0.01968 1.333395,0.428019 1.34869,1.423065 -0.0033,0.990601 -0.71635,1.415953 -1.41563,1.427241 -0.730465,-7.59e-4 -1.463617,-0.499825 -1.4636,-1.454584 0.0151,-0.627773 0.31727,-1.395139 1.53054,-1.395722 z M 28.08414,14.750902 c -0.08855,0.0043 -0.173898,0.06408 -0.128175,0.171648 0.330825,1.044559 2.438012,0.925324 3.264127,0.551657 0.141743,-0.102541 -0.02153,-0.318025 -0.19412,-0.217725 -0.977707,0.424776 -2.67719,0.194421 -2.789485,-0.410767 -0.0127,-0.06776 -0.08347,-0.09811 -0.152347,-0.09481 z" /><path
     id="path555-9-4-7"
     style="display:inline;fill:#e2c439;fill-opacity:1;stroke-width:0.032578"
     d="m 23.764847,5.1480685 c -0.726741,0.00993 -1.448502,0.1814783 -1.449718,0.4360842 l 7.5e-4,0.8779903 c -0.0027,0.3565479 2.157615,0.3716881 2.562263,0.1638003 C 25.019883,6.5234046 24.915115,6.266652 24.74253,6.3669512 24.266135,6.6197045 22.620718,6.4818413 22.619582,6.2274554 l -0.01066,-0.4907688 c 0.0079,-0.3581231 2.048717,-0.309774 2.295873,-0.092533 l 0.0063,0.5657061 c 0.01018,0.1252478 0.30115,0.15414 0.293788,0.00165 L 25.2085,5.553012 C 25.051145,5.2564032 24.406098,5.1393039 23.764856,5.1480675 Z M 39.876245,6.45151 C 39.59783,6.44559 39.58435,6.7524091 39.814145,6.7569588 l 0.681038,0.014052 c 0.21539,0.0061 0.163847,-0.3035274 -0.0084,-0.3077272 z m 0.2328,2.0182644 c -0.13243,-0.00313 -0.266233,0.054404 -0.335935,0.199751 -0.09097,0.2233631 -0.09999,0.4011749 0.126687,0.5405159 0.12563,0.075992 0.370468,0.071107 0.49857,-0.1129137 0.03907,-0.052604 -0.0375,-0.1530563 -0.103135,-0.081141 -0.07559,0.087742 -0.18376,0.099999 -0.33209,0.063799 -0.10346,-0.065215 -0.145167,-0.1717753 -0.07066,-0.3301325 0.0666,-0.1838244 0.499752,-0.1135606 0.447125,0.048103 -0.03508,0.08876 0.08,0.1522685 0.118012,0.068609 C 40.5468,8.6488189 40.32976,8.4749832 40.109045,8.4697744 Z m -25.920026,0.087723 -2.180342,0.2420295 0.01239,7.2453231 c -6.5e-4,0.09545 0.258094,-5.82e-4 0.256103,-0.09216 l -0.0018,-6.8663281 1.628841,-0.1893709 0.0062,7.097092 -1.770404,0.25127 c -0.26197,0.03402 -0.21013,0.344193 0.04958,0.301778 l 2.012004,-0.320892 z m 8.313042,3.6484216 c -0.0983,-0.0052 -0.193591,0.188569 -0.08305,0.265195 1.053378,0.249999 1.864388,0.299312 2.693538,0.0022 0.141742,-0.10254 0.0055,-0.331822 -0.167098,-0.231523 -0.604234,0.147685 -1.630441,0.2557 -2.377315,0.0034 -0.02051,-0.02624 -0.04339,-0.03805 -0.06607,-0.03925 z m 17.551571,1.513825 c -0.151405,8.61e-4 -0.32145,0.176199 -0.303702,0.357222 0.03021,0.225624 0.150252,0.395358 0.369277,0.410767 0.120868,0.0075 0.3345,-0.08957 0.310028,-0.275702 0.0053,-0.06094 -0.08675,-0.08807 -0.09446,-0.0381 -0.01665,0.134324 -0.124735,0.168873 -0.22387,0.167978 -0.100655,-0.0084 -0.203433,-0.01021 -0.24284,-0.25127 -0.01978,-0.143063 0.135205,-0.235074 0.22821,-0.234814 0.08559,0.001 0.198225,0.03329 0.219412,0.158357 0.01275,0.08918 0.120835,0.09105 0.112308,0.0048 -0.01813,-0.15998 -0.195083,-0.28896 -0.359735,-0.298866 -0.0049,-2.78e-4 -0.0098,-3.79e-4 -0.01463,-3.79e-4 z m -0.9659,0.260132 c -0.200595,-0.0059 -0.263665,0.240271 -0.109207,0.26089 l 0.536127,0.05 c 0.13711,0.06732 0.1663,-0.257213 0.03,-0.277853 l -0.437085,-0.03165 c -0.0068,-7.59e-4 -0.01335,-0.0012 -0.01983,-0.0014 z m 2.114643,0.0031 -0.435595,0.04925 c -0.21672,0.01679 -0.241905,0.287355 -0.08132,0.278991 l 0.536255,-0.04937 c 0.146735,0.04103 0.118372,-0.28361 -0.01935,-0.278867 z m -18.685687,0.660266 c -0.0983,-0.0052 -0.193592,0.188443 -0.08305,0.265068 1.066851,0.373816 1.904843,0.271791 2.707051,0.04342 0.14174,-0.10254 -0.02153,-0.359292 -0.194122,-0.258993 -0.536873,0.202714 -1.832484,0.255658 -2.363803,-0.01038 -0.02051,-0.02624 -0.04339,-0.03793 -0.06607,-0.03912 z" /><path
     id="path1058"
     style="display:inline;fill:#7b040f;fill-opacity:1;stroke-width:0.0653609"
     d="M 12.351924,4.78072 C 12.006832,4.77424 11.662957,4.874256 11.666671,5.0936372 l -0.0012,2.0878861 c -0.0049,0.4189343 1.365856,0.4489512 1.36493,-0.027722 l 0.01363,-2.047506 C 13.043261,4.9001769 12.697032,4.7871985 12.351939,4.7807201 Z m 0.02194,0.2562074 c 0.129404,1.336e-4 0.249951,0.017901 0.387624,0.058988 l 0.0045,0.1130402 c -0.288591,0.054288 -0.522291,0.061895 -0.832643,-0.00772 L 11.93307,5.0837635 c 0.173086,-0.029455 0.311398,-0.046953 0.440804,-0.046836 z m 0.392087,0.3619051 -0.0031,1.7405382 c -0.0066,0.2073391 -0.820177,0.2209552 -0.820494,0.00341 l 3.75e-4,-1.7438291 c 0.300719,0.1226311 0.535475,0.1089814 0.823221,-1.339e-4 z M 35.50242,5.8920064 c -0.06895,0.00484 -0.127505,0.071438 -0.106235,0.1848132 0.224127,0.8725029 0.143422,1.3980985 0.04339,1.8964905 -0.103003,0.3467664 1.172575,0.5282737 1.120357,0.8665979 -0.315877,2.923848 -0.30995,4.602404 -0.47353,6.779744 0.0199,0.315844 0.110043,0.631643 0.30048,0.947486 -0.01375,0.563272 -3.074395,0.575621 -3.061327,-0.02659 -0.01197,-0.223551 0.232607,-0.366626 0.250522,-0.659884 0.076,-2.331301 -0.201302,-4.662627 -0.418117,-6.9939257 -0.0064,-0.3819397 0.882588,-0.4282741 1.03767,-0.8074804 0.114623,-0.5975654 -0.184267,-1.3588288 0.14838,-1.9858587 0.08519,-0.2493327 -0.195442,-0.2654736 -0.23664,-0.05633 -0.20185,0.5442621 -0.227062,1.1958321 -0.05492,1.8219323 -0.274615,0.3654857 -1.219945,0.4317612 -1.207375,0.9250795 0.189558,2.343889 0.4129,4.687761 0.439813,7.031648 -0.03573,0.529973 -0.479058,0.728982 -0.141068,1.056094 -10e-4,0.605566 3.539208,0.686481 3.560643,-0.295448 0.0093,-0.240564 -0.279348,-0.402701 -0.275813,-0.956979 0.08348,-2.269998 0.14971,-4.537051 0.43126,-6.840758 C 36.91249,8.3896519 35.938993,8.28715 35.714143,7.8057087 35.811583,7.2997097 35.8528,6.6802244 35.671123,6.077829 35.650753,5.9441709 35.571363,5.8871609 35.502413,5.8920035 Z M 13.167088,9.7329616 c -0.06755,0.00258 -0.136788,0.020987 -0.206022,0.055318 -0.603585,0.2842794 -0.282802,0.6229404 -0.04066,0.2487384 0.105496,-0.1239516 0.322933,-0.1140644 0.476381,-0.043292 0.240461,0.214401 0.355694,0.10351 0.08615,-0.1429136 -0.09541,-0.082553 -0.20327,-0.1221549 -0.315851,-0.117851 z m 0.34114,1.1164764 c -0.0066,-1.9e-4 -0.01341,-9.5e-5 -0.02033,2.78e-4 l -0.697773,0.0757 c -0.347837,0.02998 -0.362627,0.301439 -0.104499,0.283297 l 0.859914,-0.08191 c 0.232946,0.03101 0.168403,-0.270417 -0.03731,-0.277346 z m 0.06483,0.930271 c -0.06973,8.6e-4 -0.162939,0.06172 -0.227591,0.208104 -0.09039,0.145144 -0.33412,0.170097 -0.51989,0.121775 -0.313491,-0.182671 -0.417553,-0.04929 -0.06483,0.161775 0.198146,0.111805 0.407974,0.104581 0.593274,-0.01988 0.39969,-0.256821 0.352163,-0.473508 0.219038,-0.47178 z" /><path
     id="path1012-3"
     style="display:inline;fill:#46afa7;stroke-width:0.106812"
     d="m 29.290885,7.0062034 c -0.07445,0.00253 -0.148028,0.065335 -0.145035,0.1839274 -0.0149,0.6988041 -1.182003,1.0363569 -1.19907,1.7369938 l -0.0072,1.1339444 c -0.009,0.220688 0.26926,0.252607 0.27606,-0.01114 l 0.0077,-1.0052079 C 28.23614,8.3669753 29.431912,8.1286436 29.441352,7.1843078 29.440602,7.0614254 29.36531,7.0036729 29.290865,7.006203 Z M 11.432261,7.230765 c -0.03725,-0.0031 -0.07782,0.0044 -0.119498,0.026709 l -1.107463,0.4359575 -0.01797,8.7571215 0.86512,0.467223 c 0.224643,0.162014 0.438251,-0.08414 0.219038,-0.259751 l -0.730375,-0.38469 -0.0181,-8.2935693 1.025401,-0.4534261 c 0.144294,-0.069801 0.04527,-0.2821742 -0.116151,-0.2955746 z m 1.777098,0.020886 c -0.146888,0.00297 -0.267083,0.2153117 -0.02231,0.3377278 l 0.508239,0.228232 C 13.967716,7.9638741 14.051124,7.657957 13.829537,7.5241877 L 13.291548,7.2734231 c -0.02688,-0.015717 -0.05498,-0.022321 -0.08219,-0.021774 z M 12.0238,7.5540623 c -0.04989,-5.819e-4 -0.101215,0.023864 -0.141562,0.086837 L 11.696173,7.8752077 C 11.531834,8.1198043 11.819189,8.20712 12.000372,8.0203998 L 12.170446,7.8253322 C 12.269324,7.7205867 12.151291,7.5554925 12.0238,7.5540623 Z m -1.195351,0.3559546 c -0.128299,0.00613 -0.212461,0.1819082 -0.04748,0.2813977 L 11.11641,8.339645 c 0.269846,0.1098077 0.318184,-0.1234532 0.09991,-0.2627897 l -0.29453,-0.141015 c -0.03178,-0.019674 -0.06373,-0.027238 -0.09334,-0.025823 z m 17.263364,3.2052491 c -0.06333,3.79e-4 -0.126888,0.0585 -0.127678,0.171522 l -0.0026,3.214109 c -0.0013,0.16008 0.254082,0.16248 0.25697,9.5e-5 l -5e-4,-3.210944 c 9.5e-5,-0.117851 -0.06299,-0.175217 -0.126315,-0.174814 z" /><path
     id="path944"
     style="display:inline;fill:#066469;fill-opacity:1;stroke-width:0.0641359"
     d="m 17.690904,4.2455204 c -0.312092,0.00194 -0.645027,0.07839 -0.642611,0.2915245 l 0.01078,2.2251039 c -0.0053,0.3376372 1.356439,0.3200678 1.365301,-0.019874 l 0.02331,-1.6880061 C 18.448259,4.9156859 18.169463,4.90605 18.173359,5.0333817 l 0.01859,1.6090168 c -0.0017,0.1480535 -0.88946,0.1727654 -0.88545,-0.014179 l 0.02405,-2.0304164 c -0.0083,-0.1102189 0.239036,-0.1178566 0.408203,-0.1132938 0.302735,0.0069 0.482082,0.1149391 0.482083,0.1149391 -1e-6,0 -0.280266,0.090738 -0.566005,0.086837 -0.243739,-1.908e-4 -0.243649,0.2467507 -0.0098,0.2572199 0.315618,-0.00549 0.822294,-0.1055116 0.82409,-0.351272 -0.0031,-0.1782701 -0.193878,-0.3332587 -0.71612,-0.3460821 -0.02051,-5.06e-4 -0.0413,-7.59e-4 -0.0621,-6.325e-4 z m 23.618078,5.1647778 c -0.0572,0.00691 -0.106352,0.058388 -0.09396,0.14266 0.01577,0.5925808 0.99,1.7191788 0.969742,2.6520748 0.03758,1.168782 -0.02866,2.231537 -0.1283,3.260186 -0.13607,0.307401 -0.17231,0.753449 -0.123215,1.091539 7.5e-4,0.621996 -3.288487,0.791895 -3.581097,0.04645 -1.88e-4,-0.352609 -0.03883,-0.705254 -0.14243,-1.057865 -0.0756,-1.141301 -0.1876,-2.273214 -0.132885,-3.447785 -0.01935,-0.724134 0.823407,-1.500874 0.990072,-2.4925773 0.05152,-0.1441283 -0.233012,-0.180103 -0.26825,0.022025 -0.120907,0.5263033 -1.003237,1.6654763 -0.9959,2.7380243 -0.03137,1.117191 0.09671,2.180037 0.15743,3.265882 0.127495,0.340925 0.146875,0.659862 0.10202,0.965587 0.02524,1.176274 4.169013,0.954101 4.150323,0.04734 -0.02524,-0.386487 0.02524,-0.798722 0.10301,-1.220275 0.127082,-1.017237 0.177062,-2.087039 0.20119,-3.174361 0.01652,-0.959362 -0.935655,-2.029143 -1.065318,-2.713974 -0.01997,-0.094237 -0.08524,-0.1318567 -0.14243,-0.1249389 z m -24.729135,1.5804088 7.5e-4,4.220583 c -0.0073,0.254406 2.300384,0.240392 2.290294,9.6e-5 l 0.0026,-4.217294 c -0.779196,0.283256 -1.551538,0.225291 -2.293642,-0.0034 z m 0.267134,0.351779 c 0.297682,0.171635 1.508265,0.142825 1.748464,0.0091 l -0.0011,3.623104 c 0.0017,0.2287 -1.729323,0.200234 -1.736687,0.0033 z" /><path
     id="path845-2-7-9"
     style="display:inline;fill:#3b11f1;fill-opacity:1;stroke-width:0.0507409"
     d="m 34.80812,4.0250106 c -0.5182,0.00809 -0.682085,0.2366699 -0.68513,0.3491196 0.0018,0.2334527 0.619752,0.3488277 0.932925,0.3522851 0.232047,-0.00661 0.16822,-0.2669486 -0.07363,-0.2668406 -0.283525,0.00248 -0.625627,-0.067849 -0.625627,-0.067849 0,0 0.19074,-0.1465326 0.49113,-0.1508893 0.22371,0.00576 0.493515,0.015815 0.494727,0.1498762 l 0.01103,1.1238183 c 0.004,0.170207 -0.94091,0.1416199 -0.942595,0.048229 L 34.40375,4.809202 c 0.0039,-0.080321 -0.272765,-0.074254 -0.272217,0.013164 l 0.04871,0.8034322 c -0.0168,0.2536481 1.360062,0.329957 1.354765,0.012405 L 35.55843,4.3523576 C 35.54818,4.1174498 35.133805,4.0198352 34.808098,4.0250101 Z M 23.178018,6.803162 c -0.09111,0.00197 -0.185805,0.047182 -0.190651,0.1349389 0.0046,0.4517601 -0.05541,0.8097469 -0.242468,1.3006568 -0.178031,0.3315467 -1.627668,0.5002648 -1.623263,1.5426864 0,0 -0.09649,6.6915909 0.03496,6.8689859 0.01229,0.819343 5.220393,0.922384 5.21465,-0.09012 l 0.0081,-6.8286072 C 26.382892,8.9309711 25.23651,8.6015597 24.834991,8.313316 24.609131,8.0989703 24.523864,7.3683758 24.559798,7.0012666 c 0.03604,-0.2411797 -0.381447,-0.2408032 -0.338908,-0.01405 0.07525,0.5081122 0.01805,1.2231209 0.274201,1.449647 0.340599,0.3012953 1.566236,0.842354 1.591034,1.2110347 l 0.0058,6.7724027 c 7.5e-4,0.621995 -4.598815,0.598879 -4.606621,0.0914 -0.129045,-0.115202 -0.0507,-6.6275906 -0.0507,-6.6275906 -0.0064,-0.8431085 1.263475,-0.9587327 1.637271,-1.487748 0.09404,-0.5507256 0.20659,-1.0088424 0.275192,-1.4688873 0.0095,-0.085141 -0.07797,-0.1263016 -0.169082,-0.1243061 z m 2.611227,2.7332148 c -0.02107,0.00199 -0.04276,0.00872 -0.06433,0.021265 -0.64465,0.4365879 -3.59729,0.3794718 -3.953473,0.030888 -0.109369,-0.1399668 -0.28517,0.1730369 -0.149125,0.2673462 1.026436,0.511388 3.54844,0.36802 4.310233,-0.025444 0.124022,-0.089721 0.0042,-0.3080703 -0.1433,-0.2940554 z M 36.12706,10.547154 c -0.03538,-0.0035 -0.07522,0.0073 -0.11516,0.03949 -0.581183,0.24483 -1.583563,0.51645 -2.348555,0.379882 -0.123067,-0.124056 -0.267625,0.17806 -0.123095,0.251776 1.067595,0.08574 1.874167,0.0071 2.661557,-0.424312 0.09679,-0.09451 0.03139,-0.236148 -0.07475,-0.24684 z" /><path
     id="path822"
     style="display:inline;fill:#58dcd2;fill-opacity:1;stroke-width:0.0657196"
     d="m 30.369588,7.0298752 c -0.05223,2.531e-4 -0.104405,0.027044 -0.120738,0.081773 0.02659,0.3785244 0.100877,0.7173701 0.373742,0.9595102 0.426163,0.4432061 0.79448,0.4084068 0.796073,1.081666 -0.0068,3.5153246 0.08538,7.4330356 -0.04165,7.5482376 -0.48165,0.43577 -2.457928,0.749375 -3.18182,-0.05266 l 0.02008,-1.091032 c -0.008,-0.154474 -0.272788,-0.202075 -0.276308,-0.0081 l 0.04066,1.188883 c -0.04866,0.803835 3.21391,0.830306 3.664395,0.189624 0.157708,-0.08931 0.0688,-7.8281179 0.0688,-7.8281179 C 31.706267,8.740453 31.550305,8.2874172 30.82092,7.900406 30.535637,7.6838101 30.525587,7.3602229 30.490442,7.1076066 30.474117,7.0559577 30.421817,7.0296326 30.36958,7.0298836 Z M 14.512433,7.9276128 c -0.01239,4.555e-4 -0.02553,0.00216 -0.03942,0.00519 l -3.025505,0.3712724 -0.0021,8.8978838 3.158513,-0.449628 0.0745,-8.3345826 c 9.5e-4,-0.1100471 -0.291983,-0.074455 -0.288952,0.03114 l -0.04253,8.0105236 -2.56933,0.388489 -0.01227,-8.2576185 2.78217,-0.3659566 C 14.714004,8.1875009 14.698207,7.92049 14.512429,7.9276123 Z" /><path
     id="path767-9-5"
     style="display:inline;fill:#e41e15;fill-opacity:1;stroke-width:0.0661635"
     d="m 6.5292495,4.1265309 c -0.3221253,0.00644 -0.624276,0.10712 -0.6207948,0.3127905 l 0.00979,0.9781192 c -0.00493,0.4189344 1.36598,0.4490774 1.3650535,-0.027596 l 0.00248,-0.9378648 C 7.2850257,4.2329786 6.8943205,4.1192318 6.5292442,4.1265309 Z m 0.0864,0.2560802 c 0.1294052,1.336e-4 0.2499527,0.017903 0.3876245,0.058989 l 0.00446,0.1130395 C 6.7191457,4.6089282 6.4855705,4.6165356 6.1752177,4.546918 l -3.75e-4,-0.1173442 c 0.1730865,-0.029455 0.3113988,-0.047079 0.4408038,-0.046963 z m 0.3922112,0.3619059 0.00781,0.6308972 c -0.00661,0.2073391 -0.8200537,0.2209547 -0.820371,0.00342 l -0.01066,-0.6341888 c 0.300719,0.1226312 0.5354755,0.1089814 0.8232221,-1.338e-4 z M 33.532443,8.7714254 c -0.104613,-0.00514 -0.206024,0.1885692 -0.08839,0.2651952 1.121035,0.2499979 1.984055,0.2993135 2.866465,0.00218 0.150843,-0.1025397 0.0058,-0.331822 -0.177886,-0.2315228 -0.643042,0.1476829 -1.735065,0.2557009 -2.52991,0.00342 -0.02182,-0.026244 -0.04615,-0.038055 -0.07028,-0.039241 z m 2.697752,0.6521639 c -0.03973,1.911e-4 -0.08286,0.01529 -0.12359,0.051519 -0.617987,0.3052725 -1.700907,0.6818727 -2.566603,0.6273537 -0.150894,-0.110301 -0.277107,0.205594 -0.108092,0.263549 1.196182,-0.0282 2.083582,-0.192061 2.909478,-0.7048235 0.0968,-0.1042814 0.008,-0.2382477 -0.111193,-0.2375982 z M 5.1411392,10.352974 c -0.098298,-0.0052 -0.1935915,0.188569 -0.083053,0.265195 1.0264347,0.511386 2.3762695,0.423083 3.1380612,0.02962 C 8.3378877,10.545252 8.1746094,10.2885 8.0020249,10.3888 7.3573742,10.825388 5.5633927,10.740803 5.2072107,10.3922 5.1867027,10.36596 5.1638237,10.35415 5.1411397,10.35296 Z m 1.5068648,1.530281 c -0.3379295,-8.6e-4 -0.7863738,0.342036 -0.795951,0.67153 0.00623,0.396867 0.2252758,0.683806 0.7033523,0.684824 0.264085,-0.0012 0.7601987,-0.199127 0.7560352,-0.526593 0.028054,-0.108813 -0.1675345,-0.145827 -0.1978405,-0.0562 -0.07256,0.240439 -0.3194785,0.314604 -0.537493,0.324942 -0.219349,-0.0027 -0.4452077,0.0063 -0.4675795,-0.416843 -0.00533,-0.251571 0.3603285,-0.43345 0.5650122,-0.444185 0.1881363,-0.0084 0.427444,0.0351 0.4406798,0.254562 0.00426,0.15678 0.241927,0.147134 0.2461858,-0.005 0.00286,-0.281799 -0.3525668,-0.489307 -0.7124013,-0.487097 z m 1.259439,2.116367 c -0.027532,-0.0017 -0.058255,0.0053 -0.090616,0.02405 -0.557112,0.297533 -2.049643,0.37175 -2.4058263,0.02317 -0.109369,-0.139964 -0.2851702,0.131644 -0.1491247,0.225953 0.938897,0.431931 2.0650767,0.29407 2.7101502,-0.01002 0.1151635,-0.08331 0.054719,-0.255397 -0.064584,-0.26317 z" /><path
     d="m 17.071576,7.1905973 c -0.01717,-0.2448746 0.347452,-0.206035 0.287862,0.00409 -0.04739,0.5067543 -0.289476,0.7749385 -0.519658,1.0577034 -0.347092,0.3530638 -0.493598,0.5039705 -0.487181,0.8859129 0,0 -0.06392,7.4079094 0.06512,7.5231104 0.05094,0.536849 2.753218,0.498378 2.766976,-0.06489 l -0.0058,-7.4624485 C 19.1541,8.765384 18.949163,8.4738466 18.608564,8.1725513 18.352411,7.9460252 18.136512,7.6715424 18.104392,7.1781109 c -0.04254,-0.2267531 0.374945,-0.2271914 0.338902,0.013986 -0.03593,0.3671102 0.14994,0.5986007 0.375801,0.8129464 0.40152,0.2882438 0.584605,0.6910559 0.595392,1.0513496 l 0.04941,7.6801051 c -0.0086,0.733574 -2.960083,0.809507 -3.317417,0.151656 -0.160207,-0.08931 -0.106821,-7.8525278 -0.106821,-7.8525278 -0.01257,-0.4933196 0.39515,-0.7556033 0.656967,-1.0034475 0.200258,-0.2420936 0.367674,-0.5153957 0.37495,-0.8415832 z"
     style="display:inline;fill:#a34d49;fill-opacity:1;stroke-width:0.0641359"
     id="path614" />
     <path d="m 43.772945,0 0.148752,1.4911663 h 0.510718 L 44.581167,0 Z M 5.1765917,0.0911409 c -0.5569952,0 -0.9941635,0.17637489 -1.3115022,0.5291234 C 3.547751,0.97132511 3.3890812,1.449816 3.3890812,2.0557337 c 0,0.600854 0.1586698,1.0785011 0.4760083,1.4329378 0.3173387,0.3527485 0.754507,0.5291234 1.3115022,0.5291234 0.5553433,0 0.9925113,-0.1746871 1.3115033,-0.5240603 C 6.807086,3.1443616 6.9665825,2.6650268 6.9665825,2.0557337 6.9665825,1.4464405 6.807086,0.96710594 6.488095,0.61773276 6.169103,0.26667194 5.731935,0.0911409 5.1765917,0.0911409 Z m 13.6232633,0 c -0.556995,0 -0.994164,0.17637489 -1.311502,0.5291234 -0.317339,0.35106081 -0.476008,0.8295517 -0.476008,1.4354694 0,0.600854 0.158669,1.0785011 0.476008,1.4329378 0.317338,0.3527485 0.754507,0.5291234 1.311502,0.5291234 0.555342,0 0.992512,-0.1746871 1.311503,-0.5240603 0.318992,-0.349373 0.478488,-0.8287078 0.478488,-1.4380009 0,-0.6092932 -0.159496,-1.08862776 -0.478488,-1.43800094 C 19.792367,0.26667194 19.355197,0.0911409 18.799855,0.0911409 Z m 9.08383,0 c -0.556995,0 -0.994165,0.17637489 -1.311503,0.5291234 -0.31734,0.35106081 -0.476009,0.8295517 -0.476009,1.4354694 0,0.600854 0.15867,1.0785011 0.476009,1.4329378 0.317338,0.3527485 0.754508,0.5291234 1.311503,0.5291234 0.55534,0 0.99251,-0.1746871 1.3115,-0.5240603 0.318992,-0.349373 0.47849,-0.8287078 0.47849,-1.4380009 0,-0.6092932 -0.159498,-1.08862776 -0.47849,-1.43800094 -0.31899,-0.35106082 -0.75616,-0.52659186 -1.3115,-0.52659186 z m 10.51433,0 c -0.556995,0 -0.994163,0.17637489 -1.311503,0.5291234 -0.317337,0.35106081 -0.476007,0.8295517 -0.476007,1.4354694 0,0.600854 0.15867,1.0785011 0.476007,1.4329378 0.31734,0.3527485 0.75451,0.5291234 1.311503,0.5291234 0.555345,0 0.992512,-0.1746871 1.311503,-0.5240603 0.318992,-0.349373 0.47849,-0.8287078 0.47849,-1.4380009 0,-0.6092932 -0.159498,-1.08862776 -0.47849,-1.43800094 C 39.390528,0.26667194 38.95336,0.0911409 38.398015,0.0911409 Z M 1.8098239,0.09620266 c -0.5536899,0 -0.99416385,0.17806324 -1.32141935,0.53418711 C 0.16280188,0.9848267 0,1.4607853 0,2.0582638 0,2.6776837 0.16280188,3.1587061 0.48840455,3.5013285 0.81400722,3.8422625 1.2536548,4.0127299 1.8073446,4.0127299 c 0.1768503,0 0.3156863,-0.00928 0.4165075,-0.027849 0.1008211,-0.018563 0.2090802,-0.04557 0.3247767,-0.081014 0.09421,-0.028693 0.1859407,-0.063292 0.2751922,-0.1037992 0.089252,-0.042195 0.16776,-0.079326 0.235525,-0.1113943 V 2.8025816 H 2.975053 c -0.046279,0.042195 -0.1008212,0.090297 -0.163628,0.1443062 -0.062806,0.054009 -0.1355302,0.1071754 -0.2181705,0.159497 -0.076029,0.050634 -0.1694128,0.097048 -0.2801508,0.1392431 -0.110738,0.040506 -0.2272612,0.06076 -0.3495687,0.06076 -0.1173493,0 -0.2355252,-0.021098 -0.3545272,-0.063293 C 1.4916586,3.200901 1.3850524,3.132545 1.2891896,3.0380288 1.1900212,2.9401364 1.10986,2.8118639 1.0487061,2.6532117 0.98755237,2.4928709 0.95697535,2.2953988 0.95697535,2.0607955 c 0,-0.2227883 0.0289242,-0.4160414 0.0867723,-0.5797574 C 1.1032488,1.3173222 1.1792781,1.187362 1.2718352,1.091158 1.3726563,0.9848267 1.4784362,0.91056387 1.5891741,0.86836913 1.7015648,0.82448603 1.8246993,0.8025448 1.9585765,0.8025448 c 0.1123908,0 0.2198235,0.0194096 0.3222975,0.0582291 0.1041267,0.0371317 0.1991633,0.0827018 0.2851093,0.13671162 0.085946,0.0540092 0.1628015,0.10970618 0.2305665,0.16709138 0.067765,0.055697 0.1239605,0.1037991 0.1685862,0.1443063 h 0.09421 V 0.41013309 C 2.9981922,0.37806444 2.918031,0.34008957 2.8188628,0.29620647 2.7196943,0.25232403 2.6279633,0.21772387 2.5436703,0.19240728 2.436238,0.16202697 2.3238468,0.13839808 2.2064976,0.12151991 2.0891485,0.10464175 1.9569235,0.09620266 1.8098239,0.09620266 Z m 13.6232631,0 c -0.55369,0 -0.994164,0.17806324 -1.32142,0.53418711 -0.325602,0.35443693 -0.488403,0.83039553 -0.488403,1.42787403 0,0.6194199 0.162801,1.1004423 0.488403,1.4430647 0.325603,0.340934 0.76525,0.5114014 1.318941,0.5114014 0.17685,0 0.315686,-0.00928 0.416508,-0.027849 0.10082,-0.018563 0.20908,-0.04557 0.324776,-0.081014 0.09421,-0.028693 0.185941,-0.063292 0.275193,-0.1037992 0.08925,-0.042195 0.16776,-0.079326 0.235525,-0.1113943 V 2.8025816 h -0.08429 c -0.04628,0.042194 -0.100821,0.090297 -0.163627,0.1443062 -0.06281,0.054009 -0.135531,0.1071754 -0.218171,0.159497 -0.07603,0.050634 -0.169413,0.097047 -0.280152,0.1392431 -0.110737,0.040506 -0.227261,0.06076 -0.349568,0.06076 -0.117349,0 -0.235525,-0.021098 -0.354527,-0.063293 C 15.114926,3.2009009 15.008319,3.1325441 14.912456,3.0380279 14.813286,2.9401359 14.733128,2.811863 14.671974,2.6532108 14.610824,2.49287 14.580244,2.2953979 14.580244,2.0607946 c 0,-0.2227883 0.02892,-0.4160414 0.08677,-0.5797573 0.0595,-0.1637159 0.13553,-0.2936762 0.228087,-0.3898802 0.100821,-0.10633129 0.206601,-0.18059412 0.317339,-0.22278887 0.112392,-0.0438831 0.235526,-0.0658243 0.369403,-0.0658243 0.112391,0 0.219824,0.0194096 0.322297,0.0582291 0.104127,0.0371317 0.199163,0.0827018 0.28511,0.13671162 0.08594,0.0540093 0.1628,0.10970615 0.230566,0.16709135 0.06776,0.055697 0.123961,0.1037991 0.168587,0.1443063 h 0.09421 V 0.41013309 C 16.621456,0.37806444 16.541294,0.34008957 16.442125,0.29620647 16.342957,0.25232403 16.251227,0.21772387 16.166933,0.19240728 16.059501,0.16202697 15.94711,0.13839808 15.829762,0.12151991 15.712412,0.10464175 15.580187,0.09620266 15.433087,0.09620266 Z m 19.59816,0 c -0.55369,0 -0.994162,0.17806324 -1.321417,0.53418711 -0.325605,0.35443693 -0.488405,0.83039553 -0.488405,1.42787403 0,0.6194199 0.1628,1.1004423 0.488405,1.4430647 0.3256,0.340934 0.76525,0.5114014 1.31894,0.5114014 0.176847,0 0.315685,-0.00928 0.416507,-0.027849 0.10082,-0.018563 0.20908,-0.04557 0.324775,-0.081014 0.09421,-0.028693 0.18594,-0.063292 0.275193,-0.1037992 0.08925,-0.042195 0.16776,-0.079326 0.235525,-0.1113943 V 2.8025816 h -0.08429 c -0.04628,0.042194 -0.100823,0.090297 -0.163628,0.1443062 -0.06281,0.054009 -0.13553,0.1071754 -0.218172,0.159497 -0.07603,0.050634 -0.169413,0.097047 -0.28015,0.1392431 -0.110738,0.040506 -0.22726,0.06076 -0.349568,0.06076 -0.11735,0 -0.235525,-0.021098 -0.354527,-0.063293 C 34.713083,3.200901 34.606478,3.132545 34.510613,3.0380288 34.411445,2.9401364 34.331285,2.8118639 34.27013,2.6532117 34.208978,2.4928709 34.1784,2.2953988 34.1784,2.0607955 c 0,-0.2227883 0.02892,-0.4160414 0.08677,-0.5797573 0.0595,-0.1637159 0.13553,-0.2936762 0.228087,-0.3898802 0.10082,-0.10633129 0.2066,-0.18059412 0.317338,-0.22278887 0.112392,-0.0438831 0.235525,-0.0658243 0.369402,-0.0658243 0.112393,0 0.219825,0.0194096 0.322298,0.0582291 0.104127,0.0371317 0.199165,0.0827018 0.28511,0.13671162 0.08595,0.0540091 0.162802,0.10970615 0.230565,0.16709135 0.06777,0.055697 0.123962,0.1037991 0.168587,0.1443063 h 0.09421 V 0.41013309 C 36.219617,0.37806442 36.139452,0.34008953 36.040285,0.29620647 35.941115,0.25232406 35.849385,0.21772385 35.765092,0.19240728 35.657663,0.16202697 35.54527,0.13839808 35.427923,0.12151991 35.310573,0.10464172 35.178348,0.09620267 35.031247,0.09620266 Z M 8.8706162,0.10126442 c -0.4379935,0 -0.8032647,0.10970676 -1.0958112,0.32912026 -0.2925468,0.21772516 -0.4388203,0.50296298 -0.4388203,0.85571142 0,0.2616076 0.061981,0.4793341 0.185941,0.6531761 0.1239603,0.1738429 0.3289093,0.3122421 0.6148443,0.4151981 0.1239602,0.043882 0.2570115,0.081014 0.3991527,0.1113939 0.143794,0.030381 0.2784981,0.062448 0.4041116,0.096204 0.1008212,0.027004 0.1875937,0.070043 0.260317,0.1291163 0.072723,0.059072 0.1090852,0.1358676 0.1090852,0.2303842 0,0.08439 -0.022312,0.1527454 -0.066939,0.2050671 -0.044626,0.050634 -0.099169,0.090297 -0.1636278,0.1189895 -0.05289,0.025317 -0.1231342,0.043882 -0.2107327,0.055697 -0.085946,0.011814 -0.155364,0.017721 -0.2082538,0.017721 -0.2099062,0 -0.4264248,-0.043039 -0.6495535,-0.1291164 C 7.7872015,3.1038501 7.5830795,2.9806406 7.397965,2.8203008 H 7.313672 v 0.8962185 c 0.1834612,0.082702 0.3817987,0.1519013 0.5950108,0.2075981 0.2148645,0.055698 0.4636125,0.083547 0.7462422,0.083547 0.4908833,0 0.8801203,-0.1139268 1.1677088,-0.3417786 0.2892402,-0.227852 0.4338622,-0.5291241 0.4338622,-0.9038137 0,-0.2616084 -0.06281,-0.471739 -0.188421,-0.6303913 C 9.944114,1.9713409 9.7540415,1.8439122 9.4978565,1.7493959 9.367285,1.7021374 9.2441505,1.6650057 9.1284543,1.6380015 9.014411,1.6109965 8.8954082,1.5831478 8.771448,1.5544551 8.5797225,1.508885 8.4499765,1.4582511 8.382212,1.4025543 8.3160995,1.345169 8.2830435,1.2683741 8.2830435,1.1721702 c 0,-0.065825 0.02066,-0.1248973 0.06198,-0.17721874 0.042973,-0.0540092 0.093383,-0.0945163 0.1512318,-0.12152121 0.07107,-0.0337556 0.1388358,-0.0565407 0.2032955,-0.0683559 0.064459,-0.0118145 0.137183,-0.0177215 0.2181705,-0.0177215 0.2082532,0 0.4107225,0.0413509 0.607407,0.12405272 C 9.723465,0.99410751 9.891225,1.0953752 10.028408,1.2152086 h 0.08181 V 0.35443687 C 9.9383297,0.27679807 9.7432987,0.21519364 9.5251285,0.16962351 9.3086102,0.12405273 9.0904398,0.10126768 8.8706163,0.10126768 Z m 22.7070908,0 c -0.437992,0 -0.803265,0.10970676 -1.09581,0.32912026 -0.292547,0.21772516 -0.438822,0.50296298 -0.438822,0.85571142 0,0.2616076 0.06198,0.4793341 0.185942,0.6531761 0.12396,0.1738429 0.328908,0.3122421 0.614845,0.4151981 0.12396,0.043882 0.25701,0.081014 0.399153,0.1113939 0.143792,0.030381 0.278497,0.062448 0.40411,0.096204 0.100822,0.027004 0.187595,0.070043 0.260317,0.1291163 0.07272,0.059072 0.109085,0.1358676 0.109085,0.2303842 0,0.08439 -0.02233,0.1527454 -0.06694,0.2050671 -0.04463,0.050634 -0.09917,0.090297 -0.163628,0.1189895 -0.05289,0.025317 -0.123135,0.043882 -0.210735,0.055697 -0.08595,0.011814 -0.155362,0.017721 -0.208252,0.017721 -0.209905,0 -0.426425,-0.043039 -0.649553,-0.1291164 -0.22313,-0.086078 -0.427252,-0.2092867 -0.612367,-0.3696265 h -0.08429 V 3.716519 c 0.18346,0.082702 0.381797,0.1519013 0.59501,0.2075981 0.214865,0.055698 0.463612,0.083547 0.746242,0.083547 0.490883,0 0.880118,-0.1139268 1.167708,-0.3417786 0.28924,-0.227852 0.433862,-0.5291241 0.433862,-0.9038137 0,-0.2616084 -0.06281,-0.471739 -0.188422,-0.6303913 C 32.651205,1.97134 32.461132,1.8439113 32.204947,1.749395 32.074377,1.702137 31.951242,1.665005 31.835547,1.6380006 31.721502,1.6109956 31.6025,1.5831466 31.47854,1.5544546 c -0.191725,-0.04557 -0.321473,-0.096204 -0.389238,-0.1519008 -0.06611,-0.057385 -0.09917,-0.1341802 -0.09917,-0.2303841 0,-0.065825 0.02065,-0.1248973 0.06198,-0.17721875 0.04297,-0.0540093 0.09338,-0.0945163 0.151232,-0.12152123 0.07107,-0.0337557 0.138835,-0.0565407 0.203295,-0.0683559 0.06446,-0.0118144 0.137183,-0.0177215 0.21817,-0.0177215 0.208255,0 0.410723,0.0413509 0.607408,0.12405271 0.198335,0.0827018 0.366097,0.18396947 0.503277,0.30380297 h 0.08181 V 0.35443687 C 32.645422,0.27679807 32.45039,0.21519364 32.23222,0.16962351 32.015702,0.12405273 31.797532,0.10126768 31.577707,0.10126768 Z m 15.036413,0 c -0.437993,0 -0.803265,0.10970676 -1.09581,0.32912026 -0.292547,0.21772516 -0.43882,0.50296298 -0.43882,0.85571142 0,0.2616076 0.06198,0.4793341 0.18594,0.6531761 0.12396,0.1738429 0.32891,0.3122421 0.614845,0.4151981 0.12396,0.043882 0.25701,0.081014 0.399153,0.1113939 0.143795,0.030381 0.278497,0.062448 0.404112,0.096204 0.10082,0.027004 0.187593,0.070043 0.260315,0.1291163 0.07272,0.059072 0.109085,0.1358676 0.109085,0.2303842 0,0.08439 -0.0223,0.1527454 -0.06694,0.2050671 -0.04462,0.050634 -0.09917,0.090297 -0.163627,0.1189895 -0.05289,0.025317 -0.123135,0.043882 -0.210732,0.055697 -0.08595,0.011814 -0.155366,0.017721 -0.208256,0.017721 -0.209904,0 -0.426425,-0.043039 -0.649552,-0.1291164 -0.22313,-0.086078 -0.427253,-0.2092867 -0.612365,-0.3696265 h -0.08429 V 3.716519 c 0.183462,0.082702 0.3818,0.1519013 0.595013,0.2075981 0.214865,0.055698 0.463612,0.083547 0.746242,0.083547 0.490883,0 0.88012,-0.1139268 1.167708,-0.3417786 C 47.85538,3.4380345 48,3.1367624 48,2.7620728 48,2.5004644 47.937193,2.2903338 47.81158,2.1316816 47.68762,1.9713409 47.497547,1.8439122 47.24136,1.7493959 47.11079,1.7021374 46.987655,1.6650057 46.871957,1.6380015 46.757915,1.6109964 46.638913,1.5831478 46.514952,1.5544551 46.323228,1.508885 46.193483,1.4582511 46.125715,1.4025543 c -0.06611,-0.057385 -0.09917,-0.1341802 -0.09917,-0.2303841 0,-0.065825 0.02065,-0.1248973 0.06198,-0.17721874 0.04297,-0.0540093 0.09338,-0.0945163 0.151233,-0.1215212 0.07107,-0.0337557 0.138835,-0.0565408 0.203295,-0.0683559 0.06446,-0.0118144 0.137182,-0.0177215 0.218172,-0.0177215 0.208253,0 0.41072,0.0413509 0.607405,0.12405274 0.198338,0.0827018 0.366098,0.1839695 0.50328,0.3038029 h 0.08181 V 0.35443687 C 47.681835,0.27679807 47.486802,0.21519364 47.268632,0.16962351 47.052115,0.12405273 46.833945,0.10126768 46.61412,0.10126768 Z M 10.348226,0.16962028 V 0.8886207 h 1.090853 v 3.0506917 h 0.927224 V 0.88862396 h 1.090853 V 0.16962351 Z m 12.277052,0 V 3.9393124 h 0.922266 V 2.5570089 h 0.332214 l 1.028873,1.3823035 H 26.03915 L 24.797066,2.3367516 c 0.213211,-0.1063314 0.383451,-0.2489499 0.510717,-0.4278557 0.127267,-0.1805942 0.190899,-0.4151982 0.190899,-0.7038107 0,-0.204223 -0.03884,-0.37215879 -0.116522,-0.50380678 C 25.304477,0.56794277 25.199525,0.45823604 25.0673,0.37215884 24.938381,0.28945702 24.797893,0.23544717 24.645834,0.21013057 24.493776,0.18312565 24.315273,0.16962351 24.110325,0.16962351 Z m 18.110634,0 V 3.9393124 h 2.496565 V 3.2203118 h -1.5743 v -0.951916 h 1.45034 V 1.5493954 h -1.45034 V 0.88862396 h 1.5743 V 0.16962351 Z M 5.1790715,0.80254288 c 0.107432,0 0.2107327,0.0227855 0.3099012,0.0683559 0.100821,0.0438824 0.190899,0.11730201 0.2702338,0.22025732 0.076029,0.1012676 0.1363568,0.2312279 0.1809823,0.3898802 0.046279,0.1569652 0.069418,0.347686 0.069418,0.5721626 0,0.2362911 -0.021488,0.4278558 -0.064459,0.5746935 -0.042973,0.1451508 -0.1041272,0.2725795 -0.183462,0.3822856 -0.074376,0.1012678 -0.1628012,0.176375 -0.265275,0.2253206 -0.1024737,0.047259 -0.2082537,0.070888 -0.317339,0.070888 -0.1074325,0 -0.2115597,-0.021941 -0.3123807,-0.065825 C 4.7658697,3.1949919 4.6757915,3.119885 4.5964567,3.0152417 4.518775,2.9122864 4.457621,2.7848576 4.412995,2.6329562 4.3683695,2.479367 4.3460565,2.2869578 4.3460565,2.0557305 c 0,-0.2244766 0.02314,-0.417729 0.069418,-0.5797574 C 4.4634058,1.313945 4.5253863,1.1839847 4.6014153,1.0860923 4.687361,0.97976161 4.7766128,0.90634209 4.86917,0.86583501 4.9617272,0.82364024 5.0650275,0.80254288 5.1790715,0.80254288 Z m 13.6232625,0 c 0.107433,0 0.210734,0.0227855 0.309902,0.0683559 0.100821,0.0438824 0.190899,0.11730201 0.270234,0.22025732 0.07603,0.1012676 0.136357,0.2312279 0.180982,0.3898802 0.04628,0.1569652 0.06942,0.347686 0.06942,0.5721626 0,0.2362911 -0.02149,0.4278558 -0.06446,0.5746935 -0.04297,0.1451508 -0.104127,0.2725795 -0.183462,0.3822856 -0.07438,0.1012678 -0.162802,0.176375 -0.265276,0.2253206 -0.102473,0.047259 -0.208253,0.070888 -0.317339,0.070888 -0.107432,0 -0.211559,-0.021941 -0.31238,-0.065825 C 18.389133,3.1949924 18.299055,3.119885 18.21972,3.0152417 18.14204,2.9122864 18.080885,2.7848576 18.036259,2.6329562 17.991629,2.479367 17.969319,2.2869578 17.969319,2.0557305 c 0,-0.2244766 0.02314,-0.417729 0.06942,-0.5797574 0.04793,-0.1620281 0.109913,-0.2919884 0.185941,-0.3898808 0.08595,-0.10633069 0.175199,-0.17975021 0.267755,-0.22025729 0.09256,-0.0421947 0.195858,-0.0632921 0.309901,-0.0632921 z m 9.083828,0 c 0.107433,0 0.210733,0.0227855 0.309903,0.0683559 0.10082,0.0438824 0.1909,0.11730201 0.270232,0.22025732 0.07603,0.1012676 0.136358,0.2312279 0.180983,0.3898802 0.04628,0.1569652 0.06942,0.347686 0.06942,0.5721626 0,0.2362911 -0.02147,0.4278558 -0.06446,0.5746935 -0.04297,0.1451508 -0.104128,0.2725795 -0.183463,0.3822856 -0.07438,0.1012678 -0.162802,0.176375 -0.265275,0.2253206 -0.102475,0.047259 -0.208255,0.070888 -0.31734,0.070888 -0.107432,0 -0.21156,-0.021941 -0.31238,-0.065825 -0.100822,-0.04557 -0.1909,-0.1206771 -0.270235,-0.2253204 -0.07768,-0.1029553 -0.138835,-0.2303841 -0.18346,-0.3822855 -0.04463,-0.1535892 -0.06694,-0.3459984 -0.06694,-0.5772257 0,-0.2244766 0.02315,-0.417729 0.06942,-0.5797573 0.04793,-0.1620282 0.109912,-0.2919885 0.185942,-0.3898809 0.08595,-0.10633062 0.175198,-0.17975015 0.267755,-0.22025722 0.09256,-0.0421947 0.195858,-0.0632921 0.3099,-0.0632921 z m 10.514333,0 c 0.107432,0 0.210735,0.0227855 0.309902,0.0683559 0.10082,0.0438824 0.190898,0.11730201 0.270233,0.22025732 0.07603,0.1012676 0.136357,0.2312279 0.180982,0.3898802 0.04628,0.1569652 0.06942,0.347686 0.06942,0.5721626 0,0.2362911 -0.02147,0.4278558 -0.06446,0.5746935 -0.04297,0.1451508 -0.104127,0.2725795 -0.183462,0.3822856 -0.07438,0.1012678 -0.162803,0.176375 -0.265275,0.2253206 -0.102475,0.047259 -0.208253,0.070888 -0.31734,0.070888 -0.107433,0 -0.21156,-0.021941 -0.31238,-0.065825 C 37.987292,3.1949914 37.897215,3.1198848 37.81788,3.0152415 37.7402,2.9122862 37.679045,2.7848574 37.63442,2.632956 37.58979,2.4793668 37.56748,2.2869576 37.56748,2.0557303 c 0,-0.2244766 0.02315,-0.417729 0.06942,-0.5797573 0.04793,-0.1620282 0.10991,-0.2919885 0.18594,-0.3898809 0.08595,-0.10633066 0.175198,-0.17975019 0.267755,-0.22025726 0.09256,-0.0421947 0.195858,-0.0632921 0.3099,-0.063292 z m -14.852951,0.0607605 h 0.309902 c 0.105779,0 0.194205,0.003376 0.265275,0.0101268 0.07107,0.006751 0.13553,0.0227856 0.193378,0.0481022 0.08264,0.0371316 0.141316,0.0902971 0.176024,0.15949662 0.03636,0.067512 0.05454,0.1485263 0.05454,0.2430425 0,0.1063307 -0.01488,0.1924085 -0.04463,0.2582322 -0.0281,0.065825 -0.0719,0.1223651 -0.131397,0.1696235 -0.06281,0.052322 -0.139663,0.086922 -0.230567,0.1037993 -0.08925,0.015191 -0.198338,0.022785 -0.327256,0.022785 H 23.547544 Z M 20.321595,15.671042 c -0.603413,0 -1.076928,0.191031 -1.420712,0.573175 -0.343783,0.380315 -0.515676,0.89868 -0.515676,1.555092 0,0.634469 0.161962,1.13912 0.486049,1.513951 0.325879,0.37483 0.771725,0.575046 1.337535,0.600644 0.0072,0.15359 0.03496,0.297165 0.0833,0.430641 0.05013,0.133476 0.1244,0.248669 0.22288,0.345576 0.09848,0.09873 0.221215,0.174573 0.368039,0.227599 C 21.031625,20.972573 21.211575,21 21.422858,21 c 0.23098,0 0.400186,-0.0063 0.507619,-0.01912 0.109222,-0.01279 0.217468,-0.03295 0.3249,-0.06038 v -0.729507 h -0.09929 c -0.03939,0.02194 -0.104787,0.04471 -0.196105,0.06848 -0.08953,0.0256 -0.174536,0.03848 -0.255111,0.03848 -0.209492,0 -0.3564,-0.0384 -0.440555,-0.115192 -0.08236,-0.07496 -0.125338,-0.2121 -0.128919,-0.4114 0.358108,-0.144447 0.634747,-0.388544 0.829916,-0.732291 0.196959,-0.345576 0.295521,-0.75889 0.295521,-1.23977 0,-0.660067 -0.172828,-1.179262 -0.518403,-1.55775 -0.345573,-0.38031 -0.819213,-0.57051 -1.420835,-0.57051 z m 8.299157,0 c -0.603412,0 -1.076927,0.191031 -1.42071,0.573175 -0.343785,0.380315 -0.515677,0.89868 -0.515677,1.555092 0,0.650926 0.171892,1.168459 0.515677,1.552434 0.343783,0.382144 0.817298,0.573174 1.42071,0.573174 0.601623,0 1.075263,-0.189245 1.420835,-0.567732 0.345575,-0.378487 0.518403,-0.897808 0.518403,-1.557876 0,-0.660068 -0.172828,-1.179263 -0.518403,-1.55775 -0.345572,-0.380317 -0.819212,-0.570517 -1.420835,-0.570517 z m -15.808687,0.08506 v 4.083746 h 2.669739 v -0.778872 h -1.665161 v -3.30487 z m 2.986707,0 v 0.713051 h 0.57468 V 19.1268 h -0.57468 v 0.713051 H 17.95271 V 19.1268 h -0.574682 v -2.657644 h 0.574682 v -0.713051 z m 6.999182,0 v 2.608277 c 0,0.510136 0.144098,0.897681 0.432374,1.162805 0.290068,0.265125 0.703684,0.397729 1.240845,0.397729 0.553277,0 0.970517,-0.134392 1.251629,-0.403172 0.282908,-0.270609 0.424318,-0.657326 0.424318,-1.160148 v -2.605491 h -1.004452 v 2.547896 c 0,0.294378 -0.05465,0.508307 -0.163876,0.641783 -0.107433,0.133476 -0.276638,0.200257 -0.507618,0.200257 -0.236351,0 -0.407307,-0.06953 -0.512949,-0.208485 -0.103851,-0.138961 -0.155818,-0.350146 -0.155818,-0.633555 v -2.547896 z m 8.355561,0 v 4.083746 h 0.999122 v -1.497496 h 0.359858 l 1.114652,1.497496 h 1.22473 l -1.345592,-1.736107 c 0.23098,-0.115192 0.415365,-0.269612 0.553235,-0.463427 0.137872,-0.195643 0.206892,-0.449881 0.206892,-0.762545 0,-0.221241 -0.04216,-0.403088 -0.126317,-0.545707 -0.08416,-0.144446 -0.197773,-0.263338 -0.341015,-0.356588 -0.139663,-0.0896 -0.29194,-0.148146 -0.45667,-0.175573 -0.16473,-0.02926 -0.358108,-0.0438 -0.580135,-0.0438 z m -10.829193,0.685583 c 0.116385,0 0.228253,0.02468 0.335685,0.07405 0.109223,0.04754 0.206849,0.127077 0.292796,0.238613 0.08236,0.109706 0.14776,0.250538 0.196105,0.422411 0.05014,0.170047 0.07512,0.376703 0.07512,0.619886 0,0.255981 -0.02323,0.463467 -0.06979,0.622543 -0.04655,0.157245 -0.112762,0.295335 -0.198707,0.414185 -0.08057,0.109707 -0.176452,0.191029 -0.287465,0.244054 -0.111014,0.0512 -0.225567,0.07683 -0.343743,0.07683 -0.116385,0 -0.22919,-0.02385 -0.338412,-0.07139 -0.109224,-0.04937 -0.206849,-0.130692 -0.292795,-0.244056 -0.08415,-0.111534 -0.150364,-0.249625 -0.198709,-0.414184 -0.04834,-0.166389 -0.07252,-0.374831 -0.07252,-0.625328 0,-0.243184 0.02511,-0.452456 0.07524,-0.627986 0.05193,-0.175531 0.119072,-0.316363 0.201436,-0.422413 0.09311,-0.115192 0.189798,-0.19473 0.290068,-0.238612 0.10027,-0.04571 0.212138,-0.06861 0.335685,-0.06861 z m 8.299158,0 c 0.116385,0 0.228252,0.02468 0.335685,0.07405 0.109223,0.04754 0.20685,0.127077 0.292795,0.238613 0.08236,0.109706 0.14776,0.250538 0.196105,0.422411 0.05014,0.170047 0.07512,0.376703 0.07512,0.619886 0,0.255981 -0.02323,0.463467 -0.06979,0.622543 -0.04655,0.157245 -0.112762,0.295335 -0.198708,0.414185 -0.08057,0.109707 -0.176452,0.191029 -0.287465,0.244054 -0.111012,0.0512 -0.225567,0.07683 -0.343742,0.07683 -0.116385,0 -0.229188,-0.02385 -0.338413,-0.07139 -0.109222,-0.04937 -0.206847,-0.130692 -0.292795,-0.244056 -0.08415,-0.111534 -0.150362,-0.249625 -0.198707,-0.414184 -0.04835,-0.166389 -0.07252,-0.374831 -0.07252,-0.625328 0,-0.243184 0.02511,-0.452456 0.07525,-0.627986 0.05193,-0.175531 0.11907,-0.316363 0.201435,-0.422413 0.09311,-0.115192 0.189798,-0.19473 0.290068,-0.238612 0.10027,-0.04571 0.212137,-0.06861 0.335685,-0.06861 z m 3.529157,0.06582 h 0.335685 c 0.114595,0 0.21047,0.0037 0.287465,0.01101 0.07699,0.0073 0.146823,0.02472 0.209493,0.05215 0.08953,0.04023 0.15305,0.09783 0.190652,0.172787 0.03939,0.07314 0.05913,0.160904 0.05913,0.263297 0,0.115192 -0.01612,0.208443 -0.04834,0.279751 -0.03044,0.07131 -0.07797,0.132478 -0.14243,0.183675 -0.06804,0.05668 -0.1513,0.09425 -0.24978,0.112533 -0.09669,0.01646 -0.214865,0.02468 -0.354528,0.02468 h -0.28734 z" fill="url(#linearGradient2271)" />
</svg>
