<svg
   width="192"
   height="83"
   viewBox="0 0 192 83"
   fill="none"
   xml:space="preserve"
   xmlns:xlink="http://www.w3.org/1999/xlink"
   xmlns="http://www.w3.org/2000/svg"
   xmlns:svg="http://www.w3.org/2000/svg">
     <linearGradient
       id="linearGradient2277"><stop
         style="stop-color:#0240bc;stop-opacity:1;"
         offset="0"
         id="stop2273" /><stop
         style="stop-color:#9dd0f0;stop-opacity:1;"
         offset="1"
         id="stop2275" /></linearGradient><linearGradient
       xlink:href="#linearGradient2277"
       id="linearGradient2271"
       gradientUnits="userSpaceOnUse"
       x1="97.389809"
       y1="302.42535"
       x2="740.34424"
       y2="545.52002"
       gradientTransform="matrix(0.25387118,0,0,0.25615898,-5.5430194,-64.480021)" />
       <path
     id="path1367"
     style="display:inline;fill:#0975cf;fill-opacity:1;stroke-width:0.448782"
     d="m 160.43122,16.776912 c -2.0233,0.01867 -4.02135,1.131354 -3.76593,3.382101 0.46265,5.954665 0.39817,10.874156 -0.98523,16.363153 l 4.97528,3.416619 4.85131,-3.764335 c -1.19086,-5.724077 -1.80964,-10.802044 -1.1568,-16.216064 0.15352,-2.124885 -1.89533,-3.200156 -3.91863,-3.181474 z m -41.28283,0.11407 c -1.24837,0.0077 -2.58011,0.309827 -2.57045,1.152216 l 0.0431,8.794458 c -0.0213,1.334476 5.42576,1.265036 5.46121,-0.07854 l 0.0932,-6.67164 c 0.002,-0.547737 -1.11289,-0.585813 -1.0973,-0.08256 l 0.0744,6.359446 c -0.007,0.585165 -3.55834,0.68283 -3.54229,-0.05604 l 0.0962,-8.024482 c -0.0333,-0.435627 0.95665,-0.466312 1.63331,-0.448279 1.21094,0.02729 1.92833,0.454283 1.92833,0.454283 0,0 -1.12107,0.358633 -2.26402,0.343212 -0.97496,-7.54e-4 -0.9746,0.975253 -0.0392,1.016631 1.26247,-0.02165 3.28918,-0.417017 3.29636,-1.388361 -0.0123,-0.704583 -0.77552,-1.31716 -2.86448,-1.367848 -0.0821,-0.002 -0.16519,-0.003 -0.24842,-0.0025 z m 41.43158,0.753469 c 0.66738,0.0048 1.32812,0.150671 2.05279,0.472792 l 0.0377,0.470293 c -1.6861,0.454964 -2.59762,0.496441 -4.17995,0.02952 l -0.003,-0.599871 c 0.75147,-0.24152 1.42556,-0.377575 2.09295,-0.372731 z m -2.68598,1.897677 c 1.46832,0.678268 3.56137,0.738911 5.24254,0.05754 -0.34082,6.454454 0.49152,11.404157 1.13548,16.103995 l -3.65585,2.865782 -3.63303,-2.714689 c 1.2985,-4.799496 1.01215,-10.727202 0.91086,-16.312624 z M 29.092548,22.495961 c -0.234079,0.02064 -0.445511,0.130013 -0.455183,0.33921 0.64318,3.204893 0.718181,6.144778 0.01338,8.721914 -0.217276,0.51086 -0.09661,1.218382 0.26478,1.532951 3.081991,1.284457 4.192542,3.190465 4.283086,5.672522 0.04256,8.463408 0.07607,16.07037 -0.75021,25.853542 -0.565757,0.979419 1.16372,1.210544 1.103743,-3.78e-4 0.455813,-8.945751 0.749981,-18.481421 0.74922,-26.585001 0.03785,-2.579996 -2.979547,-5.110796 -4.650009,-5.603976 0.974655,-2.834592 0.63073,-6.507192 0.03322,-9.737544 -0.101015,-0.145793 -0.357956,-0.21376 -0.592035,-0.19312 z m -5.334766,0.09356 c -0.212262,-0.001 -0.424523,0.103055 -0.490885,0.307191 -0.96713,3.442856 -0.713097,6.57806 -0.02925,9.604461 -3.675459,1.529613 -4.364094,3.972445 -4.664388,6.534056 0.606175,13.999456 0.295823,26.345581 0.936646,26.698569 3.691789,2.314715 7.861789,2.699586 12.590922,0.82751 0.671844,-0.463526 0.208778,-1.296076 -0.438327,-0.952588 -2.996215,1.484335 -9.110546,0.95135 -11.067693,-0.770983 -0.516181,-0.455315 -0.524787,-12.677182 -0.826072,-26.081686 -0.103007,-3.802824 2.76213,-4.318047 4.493818,-6.069765 -0.424054,-3.240741 -0.724114,-6.428268 -0.01389,-9.773065 -0.06636,-0.216311 -0.278629,-0.322711 -0.490883,-0.3237 z m 88.453778,18.284347 c -0.3932,-0.02033 -0.77436,0.744793 -0.33221,1.047648 1.24964,2.891192 9.07409,3.847421 12.92958,1.91169 0.56696,-0.405277 0.18309,-1.420054 -0.50725,-1.023635 -3.11748,1.725563 -11.31721,1.282233 -11.82584,-1.781109 -0.082,-0.103722 -0.17354,-0.149905 -0.26428,-0.154594 z m 48.70905,7.778828 c -5.45707,-0.03014 -7.40074,3.653474 -7.39747,7.082896 0.0103,5.201308 3.17861,7.083242 7.23236,7.106912 4.51281,-0.06961 6.98835,-3.074916 7.03451,-6.911289 -0.0195,-3.696737 -2.26267,-7.285386 -6.8694,-7.278519 z m 0.0183,1.596991 c 3.00175,0.07776 5.33358,1.691692 5.39476,5.624491 -0.0131,3.915235 -2.8654,5.596389 -5.66252,5.641001 -2.92186,-0.003 -5.85447,-1.975494 -5.8544,-5.749067 0.0604,-2.481202 1.26908,-5.514119 6.12216,-5.516425 z m -48.60245,8.051498 c -0.3542,0.01671 -0.69559,0.253264 -0.5127,0.67842 1.3233,4.128491 9.75205,3.657232 13.05651,2.180354 0.56697,-0.405279 -0.0861,-1.256957 -0.77648,-0.860533 -3.91083,1.678878 -10.70876,0.768429 -11.15794,-1.623507 -0.0508,-0.267815 -0.3339,-0.387749 -0.60939,-0.374734 z" /><path
     id="path555-9-4-7"
     style="display:inline;fill:#e2c439;fill-opacity:1;stroke-width:0.129534"
     d="m 95.059387,20.347128 c -2.906962,0.03926 -5.794005,0.717271 -5.798872,1.723571 l 0.003,3.470152 c -0.01065,1.409213 8.63046,1.469053 10.249054,0.647401 0.566961,-0.405272 0.147892,-1.420056 -0.542449,-1.023635 -1.905578,0.998977 -8.487247,0.454089 -8.491792,-0.551341 l -0.04264,-1.939705 c 0.03176,-1.415439 8.194868,-1.224345 9.183492,-0.365725 l 0.02527,2.235886 c 0.04074,0.495027 1.2046,0.60922 1.17515,0.0065 l 0.0144,-2.602613 c -0.62942,-1.172311 -3.209608,-1.635132 -5.774574,-1.600495 z m 64.445593,5.151697 c -1.11366,-0.02341 -1.16758,1.189268 -0.24841,1.20725 l 2.72415,0.05554 c 0.86156,0.02412 0.65539,-1.199656 -0.0337,-1.216255 z m 0.9312,7.97695 c -0.52972,-0.01234 -1.06493,0.215025 -1.34374,0.789492 -0.36387,0.882816 -0.39994,1.585596 0.50675,2.136325 0.50252,0.300347 1.48187,0.28104 1.99428,-0.446278 0.15627,-0.207911 -0.14999,-0.604937 -0.41254,-0.320698 -0.30238,0.34679 -0.73504,0.395238 -1.32836,0.252155 -0.41384,-0.257757 -0.58067,-0.678921 -0.28263,-1.304809 0.26641,-0.726544 1.99901,-0.448835 1.7885,0.190118 -0.14033,0.350813 0.32,0.601823 0.47205,0.271168 0.35671,-0.859821 -0.51145,-1.546886 -1.39431,-1.567473 z m -103.680102,0.346716 -8.721368,0.956593 0.04958,28.636274 c -0.0026,0.377257 1.032375,-0.0023 1.02441,-0.364227 l -0.0074,-27.138342 6.515366,-0.748466 0.02479,28.050409 -7.081616,0.993117 c -1.047881,0.13443 -0.840521,1.360381 0.198334,1.19274 L 56.806188,64.1323 Z m 33.252165,14.41995 c -0.393192,-0.02033 -0.774364,0.745298 -0.332213,1.04815 4.213511,0.988093 7.45755,1.182996 10.77415,0.0086 0.56697,-0.405275 0.022,-1.311487 -0.668391,-0.915068 -2.416935,0.583709 -6.521764,1.010623 -9.509261,0.01351 -0.08203,-0.103727 -0.173547,-0.150415 -0.264285,-0.155101 z m 70.206287,5.983214 c -0.60562,0.0034 -1.2858,0.696403 -1.21481,1.411875 0.12082,0.891752 0.60101,1.562607 1.47711,1.62351 0.48347,0.02969 1.338,-0.353995 1.24011,-1.08968 0.0214,-0.240855 -0.34702,-0.348087 -0.37784,-0.150592 -0.0666,0.530898 -0.49894,0.667447 -0.89548,0.663912 -0.40262,-0.03312 -0.81373,-0.04037 -0.97136,-0.993118 -0.0791,-0.565437 0.54082,-0.929098 0.91284,-0.928071 0.34234,0.0041 0.7929,0.131551 0.87765,0.625888 0.051,0.352489 0.48334,0.359895 0.44923,0.01897 -0.0725,-0.632305 -0.78033,-1.14208 -1.43894,-1.181233 -0.0194,-0.0011 -0.039,-0.0015 -0.0585,-0.0015 z m -3.8636,1.028139 c -0.80238,-0.02305 -1.05466,0.949645 -0.43683,1.031136 l 2.14451,0.197622 c 0.54844,0.26608 0.6652,-1.016606 0.12,-1.09818 l -1.74834,-0.125078 c -0.027,-0.003 -0.0534,-0.0047 -0.0793,-0.0054 z m 8.45857,0.01248 -1.74238,0.194625 c -0.86688,0.06638 -0.96762,1.135738 -0.32528,1.10268 l 2.14502,-0.195117 c 0.58694,0.162148 0.47349,-1.120934 -0.0774,-1.102188 z m -74.742746,2.609623 c -0.393195,-0.02033 -0.774368,0.744797 -0.332216,1.047652 4.267402,1.477457 7.61937,1.07422 10.828202,0.171606 0.56696,-0.405277 -0.0861,-1.420058 -0.776489,-1.023639 -2.14749,0.801203 -7.329933,1.010462 -9.455212,-0.04103 -0.08203,-0.103723 -0.173546,-0.149905 -0.264285,-0.154594 z" /><path
     id="path1058"
     style="display:inline;fill:#7b040f;fill-opacity:1;stroke-width:0.259883"
     d="m 49.407697,18.895227 c -1.380371,-0.02559 -2.755871,0.369686 -2.741013,1.236768 l -0.0049,8.252121 c -0.01973,1.655788 5.463423,1.774426 5.459719,-0.109567 l 0.05454,-8.092524 c -0.003,-0.814659 -1.387916,-1.261193 -2.768287,-1.286798 z m 0.08777,1.012629 c 0.517616,5.28e-4 0.999806,0.07075 1.550497,0.233143 l 0.01785,0.446778 c -1.154363,0.214568 -2.089163,0.244633 -3.33057,-0.03052 l -0.0011,-0.464288 c 0.692344,-0.116416 1.245592,-0.185574 1.763216,-0.185113 z m 1.568347,1.430387 -0.01237,6.87927 c -0.02644,0.819483 -3.28071,0.873299 -3.281977,0.0135 l 0.0015,-6.892277 c 1.202876,0.484685 2.141902,0.430736 3.292886,-5.29e-4 z m 90.945876,1.949211 c -0.27579,0.01913 -0.51002,0.282346 -0.42494,0.730452 0.89651,3.448464 0.57369,5.525818 0.17354,7.495653 -0.41201,1.370553 4.6903,2.087939 4.48143,3.425125 -1.26351,11.556161 -1.2398,18.190454 -1.89412,26.796131 0.0796,1.248336 0.44017,2.496494 1.20192,3.744825 -0.055,2.226267 -12.29758,2.275075 -12.24531,-0.105067 -0.0479,-0.883562 0.93043,-1.449051 1.00209,-2.608117 0.304,-9.214188 -0.80521,-18.428475 -1.67247,-27.642657 -0.0257,-1.509583 3.53036,-1.692714 4.15069,-3.191482 0.45849,-2.361806 -0.73707,-5.370609 0.59352,-7.84887 0.34077,-0.985458 -0.78177,-1.049253 -0.94656,-0.222638 -0.8074,2.151131 -0.90825,4.726384 -0.21966,7.20097 -1.09846,1.444539 -4.87978,1.706485 -4.8295,3.656267 0.75823,9.263941 1.6516,18.527816 1.75925,27.791748 -0.14292,2.094659 -1.91623,2.88122 -0.56427,4.174092 -0.004,2.393426 14.15683,2.713236 14.24257,-1.167726 0.0371,-0.9508 -1.11739,-1.591627 -1.10325,-3.782345 0.33391,-8.971896 0.59884,-17.932157 1.72504,-27.037282 0.21032,-1.537421 -3.68367,-1.942548 -4.58307,-3.845387 0.38976,-1.999901 0.55463,-4.448343 -0.17206,-6.829239 -0.0815,-0.528268 -0.39905,-0.753593 -0.67484,-0.734453 z M 52.668352,38.468372 c -0.270187,0.01022 -0.547151,0.08295 -0.824088,0.218637 -2.41434,1.123583 -1.131207,2.462097 -0.162638,0.983109 0.421984,-0.489904 1.291729,-0.450826 1.905521,-0.171105 0.961845,0.847393 1.422777,0.409111 0.34461,-0.564849 -0.38163,-0.32628 -0.813082,-0.482803 -1.263405,-0.465792 z m 1.364558,4.412741 c -0.02655,-7.55e-4 -0.05362,-3.78e-4 -0.08132,0.0011 l -2.79109,0.299209 c -1.391347,0.118494 -1.450507,1.191397 -0.417997,1.119692 l 3.439657,-0.3237 c 0.931785,0.122542 0.673613,-1.068794 -0.14925,-1.09618 z m 0.259327,3.676782 c -0.278928,0.0034 -0.651757,0.243972 -0.910365,0.822508 -0.361559,0.573666 -1.336481,0.672288 -2.079562,0.481302 -1.253962,-0.721984 -1.670209,-0.19479 -0.259324,0.639394 0.792585,0.441895 1.631899,0.413343 2.373098,-0.07855 1.59876,-1.015057 1.40865,-1.871484 0.876153,-1.864656 z" /><path
     id="path1012-3"
     style="display:inline;fill:#46afa7;stroke-width:0.424697"
     d="m 117.16354,27.691185 c -0.29779,0.01 -0.59211,0.258227 -0.58014,0.726951 -0.0596,2.76194 -4.72801,4.096077 -4.79628,6.865261 l -0.0288,4.481782 c -0.0361,0.87224 1.07704,0.998396 1.10424,-0.04403 l 0.0307,-3.972964 c 0.0513,-2.678711 4.83439,-3.620689 4.87215,-7.353064 -0.003,-0.485678 -0.30417,-0.713938 -0.60195,-0.703938 z m -71.434495,0.887553 c -0.149006,-0.01222 -0.311291,0.01741 -0.477994,0.105565 l -4.429852,1.723069 -0.0719,34.611482 3.460481,1.846644 c 0.898572,0.640338 1.753005,-0.332581 0.876154,-1.026638 l -2.921501,-1.52044 -0.07239,-32.779346 4.101604,-1.792113 c 0.577177,-0.275878 0.181076,-1.11526 -0.464602,-1.168223 z m 7.108391,0.08255 c -0.58755,0.01173 -1.06833,0.850994 -0.08925,1.334829 l 2.032954,0.90206 c 1.089713,0.578088 1.423346,-0.631013 0.536996,-1.15972 L 53.16618,28.747341 c -0.107505,-0.06212 -0.219937,-0.08822 -0.328744,-0.08606 z m -4.742235,1.195244 c -0.199548,-0.0023 -0.404861,0.09432 -0.56625,0.343211 l -0.744259,0.926077 c -0.657356,0.966739 0.492064,1.311844 1.216797,0.573855 l 0.680295,-0.770981 C 49.077296,30.5147 48.605164,29.862185 48.095201,29.856532 Z M 43.313797,31.2634 c -0.513198,0.02426 -0.849847,0.718971 -0.189907,1.112191 l 1.34175,0.585863 c 1.079385,0.434002 1.272735,-0.487934 0.399645,-1.038645 L 43.687166,31.365464 C 43.56003,31.287705 43.432226,31.257808 43.313797,31.2634 Z m 69.053453,12.668362 c -0.25332,0.0015 -0.50755,0.231193 -0.51071,0.677921 l -0.0104,12.703384 c -0.005,0.632702 1.01633,0.642183 1.02788,3.78e-4 l -0.002,-12.690874 c 3.8e-4,-0.465792 -0.25194,-0.692522 -0.50526,-0.69093 z" /><path
     id="path944"
     style="display:inline;fill:#066469;fill-opacity:1;stroke-width:0.255012"
     d="m 70.763617,16.779914 c -1.248367,0.0077 -2.580108,0.309827 -2.570444,1.152216 l 0.04314,8.794458 c -0.02134,1.334471 5.425755,1.26503 5.461204,-0.07855 l 0.09322,-6.671643 c 0.0023,-0.547732 -1.112884,-0.585817 -1.097299,-0.08255 l 0.07438,6.359447 c -0.0068,0.585164 -3.557842,0.682835 -3.541803,-0.05604 l 0.09619,-8.024979 c -0.03334,-0.435627 0.956145,-0.465814 1.63281,-0.44778 1.210942,0.02729 1.928328,0.454283 1.928332,0.454283 -4e-6,0 -1.121062,0.358633 -2.264017,0.343212 -0.974959,-7.54e-4 -0.974599,0.975253 -0.03917,1.016631 1.262472,-0.02167 3.289174,-0.417022 3.296359,-1.388361 -0.01226,-0.704591 -0.775511,-1.317165 -2.864479,-1.367848 -0.08206,-0.002 -0.165191,-0.003 -0.248419,-0.0025 z m 94.472313,20.413169 c -0.22878,0.02733 -0.42541,0.230773 -0.37585,0.563847 0.0631,2.342105 3.96,6.794851 3.87897,10.48201 0.15033,4.61947 -0.11462,8.819882 -0.5132,12.885496 -0.54428,1.214967 -0.68924,2.97792 -0.49286,4.314179 0.003,2.458365 -13.15395,3.129869 -14.32439,0.183607 -7.5e-4,-1.393649 -0.15534,-2.787434 -0.56972,-4.181091 -0.30241,-4.510854 -0.7504,-8.984607 -0.53154,-13.626959 -0.0774,-2.862051 3.29363,-5.932025 3.96029,-9.851613 0.20609,-0.56965 -0.93205,-0.711836 -1.073,0.08705 -0.48363,2.08015 -4.01295,6.582598 -3.9836,10.821717 -0.12547,4.415562 0.38685,8.616335 0.62972,12.908009 0.50998,1.347467 0.5875,2.608026 0.40808,3.81637 0.10095,4.649079 16.67605,3.770966 16.60129,0.187116 -0.10097,-1.527543 0.10094,-3.156852 0.41204,-4.822994 0.50833,-4.020505 0.70825,-8.24877 0.80476,-12.546284 0.0661,-3.791764 -3.74262,-8.019943 -4.26127,-10.726659 -0.0799,-0.37246 -0.34095,-0.521148 -0.56972,-0.493806 z m -98.916542,6.246377 0.003,16.681353 c -0.02914,1.005511 9.201536,0.950119 9.161178,3.77e-4 l 0.01042,-16.668351 c -3.116786,1.119538 -6.206152,0.890435 -9.17457,-0.0135 z m 1.068536,1.390364 c 1.19073,0.678367 6.03306,0.564498 6.993855,0.03603 l -0.0045,14.319889 c 0.0068,0.903908 -6.917291,0.791401 -6.946747,0.01302 z" /><path
     id="path845-2-7-9"
     style="display:inline;fill:#3b11f1;fill-opacity:1;stroke-width:0.201752"
     d="m 139.23248,15.908375 c -2.0728,0.03197 -2.72834,0.93541 -2.74052,1.379854 0.007,0.922694 2.47901,1.3787 3.7317,1.392365 0.92819,-0.02611 0.67288,-1.055083 -0.29453,-1.054656 -1.1341,0.0098 -2.50251,-0.268165 -2.50251,-0.268165 0,0 0.76296,-0.579152 1.96452,-0.596372 0.89484,0.02278 1.97406,0.06251 1.97891,0.592368 l 0.0441,4.441758 c 0.0159,0.672723 -3.76364,0.559736 -3.77038,0.190619 l -0.0288,-2.978348 c 0.0155,-0.317458 -1.09106,-0.293478 -1.08887,0.05203 l 0.19486,3.17547 c -0.0672,1.002514 5.44025,1.304116 5.41906,0.04903 l 0.0937,-5.082153 c -0.041,-0.928445 -1.6985,-1.314255 -3.00133,-1.293802 z M 92.712071,26.888688 c -0.364425,0.0078 -0.74322,0.18648 -0.762604,0.53333 0.01852,1.785528 -0.221647,3.200428 -0.96987,5.140691 -0.712125,1.310399 -6.510671,1.977237 -6.493053,6.097284 0,0 -0.385977,26.447716 0.139826,27.148851 0.04917,3.238358 20.88157,3.645612 20.8586,-0.356221 l 0.0322,-26.989254 c 0.0144,-3.164769 -4.57113,-4.466728 -6.177205,-5.605977 -0.903442,-0.847176 -1.244509,-3.734764 -1.100771,-5.185719 0.144176,-0.953234 -1.525789,-0.951746 -1.355633,-0.05553 0.300998,2.008253 0.07219,4.83424 1.096804,5.729557 1.362394,1.190834 6.264945,3.329304 6.364135,4.786471 l 0.0233,26.767112 c 0.003,2.458365 -18.395259,2.367001 -18.426485,0.361227 -0.51618,-0.455323 -0.2028,-26.194763 -0.2028,-26.194763 -0.02565,-3.332286 5.053901,-3.789277 6.549083,-5.880147 0.376169,-2.176677 0.826361,-3.987329 1.100771,-5.805602 0.03812,-0.336508 -0.311899,-0.499192 -0.676331,-0.491305 z m 10.444909,10.802706 c -0.0843,0.0079 -0.17104,0.0345 -0.25734,0.08405 -2.5786,1.725562 -14.389159,1.499817 -15.813893,0.122078 -0.437474,-0.553202 -1.140678,0.683908 -0.596497,1.056654 4.105744,2.021201 14.19376,1.454556 17.24093,-0.100566 0.49609,-0.354613 0.0168,-1.217611 -0.5732,-1.162219 z m 41.35126,3.994979 c -0.14152,-0.01408 -0.30087,0.02897 -0.46064,0.156096 -2.32473,0.967659 -6.33425,2.041204 -9.39422,1.501433 -0.49227,-0.490316 -1.0705,0.70376 -0.49238,0.995117 4.27038,0.338866 7.49667,0.02807 10.64623,-1.677042 0.38717,-0.37353 0.12557,-0.93335 -0.29899,-0.975604 z" /><path
     id="path822"
     style="display:inline;fill:#58dcd2;fill-opacity:1;stroke-width:0.261309"
     d="m 121.47835,27.784745 c -0.20894,10e-4 -0.41762,0.10689 -0.48295,0.323201 0.10637,1.496073 0.40351,2.83532 1.49497,3.79235 1.70465,1.751719 3.17792,1.614179 3.18429,4.275156 -0.0272,13.893899 0.34153,29.378189 -0.1666,29.833512 -1.9266,1.72233 -9.83171,2.961818 -12.72728,-0.208125 l 0.0803,-4.312175 c -0.032,-0.61054 -1.09115,-0.798676 -1.10523,-0.03199 l 0.16264,4.698917 c -0.19466,3.177063 12.85564,3.281688 14.65758,0.749468 0.63083,-0.352989 0.2752,-30.939705 0.2752,-30.939705 -0.0262,-1.419754 -0.65005,-3.210324 -3.56759,-4.73994 -1.14113,-0.856069 -1.18133,-2.135009 -1.32191,-3.133445 -0.0653,-0.204136 -0.2745,-0.308183 -0.48345,-0.307191 z m -63.42862,3.548201 c -0.04954,0.0018 -0.102109,0.0085 -0.15768,0.02052 l -12.102019,1.46741 -0.0084,35.167829 12.634053,-1.777106 0.298002,-32.941443 c 0.0038,-0.434948 -1.16793,-0.294277 -1.155807,0.123077 l -0.17011,31.660644 -10.277322,1.535455 -0.04909,-32.637256 11.12868,-1.4464 c 0.665977,-0.145549 0.60279,-1.200876 -0.140321,-1.172726 z" /><path
     id="path767-9-5"
     style="display:inline;fill:#e41e15;fill-opacity:1;stroke-width:0.263074"
     d="m 26.116998,16.309622 c -1.288501,0.02546 -2.497104,0.423379 -2.483179,1.236267 l 0.03917,3.8659 c -0.01973,1.655788 5.46392,1.774925 5.460214,-0.109068 l 0.0099,-3.706799 c -0.003,-0.865578 -1.565821,-1.315149 -3.026126,-1.2863 z m 0.345602,1.012127 c 0.517621,5.28e-4 0.999811,0.07076 1.550498,0.233146 l 0.01785,0.446777 c -1.154365,0.214568 -2.088666,0.244635 -3.330077,-0.03052 l -0.0015,-0.463789 c 0.692346,-0.116416 1.245595,-0.186074 1.763215,-0.185615 z m 1.568845,1.43039 0.03124,2.493546 c -0.02643,0.819483 -3.280215,0.873297 -3.281484,0.0135 l -0.04264,-2.506556 c 1.202876,0.484685 2.141902,0.430736 3.292888,-5.29e-4 z M 134.12977,34.668015 c -0.41845,-0.02031 -0.82409,0.745297 -0.35354,1.048152 4.48414,0.988087 7.93622,1.183001 11.46586,0.0086 0.60337,-0.405276 0.0231,-1.311487 -0.71154,-0.915066 -2.57217,0.583699 -6.94026,1.010627 -10.11964,0.0135 -0.0873,-0.103726 -0.18458,-0.150408 -0.28114,-0.155096 z m 10.79101,2.5776 c -0.1589,7.55e-4 -0.33145,0.06043 -0.49436,0.203626 -2.47195,1.206553 -6.80363,2.695022 -10.26641,2.479539 -0.60358,-0.43595 -1.10843,0.812589 -0.43237,1.04165 4.78473,-0.111454 8.33433,-0.759099 11.63791,-2.785733 0.38721,-0.41216 0.0319,-0.941646 -0.44477,-0.939082 z M 20.564557,40.918894 c -0.393193,-0.02033 -0.774366,0.745299 -0.332213,1.048155 4.105739,2.021192 9.505078,1.672186 12.552245,0.117067 0.566961,-0.405278 -0.08615,-1.420055 -0.77649,-1.023631 -2.578603,1.725558 -9.754529,1.391246 -11.179257,0.0135 -0.08203,-0.103723 -0.173548,-0.150407 -0.264285,-0.155097 z m 6.027459,6.048256 c -1.351718,-0.0034 -3.145495,1.351858 -3.183804,2.654143 0.02493,1.568572 0.901103,2.702662 2.813409,2.706687 1.05634,-0.0047 3.040795,-0.787028 3.024141,-2.081297 0.112214,-0.430072 -0.670138,-0.576363 -0.791362,-0.222134 -0.290241,0.950304 -1.277914,1.24343 -2.149972,1.284292 -0.877396,-0.01094 -1.780831,0.02494 -1.870318,-1.647522 -0.0213,-0.994303 1.441314,-1.713159 2.260049,-1.755586 0.752545,-0.03335 1.709776,0.138715 1.762719,1.006122 0.01704,0.619655 0.967708,0.581532 0.984743,-0.01951 0.01142,-1.113776 -1.410267,-1.93393 -2.849605,-1.925192 z m 5.037756,8.36469 c -0.110127,-0.007 -0.23302,0.02074 -0.362462,0.09505 -2.228448,1.175967 -8.198572,1.469296 -9.623305,0.09155 -0.437476,-0.553194 -1.140681,0.520309 -0.596499,0.893054 3.755588,1.707155 8.260307,1.162276 10.840601,-0.03952 0.460654,-0.329291 0.218875,-1.009424 -0.258335,-1.040149 z" /><path
     d="m 68.286304,28.41998 c -0.06867,-0.967838 1.38981,-0.814329 1.151449,0.01614 -0.189574,2.002886 -1.157907,3.062852 -2.078633,4.180447 -1.388366,1.395442 -1.97439,1.991883 -1.948725,3.501465 0,0 -0.255682,29.278879 0.260501,29.734202 0.203745,2.12183 11.012873,1.969778 11.067904,-0.256489 l -0.02321,-29.49444 c -0.09919,-1.457168 -0.918937,-2.609435 -2.281335,-3.800269 -1.024612,-0.895317 -1.888207,-1.980178 -2.016686,-3.930407 -0.17016,-0.896215 1.499779,-0.897947 1.355606,0.05528 -0.143737,1.450959 0.59976,2.365898 1.503203,3.213074 1.60608,1.139249 2.338421,2.731316 2.381569,4.155334 l 0.197647,30.354704 C 77.821054,69.048383 66.015266,69.3485 64.585927,66.74842 63.945101,66.395436 64.158644,35.712239 64.158644,35.712239 c -0.05028,-1.949787 1.580599,-2.986432 2.627869,-3.966007 0.80103,-0.956846 1.470694,-2.03704 1.499798,-3.326257 z"
     style="display:inline;fill:#a34d49;fill-opacity:1;stroke-width:0.255012"
     id="path614" />
     <path fill="url(#linearGradient2271)" d="m 175.09178,0 0.59501,5.8936572 h 2.04287 L 178.32467,0 Z M 20.706367,0.36022356 c -2.227981,0 -3.976654,0.69710074 -5.246009,2.09129724 -1.269354,1.3875261 -1.904033,3.2787045 -1.904033,5.673522 0,2.3748042 0.634679,4.2626472 1.904033,5.6635162 1.269355,1.394196 3.018028,2.091297 5.246009,2.091297 2.221373,0 3.970045,-0.69043 5.246013,-2.071286 1.275964,-1.380855 1.91395,-3.275369 1.91395,-5.6835272 0,-2.4081586 -0.637986,-4.3026717 -1.91395,-5.6835276 C 24.676412,1.0539891 22.92774,0.36022356 20.706367,0.36022356 Z m 54.493054,0 c -2.22798,0 -3.976657,0.69710074 -5.24601,2.09129724 -1.269356,1.3875261 -1.904032,3.2787045 -1.904032,5.673522 0,2.3748042 0.634676,4.2626472 1.904032,5.6635162 1.269353,1.394196 3.01803,2.091297 5.24601,2.091297 2.221369,0 3.970046,-0.69043 5.24601,-2.071286 1.275968,-1.380855 1.913952,-3.275369 1.913952,-5.6835272 0,-2.4081586 -0.637984,-4.3026717 -1.913952,-5.6835276 C 79.169467,1.0539891 77.42079,0.36022356 75.199421,0.36022356 Z m 36.335319,0 c -2.22798,0 -3.97666,0.69710074 -5.24601,2.09129724 -1.26936,1.3875261 -1.90404,3.2787045 -1.90404,5.673522 0,2.3748042 0.63468,4.2626472 1.90404,5.6635162 1.26935,1.394196 3.01803,2.091297 5.24601,2.091297 2.22136,0 3.97004,-0.69043 5.246,-2.071286 1.27597,-1.380855 1.91396,-3.275369 1.91396,-5.6835272 0,-2.4081586 -0.63799,-4.3026717 -1.91396,-5.6835276 -1.27596,-1.3875261 -3.02464,-2.08129164 -5.246,-2.08129164 z m 42.05732,0 c -2.22798,0 -3.97665,0.69710074 -5.24601,2.09129724 -1.26935,1.3875261 -1.90403,3.2787045 -1.90403,5.673522 0,2.3748042 0.63468,4.2626472 1.90403,5.6635162 1.26936,1.394196 3.01804,2.091297 5.24601,2.091297 2.22138,0 3.97005,-0.69043 5.24601,-2.071286 1.27597,-1.380855 1.91396,-3.275369 1.91396,-5.6835272 0,-2.4081586 -0.63799,-4.3026717 -1.91396,-5.6835276 -1.27596,-1.3875261 -3.02463,-2.08129164 -5.24601,-2.08129164 z M 7.2392955,0.38022957 c -2.2147594,0 -3.9766553,0.70377373 -5.2856773,2.11131093 C 0.65120752,3.8924103 0,5.77358 0,8.1350428 0,10.583226 0.65120752,12.48441 1.9536182,13.838584 c 1.3024107,1.347501 3.061001,2.021253 5.2757604,2.021253 0.7074008,0 1.262745,-0.03669 1.6660298,-0.110069 0.4032843,-0.07337 0.8363208,-0.18011 1.2991066,-0.320198 0.376839,-0.113402 0.743763,-0.250156 1.100769,-0.410254 0.357006,-0.166771 0.67104,-0.313529 0.9421,-0.440273 V 11.07687 h -0.337172 c -0.185114,0.16677 -0.403285,0.356888 -0.654512,0.570353 -0.251226,0.213465 -0.542121,0.423598 -0.872682,0.630393 -0.304116,0.200124 -0.6776514,0.383569 -1.1206032,0.550342 -0.4429519,0.160096 -0.9090447,0.240149 -1.3982749,0.240149 -0.4693969,0 -0.9421005,-0.08339 -1.4181086,-0.250157 C 5.9666344,12.65118 5.5402095,12.381011 5.1567585,12.007447 4.760085,11.620539 4.4394401,11.113557 4.1948246,10.486503 3.9502095,9.8527757 3.8279014,9.0722905 3.8279014,8.1450488 c 0,-0.880544 0.1156969,-1.6443541 0.3470895,-2.2914218 C 4.4129951,5.2065594 4.7171123,4.6929067 5.0873408,4.3126721 5.4906251,3.8924103 5.9137448,3.5988953 6.3566966,3.4321256 6.8062594,3.2586829 7.2987971,3.1719628 7.8343061,3.1719628 c 0.4495632,0 0.879294,0.076714 1.2891897,0.2301435 0.4165068,0.1467586 0.7966533,0.3268691 1.1404372,0.5403364 0.343783,0.213465 0.651206,0.4336006 0.922266,0.6604087 0.27106,0.2201356 0.495842,0.4102539 0.674345,0.5703537 h 0.37684 V 1.6210022 C 11.992769,1.4942547 11.672124,1.3441635 11.275451,1.1707208 10.878777,0.99728068 10.511853,0.86052766 10.174681,0.76046687 9.7449518,0.6403923 9.2953871,0.54700192 8.8259903,0.48029297 8.3565938,0.41358406 7.8276941,0.38022957 7.2392955,0.38022957 Z m 54.4930545,0 c -2.214761,0 -3.976658,0.70377373 -5.285681,2.11131093 -1.302409,1.4008698 -1.953615,3.2820395 -1.953615,5.6435023 0,2.4481832 0.651206,4.3493672 1.953615,5.7035412 1.302412,1.347501 3.061001,2.021253 5.275762,2.021253 0.7074,0 1.262745,-0.03669 1.666032,-0.110069 0.403282,-0.07337 0.836321,-0.18011 1.299104,-0.320198 0.376842,-0.113402 0.743764,-0.250156 1.100772,-0.410254 0.357003,-0.166771 0.67104,-0.313529 0.942101,-0.440273 V 11.07687 h -0.337174 c -0.185115,0.16677 -0.403286,0.356888 -0.65451,0.570353 -0.251231,0.213465 -0.542122,0.423598 -0.872685,0.630393 -0.304117,0.200124 -0.677651,0.383569 -1.120605,0.550342 -0.44295,0.160096 -0.909045,0.240149 -1.398274,0.240149 -0.469395,0 -0.942101,-0.08339 -1.418107,-0.250157 -0.469395,-0.16677 -0.895823,-0.436939 -1.279275,-0.810503 -0.396671,-0.386908 -0.717315,-0.89389 -0.961931,-1.520944 -0.244616,-0.6337273 -0.366923,-1.4142125 -0.366923,-2.3414542 0,-0.880544 0.115695,-1.6443541 0.347089,-2.2914218 0.238001,-0.6470676 0.542119,-1.1607203 0.912349,-1.5409549 0.403282,-0.4202618 0.826402,-0.7137768 1.269356,-0.8805465 0.449565,-0.1734427 0.942101,-0.2601628 1.477609,-0.2601628 0.449565,0 0.879296,0.076714 1.28919,0.2301435 0.416508,0.1467586 0.796653,0.3268691 1.140438,0.5403364 0.343782,0.213465 0.651203,0.4336006 0.922264,0.6604087 0.271061,0.2201356 0.495844,0.4102539 0.674348,0.5703537 H 66.73044 V 1.6210022 C 66.485824,1.4942547 66.165176,1.3441635 65.768501,1.1707208 65.37183,0.99728068 65.004908,0.86052766 64.667734,0.76046687 64.238006,0.6403923 63.788441,0.54700192 63.319046,0.48029297 62.849648,0.41358406 62.320747,0.38022957 61.73235,0.38022957 Z m 78.39264,0 c -2.21476,0 -3.97665,0.70377373 -5.28567,2.11131093 -1.30242,1.4008698 -1.95362,3.2820395 -1.95362,5.6435023 0,2.4481832 0.6512,4.3493672 1.95362,5.7035412 1.3024,1.347501 3.061,2.021253 5.27576,2.021253 0.70739,0 1.26274,-0.03669 1.66603,-0.110069 0.40328,-0.07337 0.83632,-0.18011 1.2991,-0.320198 0.37684,-0.113402 0.74376,-0.250156 1.10077,-0.410254 0.35701,-0.166771 0.67104,-0.313529 0.9421,-0.440273 V 11.07687 h -0.33717 c -0.18512,0.16677 -0.40329,0.356888 -0.65451,0.570353 -0.25123,0.213465 -0.54212,0.423598 -0.87269,0.630393 -0.30411,0.200124 -0.67765,0.383569 -1.1206,0.550342 -0.44295,0.160096 -0.90904,0.240149 -1.39827,0.240149 -0.4694,0 -0.9421,-0.08339 -1.41811,-0.250157 -0.4694,-0.16677 -0.89582,-0.436939 -1.27928,-0.810503 -0.39667,-0.386908 -0.71731,-0.89389 -0.96193,-1.520944 -0.24461,-0.6337273 -0.36692,-1.4142125 -0.36692,-2.3414542 0,-0.880544 0.11569,-1.6443541 0.34709,-2.2914218 0.238,-0.6470676 0.54212,-1.1607203 0.91235,-1.5409549 0.40328,-0.4202618 0.8264,-0.7137768 1.26935,-0.8805465 0.44957,-0.1734427 0.9421,-0.2601628 1.47761,-0.2601628 0.44957,0 0.8793,0.076714 1.28919,0.2301435 0.41651,0.1467586 0.79666,0.3268691 1.14044,0.5403364 0.34379,0.213465 0.65121,0.4336006 0.92226,0.6604087 0.27107,0.2201356 0.49585,0.4102539 0.67435,0.5703537 h 0.37684 V 1.6210022 c -0.24461,-0.1267475 -0.56526,-0.2768387 -0.96193,-0.4502814 -0.39668,-0.17344012 -0.7636,-0.31019314 -1.10077,-0.41025393 -0.42973,-0.12007457 -0.8793,-0.21346495 -1.34869,-0.2801739 -0.4694,-0.066709 -0.9983,-0.10006339 -1.5867,-0.1000634 z m -104.642525,0.020006 c -1.751974,0 -3.213059,0.43360289 -4.383245,1.30080863 -1.170187,0.8605328 -1.755281,1.9879013 -1.755281,3.3820976 0,1.0339729 0.247923,1.8945109 0.743764,2.5816007 0.495841,0.6870933 1.315637,1.2340999 2.459377,1.6410213 0.495841,0.1734402 1.028046,0.3201989 1.596611,0.4402709 0.575176,0.1200746 1.113992,0.2468216 1.616446,0.3802373 0.403285,0.106734 0.750375,0.276838 1.041268,0.510317 0.290893,0.233476 0.436341,0.537 0.436341,0.910566 0,0.333539 -0.08925,0.603708 -0.267755,0.810503 -0.178502,0.200123 -0.396674,0.356888 -0.654511,0.470292 -0.211558,0.100063 -0.492537,0.173441 -0.842931,0.220135 -0.343784,0.04669 -0.621456,0.07004 -0.833015,0.07004 -0.839625,0 -1.705699,-0.170108 -2.598214,-0.510317 -0.892514,-0.34021 -1.709002,-0.827181 -2.44946,-1.460905 H 29.254688 V 14.6891 c 0.733845,0.326869 1.527195,0.600372 2.380043,0.820507 0.859458,0.220139 1.85445,0.330208 2.984969,0.330208 1.963533,0 3.520481,-0.450282 4.670835,-1.350839 1.156961,-0.900558 1.735447,-2.0913 1.735447,-3.572216 0,-1.0339762 -0.251227,-1.8644924 -0.753682,-2.4915464 C 39.776456,7.7914903 39.016166,7.2878437 37.991426,6.9142792 37.46914,6.7274956 36.976602,6.5807369 36.513817,6.474006 36.057644,6.3672719 35.581633,6.2572033 35.085792,6.1437988 34.31889,5.9636884 33.799906,5.7635642 33.528848,5.543429 33.264398,5.3166204 33.132174,5.0130978 33.132174,4.6328631 c 0,-0.2601628 0.08264,-0.4936414 0.247921,-0.7004359 0.171891,-0.213465 0.373533,-0.3735644 0.604927,-0.4802981 0.284282,-0.1334153 0.555343,-0.2234705 0.813182,-0.2701684 0.257837,-0.046695 0.548732,-0.070042 0.872682,-0.070042 0.833013,0 1.64289,0.1634345 2.429628,0.4903036 0.793346,0.3268693 1.464386,0.7271176 2.01312,1.2007449 h 0.327255 V 1.4008695 C 39.753319,1.0940114 38.973195,0.85052722 38.100514,0.67041672 37.234441,0.49030364 36.361759,0.40024842 35.482465,0.40024842 Z m 90.828365,0 c -1.75197,0 -3.21306,0.43360289 -4.38324,1.30080863 -1.17019,0.8605328 -1.75529,1.9879013 -1.75529,3.3820976 0,1.0339729 0.24792,1.8945109 0.74377,2.5816007 0.49584,0.6870933 1.31563,1.2340999 2.45938,1.6410213 0.49584,0.1734402 1.02804,0.3201989 1.59661,0.4402709 0.57517,0.1200746 1.11399,0.2468216 1.61644,0.3802373 0.40329,0.106734 0.75038,0.276838 1.04127,0.510317 0.29089,0.233476 0.43634,0.537 0.43634,0.910566 0,0.333539 -0.0893,0.603708 -0.26775,0.810503 -0.17851,0.200123 -0.39668,0.356888 -0.65451,0.470292 -0.21157,0.100063 -0.49254,0.173441 -0.84294,0.220135 -0.34378,0.04669 -0.62145,0.07004 -0.83301,0.07004 -0.83962,0 -1.7057,-0.170108 -2.59821,-0.510317 -0.89252,-0.34021 -1.70901,-0.827181 -2.44947,-1.460905 h -0.33716 V 14.6891 c 0.73384,0.326869 1.52719,0.600372 2.38004,0.820507 0.85946,0.220139 1.85445,0.330208 2.98497,0.330208 1.96353,0 3.52047,-0.450282 4.67083,-1.350839 1.15696,-0.900558 1.73545,-2.0913 1.73545,-3.572216 0,-1.0339762 -0.25123,-1.8644924 -0.75369,-2.4915464 -0.49584,-0.6337273 -1.25613,-1.1373739 -2.28087,-1.5109384 -0.52228,-0.1867836 -1.01482,-0.3335423 -1.4776,-0.4402732 -0.45618,-0.1067342 -0.93219,-0.2168027 -1.42803,-0.3302072 -0.7669,-0.1801104 -1.28589,-0.3802346 -1.55695,-0.6003699 -0.26444,-0.2268085 -0.39667,-0.5303311 -0.39667,-0.9105658 0,-0.2601628 0.0826,-0.4936414 0.24792,-0.7004359 0.17189,-0.213465 0.37353,-0.3735644 0.60493,-0.4802982 0.28428,-0.1334153 0.55534,-0.2234705 0.81318,-0.2701683 0.25784,-0.046695 0.54873,-0.070042 0.87268,-0.070042 0.83302,0 1.64289,0.1634345 2.42963,0.4903036 0.79334,0.3268693 1.46439,0.7271175 2.01311,1.2007449 h 0.32726 V 1.4008695 c -0.68756,-0.3068581 -1.46769,-0.55034228 -2.34037,-0.73045278 -0.86607,-0.18011308 -1.73875,-0.2701683 -2.61805,-0.2701683 z m 60.14565,0 c -1.75197,0 -3.21306,0.43360289 -4.38324,1.30080863 -1.17019,0.8605328 -1.75528,1.9879013 -1.75528,3.3820976 0,1.0339729 0.24792,1.8945109 0.74376,2.5816007 0.49584,0.6870933 1.31564,1.2340999 2.45938,1.6410213 0.49584,0.1734402 1.02804,0.3201989 1.59661,0.4402709 0.57518,0.1200746 1.11399,0.2468216 1.61645,0.3802373 0.40328,0.106734 0.75037,0.276838 1.04126,0.510317 0.2909,0.233476 0.43634,0.537 0.43634,0.910566 0,0.333539 -0.0892,0.603708 -0.26775,0.810503 -0.1785,0.200123 -0.39667,0.356888 -0.65451,0.470292 -0.21156,0.100063 -0.49254,0.173441 -0.84293,0.220135 -0.34379,0.04669 -0.62146,0.07004 -0.83302,0.07004 -0.83962,0 -1.7057,-0.170108 -2.59821,-0.510317 -0.89252,-0.34021 -1.70901,-0.827181 -2.44946,-1.460905 H 180.2287 V 14.6891 c 0.73385,0.326869 1.5272,0.600372 2.38005,0.820507 0.85946,0.220139 1.85445,0.330208 2.98497,0.330208 1.96353,0 3.52048,-0.450282 4.67083,-1.350839 C 191.42152,13.588422 192,12.39768 192,10.916764 c 0,-1.0339762 -0.25123,-1.8644923 -0.75368,-2.4915464 -0.49584,-0.6337273 -1.25613,-1.1373739 -2.28088,-1.5109384 -0.52228,-0.1867836 -1.01482,-0.3335423 -1.47761,-0.4402732 -0.45617,-0.1067342 -0.93218,-0.2168028 -1.42802,-0.3302072 -0.7669,-0.1801104 -1.28588,-0.3802346 -1.55695,-0.60037 -0.26445,-0.2268084 -0.39667,-0.530331 -0.39667,-0.9105658 0,-0.2601627 0.0826,-0.4936413 0.24792,-0.7004358 0.1719,-0.2134651 0.37354,-0.3735644 0.60493,-0.4802981 0.28428,-0.1334153 0.55534,-0.2234707 0.81318,-0.2701684 0.25784,-0.046695 0.54873,-0.070042 0.87269,-0.070042 0.83301,0 1.64288,0.1634346 2.42962,0.4903037 0.79335,0.3268693 1.46439,0.7271176 2.01312,1.2007449 h 0.32726 V 1.4008695 c -0.68757,-0.3068581 -1.4677,-0.55034228 -2.34038,-0.73045278 -0.86607,-0.18011308 -1.73875,-0.2701683 -2.61805,-0.2701683 z M 41.392905,0.67040391 V 3.5121675 h 4.36341 V 15.569663 h 3.708896 V 3.5121804 h 4.363414 V 0.67041672 Z m 49.108208,0 V 15.569663 h 3.689062 v -5.46339 h 1.328858 l 4.11549,5.46339 H 104.1566 L 99.188265,9.2357325 c 0.852845,-0.4202622 1.533805,-0.9839449 2.042865,-1.6910487 0.50907,-0.7137771 0.7636,-1.6410214 0.7636,-2.7817281 0,-0.807167 -0.15536,-1.4709132 -0.46609,-1.9912362 C 101.21791,2.2447262 100.7981,1.8111234 100.2692,1.4709135 99.753525,1.1440444 99.191572,0.93057692 98.583337,0.83051607 97.975106,0.72378233 97.261091,0.67041672 96.4413,0.67041672 Z m 72.442537,0 V 15.569663 h 9.98626 v -2.841764 h -6.2972 V 8.9655645 h 5.80136 V 6.1238008 h -5.80136 V 3.5121804 h 6.2972 V 0.67041672 Z M 20.716286,3.1719552 c 0.429728,0 0.842931,0.090057 1.239605,0.2701683 0.403284,0.1734401 0.763596,0.4636222 1.080935,0.870541 0.304118,0.4002482 0.545427,0.9139006 0.723929,1.540955 0.185115,0.6203865 0.277672,1.3741876 0.277672,2.2614048 0,0.9339123 -0.08595,1.6910488 -0.257837,2.2714077 -0.171891,0.573691 -0.416509,1.077338 -0.733848,1.510938 -0.297504,0.400249 -0.651205,0.697101 -1.0611,0.890553 -0.409895,0.186783 -0.833015,0.280175 -1.269356,0.280175 -0.42973,0 -0.846239,-0.08672 -1.249523,-0.260162 C 19.063479,12.627825 18.703166,12.330974 18.385827,11.917384 18.0751,11.510465 17.830484,11.006818 17.65198,10.406446 17.473478,9.7994029 17.384226,9.0389283 17.384226,8.12503 c 0,-0.8872168 0.09256,-1.651024 0.277672,-2.2914218 0.191725,-0.6403971 0.439647,-1.1540497 0.743763,-1.5409577 0.343783,-0.4202594 0.70079,-0.7104413 1.071019,-0.8705407 0.370229,-0.1667698 0.78343,-0.2501546 1.239606,-0.2501546 z m 54.49305,0 c 0.429731,0 0.842936,0.090057 1.239608,0.2701683 0.403286,0.1734401 0.763597,0.4636222 1.080937,0.870541 0.304114,0.4002482 0.545426,0.9139006 0.723926,1.540955 0.185115,0.6203865 0.277673,1.3741876 0.277673,2.2614048 0,0.9339123 -0.08595,1.6910488 -0.257835,2.2714077 -0.171896,0.573691 -0.416509,1.077338 -0.733849,1.510938 -0.297502,0.400249 -0.651206,0.697101 -1.061103,0.890553 -0.409894,0.186783 -0.833014,0.280175 -1.269357,0.280175 -0.429727,0 -0.846236,-0.08672 -1.249519,-0.260162 C 73.556531,12.627825 73.19622,12.330974 72.87888,11.917384 72.568155,11.510465 72.323539,11.006818 72.145035,10.406446 71.966531,9.7994029 71.877278,9.0389283 71.877278,8.12503 c 0,-0.8872168 0.09256,-1.651024 0.277672,-2.2914218 0.191726,-0.6403971 0.43965,-1.1540497 0.743764,-1.5409577 0.343785,-0.4202594 0.700792,-0.7104413 1.071019,-0.8705407 0.37023,-0.1667698 0.783431,-0.2501546 1.239603,-0.2501546 z m 36.335314,0 c 0.42973,0 0.84293,0.090057 1.23961,0.2701683 0.40328,0.1734401 0.7636,0.4636222 1.08093,0.870541 0.30412,0.4002482 0.54543,0.9139006 0.72393,1.540955 0.18512,0.6203865 0.27767,1.3741876 0.27767,2.2614048 0,0.9339123 -0.0859,1.6910488 -0.25783,2.2714077 -0.1719,0.573691 -0.41651,1.077338 -0.73385,1.510938 -0.29751,0.400249 -0.65121,0.697101 -1.0611,0.890553 -0.4099,0.186783 -0.83302,0.280175 -1.26936,0.280175 -0.42973,0 -0.84624,-0.08672 -1.24952,-0.260162 -0.40329,-0.180111 -0.7636,-0.476962 -1.08094,-0.890552 -0.31073,-0.406919 -0.55534,-0.910566 -0.73384,-1.510938 -0.17851,-0.6070431 -0.26776,-1.3675177 -0.26776,-2.281416 0,-0.8872168 0.0926,-1.651024 0.27767,-2.2914218 0.19173,-0.6403971 0.43965,-1.1540497 0.74377,-1.5409577 0.34378,-0.4202594 0.70079,-0.7104413 1.07102,-0.8705407 0.37022,-0.1667698 0.78343,-0.2501546 1.2396,-0.2501546 z m 42.05733,0 c 0.42973,0 0.84294,0.090057 1.23961,0.2701683 0.40328,0.1734401 0.76359,0.4636222 1.08093,0.870541 0.30412,0.4002482 0.54543,0.9139006 0.72393,1.540955 0.18512,0.6203865 0.27767,1.3741876 0.27767,2.2614048 0,0.9339123 -0.0859,1.6910488 -0.25783,2.2714077 -0.17189,0.573691 -0.41651,1.077338 -0.73385,1.510938 -0.2975,0.400249 -0.65121,0.697101 -1.0611,0.890553 -0.4099,0.186783 -0.83301,0.280175 -1.26936,0.280175 -0.42973,0 -0.84624,-0.08672 -1.24952,-0.260162 -0.40329,-0.180111 -0.7636,-0.476962 -1.08094,-0.890552 -0.31073,-0.406919 -0.55534,-0.910566 -0.73384,-1.510938 -0.17851,-0.6070431 -0.26776,-1.3675177 -0.26776,-2.281416 0,-0.8872168 0.0926,-1.651024 0.27768,-2.2914218 0.19172,-0.6403971 0.43964,-1.1540497 0.74376,-1.5409577 0.34378,-0.4202594 0.70079,-0.7104413 1.07102,-0.8705407 0.37023,-0.1667698 0.78343,-0.2501546 1.2396,-0.2501546 z m -59.411805,0.240149 h 1.239608 c 0.423119,0 0.77682,0.013345 1.0611,0.040025 0.284283,0.026684 0.542122,0.090057 0.773512,0.1901186 0.330566,0.1467585 0.565264,0.3568885 0.704096,0.6303916 0.145452,0.266831 0.218175,0.5870322 0.218175,0.9605963 0,0.4202596 -0.05951,0.7604721 -0.178507,1.0206322 -0.112391,0.2601627 -0.287588,0.4836335 -0.525589,0.6704167 -0.251227,0.2067944 -0.558649,0.3435475 -0.922267,0.4102542 -0.357008,0.060039 -0.79335,0.090056 -1.309024,0.090056 H 94.190175 Z M 81.28638,61.937927 c -2.41365,0 -4.307711,0.755029 -5.682848,2.265406 -1.375132,1.503153 -2.062702,3.551929 -2.062702,6.146313 0,2.507667 0.647846,4.50224 1.944195,5.983715 1.303515,1.481471 3.086899,2.2728 5.35014,2.373974 0.02865,0.607046 0.139826,1.17451 0.333206,1.702058 0.200539,0.527548 0.497603,0.982833 0.891522,1.365848 0.393922,0.390239 0.884861,0.689978 1.472156,0.899557 C 84.12651,82.891598 84.846307,83 85.691441,83 c 0.923921,0 1.600744,-0.02494 2.030475,-0.07555 0.43689,-0.05058 0.869873,-0.13025 1.2996,-0.238648 v -2.883288 h -0.39717 c -0.157567,0.08672 -0.419149,0.176719 -0.784421,0.270668 -0.358106,0.101176 -0.698145,0.152093 -1.020443,0.152093 -0.837971,0 -1.425603,-0.151761 -1.762222,-0.455282 -0.32946,-0.296295 -0.501353,-0.8383 -0.515678,-1.626007 1.432433,-0.570912 2.53899,-1.535677 3.319665,-2.894297 0.787838,-1.365848 1.182087,-2.99942 1.182087,-4.900045 0,-2.608837 -0.691313,-4.660891 -2.073612,-6.156819 -1.382295,-1.503156 -3.276855,-2.254899 -5.683342,-2.254899 z m 33.19663,0 c -2.41365,0 -4.30771,0.755029 -5.68284,2.265406 -1.37514,1.503153 -2.06271,3.551929 -2.06271,6.146313 0,2.572709 0.68757,4.618199 2.06271,6.135813 1.37513,1.51038 3.26919,2.265405 5.68284,2.265405 2.40649,0 4.30105,-0.74797 5.68334,-2.243898 1.3823,-1.495923 2.07361,-3.548476 2.07361,-6.15732 0,-2.608838 -0.69131,-4.660892 -2.07361,-6.156819 -1.38229,-1.503157 -3.27685,-2.254899 -5.68334,-2.2549 z M 51.248261,62.274134 V 78.414653 H 61.927215 V 75.336256 H 55.26657 V 62.274149 Z m 11.946825,0 v 2.81825 h 2.29872 v 10.50402 h -2.29872 v 2.818249 h 8.615753 v -2.818249 h -2.298728 v -10.50402 h 2.298728 v -2.81825 z m 27.996731,0 v 10.308902 c 0,2.016251 0.57639,3.547979 1.729497,4.59585 1.160272,1.047875 2.814735,1.571978 4.96338,1.571978 2.213106,0 3.882066,-0.531166 5.006516,-1.593491 1.13163,-1.069549 1.69727,-2.598001 1.69727,-4.585346 V 62.274134 h -4.01781 v 10.070255 c 0,1.163497 -0.21861,2.009022 -0.655501,2.536573 -0.429732,0.527548 -1.106554,0.791492 -2.030475,0.791492 -0.945402,0 -1.629225,-0.274782 -2.051794,-0.824013 -0.415403,-0.549229 -0.623273,-1.383915 -0.623273,-2.504052 V 62.274134 Z m 33.422243,0 v 16.140519 h 3.99649 V 72.49598 h 1.43943 l 4.45861,5.918673 h 4.89892 l -5.38237,-6.861756 c 0.92392,-0.455282 1.66146,-1.065607 2.21294,-1.83164 0.55149,-0.773256 0.82757,-1.778102 0.82757,-3.01387 0,-0.874428 -0.16864,-1.593156 -0.50527,-2.156838 -0.33662,-0.570908 -0.79109,-1.040813 -1.36406,-1.409374 -0.55865,-0.354109 -1.16776,-0.585532 -1.82668,-0.693933 -0.65892,-0.115626 -1.43243,-0.173108 -2.32054,-0.173108 z M 81.297289,64.98382 c 0.46554,0 0.913012,0.09756 1.34274,0.292681 0.43689,0.187893 0.827396,0.502256 1.171181,0.943087 0.329456,0.4336 0.591041,0.990224 0.784421,1.669534 0.200539,0.672085 0.30048,1.488869 0.30048,2.450021 0,1.011736 -0.09294,1.831802 -0.279161,2.460527 -0.186214,0.621492 -0.45105,1.167278 -0.794831,1.637017 -0.322298,0.433603 -0.705806,0.75502 -1.149859,0.964596 -0.444056,0.20235 -0.902269,0.303689 -1.374971,0.303689 -0.46554,0 -0.916759,-0.09428 -1.353649,-0.282174 -0.436894,-0.195121 -0.827396,-0.516542 -1.171181,-0.964604 -0.336619,-0.440823 -0.601455,-0.986609 -0.794835,-1.637012 -0.193377,-0.657632 -0.290067,-1.481475 -0.290067,-2.471536 0,-0.961152 0.100437,-1.788273 0.300975,-2.48204 0.207705,-0.693763 0.476288,-1.250383 0.805744,-1.669533 0.372435,-0.455282 0.759191,-0.769648 1.160273,-0.943085 0.401081,-0.180668 0.84855,-0.271168 1.34274,-0.271168 z m 33.196631,0 c 0.46554,0 0.91301,0.09756 1.34274,0.292681 0.43689,0.187893 0.8274,0.502256 1.17118,0.943087 0.32946,0.4336 0.59104,0.990224 0.78442,1.669534 0.20055,0.672085 0.30048,1.488869 0.30048,2.450021 0,1.011736 -0.0929,1.831802 -0.27916,2.460527 -0.18621,0.621492 -0.45105,1.167278 -0.79483,1.637017 -0.3223,0.433603 -0.70581,0.75502 -1.14986,0.964596 -0.44405,0.20235 -0.90227,0.303689 -1.37497,0.303689 -0.46554,0 -0.91675,-0.09428 -1.35365,-0.282174 -0.43689,-0.195121 -0.82739,-0.516542 -1.17118,-0.964604 -0.33662,-0.440823 -0.60145,-0.986609 -0.79483,-1.637012 -0.19338,-0.657632 -0.29007,-1.481475 -0.29007,-2.471536 0,-0.961152 0.10044,-1.788273 0.30098,-2.48204 0.2077,-0.693763 0.47628,-1.250383 0.80574,-1.669533 0.37243,-0.455282 0.75919,-0.769648 1.16027,-0.943085 0.40108,-0.180668 0.84855,-0.271168 1.34274,-0.271168 z m 14.11663,0.260156 h 1.34274 c 0.45838,0 0.84188,0.01464 1.14986,0.04353 0.30797,0.0289 0.58729,0.09773 0.83797,0.206131 0.35811,0.158987 0.6122,0.386625 0.76261,0.68292 0.15756,0.28907 0.23651,0.635954 0.23651,1.040651 0,0.455282 -0.0645,0.823843 -0.19338,1.105681 -0.12175,0.281845 -0.31188,0.523605 -0.56972,0.725955 -0.27216,0.224021 -0.6052,0.372508 -0.99912,0.444774 -0.38676,0.06504 -0.85946,0.09756 -1.41811,0.09756 h -1.14936 z" />
     </svg>
