<svg
   width="512"
   height="225"
   viewBox="0 0 512 225"
   fill="none"
   xml:space="preserve"
   xmlns:xlink="http://www.w3.org/1999/xlink"
   xmlns="http://www.w3.org/2000/svg">
     <linearGradient
       id="linearGradient1311"><stop
         style="stop-color:#bc0205;stop-opacity:1;"
         offset="0"
         id="stop1307" /><stop
         style="stop-color:#f0c6c9;stop-opacity:1;"
         offset="1"
         id="stop1309" /></linearGradient><linearGradient
       id="linearGradient2277"><stop
         style="stop-color:#0240bc;stop-opacity:1;"
         offset="0"
         id="stop2273" /><stop
         style="stop-color:#9dd0f0;stop-opacity:1;"
         offset="1"
         id="stop2275" /></linearGradient><linearGradient
       xlink:href="#linearGradient2277"
       id="linearGradient2271"
       gradientUnits="userSpaceOnUse"
       x1="45.649166"
       y1="264.64117"
       x2="702.21954"
       y2="561.71326"
       gradientTransform="matrix(0.67698982,0,0,0.69138079,-14.781385,-174.03352)" /><linearGradient
       xlink:href="#linearGradient1311"
       id="linearGradient530"
       gradientUnits="userSpaceOnUse"
       gradientTransform="matrix(0.55141243,0,0,0.56313397,121.75073,-130.80036)"
       x1="213.17627"
       y1="325.84793"
       x2="250.23529"
       y2="562.61194" />
  <path
     d="m 202.7968,102.45462 c 0.39406,39.32681 30.64548,79.52036 51.98993,119.05733 23.10692,-39.0005 51.78874,-89.69721 52.05276,-118.2 0.22334,-25.75272 -23.69072,-49.891066 -50.46078,-49.866971 -29.3621,0.06933 -53.56428,25.276612 -53.58191,49.009641 z m 52.59732,43.85074 c -24.33399,-0.79444 -38.82562,-17.24527 -39.24732,-43.96431 -0.42372,-15.389984 14.4741,-36.547202 40.83927,-36.173282 16.70636,-0.0172 37.17806,15.691418 37.20846,37.318652 -0.46376,21.21095 -15.11021,42.64785 -38.80041,42.81894 z m -15.30442,-66.831017 0.24163,47.509127 -5.92735,0.0291 0.14117,7.34468 37.70821,0.13381 3.2e-4,-7.02955 -6.32127,-0.0766 0.22773,-31.127717 1.75674,-0.580116 0.104,24.915303 c -0.0133,4.66576 10.41904,5.00131 10.53413,0.49457 l 0.15334,-30.368391 -5.99531,-6.502434 -2.10891,2.375068 5.20347,5.518816 0.0307,27.280481 c 0.0107,3.33881 -5.26502,3.20632 -5.25595,-0.39833 l 0.15253,-26.148577 -4.54524,-0.743628 0.0899,-12.598792 z m 4.13406,18.733902 -0.0551,-13.416366 18.61156,0.01085 -0.0659,13.280711 z"
     fill="url(#linearGradient530)" />
  <path
     fill="#3b11f1"
     d="m 455.73325,78.988581 c -1.06277,-0.374088 -2.35402,-0.264963 -2.78338,0.729669 -1.86795,5.249015 -4.08208,9.13198 -8.33496,13.998998 -3.47059,3.061824 -20.96899,-1.301205 -25.35176,10.783392 0,0 -29.5775,77.03628 -28.81067,79.66223 -3.34256,9.537 56.49813,33.41755 60.73819,21.6733 l 29.13341,-79.00034 c 3.44736,-9.25224 -8.41909,-18.06436 -11.84005,-23.14995 -1.7023,-3.46495 0.42146,-12.290886 2.3988,-16.383395 1.44298,-2.634473 -3.39091,-4.4464 -3.86299,-1.636532 -1.29027,6.208944 -4.99544,14.231316 -2.99443,17.969207 2.6604,4.97124 14.54646,16.5766 13.26528,20.95191 l -28.73789,78.41349 c -2.63685,7.20251 -55.77496,-13.10547 -53.7068,-19.01333 -1.00352,-1.89562 27.60208,-76.93337 27.60208,-76.93337 3.51192,-9.786372 18.70619,-5.59233 25.28235,-10.086821 3.4308,-5.964599 6.67749,-10.775285 9.42821,-15.801146 0.47235,-0.943958 -0.36272,-1.803579 -1.42563,-2.177415 z m 18.59678,43.012489 c -0.25254,-0.0687 -0.53331,-0.0861 -0.83635,-0.0349 -9.31771,2.24464 -43.24963,-11.27827 -45.88923,-16.86475 -0.67045,-2.09652 -4.03402,0.76121 -2.86069,2.4455 9.70427,10.39099 39.50136,19.71577 49.99144,18.48062 1.81696,-0.49813 1.36141,-3.54613 -0.40517,-4.02651 z m -37.28648,33.26524 c -3.90728,-1.48224 -10.55534,0.53349 -12.06763,4.30545 -1.61595,4.62064 -0.29851,8.89829 5.23008,10.99296 3.06141,1.13679 9.64379,1.00432 10.98837,-2.80404 0.78755,-1.13724 -1.31712,-2.41893 -2.04904,-1.51362 -1.86242,2.4668 -5.0377,2.25152 -7.60485,1.42134 -2.52683,-0.98768 -5.18064,-1.87018 -3.63976,-6.86539 1.00835,-2.93499 6.01683,-3.44032 8.43139,-2.6728 2.21325,0.722 4.79509,2.26665 4.01482,4.86449 -0.61765,1.83316 2.17312,2.75656 2.86918,1.01499 1.23154,-3.24924 -1.99859,-7.20125 -6.17256,-8.74338 z" />
  <path
     fill="#e2c439"
     d="m 455.29168,59.842556 c -2.20307,0.06626 -3.73971,0.594327 -4.15107,1.697436 l -3.72394,10.163534 c -1.54718,4.115292 23.38576,13.700829 28.95312,13.057615 2.07656,-0.569285 1.96048,-3.993631 -0.46355,-3.58465 -6.58853,0.849916 -25.048,-7.915327 -23.97915,-10.864651 l 1.96352,-5.730168 c 1.6152,-4.110429 25.03232,5.344031 26.96878,8.935266 l -2.33334,6.573613 c -0.41498,1.494001 2.8272,3.09392 3.39062,1.296803 l 2.84376,-7.601567 c -0.5596,-4.118641 -7.52579,-8.288309 -14.98438,-10.980624 -5.2832,-1.907048 -10.81261,-3.073035 -14.48437,-2.962607 z M 63.520832,93.643689 35.854165,105.34651 l 21.19271,96.28474 c 0.268352,1.27087 3.427632,-0.77592 3.135416,-1.98738 L 39.973957,107.17573 61.281251,98.340634 82.760416,195.5268 59.208333,203.94018 c -3.383682,1.23093 -2.110552,4.56212 1.21875,3.22619 l 25.963541,-9.56786 z M 424.69272,138.9157 c -1.10328,0.0416 -2.47483,1.59124 -1.64064,2.78865 11.12789,7.48294 20.30157,11.58754 31.16147,11.76081 2.07658,-0.56929 1.47618,-3.81962 -0.94792,-3.41069 -7.62123,-0.92316 -19.95518,-4.14242 -27.52606,-10.31641 -0.12533,-0.39308 -0.34149,-0.63075 -0.59896,-0.74328 -0.13946,-0.0609 -0.29029,-0.0851 -0.44789,-0.0791 z m -10.19792,28.27656 c -1.10317,0.0413 -2.47485,1.58594 -1.64064,2.78337 10.75717,8.97472 20.89021,11.44673 31.14584,12.29851 2.07659,-0.5693 1.27832,-4.25188 -1.14584,-3.84296 -7.07568,0.007 -22.29485,-5.02772 -27.31251,-10.42184 -0.12533,-0.39305 -0.34149,-0.62545 -0.59893,-0.73801 -0.13947,-0.061 -0.29032,-0.085 -0.44792,-0.079 z" />
  <path
     d="m 23.309779,87.157349 c -0.50416,0.06961 -1.02172,0.289919 -1.510987,0.710311 L 8.3423947,96.955529 33.517419,213.42813 46.37344,217.06776 c 3.456376,1.48604 5.581507,-2.42147 2.157872,-4.10434 L 37.705981,210.02046 13.396717,99.817658 25.711563,90.741506 c 1.715544,-1.356893 -0.217147,-3.885861 -2.401784,-3.584157 z m 23.683698,-5.005114 c -1.94397,0.47611 -2.92549,3.656358 0.68352,4.556156 l 7.418395,1.523335 c 4.04588,1.134599 4.266835,-3.180274 0.933045,-4.299919 l -7.879269,-1.734443 c -0.402877,-0.129071 -0.795683,-0.133253 -1.155693,-0.04518 z m -14.882093,7.544633 c -0.664837,0.140532 -1.276203,0.618139 -1.629787,1.575246 l -1.793392,3.668069 c -1.474725,3.740252 2.598502,4.046826 4.465102,1.025924 l 1.694704,-3.098851 c 1.010413,-1.686444 -1.037731,-3.530364 -2.736627,-3.170388 z m -14.856872,8.285559 c -1.687677,0.462997 -2.296352,3.049913 0.185547,3.882103 l 4.88917,0.97346 c 3.90576,0.65763 3.871371,-2.58709 0.565488,-3.790596 l -4.324445,-0.999143 c -0.479603,-0.167055 -0.926283,-0.172668 -1.315747,-0.06583 z"
     fill="#46afa7" />
  <path
     d="m 62.470795,87.704977 c -0.163334,0.04288 -0.333094,0.104453 -0.50895,0.186168 L 27.061395,101.05106 52.558771,217.98645 92.884456,203.41313 68.733219,93.674008 c -0.306755,-1.465817 -3.387763,-0.102071 -3.041024,1.292717 L 89.271461,200.85078 55.722611,212.87765 31.538424,103.68357 63.724021,91.204892 c 2.10635,-0.984507 1.195763,-4.146906 -1.253117,-3.499959 z"
     fill="#58dcd2" />
  <path
     d="m 27.412912,47.973274 c -4.143013,0.953651 -8.346904,2.959605 -7.696264,5.785885 l 6.600683,29.549003 c 0.909082,4.504477 18.960128,0.222724 18.091397,-4.322811 L 39.819712,56.475359 c -0.395539,-1.843854 -4.128571,-1.143367 -3.707243,0.537788 l 4.916766,21.335341 c 0.4064,1.973466 -11.323939,4.941238 -11.813126,2.444048 L 23.64372,53.729893 c -0.430531,-1.440526 2.836808,-2.279445 5.098768,-2.721661 4.044315,-0.808154 6.741923,0.09495 6.741923,0.09495 0,0 -3.462283,2.039451 -7.271939,2.836993 -3.240605,0.722028 -2.52276,4.004654 0.616205,3.448669 4.179627,-1.011055 10.624624,-3.847111 9.935262,-7.119662 -0.558222,-2.360793 -3.544403,-3.854054 -10.523795,-2.472078 -0.274315,0.05429 -0.551173,0.112659 -0.8274,0.176214 z"
     fill="#0975cf" />
  <path
     fill="url(#linearGradient2271)"
     d="M 466.91147,0 468.5,15.909516 h 5.44792 L 475.53125,0 Z M 55.218749,0.96996392 c -5.941277,0 -10.60464,1.88284808 -13.989581,5.64582268 -3.384941,3.7449704 -5.078125,8.8501544 -5.078125,15.3138324 0,6.409663 1.693184,11.506493 5.078125,15.287474 3.384941,3.762974 8.048304,5.640551 13.989581,5.640551 5.923656,0 10.587006,-1.860868 13.989584,-5.587834 3.402568,-3.726967 5.104168,-8.840507 5.104168,-15.340191 0,-6.499686 -1.7016,-11.613223 -5.104168,-15.3401905 C 65.805755,2.8444579 61.142405,0.96996392 55.218749,0.96996392 Z m 145.312501,0 c -5.94127,0 -10.60464,1.88284808 -13.98958,5.64582268 -3.38495,3.7449704 -5.07813,8.8501544 -5.07813,15.3138324 0,6.409663 1.69318,11.506493 5.07813,15.287474 3.38494,3.762974 8.04831,5.640551 13.98958,5.640551 5.92365,0 10.58702,-1.860868 13.98958,-5.587834 3.40258,-3.726967 5.10417,-8.840507 5.10417,-15.340191 0,-6.499686 -1.70159,-11.613223 -5.10417,-15.3401905 -3.40256,-3.7449706 -8.06593,-5.61946458 -13.98958,-5.61946458 z m 96.89584,0 c -5.94128,0 -10.60466,1.88284808 -13.9896,5.64582268 -3.38496,3.7449704 -5.0781,8.8501544 -5.0781,15.3138324 0,6.409663 1.69314,11.506493 5.0781,15.287474 3.38494,3.762974 8.04832,5.640551 13.9896,5.640551 5.9236,0 10.58702,-1.860868 13.98958,-5.587834 3.40258,-3.726967 5.10416,-8.840507 5.10416,-15.340191 0,-6.499686 -1.70158,-11.613223 -5.10416,-15.3401905 -3.40256,-3.7449706 -8.06598,-5.61946458 -13.98958,-5.61946458 z m 112.15104,0 c -5.94128,0 -10.60464,1.88284808 -13.9896,5.64582268 -3.38493,3.7449704 -5.0781,8.8501544 -5.0781,15.3138324 0,6.409663 1.69317,11.506493 5.0781,15.287474 3.38496,3.762974 8.04835,5.640551 13.9896,5.640551 5.92366,0 10.58702,-1.860868 13.98958,-5.587834 3.40258,-3.726967 5.10416,-8.840507 5.10416,-15.340191 0,-6.499686 -1.70158,-11.613223 -5.10416,-15.3401905 -3.40256,-3.7449706 -8.06592,-5.61946458 -13.98958,-5.61946458 z M 19.307292,1.0279509 c -5.906019,0 -10.6082368,1.8995566 -14.0989587,5.6985379 C 1.7352417,10.507475 0,15.582324 0,21.955977 c 0,6.607712 1.7352417,11.737953 5.2083333,15.392905 3.4730918,3.63694 8.1616887,5.456047 14.0677087,5.456047 1.8864,0 3.367283,-0.09717 4.442708,-0.295205 1.075424,-0.198028 2.234656,-0.486435 3.468749,-0.864533 1.004904,-0.306076 1.980277,-0.674918 2.932293,-1.107026 0.952016,-0.450119 1.7928,-0.849282 2.515624,-1.191367 v -9.451877 h -0.90104 c -0.493637,0.450116 -1.074856,0.963143 -1.744792,1.539289 -0.669936,0.576148 -1.446629,1.144564 -2.328125,1.70271 -0.810976,0.54014 -1.80838,1.03645 -2.989584,1.486574 -1.181204,0.432103 -2.424554,0.6484 -3.729167,0.6484 -1.251723,0 -2.511896,-0.224629 -3.78125,-0.674759 -1.251724,-0.450113 -2.388923,-1.179429 -3.411458,-2.18769 -1.057795,-1.044273 -1.910193,-2.414097 -2.5625,-4.106532 -0.652306,-1.710447 -0.979167,-3.817929 -0.979167,-6.320579 0,-2.376612 0.310037,-4.437066 0.927084,-6.183519 0.634677,-1.746454 1.445016,-3.132985 2.432291,-4.159248 1.075424,-1.134298 2.204213,-1.92735 3.385417,-2.377466 1.198833,-0.4681265 2.509477,-0.7011153 3.9375,-0.7011153 1.198834,0 2.344446,0.2079317 3.4375,0.6220424 1.110684,0.3961053 2.12491,0.8840629 3.041667,1.4602169 0.916755,0.576148 1.735507,1.169621 2.458333,1.781782 0.722827,0.594151 1.326075,1.107176 1.802083,1.53929 h 1.005208 V 4.3753809 C 31.983109,4.0332858 31.125501,3.6257807 30.067709,3.1576542 29.009912,2.6895346 28.029333,2.320697 27.130208,2.0506302 25.984265,1.7265456 24.788182,1.4768489 23.536458,1.2967996 22.284735,1.1167505 20.876353,1.0279508 19.307292,1.0279509 Z m 145.312498,0 c -5.90602,0 -10.60302,1.8995566 -14.09375,5.6985379 -3.47309,3.7809862 -5.21354,8.8558352 -5.21354,15.2294882 0,6.607712 1.74045,11.737953 5.21354,15.392905 3.4731,3.63694 8.16169,5.456047 14.06771,5.456047 1.8864,0 3.36728,-0.09717 4.44271,-0.295205 1.07541,-0.198028 2.22945,-0.486435 3.46354,-0.864533 1.00491,-0.306076 1.98548,-0.674918 2.9375,-1.107026 0.95201,-0.450119 1.78759,-0.849282 2.51042,-1.191367 v -9.451877 h -0.90105 c -0.49364,0.450116 -1.07486,0.963143 -1.74479,1.539289 -0.66994,0.576148 -1.44662,1.144564 -2.32812,1.70271 -0.81098,0.54014 -1.80317,1.03645 -2.98438,1.486574 -1.1812,0.432103 -2.42455,0.6484 -3.72916,0.6484 -1.25172,0 -2.51191,-0.224629 -3.78125,-0.674759 -1.25172,-0.450113 -2.38892,-1.179429 -3.41146,-2.18769 -1.05779,-1.044273 -1.9154,-2.414097 -2.56771,-4.106532 -0.65231,-1.710447 -0.97917,-3.817929 -0.97917,-6.320579 0,-2.376612 0.31004,-4.437066 0.92709,-6.183519 0.63467,-1.746454 1.44501,-3.132985 2.43229,-4.159248 1.07542,-1.134298 2.20421,-1.92735 3.38541,-2.377466 1.19884,-0.4681265 2.51469,-0.7011153 3.94271,-0.7011153 1.19884,0 2.34445,0.2079317 3.4375,0.6220424 1.11069,0.3961053 2.12491,0.8840629 3.04167,1.4602169 0.91675,0.576148 1.73551,1.169621 2.45833,1.781782 0.72283,0.594151 1.32087,1.107176 1.79688,1.53929 h 1.00521 V 4.3753809 c -0.65231,-0.3420951 -1.50991,-0.7496002 -2.56771,-1.2177267 -1.05779,-0.4681196 -2.03316,-0.8369572 -2.93229,-1.107024 -1.14594,-0.3240846 -2.34724,-0.5737813 -3.59896,-0.7538306 -1.25173,-0.1800491 -2.66011,-0.2688488 -4.22917,-0.2688487 z m 209.04688,0 c -5.90603,0 -10.60304,1.8995566 -14.09376,5.6985379 -3.4731,3.7809862 -5.21352,8.8558352 -5.21352,15.2294882 0,6.607712 1.74042,11.737953 5.21352,15.392905 3.47306,3.63694 8.1617,5.456047 14.0677,5.456047 1.88638,0 3.36728,-0.09717 4.44272,-0.295205 1.07542,-0.198028 2.22947,-0.486435 3.46355,-0.864533 1.00491,-0.306076 1.98547,-0.674918 2.93749,-1.107026 0.95203,-0.450119 1.7876,-0.849282 2.51043,-1.191367 v -9.451877 h -0.90104 c -0.49365,0.450116 -1.07488,0.963143 -1.7448,1.539289 -0.66995,0.576148 -1.44661,1.144564 -2.32813,1.70271 -0.81096,0.54014 -1.80318,1.03645 -2.98438,1.486574 -1.1812,0.432103 -2.42456,0.6484 -3.72917,0.6484 -1.25173,0 -2.51187,-0.224629 -3.78123,-0.674759 -1.25173,-0.450113 -2.3889,-1.179429 -3.41146,-2.18769 -1.05779,-1.044273 -1.91539,-2.414097 -2.56771,-4.106532 -0.65229,-1.710447 -0.97917,-3.817929 -0.97917,-6.320579 0,-2.376612 0.31002,-4.437066 0.92709,-6.183519 0.63467,-1.746454 1.44501,-3.132985 2.43229,-4.159248 1.07542,-1.134298 2.20422,-1.92735 3.38542,-2.377466 1.19885,-0.4681265 2.51466,-0.7011153 3.94269,-0.7011153 1.19885,0 2.34448,0.2079317 3.43752,0.6220424 1.11069,0.3961053 2.12491,0.8840629 3.04165,1.4602169 0.91678,0.576148 1.73555,1.169621 2.45835,1.781782 0.72285,0.594151 1.32085,1.107176 1.79685,1.53929 h 1.00523 V 4.3753809 C 386.34251,4.0332858 385.49008,3.6257807 384.43229,3.1576542 383.37448,2.6895346 382.39392,2.320697 381.4948,2.0506302 380.34885,1.7265456 379.14755,1.4768489 377.89584,1.2967996 376.64411,1.1167503 375.23573,1.0279508 373.66667,1.0279509 Z M 94.619792,1.0806663 c -4.671925,0 -8.567008,1.1702356 -11.687501,3.5108477 C 79.811797,6.9141154 78.25,9.9588526 78.25,13.721827 c 0,2.790721 0.662133,5.109233 1.984376,6.963708 1.32224,1.854484 3.50732,3.335075 6.557291,4.433368 1.322242,0.468119 2.744245,0.862019 4.260416,1.186097 1.533802,0.324083 2.967416,0.667857 4.307293,1.027949 1.075424,0.288079 2.000328,0.745709 2.77604,1.375876 0.775715,0.630158 1.166667,1.448272 1.166667,2.456536 0,0.900233 -0.23752,1.629545 -0.713542,2.187691 -0.476005,0.540138 -1.057226,0.96436 -1.744792,1.270442 -0.564154,0.270075 -1.315616,0.469655 -2.25,0.595684 -0.916754,0.126026 -1.6598,0.1845 -2.223957,0.1845 -2.238997,0 -4.547045,-0.457639 -6.927083,-1.375872 -2.380034,-0.918239 -4.556698,-2.232675 -6.53125,-3.943117 h -0.901043 v 9.562579 c 1.95692,0.88223 4.074699,1.6199 6.34896,2.214051 2.291885,0.594158 4.943619,0.89089 7.958333,0.89089 5.236083,0 9.390721,-1.217281 12.458331,-3.647908 3.08523,-2.43063 4.625,-5.64462 4.625,-9.641652 0,-2.790731 -0.67054,-5.028782 -2.01042,-6.721218 -1.32224,-1.710431 -3.34548,-3.071908 -6.07812,-4.080169 -1.392761,-0.504134 -2.708617,-0.898028 -3.942708,-1.186097 -1.216461,-0.288078 -2.485051,-0.584809 -3.807291,-0.890891 -2.045072,-0.486123 -3.428221,-1.029484 -4.151042,-1.623635 -0.7052,-0.612162 -1.057294,-1.430275 -1.057294,-2.456539 0,-0.702187 0.22072,-1.33434 0.661459,-1.892484 C 89.474,10.035468 90.007949,9.6028937 90.625,9.3148164 91.383085,8.9547249 92.109304,8.7133824 92.796875,8.5873435 93.48444,8.4613118 94.255925,8.397568 95.119792,8.397568 c 2.221365,0 4.3812,0.4409284 6.479168,1.3231572 2.11559,0.8822288 3.9065,1.9636658 5.36979,3.2419998 h 0.875 V 3.7796963 C 106.01023,2.951478 103.92611,2.2942624 101.59896,1.8081392 99.289432,1.3220091 96.964573,1.0806663 94.619792,1.0806663 Z m 242.208338,0 c -4.67192,0 -8.56704,1.1702356 -11.68752,3.5108477 -3.12048,2.3226014 -4.68229,5.3673386 -4.68226,9.130313 0,2.790721 0.6621,5.109233 1.98437,6.963708 1.32224,1.854484 3.50728,3.335075 6.55728,4.433368 1.32224,0.468119 2.74424,0.862019 4.26043,1.186097 1.53378,0.324083 2.96741,0.667857 4.30728,1.027949 1.07544,0.288079 2.00034,0.745709 2.77605,1.375876 0.77571,0.630158 1.16667,1.448272 1.16667,2.456536 0,0.900233 -0.2376,1.629545 -0.71355,2.187691 -0.47603,0.540138 -1.05725,0.96436 -1.7448,1.270442 -0.56419,0.270075 -1.3156,0.469655 -2.25,0.595684 -0.91675,0.126026 -1.65459,0.1845 -2.21875,0.1845 -2.23898,0 -4.55226,-0.457639 -6.93229,-1.375872 -2.38005,-0.918239 -4.55669,-2.232675 -6.53125,-3.943117 h -0.89584 v 9.562579 c 1.9569,0.88223 4.06949,1.6199 6.34376,2.214051 2.29189,0.594158 4.94362,0.89089 7.95834,0.89089 5.23606,0 9.3907,-1.217281 12.45832,-3.647908 3.08523,-2.43063 4.62502,-5.64462 4.62502,-9.641652 0,-2.790731 -0.66534,-5.028782 -2.00523,-6.721218 -1.32224,-1.710447 -3.35069,-3.071913 -6.08333,-4.080174 -1.39275,-0.504134 -2.70862,-0.898028 -3.9427,-1.186097 -1.21648,-0.288079 -2.48506,-0.584809 -3.8073,-0.890892 -2.04507,-0.486122 -3.42822,-1.029483 -4.15104,-1.623634 -0.70518,-0.612162 -1.05728,-1.430276 -1.05728,-2.456539 0,-0.702187 0.22053,-1.33434 0.66144,-1.892485 0.45837,-0.576147 0.99232,-1.0087214 1.60938,-1.2967988 0.75808,-0.3600917 1.4843,-0.6014344 2.17187,-0.7274729 0.68757,-0.1260319 1.46427,-0.1897757 2.32813,-0.1897757 2.22139,0 4.3812,0.4409286 6.47918,1.3231572 2.11557,0.8822292 3.90133,1.9636662 5.36458,3.2419992 h 0.87499 V 3.7796963 C 348.21859,2.951478 346.13965,2.2942624 343.81251,1.8081392 341.50299,1.3220091 339.17293,1.0806663 336.82813,1.0806663 Z m 160.39062,0 c -4.67192,0 -8.57224,1.1702356 -11.6927,3.5108477 -3.1205,2.3226014 -4.67709,5.3673386 -4.67709,9.130313 0,2.790721 0.66213,5.109233 1.98437,6.963708 1.32224,1.854484 3.50734,3.335075 6.55728,4.433368 1.32224,0.468119 2.73904,0.862019 4.25523,1.186097 1.53381,0.324083 2.97261,0.667857 4.31251,1.027949 1.07538,0.288079 2.00032,0.745709 2.77602,1.375876 0.77574,0.630158 1.16147,1.448272 1.16147,2.456536 0,0.900233 -0.23733,1.629545 -0.71355,2.187691 -0.476,0.540138 -1.05722,0.96436 -1.7448,1.270442 -0.56416,0.270075 -1.3104,0.469655 -2.24477,0.595684 -0.91677,0.126026 -1.65981,0.1845 -2.22397,0.1845 -2.23899,0 -4.54707,-0.457639 -6.9271,-1.375872 -2.38002,-0.918239 -4.55669,-2.232675 -6.53122,-3.943117 h -0.90104 v 9.562579 c 1.9569,0.88223 4.07469,1.6199 6.34896,2.214051 2.29186,0.594158 4.9436,0.89089 7.95832,0.89089 5.23608,0 9.38552,-1.217281 12.45312,-3.647908 C 510.45504,36.673687 512,33.459686 512,29.462654 c 0,-2.790731 -0.67056,-5.028781 -2.01043,-6.721217 -1.32224,-1.710447 -3.35066,-3.071914 -6.08333,-4.080175 -1.39275,-0.504134 -2.70339,-0.898028 -3.93749,-1.186097 -1.21646,-0.288079 -2.48504,-0.584809 -3.80728,-0.890891 -2.04507,-0.486123 -3.43342,-1.029484 -4.15627,-1.623635 -0.7052,-0.612162 -1.05728,-1.430275 -1.05728,-2.456539 0,-0.702187 0.22053,-1.33434 0.66147,-1.892484 0.4584,-0.576148 0.99752,-1.0087223 1.61456,-1.2967996 0.75808,-0.3600915 1.47909,-0.6014345 2.16666,-0.7274729 0.68758,-0.1260317 1.46424,-0.1897755 2.32814,-0.1897755 2.22136,0 4.3812,0.4409284 6.47917,1.3231572 2.1156,0.8822288 3.90651,1.9636658 5.36979,3.2419998 h 0.86978 V 3.7796963 C 508.60397,2.951478 506.52507,2.2942624 504.19792,1.8081392 501.8884,1.3220091 499.56355,1.0806663 497.21875,1.0806663 Z M 110.38021,1.8081392 v 7.6700952 h 11.63541 V 42.02474 h 9.89063 V 9.4782344 h 11.63542 V 1.8081392 Z m 130.95833,0 V 42.02474 h 9.83333 V 27.274963 h 3.54688 L 265.69271,42.02474 H 277.75 L 264.5,24.929126 c 2.27424,-1.134298 4.09043,-2.656663 5.44792,-4.565156 1.35752,-1.926503 2.03645,-4.427878 2.03645,-7.506676 0,-2.178567 -0.41096,-3.9726085 -1.23957,-5.3769746 -0.82861,-1.4223692 -1.94899,-2.5926116 -3.35939,-3.5108475 -1.37512,-0.8822284 -2.87283,-1.4589991 -4.49479,-1.7290661 -1.62194,-0.2880773 -3.52743,-0.4322666 -5.71354,-0.4322666 z m 193.17709,0 V 42.02474 h 26.63021 V 34.354646 H 444.35416 V 24.196382 h 15.46875 V 16.526288 H 444.35416 V 9.4782344 h 16.79168 V 1.8081392 Z M 55.244792,8.5609857 c 1.145939,0 2.244288,0.2413482 3.302083,0.7274729 1.075424,0.4681196 2.039181,1.2528234 2.885416,2.3511084 0.810981,1.080281 1.456288,2.46681 1.932293,4.159248 0.49364,1.674439 0.739584,3.709822 0.739581,6.104446 0,2.520655 -0.22912,4.5644 -0.687498,6.130804 -0.458376,1.548408 -1.112096,2.904604 -1.958334,4.074901 -0.793344,1.080286 -1.735072,1.881694 -2.828125,2.403826 -1.093051,0.504132 -2.221843,0.759102 -3.385416,0.759102 -1.145947,0 -2.257912,-0.232967 -3.333333,-0.701115 -1.075424,-0.486125 -2.033974,-1.287533 -2.880208,-2.403824 -0.828606,-1.098286 -1.482323,-2.459756 -1.958334,-4.080174 -0.476005,-1.638426 -0.713541,-3.690525 -0.713541,-6.157162 0,-2.394622 0.245947,-4.455069 0.739581,-6.18352 0.511267,-1.72845 1.1734,-3.114972 1.984376,-4.159248 0.916755,-1.134292 1.866891,-1.9189953 2.854166,-2.3511077 0.987277,-0.4501162 2.090824,-0.6747576 3.307293,-0.6747576 z m 145.312498,0 c 1.14595,0 2.2495,0.2413482 3.30729,0.7274729 1.07543,0.4681196 2.03397,1.2528234 2.88021,2.3511084 0.81097,1.080281 1.45629,2.46681 1.93229,4.159248 0.49364,1.674439 0.73959,3.709822 0.73959,6.104446 0,2.520655 -0.22915,4.5644 -0.6875,6.130804 -0.45839,1.548408 -1.1121,2.904604 -1.95834,4.074901 -0.79333,1.080286 -1.73506,1.881694 -2.82812,2.403826 -1.09305,0.504132 -2.22184,0.759102 -3.38542,0.759102 -1.14594,0 -2.25791,-0.232967 -3.33333,-0.701115 -1.07543,-0.486125 -2.03397,-1.287533 -2.88021,-2.403824 -0.8286,-1.098286 -1.48232,-2.459756 -1.95833,-4.080174 -0.47601,-1.638426 -0.71355,-3.690525 -0.71355,-6.157162 0,-2.394622 0.24595,-4.455069 0.73959,-6.18352 0.51127,-1.72845 1.1734,-3.114972 1.98437,-4.159248 0.91676,-1.134292 1.87211,-1.9189953 2.85938,-2.3511077 0.98728,-0.4501162 2.08562,-0.6747576 3.30208,-0.6747576 z m 96.89583,0 c 1.14595,0 2.24949,0.2413482 3.30731,0.7274729 1.07541,0.4681196 2.03397,1.2528234 2.88018,2.3511084 0.81099,1.080281 1.4563,2.46681 1.9323,4.159248 0.49365,1.674439 0.7396,3.709822 0.7396,6.104446 0,2.520655 -0.22907,4.5644 -0.6875,6.130804 -0.4584,1.548408 -1.1121,2.904604 -1.95834,4.074901 -0.79336,1.080286 -1.7351,1.881694 -2.82814,2.403826 -1.09306,0.504132 -2.22184,0.759102 -3.38541,0.759102 -1.14595,0 -2.25792,-0.232967 -3.33333,-0.701115 -1.07544,-0.486125 -2.03398,-1.287533 -2.88022,-2.403824 -0.82861,-1.098286 -1.48232,-2.459756 -1.95832,-4.080174 -0.47602,-1.638426 -0.71354,-3.690525 -0.71354,-6.157162 0,-2.394622 0.24613,-4.455069 0.73957,-6.18352 0.51128,-1.72845 1.17341,-3.114972 1.9844,-4.159248 0.91672,-1.134292 1.86688,-1.9189953 2.85416,-2.3511077 0.98725,-0.4501162 2.09083,-0.6747576 3.30728,-0.6747576 z m 112.15104,0 c 1.14595,0 2.24952,0.2413482 3.30731,0.7274729 1.07541,0.4681196 2.03397,1.2528234 2.88021,2.3511084 0.81096,1.080281 1.45627,2.46681 1.93227,4.159248 0.49365,1.674439 0.7396,3.709822 0.7396,6.104446 0,2.520655 -0.22907,4.5644 -0.6875,6.130804 -0.45837,1.548408 -1.1121,2.904604 -1.95834,4.074901 -0.79334,1.080286 -1.7351,1.881694 -2.82814,2.403826 -1.09306,0.504132 -2.22181,0.759102 -3.38541,0.759102 -1.14595,0 -2.25792,-0.232967 -3.33333,-0.701115 -1.07544,-0.486125 -2.03398,-1.287533 -2.88022,-2.403824 -0.82861,-1.098286 -1.48232,-2.459756 -1.95832,-4.080174 -0.47602,-1.638426 -0.71354,-3.690525 -0.71354,-6.157162 0,-2.394622 0.24613,-4.455069 0.7396,-6.18352 0.51122,-1.72845 1.17338,-3.114972 1.98437,-4.159248 0.91675,-1.134292 1.87208,-1.9189953 2.85936,-2.3511077 0.98728,-0.4501162 2.08563,-0.6747576 3.30208,-0.6747576 z m -158.43229,0.6484 h 3.3073 c 1.12831,0 2.07004,0.033421 2.82812,0.1054323 0.75809,0.072021 1.44546,0.2465445 2.0625,0.5166112 0.88151,0.3961048 1.50999,0.9645158 1.88021,1.7027088 0.38787,0.720184 0.58333,1.580068 0.58333,2.588327 0,1.134293 -0.16184,2.054838 -0.47916,2.757017 -0.29971,0.702186 -0.76638,1.304006 -1.40104,1.80814 -0.66994,0.558143 -1.48869,0.92698 -2.45834,1.107024 -0.95202,0.162047 -2.11445,0.242491 -3.48958,0.242491 h -2.83334 z M 203.20313,170.37627 c -2.46296,0 -4.62212,0.30926 -6.47396,0.92779 -1.85185,0.59979 -3.2963,1.35889 -4.33334,2.27731 -1.1111,0.99339 -1.90914,2.06937 -2.39062,3.23145 -0.48148,1.16208 -0.71875,2.35053 -0.71875,3.56884 0,1.14333 0.12616,2.14786 0.38541,3.01005 0.25926,0.84344 0.63311,1.63066 1.11459,2.36165 0.48148,0.74973 1.02431,1.4321 1.63541,2.05063 0.62963,0.59978 1.34434,1.21831 2.14063,1.85558 -0.83333,0.48732 -1.69445,1.07012 -2.58333,1.74489 -0.87037,0.65601 -1.6279,1.42273 -2.27604,2.30365 -0.70371,0.93717 -1.27952,1.99031 -1.72396,3.15239 -0.42593,1.16208 -0.64063,2.55495 -0.64063,4.18561 0,3.84235 1.36112,6.96313 4.08333,9.36226 2.74074,2.38038 6.50349,3.5741 11.28126,3.5741 2.22221,0 4.34838,-0.33738 6.38541,-1.01213 2.03703,-0.67476 4.02952,-1.81225 5.97396,-3.40542 l 3.60937,3.54247 h 12.36459 v -0.55878 l -9.89063,-9.36226 c 0.75926,-0.88093 1.3779,-1.80873 1.85938,-2.78337 0.5,-0.97465 0.88889,-1.92295 1.16666,-2.84136 0.25926,-0.80596 0.46644,-1.76949 0.61459,-2.89408 0.16667,-1.14334 0.25,-2.09924 0.25,-2.86772 v -3.12076 h -9.69792 v 9.05125 l -7.94271,-7.75971 c 1.77778,-0.59979 3.24248,-1.30266 4.39063,-2.10862 1.16666,-0.8247 2.11111,-1.7525 2.83333,-2.78338 0.59259,-0.84345 1.00926,-1.79174 1.25,-2.84136 0.25926,-1.04962 0.38542,-1.98503 0.38542,-2.80973 0,-1.29329 -0.2853,-2.49462 -0.85938,-3.60047 -0.55555,-1.12458 -1.36111,-2.0805 -2.41666,-2.86771 -1.09259,-0.78722 -2.44619,-1.41336 -4.0573,-1.88194 -1.6111,-0.46858 -3.51505,-0.70112 -5.71874,-0.70112 z m 124.83332,0 c -6.24072,0 -11.14237,1.95517 -14.69792,5.8725 -3.55554,3.89858 -5.33333,9.21233 -5.33333,15.94114 0,6.5039 1.67941,11.67707 5.03125,15.51943 3.37038,3.84236 7.9815,5.89475 13.83334,6.15716 0.0741,1.57443 0.35938,3.04929 0.85938,4.41755 0.51851,1.36825 1.28878,2.54909 2.30728,3.54248 1.01854,1.01213 2.28358,1.78646 3.80208,2.33002 1.53704,0.56229 3.39816,0.84345 5.58334,0.84345 2.38888,0 4.1389,-0.0638 5.25,-0.19507 1.12962,-0.13118 2.25349,-0.33562 3.36458,-0.61677 v -7.48032 h -1.03125 c -0.40739,0.22493 -1.0816,0.45746 -2.02603,0.70112 -0.92592,0.26241 -1.8073,0.39537 -2.64064,0.39537 -2.16664,0 -3.6817,-0.39361 -4.55208,-1.18082 -0.85184,-0.76848 -1.29629,-2.17424 -1.33333,-4.21724 3.70371,-1.48071 6.56483,-3.98296 8.58333,-7.50668 2.03704,-3.54247 3.05208,-7.78023 3.05208,-12.70969 0,-6.7663 -1.7853,-12.08765 -5.35936,-15.9675 -3.57408,-3.89858 -8.4705,-5.84613 -14.69272,-5.84613 z m 85.82814,0 c -6.24072,0 -11.13718,1.95517 -14.69272,5.8725 -3.55555,3.89858 -5.33334,9.21233 -5.33334,15.94114 0,6.67259 1.77779,11.97872 5.33334,15.91479 3.55554,3.91733 8.452,5.87777 14.69272,5.87777 6.22221,0 11.12384,-1.93994 14.69792,-5.81978 3.57405,-3.87985 5.35936,-9.20647 5.35936,-15.97278 0,-6.7663 -1.78531,-12.08765 -5.35936,-15.96749 -3.57408,-3.8986 -8.47571,-5.84615 -14.69792,-5.84615 z m -339.411465,0.0527 c -6.703688,0 -11.994224,1.98094 -15.864584,5.93576 -3.851842,3.95482 -5.77604,9.21233 -5.77604,15.77246 0,6.97247 1.924198,12.35767 5.77604,16.16255 3.87036,3.78612 9.05731,5.68272 15.557294,5.68272 2.814805,0 5.668408,-0.35788 8.55729,-1.07012 2.9074,-0.71225 5.268523,-1.44324 7.083334,-2.19297 V 190.11292 H 71.703125 v 7.84406 h 8.026043 v 8.2078 c -0.370371,0.0375 -0.807293,0.0656 -1.307293,0.0844 -0.499998,0.0186 -0.931715,0.0265 -1.302083,0.0265 -4.203693,0 -7.521997,-1.16033 -9.947917,-3.48449 -2.42592,-2.32415 -3.635416,-5.9305 -3.635416,-10.82247 0,-2.28667 0.31308,-4.29573 0.942709,-6.02011 0.648144,-1.72438 1.516784,-3.14535 2.609373,-4.26995 1.148147,-1.16207 2.453707,-2.02603 3.916667,-2.58833 1.46296,-0.56229 3.086811,-0.84344 4.864584,-0.84344 1.518515,0 2.950235,0.2173 4.302083,0.6484 1.370368,0.43109 2.577549,0.94478 3.614584,1.54456 0.888885,0.50607 1.792826,1.1246 2.718749,1.85558 0.944443,0.71225 1.666669,1.26693 2.166667,1.66054 h 0.947917 v -9.81561 c -2.314808,-1.14335 -4.557299,-2.04304 -6.723957,-2.69905 -2.166662,-0.67475 -4.979755,-1.01213 -8.44271,-1.01213 z m 77.302085,0.058 c -4.9074,0 -8.99827,1.21656 -12.27604,3.65318 -3.27777,2.41787 -4.91667,5.58726 -4.91667,9.5046 0,2.9052 0.69445,5.32309 2.08333,7.25364 1.38889,1.93054 3.68693,3.46926 6.89063,4.6126 1.38888,0.48732 2.87616,0.89616 4.46875,1.23354 1.6111,0.33737 3.12384,0.69525 4.53125,1.07012 1.12963,0.29989 2.10185,0.77785 2.91667,1.43386 0.81481,0.65601 1.21874,1.50708 1.21874,2.55669 0,0.93717 -0.25,1.69628 -0.75,2.27731 -0.49999,0.5623 -1.11111,1.00452 -1.83333,1.32316 -0.59259,0.28115 -1.37789,0.48557 -2.35937,0.61677 -0.96296,0.13121 -1.74075,0.20033 -2.33334,0.20033 -2.35184,0 -4.77605,-0.47796 -7.27604,-1.43386 -2.49999,-0.95591 -4.79051,-2.32593 -6.86458,-4.10653 h -0.94271 v 9.95268 c 2.05555,0.91841 4.27778,1.68512 6.66667,2.30365 2.4074,0.61853 5.19271,0.92779 8.35937,0.92779 5.49999,0 9.86112,-1.26517 13.08333,-3.7955 3.24074,-2.53034 4.86459,-5.87603 4.86459,-10.03703 0,-2.90519 -0.70718,-5.23874 -2.11459,-7.0006 -1.38888,-1.78061 -3.51505,-3.19397 -6.38541,-4.2436 -1.46296,-0.5248 -2.84433,-0.93891 -4.14063,-1.23881 -1.27777,-0.29989 -2.61111,-0.60915 -4,-0.92779 -2.14814,-0.50606 -3.60012,-1.06836 -4.35937,-1.68689 -0.74074,-0.63727 -1.11459,-1.48834 -1.11459,-2.5567 0,-0.73099 0.23496,-1.38524 0.69792,-1.96629 0.48148,-0.59978 1.04456,-1.04962 1.69271,-1.34951 0.79629,-0.37486 1.55382,-0.6279 2.27604,-0.7591 0.72222,-0.13122 1.54051,-0.20033 2.44792,-0.20033 2.33333,0 4.59838,0.46273 6.80208,1.38115 2.22222,0.91841 4.10359,2.04301 5.64063,3.37378 h 0.91666 v -9.56258 c -1.92592,-0.86219 -4.11285,-1.54456 -6.55729,-2.05063 -2.42592,-0.50606 -4.87037,-0.7591 -7.33333,-0.7591 z m -44.60938,0.75911 -13.973955,41.86131 h 10.416665 l 2.58333,-8.54517 h 13 l 2.58334,8.54517 h 10.69792 l -13.97396,-41.86128 z m 143.22396,0 v 41.86134 h 27.60938 v -7.98111 h -17.22396 v -33.8802 z m 30.88541,0 v 7.31163 h 5.94792 v 27.24335 h -5.94792 v 7.30636 h 22.28125 v -7.30636 h -5.94792 v -27.24332 h 5.94792 v -7.31163 z m 72.39064,0 v 26.73726 c 0,5.22936 1.49248,9.2012 4.47395,11.91896 3,2.71776 7.27778,4.08017 12.83333,4.08017 5.72221,0 10.03531,-1.37763 12.94272,-4.13288 2.92592,-2.77401 4.39061,-6.73822 4.39061,-11.89261 v -26.71089 h -10.39061 v 26.12051 c 0,3.01766 -0.56309,5.21064 -1.69272,6.57889 -1.11109,1.36824 -2.86112,2.05063 -5.25,2.05063 -2.44443,0 -4.21469,-0.7105 -5.30728,-2.13499 -1.07408,-1.42447 -1.60939,-3.58934 -1.60939,-6.49453 v -26.12049 z m 86.41667,0 v 41.86131 h 10.33333 v -15.35074 h 3.71875 l 11.53125,15.35073 h 12.66667 l -13.91667,-17.79672 c 2.38888,-1.18082 4.29283,-2.76288 5.71875,-4.74967 1.42592,-2.00552 2.14061,-4.6126 2.14061,-7.81769 0,-2.26793 -0.43691,-4.13114 -1.30728,-5.59311 -0.87037,-1.48071 -2.04456,-2.69728 -3.52605,-3.65318 -1.44443,-0.91841 -3.02024,-1.52171 -4.72395,-1.80286 -1.70371,-0.2999 -3.70371,-0.44808 -6,-0.44808 z m -237.3073,5.11868 c 0.24074,0 0.57407,0.0357 1,0.11072 0.42592,0.075 0.81481,0.26416 1.16666,0.56405 0.38889,0.31864 0.70718,0.76848 0.94792,1.34952 0.25926,0.58104 0.38542,1.34015 0.38542,2.27731 0,1.16208 -0.22976,2.20995 -0.69271,3.14711 -0.44444,0.93716 -1.11111,1.81634 -2,2.64104 -1.29629,-1.0871 -2.31655,-2.10686 -3.05729,-3.06276 -0.72222,-0.97465 -1.08334,-2.0149 -1.08334,-3.12075 0,-0.76848 0.13136,-1.43563 0.39063,-1.99792 0.25925,-0.5623 0.55729,-0.96353 0.89063,-1.20718 0.42592,-0.31864 0.80208,-0.51544 1.13541,-0.59042 0.33333,-0.0749 0.63889,-0.11072 0.91667,-0.11072 z m 125.3073,1.9083 c 1.2037,0 2.36285,0.25303 3.47394,0.7591 1.12963,0.48732 2.13718,1.30266 3.02606,2.44599 0.85184,1.12459 1.52602,2.57135 2.02602,4.33322 0.51854,1.74311 0.78126,3.85936 0.78126,6.3522 0,2.62406 -0.2424,4.75318 -0.72395,6.38385 -0.48149,1.61191 -1.1684,3.02528 -2.05731,4.24358 -0.83333,1.12459 -1.82058,1.96044 -2.96874,2.50398 -1.14814,0.52482 -2.33507,0.78547 -3.55728,0.78547 -1.20371,0 -2.37038,-0.24542 -3.5,-0.73275 -1.12963,-0.50607 -2.13718,-1.33664 -3.02606,-2.49871 -0.87037,-1.14334 -1.55728,-2.56197 -2.05728,-4.24886 -0.5,-1.70564 -0.75,-3.84237 -0.75,-6.4102 0,-2.49285 0.2576,-4.6372 0.77603,-6.43655 0.53704,-1.79935 1.23149,-3.24084 2.08333,-4.32794 0.96296,-1.18082 1.96299,-1.99616 3,-2.446 1.03704,-0.46858 2.19619,-0.70638 3.47398,-0.70638 z m 85.83333,0 c 1.20371,0 2.35763,0.25303 3.46875,0.7591 1.12962,0.48732 2.14237,1.30266 3.03125,2.44599 0.85184,1.12459 1.52603,2.57135 2.02603,4.33322 0.51853,1.74311 0.77605,3.85936 0.77605,6.3522 0,2.62406 -0.23733,4.75318 -0.71875,6.38385 -0.48149,1.61191 -1.1684,3.02528 -2.0573,4.24358 -0.83334,1.12459 -1.82582,1.96044 -2.97395,2.50398 -1.14816,0.52482 -2.32987,0.78547 -3.55208,0.78547 -1.20371,0 -2.37037,-0.24542 -3.5,-0.73275 -1.12963,-0.50607 -2.14237,-1.33664 -3.03125,-2.49871 -0.87038,-1.14334 -1.55208,-2.56197 -2.05208,-4.24886 -0.5,-1.70564 -0.75,-3.84237 -0.75,-6.4102 0,-2.49285 0.2576,-4.6372 0.77602,-6.43655 0.53704,-1.79935 1.2315,-3.24084 2.08334,-4.32794 0.96296,-1.18082 1.96298,-1.99616 3,-2.446 1.03704,-0.46858 2.19618,-0.70638 3.47397,-0.70638 z m 36.5,0.67476 h 3.46875 c 1.18517,0 2.17765,0.041 2.97394,0.11596 0.7963,0.0749 1.51854,0.25129 2.16667,0.53243 0.92592,0.41235 1.58507,1.00276 1.97397,1.77123 0.40739,0.74973 0.60936,1.64942 0.60936,2.69903 0,1.18083 -0.16666,2.13673 -0.5,2.86773 -0.3148,0.73097 -0.80728,1.35713 -1.47394,1.88193 -0.70371,0.58105 -1.56483,0.96704 -2.58334,1.15448 -1,0.16869 -2.22224,0.25302 -3.66666,0.25302 h -2.96875 z m -337.72397,4.21723 4.22396,13.80617 h -8.4427 z m 86.69792,10.99643 11.10938,10.6538 c -0.87037,0.69349 -1.75174,1.17906 -2.64063,1.46021 -0.87037,0.26241 -1.87789,0.39537 -3.02604,0.39537 -0.83333,0 -1.66667,-0.14821 -2.5,-0.44808 -0.81481,-0.2999 -1.55729,-0.74974 -2.22396,-1.34951 -0.66666,-0.59979 -1.20949,-1.35128 -1.63541,-2.25096 -0.40741,-0.91842 -0.61459,-1.9944 -0.61459,-3.23145 0,-1.08711 0.17939,-2.11975 0.53125,-3.09439 0.37037,-0.9934 0.70371,-1.70389 1,-2.13499 z" />
</svg>