<svg
   width="48"
   height="22"
   viewBox="0 0 48 22"
   fill="none"
   xml:space="preserve"
   xmlns:xlink="http://www.w3.org/1999/xlink"
   xmlns="http://www.w3.org/2000/svg">
     <linearGradient
       id="linearGradient1311"><stop
         style="stop-color:#bc0205;stop-opacity:1;"
         offset="0"
         id="stop1307" /><stop
         style="stop-color:#f0c6c9;stop-opacity:1;"
         offset="1"
         id="stop1309" /></linearGradient><linearGradient
       id="linearGradient2277"><stop
         style="stop-color:#0240bc;stop-opacity:1;"
         offset="0"
         id="stop2273" /><stop
         style="stop-color:#9dd0f0;stop-opacity:1;"
         offset="1"
         id="stop2275" /></linearGradient><linearGradient
       xlink:href="#linearGradient2277"
       id="linearGradient2271"
       gradientUnits="userSpaceOnUse"
       x1="45.649166"
       y1="264.64117"
       x2="702.21954"
       y2="561.71326"
       gradientTransform="matrix(0.0634678,0,0,0.06760169,-1.3857548,-17.016614)" /><linearGradient
       xlink:href="#linearGradient1311"
       id="linearGradient530"
       gradientUnits="userSpaceOnUse"
       gradientTransform="matrix(0.05169492,0,0,0.055062,11.414131,-12.78937)"
       x1="213.17627"
       y1="325.84793"
       x2="250.23529"
       y2="562.61194" />
  <path
     d="m 19.0122,10.017786 c 0.03694,3.845289 2.873014,7.775325 4.874056,11.641163 2.166274,-3.813383 4.855194,-8.770395 4.879946,-11.557335 0.02094,-2.5180438 -2.221005,-4.8782379 -4.730698,-4.875882 -2.752697,0.00678 -5.021651,2.4714914 -5.023304,4.792054 z m 4.930999,4.28763 c -2.281312,-0.07768 -3.639902,-1.686206 -3.679437,-4.298734 -0.03972,-1.5047988 1.356947,-3.5735048 3.828682,-3.5369437 1.566221,-0.00168 3.485443,1.5342721 3.488293,3.6489357 -0.04348,2.073959 -1.416582,4.170012 -3.637538,4.186742 z m -1.43479,-6.5345902 0.02265,4.6453372 -0.555689,0.0028 0.01323,0.718147 3.535144,0.01308 3e-5,-0.687334 -0.592619,-0.0075 0.02135,-3.0435995 0.164694,-0.056723 0.0098,2.4361645 c -0.0012,0.456208 0.976785,0.489016 0.987575,0.04836 l 0.01438,-2.9693553 -0.562061,-0.6357936 -0.19771,0.2322289 0.487825,0.5396176 0.0029,2.6674254 c 10e-4,0.326462 -0.493596,0.313507 -0.492746,-0.03894 l 0.0143,-2.556751 -0.426116,-0.07271 0.0084,-1.2318821 z m 0.387568,1.8317596 -0.0052,-1.3118227 1.744834,0.00106 -0.0062,1.2985587 z"
     fill="url(#linearGradient530)" />
  <path
     fill="#3b11f1"
     d="M 42.724992,7.7233291 C 42.625362,7.6867513 42.504303,7.6974218 42.46405,7.794674 42.28893,8.3079111 42.081355,8.6875789 41.682648,9.1634651 41.35728,9.4628435 39.716805,9.0362362 39.30592,10.217841 c 0,0 -2.77289,7.532438 -2.701,7.789198 -0.313365,0.932507 5.2967,3.267494 5.694205,2.119167 l 2.731258,-7.724479 c 0.323189,-0.904663 -0.78929,-1.766293 -1.110005,-2.263551 -0.159591,-0.3387948 0.03951,-1.2017753 0.224887,-1.6019318 0.13528,-0.257593 -0.317898,-0.4347591 -0.362155,-0.1600165 -0.120963,0.6070968 -0.468323,1.3915067 -0.280728,1.7569893 0.249413,0.486077 1.363731,1.620824 1.24362,2.048632 l -2.694177,7.667098 c -0.247205,0.704245 -5.228903,-1.281424 -5.035013,-1.859082 -0.09408,-0.18535 2.587695,-7.522375 2.587695,-7.522375 0.329243,-0.9568898 1.753706,-0.5468057 2.370221,-0.9862671 0.321637,-0.5832052 0.626014,-1.0535836 0.883894,-1.5450011 0.04428,-0.092298 -0.034,-0.17635 -0.133652,-0.2129029 z m 1.743448,4.2056659 c -0.02368,-0.0067 -0.05,-0.0084 -0.07841,-0.0034 -0.873536,0.219476 -4.054653,-1.102763 -4.302116,-1.648997 -0.06285,-0.204994 -0.378189,0.07443 -0.268189,0.239115 0.909775,1.016008 3.703252,1.927764 4.686697,1.806994 0.17034,-0.04871 0.127632,-0.346733 -0.03798,-0.393702 z m -3.495607,3.252602 c -0.366308,-0.14493 -0.989563,0.05216 -1.131341,0.420978 -0.151495,0.451796 -0.02799,0.870054 0.49032,1.074867 0.287008,0.111153 0.904106,0.0982 1.03016,-0.274173 0.07383,-0.111196 -0.12348,-0.236518 -0.192097,-0.147998 -0.174602,0.241197 -0.472285,0.220148 -0.712955,0.138975 -0.23689,-0.09658 -0.485685,-0.182862 -0.341228,-0.671283 0.09453,-0.286976 0.564078,-0.336387 0.790443,-0.26134 0.207492,0.0706 0.44954,0.221628 0.37639,0.475639 -0.0579,0.179242 0.20373,0.269531 0.268985,0.09925 0.115457,-0.317703 -0.187368,-0.704122 -0.578677,-0.854907 z" />
  <path
     fill="#e2c439"
     d="m 42.683595,5.8512729 c -0.206538,0.00648 -0.350598,0.058112 -0.389163,0.1659716 l -0.349119,0.993768 c -0.145048,0.4023841 2.192415,1.3396368 2.714355,1.2767447 0.194677,-0.055663 0.183795,-0.3904884 -0.04346,-0.3504992 -0.617675,0.083103 -2.34825,-0.7739432 -2.248045,-1.0623216 l 0.18408,-0.5602831 c 0.151425,-0.4019087 2.34678,0.5225276 2.528323,0.8736705 l -0.218751,0.6427535 c -0.0389,0.14608 0.26505,0.3025166 0.317871,0.1267984 L 45.44629,7.2146113 C 45.393828,6.8118996 44.740747,6.4041988 44.041505,6.1409501 43.546205,5.9544832 43.027822,5.8404756 42.683595,5.8512729 Z m -36.728517,3.3050002 -2.59375,1.1442759 1.9868165,9.41451 c 0.025158,0.124262 0.3213405,-0.07587 0.2939453,-0.194322 L 3.7475585,10.479407 5.7451173,9.61553 7.758789,19.118179 5.5507812,19.940821 C 5.233561,20.061179 5.352917,20.386895 5.665039,20.25627 l 2.434082,-0.935524 z m 33.859864,4.4265979 c -0.103432,0.0041 -0.232015,0.155588 -0.15381,0.272668 1.04324,0.731664 1.903273,1.133004 2.921388,1.149946 0.19468,-0.05566 0.138392,-0.373475 -0.08887,-0.33349 -0.714491,-0.09027 -1.870798,-0.405037 -2.580568,-1.008716 -0.01175,-0.03843 -0.03202,-0.06167 -0.05615,-0.07267 -0.01307,-0.0059 -0.02721,-0.0083 -0.04199,-0.0077 z m -0.956054,2.764819 c -0.103423,0.0041 -0.232018,0.155069 -0.15381,0.272151 1.008484,0.877529 1.958457,1.119236 2.919922,1.202522 0.19468,-0.05566 0.119843,-0.415739 -0.107422,-0.375756 -0.663345,6.84e-4 -2.090143,-0.4916 -2.560548,-1.019024 -0.01175,-0.03843 -0.03202,-0.06116 -0.05615,-0.07216 -0.01308,-0.0059 -0.02722,-0.0083 -0.04199,-0.0077 z" />
  <path
     d="m 2.1852918,8.5220531 c -0.047265,0.00681 -0.095786,0.028348 -0.141655,0.069453 L 0.7820995,9.4800975 3.142258,20.868531 4.34751,21.224406 c 0.3240353,0.145302 0.5232663,-0.236765 0.2023005,-0.401313 L 3.5349357,20.535337 1.2559422,9.7599501 2.410459,8.8725041 C 2.5712913,8.7398301 2.3901015,8.4925531 2.1852918,8.5220531 Z M 4.4056385,8.0326641 C 4.2233913,8.0792167 4.1313738,8.3901747 4.4697185,8.478155 L 5.165193,8.6271033 C 5.5444942,8.7380419 5.5652088,8.3161431 5.252666,8.2066667 L 4.5139845,8.0370768 c -0.03777,-0.01262 -0.074595,-0.013029 -0.1083462,-0.00442 z M 3.0104423,8.7703617 c -0.062329,0.013741 -0.1196441,0.06044 -0.1527926,0.1540241 L 2.6895192,9.2830415 C 2.5512638,9.648755 2.9331288,9.6787312 3.1081225,9.3833537 L 3.267001,9.0803553 C 3.3617273,8.9154584 3.1697137,8.735164 3.0104423,8.7703617 Z M 1.6176105,9.5805053 c -0.1582197,0.045271 -0.215283,0.2982138 0.017395,0.3795835 l 0.4583597,0.095183 c 0.366165,0.0643 0.3629411,-0.2529617 0.053014,-0.3706378 L 1.740963,9.5869414 C 1.6960002,9.5706072 1.654124,9.5700584 1.6176117,9.5805048 Z"
     fill="#46afa7" />
  <path
     d="M 5.856637,8.575599 C 5.841324,8.5797917 5.82541,8.5858096 5.808923,8.5938018 L 2.5370058,9.8805495 4.9273848,21.314234 8.7079178,19.889287 6.4437393,9.1592377 C 6.414981,9.0159133 6.1261365,9.1492574 6.1586433,9.2856367 L 8.3691995,19.638746 5.2239948,20.814707 2.9567273,10.137951 5.974127,8.9178129 C 6.1715973,8.82155 6.0862298,8.5123376 5.8566472,8.5755947 Z"
     fill="#58dcd2" />
  <path
     d="M 2.5699605,4.6907208 C 2.181553,4.7839667 1.7874382,4.9801044 1.8484357,5.2564519 l 0.6188141,2.8892362 c 0.085226,0.4404378 1.777512,0.021777 1.6960684,-0.4226749 L 3.733098,5.5220359 C 3.6960162,5.3417479 3.3460445,5.4102399 3.385544,5.5746196 l 0.4609468,2.0861225 c 0.0381,0.1929612 -1.0616193,0.4831434 -1.1074806,0.2389736 L 2.2165987,5.2535903 C 2.1762367,5.1127389 2.4825495,5.0307112 2.6946083,4.9874722 c 0.3791545,-0.079019 0.6320552,0.00928 0.6320552,0.00928 0,0 -0.324589,0.199413 -0.6817443,0.2773949 C 2.3411125,5.3447477 2.4084105,5.6657157 2.7026882,5.6113527 3.0945285,5.5124957 3.698747,5.2351924 3.6341193,4.9152096 3.581786,4.6843765 3.3018315,4.5383687 2.6475135,4.6734953 c -0.025717,0.00531 -0.051673,0.011016 -0.077569,0.01723 z"
     fill="#0975cf" />
  <path
     fill="url(#linearGradient2271)"
     d="m 43.77295,0 0.148925,1.5555973 h 0.510742 L 44.581055,0 Z M 5.1767577,0.09484093 c -0.5569947,0 -0.994185,0.18410073 -1.3115232,0.55203607 -0.3173382,0.3661749 -0.4760742,0.8653486 -0.4760742,1.4973527 0,0.6267227 0.158736,1.1250795 0.4760742,1.4947755 0.3173382,0.3679353 0.7545285,0.5515206 1.3115232,0.5515206 0.5553428,0 0.9925318,-0.1819515 1.3115235,-0.5463661 C 6.807272,3.2797451 6.966797,2.7797545 6.966797,2.1442297 6.966797,1.5087048 6.807272,1.0087144 6.4882812,0.64429977 6.1692895,0.27812481 5.7321005,0.09484093 5.1767577,0.09484093 Z m 13.6230473,0 c -0.556994,0 -0.994185,0.18410073 -1.311523,0.55203607 -0.317339,0.3661749 -0.476075,0.8653486 -0.476075,1.4973527 0,0.6267227 0.158736,1.1250795 0.476075,1.4947755 0.317338,0.3679353 0.754529,0.5515206 1.311523,0.5515206 0.555342,0 0.992533,-0.1819515 1.311523,-0.5463661 0.318992,-0.3644146 0.478516,-0.8644052 0.478516,-1.49993 0,-0.6355249 -0.159524,-1.1355153 -0.478516,-1.49992993 -0.31899,-0.36617496 -0.756181,-0.54945884 -1.311523,-0.54945884 z m 9.083985,0 c -0.556995,0 -0.994187,0.18410073 -1.311525,0.55203607 -0.31734,0.3661749 -0.476072,0.8653486 -0.476072,1.4973527 0,0.6267227 0.158732,1.1250795 0.476072,1.4947755 0.317338,0.3679353 0.75453,0.5515206 1.311525,0.5515206 0.555337,0 0.992533,-0.1819515 1.311523,-0.5463661 0.318992,-0.3644146 0.478515,-0.8644052 0.478515,-1.49993 0,-0.6355249 -0.159523,-1.1355153 -0.478515,-1.49992993 C 28.876323,0.27812481 28.439127,0.09484093 27.88379,0.09484093 Z m 10.51416,0 c -0.556995,0 -0.994185,0.18410073 -1.311525,0.55203607 -0.317338,0.3661749 -0.476072,0.8653486 -0.476072,1.4973527 0,0.6267227 0.158734,1.1250795 0.476072,1.4947755 0.31734,0.3679353 0.754533,0.5515206 1.311525,0.5515206 0.555343,0 0.992533,-0.1819515 1.311523,-0.5463661 0.318992,-0.3644146 0.478515,-0.8644052 0.478515,-1.49993 0,-0.6355249 -0.159523,-1.1355153 -0.478515,-1.49992993 C 39.390483,0.27812481 38.953293,0.09484093 38.39795,0.09484093 Z M 1.8100586,0.10051077 c -0.5536893,0 -0.99452217,0.18573445 -1.32177735,0.55719046 C 0.16267891,1.0273977 0,1.5236053 0,2.1468069 0,2.7928944 0.16267891,3.294518 0.48828125,3.6518912 0.8138836,4.0075032 1.2534396,4.1853714 1.8071289,4.1853714 c 0.17685,0 0.3156828,-0.0095 0.4165039,-0.028865 0.100821,-0.019363 0.209499,-0.047562 0.3251952,-0.084532 0.09421,-0.029928 0.185651,-0.065992 0.2749025,-0.1082425 0.089252,-0.044012 0.168075,-0.083041 0.2358398,-0.1164893 V 2.9230593 H 2.9750978 C 2.9288193,2.9670707 2.87433,3.0172334 2.8115235,3.0735677 2.748717,3.1299022 2.675902,3.1854806 2.5932618,3.2400549 2.5172328,3.2928685 2.4237262,3.3413965 2.3129883,3.3854088 c -0.1107379,0.042251 -0.227302,0.063399 -0.3496094,0.063399 -0.1173491,0 -0.2354903,-0.021964 -0.3544922,-0.065977 C 1.4915376,3.3388204 1.3849252,3.2675095 1.2890625,3.168924 1.1898942,3.0668173 1.1099819,2.9328789 1.0488281,2.7673963 0.98767444,2.6001526 0.95703122,2.3940877 0.95703122,2.1493841 c 0,-0.2323799 0.029066,-0.4338465 0.0869141,-0.6046109 0.059501,-0.1707644 0.1354703,-0.3063363 0.2280273,-0.406682 0.100821,-0.1109092 0.206645,-0.18845207 0.3173829,-0.23246342 0.1123906,-0.0457724 0.2352634,-0.0685535 0.3691406,-0.0685535 0.1123907,0 0.2197918,0.0203311 0.3222656,0.060822 0.1041266,0.0387303 0.1992103,0.0864417 0.2851563,0.14277682 0.085946,0.056334 0.1627038,0.114363 0.2304687,0.1742187 0.067765,0.058095 0.1243195,0.1082572 0.1689453,0.1505084 H 3.05957 V 0.42781508 C 2.9984165,0.39436577 2.9180157,0.35452083 2.8188477,0.30874845 2.7196793,0.26297676 2.62775,0.22691262 2.543457,0.20050609 2.4360248,0.16881782 2.3238921,0.14440302 2.2065429,0.1267982 2.0891939,0.1091934 1.9571581,0.10051076 1.8100586,0.10051077 Z m 13.6230464,0 c -0.553689,0 -0.994033,0.18573445 -1.321289,0.55719046 -0.325602,0.36969647 -0.488769,0.86590407 -0.488769,1.48910567 0,0.6460875 0.163167,1.1477111 0.488769,1.5050843 0.325603,0.355612 0.765159,0.5334802 1.318848,0.5334802 0.17685,0 0.315683,-0.0095 0.416504,-0.028865 0.10082,-0.019363 0.209011,-0.047562 0.324707,-0.084532 0.09421,-0.029928 0.186139,-0.065992 0.275391,-0.1082425 0.08925,-0.044012 0.167586,-0.083041 0.235351,-0.1164893 V 2.9230593 h -0.08447 c -0.04628,0.044011 -0.100768,0.094174 -0.163574,0.1505084 -0.06281,0.056335 -0.135621,0.1119129 -0.218261,0.1664872 -0.07603,0.052814 -0.169047,0.1013416 -0.279786,0.1453539 -0.110737,0.042251 -0.227301,0.063399 -0.349609,0.063399 -0.117348,0 -0.235491,-0.021964 -0.354492,-0.065977 -0.117349,-0.044011 -0.223961,-0.115322 -0.319824,-0.2139074 -0.09917,-0.1021072 -0.179569,-0.2360451 -0.240723,-0.4015277 -0.06115,-0.1672437 -0.0918,-0.3733086 -0.0918,-0.6180123 0,-0.2323799 0.02907,-0.4338464 0.08691,-0.6046108 0.0595,-0.1707645 0.13547,-0.3063363 0.228028,-0.4066821 0.10082,-0.1109091 0.206644,-0.18845201 0.317382,-0.23246335 0.112391,-0.0457724 0.235752,-0.0685536 0.369629,-0.0685536 0.112391,0 0.219792,0.0203311 0.322266,0.060822 0.104127,0.0387303 0.19921,0.0864417 0.285156,0.14277675 0.08594,0.056335 0.162704,0.114363 0.230469,0.1742188 0.06777,0.058095 0.123831,0.1082572 0.168457,0.1505083 h 0.09424 V 0.42781508 C 16.621465,0.3943658 16.541063,0.35452085 16.441895,0.30874845 16.342725,0.26297677 16.251286,0.22691267 16.166992,0.20050609 16.059561,0.16881782 15.946939,0.14440302 15.82959,0.1267982 15.71224,0.1091934 15.580205,0.10051076 15.433105,0.10051077 Z m 19.598145,0 c -0.55369,0 -0.994035,0.18573445 -1.32129,0.55719046 -0.325603,0.36969647 -0.488767,0.86590407 -0.488767,1.48910567 0,0.6460875 0.163164,1.1477111 0.488767,1.5050843 0.3256,0.355612 0.76516,0.5334802 1.318847,0.5334802 0.176848,0 0.315683,-0.0095 0.416505,-0.028865 0.100821,-0.019363 0.209013,-0.047562 0.324708,-0.084532 0.09421,-0.029928 0.186138,-0.065992 0.27539,-0.1082425 0.08925,-0.044012 0.167587,-0.083041 0.235353,-0.1164893 V 2.9230593 h -0.08447 c -0.04628,0.044011 -0.10077,0.094174 -0.163575,0.1505084 -0.06281,0.056335 -0.13562,0.1119129 -0.218262,0.1664872 -0.07603,0.052814 -0.169048,0.1013416 -0.279786,0.1453539 -0.110737,0.042251 -0.227302,0.063399 -0.34961,0.063399 -0.117349,0 -0.235487,-0.021964 -0.35449,-0.065977 -0.11735,-0.044011 -0.223959,-0.115322 -0.319824,-0.2139074 -0.09917,-0.1021072 -0.179568,-0.2360451 -0.240723,-0.4015277 -0.06115,-0.1672437 -0.0918,-0.3733086 -0.0918,-0.6180123 0,-0.2323799 0.02906,-0.4338464 0.08691,-0.6046108 0.0595,-0.1707645 0.135469,-0.3063363 0.228027,-0.4066821 0.10082,-0.1109091 0.206645,-0.18845201 0.317383,-0.23246335 0.112392,-0.0457724 0.235749,-0.0685536 0.369627,-0.0685536 0.112392,0 0.219795,0.0203311 0.322268,0.060822 0.104127,0.0387303 0.19921,0.0864417 0.285154,0.14277675 0.08595,0.056335 0.162708,0.114363 0.230471,0.1742188 0.06777,0.058095 0.123829,0.1082572 0.168454,0.1505083 h 0.09424 V 0.42781508 C 36.21961,0.39436577 36.139695,0.35452083 36.040527,0.30874845 35.941358,0.26297676 35.84943,0.22691262 35.765138,0.20050609 35.657705,0.16881782 35.545083,0.14440302 35.427735,0.1267982 35.310385,0.10919338 35.17835,0.10051076 35.03125,0.10051077 Z m -26.1606445,0.005154 c -0.437993,0 -0.803157,0.11442304 -1.0957032,0.34328293 C 7.482356,0.67604694 7.3359375,0.97375461 7.3359375,1.34169 c 0,0.2728705 0.062075,0.4995695 0.1860352,0.6808959 0.12396,0.1813274 0.3288113,0.3260963 0.6147461,0.433485 0.1239602,0.045772 0.257273,0.084286 0.399414,0.1159739 0.1437939,0.031688 0.2781952,0.065302 0.4038087,0.1005103 0.100821,0.028167 0.1875308,0.072914 0.2602538,0.1345301 0.072723,0.061615 0.109375,0.1416088 0.109375,0.2401947 0,0.088023 -0.022267,0.1593332 -0.066895,0.2139075 -0.044625,0.052814 -0.099115,0.094293 -0.1635742,0.1242211 -0.05289,0.026408 -0.123339,0.045922 -0.2109375,0.058244 -0.085946,0.012323 -0.1556063,0.01804 -0.208496,0.01804 -0.209906,0 -0.4262855,-0.044747 -0.649414,-0.1345297 C 7.7871258,3.2373803 7.5830635,3.1088577 7.3979493,2.9416145 h -0.084473 v 0.9350078 c 0.1834613,0.086262 0.382003,0.1583903 0.595215,0.2164851 0.2148642,0.058095 0.4634643,0.087109 0.7460937,0.087109 0.4908828,0 0.8803801,-0.1190231 1.1679686,-0.3566844 0.2892404,-0.2376616 0.4335944,-0.5519185 0.4335944,-0.9427395 0,-0.2728715 -0.06286,-0.4917032 -0.188477,-0.6571857 C 9.9439106,2.0563647 9.7542319,1.9232425 9.4980469,1.824657 9.3674755,1.7753638 9.244114,1.7368498 9.128418,1.708683 9.0143748,1.6805154 8.8954445,1.6515017 8.7714845,1.6215737 8.579759,1.5740417 8.4500888,1.5209131 8.3823243,1.4628182 8.3162118,1.4029624 8.283203,1.3229691 8.283203,1.2226233 c 0,-0.068658 0.020692,-0.1304688 0.062012,-0.1850429 0.042973,-0.0563345 0.09303,-0.0986306 0.150879,-0.12679822 0.07107,-0.035209 0.1391534,-0.0588068 0.2036132,-0.0711307 0.064459,-0.0123231 0.136786,-0.0185559 0.2177735,-0.0185559 0.208253,0 0.4107375,0.043113 0.607422,0.12937539 C 9.7232393,1.0367334 9.8911371,1.1424739 10.02832,1.2674666 h 0.08203 V 0.36957036 C 9.9384591,0.288589 9.7430728,0.22432791 9.5249025,0.17679586 9.3083843,0.12926313 9.0904287,0.10566517 8.8706055,0.10566477 Z m 22.7070315,0 c -0.437992,0 -0.80316,0.11442304 -1.095705,0.34328293 -0.292545,0.22709884 -0.438965,0.52480651 -0.438962,0.8927419 0,0.2728705 0.06207,0.4995695 0.186035,0.6808959 0.12396,0.1813274 0.328807,0.3260963 0.614745,0.433485 0.12396,0.045772 0.257272,0.084286 0.399415,0.1159739 0.143792,0.031688 0.278195,0.065302 0.403808,0.1005103 0.100822,0.028167 0.187532,0.072914 0.260254,0.1345301 0.07272,0.061615 0.109376,0.1416088 0.109376,0.2401947 0,0.088023 -0.02228,0.1593332 -0.0669,0.2139075 -0.04463,0.052814 -0.09912,0.094293 -0.163575,0.1242211 -0.05289,0.026408 -0.123337,0.045922 -0.210937,0.058244 -0.08595,0.012323 -0.155118,0.01804 -0.208008,0.01804 -0.209904,0 -0.426774,-0.044747 -0.649902,-0.1345297 -0.22313,-0.089784 -0.42719,-0.2183061 -0.612305,-0.3855493 h -0.08399 V 3.876621 c 0.18346,0.086262 0.381515,0.1583902 0.594728,0.2164851 0.214864,0.058095 0.463464,0.087109 0.746094,0.087109 0.490881,0 0.880378,-0.1190231 1.167968,-0.3566844 0.28924,-0.2376616 0.433595,-0.5519185 0.433595,-0.9427395 0,-0.2728715 -0.06238,-0.4917032 -0.18799,-0.6571858 C 32.65143,2.0563631 32.461263,1.923242 32.205078,1.8246565 32.074508,1.7753634 31.951145,1.7368493 31.83545,1.7086825 31.721405,1.6805148 31.602475,1.6515012 31.478515,1.6215731 31.28679,1.5740412 31.15712,1.5209125 31.089355,1.4628177 c -0.06611,-0.059856 -0.09912,-0.1398491 -0.09912,-0.2401949 0,-0.068658 0.02068,-0.1304689 0.06201,-0.185043 0.04297,-0.0563344 0.09303,-0.0986305 0.15088,-0.12679813 0.07107,-0.035209 0.139153,-0.058807 0.203612,-0.0711307 0.06446,-0.0123231 0.137276,-0.0185559 0.218263,-0.0185559 0.208255,0 0.410737,0.0431131 0.607423,0.12937539 0.198334,0.0862624 0.365749,0.19200304 0.502929,0.31699554 h 0.08203 V 0.36957036 C 32.645493,0.288589 32.450592,0.22432791 32.232423,0.17679586 32.015905,0.12926313 31.797462,0.10566517 31.577637,0.10566477 Z m 15.036621,0 c -0.437993,0 -0.803648,0.11442304 -1.096191,0.34328293 C 45.22552,0.67604694 45.07959,0.97375461 45.07959,1.34169 c 0,0.2728705 0.06208,0.4995695 0.186035,0.6808959 0.12396,0.1813274 0.328813,0.3260963 0.614745,0.433485 0.12396,0.045772 0.256785,0.084286 0.398927,0.1159739 0.143795,0.031688 0.278683,0.065302 0.404298,0.1005103 0.100817,0.028167 0.18753,0.072914 0.260252,0.1345301 0.07273,0.061615 0.108888,0.1416088 0.108888,0.2401947 0,0.088023 -0.02225,0.1593332 -0.06689,0.2139075 -0.04463,0.052814 -0.09912,0.094293 -0.163575,0.1242211 -0.05289,0.026408 -0.12285,0.045922 -0.210448,0.058244 -0.08595,0.012323 -0.155607,0.01804 -0.208497,0.01804 -0.209905,0 -0.426288,-0.044747 -0.649415,-0.1345297 -0.223127,-0.089784 -0.42719,-0.2183061 -0.612302,-0.3855493 h -0.08447 v 0.9350079 c 0.18346,0.086262 0.382002,0.1583902 0.595215,0.2164851 0.214862,0.058095 0.463463,0.087109 0.746093,0.087109 0.490882,0 0.879892,-0.1190231 1.16748,-0.3566844 C 47.85516,3.5858722 48,3.2716142 48,2.8807932 48,2.6079218 47.937135,2.3890902 47.811522,2.2236075 47.687562,2.0563637 47.497398,1.9232425 47.24121,1.824657 47.11064,1.7753638 46.987767,1.7368498 46.87207,1.708683 46.758027,1.6805153 46.639098,1.6515017 46.515138,1.6215737 46.323413,1.5740417 46.193255,1.5209131 46.125487,1.4628182 c -0.06611,-0.059856 -0.09912,-0.1398491 -0.09912,-0.2401949 0,-0.068658 0.02067,-0.1304688 0.06201,-0.1850429 0.04297,-0.0563345 0.09352,-0.0986306 0.151365,-0.12679822 0.07107,-0.035209 0.138665,-0.058807 0.203125,-0.0711307 0.06446,-0.0123231 0.137272,-0.0185559 0.218263,-0.0185559 0.208252,0 0.410737,0.043113 0.607422,0.12937539 0.198337,0.0862624 0.366235,0.19200293 0.503418,0.31699563 h 0.08154 V 0.36957036 C 47.681622,0.288589 47.486725,0.22432791 47.268555,0.17679586 47.052037,0.12926313 46.834083,0.10566517 46.614258,0.10566477 Z m -36.266113,0.0711307 v 0.74996497 h 1.090819 V 4.1090863 h 0.927247 V 0.92676083 h 1.090821 V 0.17679586 Z m 12.277343,0 V 4.1090863 h 0.921875 V 2.6668857 h 0.33252 l 1.028809,1.4422006 h 1.13037 L 24.796875,2.4375149 c 0.21321,-0.1109092 0.383478,-0.2597627 0.510742,-0.4463709 0.127268,-0.1883692 0.190918,-0.4329481 0.190918,-0.7339862 0,-0.2130154 -0.03853,-0.38843287 -0.11621,-0.52574869 C 25.304643,0.59233299 25.199607,0.47790928 25.067382,0.3881262 24.938465,0.30186385 24.798054,0.24546849 24.645996,0.21906193 24.493939,0.19089437 24.315299,0.17679586 24.110351,0.17679586 Z m 18.110352,0 V 4.1090863 h 2.496582 V 3.3591215 H 41.658203 V 2.3658688 h 1.450195 V 1.6159039 H 41.658203 V 0.92676083 h 1.574219 V 0.17679586 Z M 5.1791992,0.83707428 c 0.1074318,0 0.210402,0.0235985 0.3095703,0.0711307 0.100821,0.0457717 0.1911733,0.12249832 0.2705078,0.22988622 0.076029,0.1056274 0.136527,0.2411991 0.1811524,0.406682 0.046279,0.163723 0.069336,0.3627382 0.069336,0.5968793 0,0.246464 -0.02148,0.4462969 -0.064453,0.5994565 -0.042973,0.1513998 -0.104259,0.2840057 -0.1835938,0.3984348 -0.074376,0.105628 -0.162663,0.1839879 -0.2651367,0.2350408 -0.1024735,0.049293 -0.2082978,0.074224 -0.3173828,0.074224 -0.1074325,0 -0.2116792,-0.022779 -0.3124999,-0.068554 C 4.7658783,3.3327222 4.6760142,3.2543623 4.5966798,3.1452138 4.518998,3.0378258 4.457712,2.9047043 4.413086,2.7462634 4.3684605,2.5860618 4.3461915,2.385412 4.3461915,2.1442297 c 0,-0.2341408 0.023058,-0.4356068 0.069336,-0.6046109 0.047931,-0.169004 0.1100063,-0.304575 0.1860353,-0.4066821 0.085946,-0.1109086 0.175021,-0.18763512 0.267578,-0.22988612 0.092557,-0.0440114 0.1960148,-0.0659763 0.3100584,-0.0659763 z m 13.6230468,0 c 0.107433,0 0.210891,0.0235985 0.310058,0.0711307 0.100822,0.0457717 0.190685,0.12249832 0.27002,0.22988622 0.07603,0.1056274 0.136527,0.2411991 0.181152,0.406682 0.04628,0.163723 0.06934,0.3627382 0.06934,0.5968793 0,0.246464 -0.02148,0.4462969 -0.06445,0.5994565 -0.04297,0.1513998 -0.10426,0.2840057 -0.183595,0.3984348 -0.07437,0.105628 -0.162662,0.1839879 -0.265136,0.2350408 -0.102473,0.049293 -0.208297,0.074224 -0.317383,0.074224 -0.107432,0 -0.211679,-0.022779 -0.3125,-0.068554 -0.100827,-0.047532 -0.19069,-0.1258919 -0.270025,-0.2350404 -0.07768,-0.107388 -0.138968,-0.2405095 -0.183594,-0.3989504 -0.04463,-0.1602016 -0.06689,-0.3608514 -0.06689,-0.6020337 0,-0.2341408 0.02306,-0.4356068 0.06934,-0.6046109 0.04793,-0.169004 0.110007,-0.304575 0.186035,-0.4066821 0.08595,-0.1109086 0.17551,-0.18763513 0.268067,-0.22988613 0.09256,-0.0440114 0.195527,-0.0659763 0.30957,-0.0659763 z m 9.083984,0 c 0.107433,0 0.21089,0.0235985 0.31006,0.0711307 0.10082,0.0457717 0.190685,0.12249832 0.270017,0.22988622 0.07603,0.1056274 0.136528,0.2411991 0.181153,0.406682 0.04628,0.163723 0.06934,0.3627382 0.06934,0.5968793 0,0.246464 -0.02148,0.4462969 -0.06445,0.5994565 -0.04298,0.1513998 -0.10426,0.2840057 -0.183595,0.3984348 -0.07438,0.105628 -0.162665,0.1839879 -0.265138,0.2350408 -0.102474,0.049293 -0.208297,0.074224 -0.317382,0.074224 -0.107433,0 -0.21168,-0.022779 -0.3125,-0.068554 C 27.472908,3.3327222 27.383045,3.2543623 27.30371,3.1452138 27.226027,3.0378258 27.164742,2.9047043 27.120117,2.7462634 27.07549,2.5860618 27.053223,2.385412 27.053223,2.1442297 c 0,-0.2341408 0.02307,-0.4356068 0.06933,-0.6046109 0.04793,-0.169004 0.110008,-0.304575 0.186038,-0.4066821 0.08594,-0.1109086 0.17502,-0.18763512 0.267577,-0.22988612 0.09256,-0.0440114 0.196016,-0.0659763 0.310058,-0.0659763 z m 10.51416,0 c 0.107433,0 0.210893,0.0235985 0.31006,0.0711307 0.10082,0.0457717 0.190685,0.12249832 0.27002,0.22988622 0.07603,0.1056274 0.136525,0.2411991 0.18115,0.406682 0.04628,0.163723 0.06934,0.3627382 0.06934,0.5968793 0,0.246464 -0.02148,0.4462969 -0.06445,0.5994565 -0.04297,0.1513998 -0.10426,0.2840057 -0.183595,0.3984348 -0.07437,0.105628 -0.162665,0.1839879 -0.265138,0.2350408 -0.102474,0.049293 -0.208295,0.074224 -0.317382,0.074224 -0.107433,0 -0.21168,-0.022779 -0.3125,-0.068554 C 37.987068,3.3327222 37.897205,3.2543623 37.81787,3.1452138 37.740187,3.0378258 37.678902,2.9047043 37.634277,2.7462634 37.58965,2.5860618 37.567383,2.385412 37.567383,2.1442297 c 0,-0.2341408 0.02307,-0.4356068 0.06934,-0.6046109 0.04793,-0.169004 0.110005,-0.304575 0.186035,-0.4066821 0.08595,-0.1109086 0.175507,-0.18763512 0.268065,-0.22988612 0.09256,-0.0440114 0.195528,-0.0659763 0.30957,-0.0659763 z M 23.547363,0.9004734 h 0.310059 c 0.105779,0 0.194066,0.003268 0.265136,0.0103086 0.07107,0.007042 0.135512,0.0241065 0.19336,0.0505131 0.08264,0.0387302 0.141561,0.0943082 0.176269,0.166487 0.03636,0.070418 0.05469,0.1544956 0.05469,0.253081 0,0.1109086 -0.01517,0.2009175 -0.04492,0.2695749 -0.0281,0.068658 -0.07185,0.127503 -0.131347,0.176796 -0.06281,0.054574 -0.139565,0.090638 -0.230469,0.1082424 -0.08925,0.015845 -0.19823,0.02371 -0.327149,0.02371 h -0.265629 z m -4.49707,15.7585416 c -0.230902,0 -0.433323,0.03024 -0.606933,0.09072 -0.173611,0.05865 -0.309028,0.132869 -0.406251,0.22267 -0.104166,0.09713 -0.178982,0.202339 -0.224121,0.315964 -0.04514,0.113626 -0.06738,0.22983 -0.06738,0.348954 0,0.111792 0.01183,0.210012 0.03613,0.294316 0.0243,0.08247 0.05935,0.159442 0.104493,0.230916 0.04514,0.07331 0.09603,0.140028 0.153319,0.200506 0.05903,0.05865 0.126032,0.119124 0.200684,0.181435 -0.07812,0.04765 -0.158854,0.104633 -0.242187,0.170611 -0.0816,0.06414 -0.152615,0.139112 -0.213379,0.225246 -0.06597,0.09164 -0.119955,0.194608 -0.161621,0.308234 -0.03993,0.113626 -0.06006,0.249817 -0.06006,0.40926 0,0.375696 0.127605,0.680839 0.382812,0.915421 0.256945,0.232748 0.609702,0.349468 1.057618,0.349468 0.208333,0 0.407661,-0.03299 0.598633,-0.09897 0.190971,-0.06598 0.377767,-0.177197 0.560058,-0.332974 l 0.338379,0.346375 h 1.15918 v -0.05464 l -0.927245,-0.915414 c 0.07118,-0.08614 0.129178,-0.176853 0.174316,-0.272152 0.04687,-0.0953 0.08333,-0.188021 0.109375,-0.277821 0.0243,-0.07881 0.04373,-0.173017 0.05762,-0.282977 0.01563,-0.111793 0.02344,-0.205259 0.02344,-0.280399 v -0.305141 h -0.90918 v 0.885012 l -0.744629,-0.758728 c 0.166667,-0.05865 0.303983,-0.127372 0.411622,-0.206176 0.109374,-0.08064 0.197916,-0.171356 0.265624,-0.272153 0.05556,-0.08247 0.09462,-0.175193 0.117188,-0.277822 0.02431,-0.102628 0.03613,-0.194092 0.03613,-0.274729 0,-0.126455 -0.02675,-0.243919 -0.08057,-0.352046 -0.05208,-0.109959 -0.127604,-0.203427 -0.226562,-0.280399 -0.10243,-0.07697 -0.22933,-0.138195 -0.380372,-0.184012 -0.15104,-0.04582 -0.329536,-0.06855 -0.536132,-0.06855 z m 11.703124,0 c -0.585067,0 -1.044597,0.191172 -1.37793,0.5742 -0.333332,0.381195 -0.5,0.900762 -0.5,1.55869 0,0.635937 0.157445,1.141758 0.47168,1.517456 0.315973,0.375697 0.748266,0.576375 1.296876,0.602033 0.0069,0.153944 0.03369,0.298153 0.08057,0.431939 0.04861,0.133784 0.120823,0.249244 0.216307,0.346375 0.09549,0.09897 0.214086,0.174677 0.356445,0.227825 C 31.441463,21.972507 31.615943,22 31.820803,22 c 0.223958,0 0.388022,-0.0063 0.492188,-0.01908 0.105902,-0.01283 0.211265,-0.03281 0.315429,-0.0603 v -0.731409 h -0.09668 c -0.03819,0.022 -0.1014,0.04473 -0.18994,0.06855 -0.0868,0.02566 -0.169434,0.03866 -0.24756,0.03866 -0.203122,0 -0.345159,-0.03849 -0.426757,-0.115459 -0.07986,-0.07515 -0.121528,-0.212592 -0.125,-0.412352 0.347223,-0.144781 0.615453,-0.389445 0.804687,-0.733986 0.190973,-0.346375 0.286133,-0.760734 0.286133,-1.242726 0,-0.661594 -0.167372,-1.181904 -0.50244,-1.561267 -0.33507,-0.381195 -0.79411,-0.571622 -1.377443,-0.571622 z m 8.046388,0 c -0.585067,0 -1.04411,0.191172 -1.377442,0.5742 -0.333333,0.381195 -0.500001,0.900762 -0.500001,1.55869 0,0.652431 0.166668,1.171253 0.500001,1.556113 0.333332,0.383028 0.792375,0.574716 1.377442,0.574716 0.583333,0 1.04286,-0.189684 1.37793,-0.569046 0.335068,-0.379363 0.50244,-0.900188 0.50244,-1.561783 0,-0.661594 -0.167372,-1.181904 -0.50244,-1.561266 -0.33507,-0.381197 -0.794597,-0.571624 -1.37793,-0.571624 z m -31.8198245,0.0051 c -0.6284708,0 -1.1244585,0.193691 -1.4873048,0.580385 -0.3611102,0.386694 -0.5415037,0.900761 -0.5415037,1.542197 0,0.681752 0.1803935,1.208305 0.5415037,1.580338 0.3628463,0.370198 0.8491228,0.555644 1.4584963,0.555644 0.263888,0 0.5314133,-0.03499 0.802246,-0.104634 0.2725687,-0.06964 0.493924,-0.141117 0.6640625,-0.214424 v -2.0148 H 6.722168 v 0.766975 h 0.7524415 v 0.802541 c -0.034722,0.0037 -0.075684,0.0065 -0.1225587,0.0082 -0.046875,0.0018 -0.087348,0.0026 -0.1220703,0.0026 -0.3940962,0 -0.7051872,-0.113455 -0.9326172,-0.340706 -0.22743,-0.22725 -0.3408203,-0.579871 -0.3408203,-1.058198 0,-0.223585 0.029351,-0.420026 0.088379,-0.588633 0.060764,-0.168605 0.1421985,-0.307544 0.2446287,-0.417506 0.1076388,-0.113625 0.230035,-0.198101 0.3671876,-0.253081 0.1371525,-0.05497 0.2893885,-0.08247 0.4560547,-0.08247 0.1423608,0 0.2765845,0.02125 0.4033203,0.0634 0.128472,0.04216 0.2416452,0.09238 0.3388672,0.151024 0.083333,0.04948 0.1680775,0.109961 0.2548828,0.181435 0.088541,0.06964 0.1562502,0.123877 0.203125,0.162364 h 0.088867 V 17.02706 C 8.1848423,16.915266 7.9746087,16.827296 7.7714845,16.763153 7.56836,16.697177 7.3046325,16.664189 6.9799805,16.664189 Z m 7.2470705,0.0056 c -0.460069,0 -0.843588,0.118953 -1.150879,0.3572 -0.307291,0.236414 -0.460938,0.54631 -0.460938,0.929338 0,0.284065 0.06511,0.520481 0.195313,0.709246 0.130208,0.188763 0.345649,0.339216 0.645996,0.451009 0.130208,0.04765 0.26964,0.08763 0.418945,0.120614 0.151041,0.03299 0.29286,0.06798 0.424805,0.104633 0.105903,0.02932 0.197049,0.07605 0.273438,0.1402 0.07639,0.06414 0.114257,0.147359 0.114257,0.249987 0,0.09163 -0.02344,0.165859 -0.07031,0.22267 -0.04687,0.05499 -0.104166,0.09822 -0.171874,0.129377 -0.05556,0.02749 -0.129178,0.04748 -0.221191,0.0603 -0.09028,0.01283 -0.163196,0.01959 -0.218751,0.01959 -0.220485,0 -0.447755,-0.04674 -0.682129,-0.1402 -0.234374,-0.09347 -0.44911,-0.227425 -0.643554,-0.401528 h -0.08838 v 0.973152 c 0.192708,0.0898 0.401042,0.164767 0.625,0.225245 0.225694,0.06048 0.486817,0.09072 0.783691,0.09072 0.515624,0 0.92448,-0.123705 1.226562,-0.371115 0.30382,-0.247411 0.456056,-0.574546 0.456056,-0.981398 0,-0.284064 -0.0663,-0.512233 -0.198243,-0.684504 -0.130208,-0.174104 -0.329536,-0.312299 -0.598632,-0.41493 -0.137153,-0.05131 -0.266656,-0.0918 -0.388184,-0.121127 -0.119791,-0.02933 -0.244792,-0.05956 -0.375,-0.09072 -0.201389,-0.04948 -0.337512,-0.104462 -0.408691,-0.164941 -0.06944,-0.06231 -0.104493,-0.145526 -0.104493,-0.249987 0,-0.07147 0.02203,-0.135447 0.06543,-0.19226 0.04514,-0.05865 0.09793,-0.102628 0.158691,-0.131953 0.07465,-0.03665 0.145671,-0.0614 0.213379,-0.07423 0.06771,-0.01283 0.144423,-0.01959 0.229493,-0.01959 0.218749,0 0.431098,0.04524 0.637695,0.135046 0.208333,0.0898 0.384711,0.19976 0.528809,0.32988 h 0.08594 v -0.935008 c -0.180555,-0.0843 -0.38558,-0.151024 -0.614746,-0.200506 -0.22743,-0.04948 -0.456598,-0.07423 -0.6875,-0.07423 z m -4.182129,0.07423 -1.3100587,4.093107 h 0.9765623 l 0.2421872,-0.835528 h 1.2187502 l 0.242188,0.835528 h 1.00293 l -1.310059,-4.093104 z m 13.427246,0 v 4.09311 h 2.588379 V 20.05672 h -1.614746 v -3.312732 z m 2.895507,0 V 17.4589 h 0.557617 v 2.663795 h -0.557617 v 0.7144 h 2.088867 v -0.7144 h -0.557617 v -2.663792 h 0.557617 v -0.714915 z m 6.786622,0 v 2.61431 c 0,0.511316 0.139921,0.899674 0.419433,1.165411 0.28125,0.265736 0.682292,0.39895 1.203125,0.39895 0.536457,0 0.94081,-0.134702 1.21338,-0.404105 0.274305,-0.271236 0.41162,-0.658848 0.41162,-1.162833 v -2.611732 h -0.97412 v 2.554006 c 0,0.29506 -0.05279,0.509485 -0.158693,0.64327 -0.104164,0.133783 -0.26823,0.200505 -0.492187,0.200505 -0.229165,0 -0.395127,-0.06947 -0.497558,-0.208754 -0.100694,-0.139282 -0.15088,-0.350958 -0.15088,-0.635021 v -2.554004 z m 8.101563,0 v 4.093107 h 0.96875 V 19.33613 h 0.348633 l 1.081054,1.500961 h 1.187501 L 43.53711,19.097045 c 0.223957,-0.115458 0.402453,-0.270149 0.536133,-0.464412 0.13368,-0.196096 0.200682,-0.45101 0.200682,-0.764397 0,-0.221753 -0.04096,-0.403933 -0.122558,-0.546882 -0.0816,-0.14478 -0.191677,-0.263734 -0.330567,-0.357199 -0.135415,-0.0898 -0.283147,-0.14879 -0.44287,-0.17628 -0.159723,-0.02933 -0.347223,-0.04381 -0.5625,-0.04381 z m -22.247559,0.500493 c 0.02257,0 0.05382,0.0034 0.09375,0.01083 0.03993,0.0073 0.07639,0.02583 0.109374,0.05515 0.03646,0.03115 0.0663,0.07514 0.08887,0.131953 0.02431,0.05681 0.03613,0.131037 0.03613,0.22267 0,0.113626 -0.02154,0.216084 -0.06494,0.307718 -0.04167,0.09164 -0.104166,0.177598 -0.1875,0.258235 -0.121527,-0.106294 -0.217176,-0.206004 -0.286621,-0.299469 -0.06771,-0.0953 -0.101563,-0.197013 -0.101563,-0.305141 0,-0.07514 0.01232,-0.140373 0.03662,-0.195352 0.02431,-0.05498 0.05225,-0.09421 0.0835,-0.118036 0.03993,-0.03115 0.0752,-0.0504 0.106445,-0.05773 0.03125,-0.0073 0.0599,-0.01083 0.08594,-0.01083 z m 11.747559,0.18659 c 0.112847,0 0.221518,0.02474 0.325682,0.07423 0.105903,0.04765 0.200361,0.127371 0.283693,0.239164 0.07986,0.10996 0.143065,0.251421 0.18994,0.423692 0.04861,0.170437 0.07324,0.37736 0.07324,0.621105 0,0.256574 -0.02273,0.464755 -0.06787,0.624199 -0.04514,0.157608 -0.109538,0.295805 -0.192873,0.414927 -0.07813,0.10996 -0.17068,0.191687 -0.27832,0.244833 -0.107638,0.05131 -0.218912,0.0768 -0.333495,0.0768 -0.112847,0 -0.222223,-0.024 -0.328125,-0.07165 -0.105903,-0.04948 -0.20036,-0.130694 -0.283693,-0.244319 -0.0816,-0.111793 -0.145995,-0.250504 -0.19287,-0.415444 -0.04687,-0.166774 -0.07031,-0.375698 -0.07031,-0.626775 0,-0.243746 0.02415,-0.453416 0.07275,-0.629352 0.05035,-0.175937 0.115452,-0.316882 0.195312,-0.423176 0.09028,-0.115458 0.18403,-0.19518 0.28125,-0.239165 0.09722,-0.04582 0.205893,-0.06906 0.325685,-0.06906 z m 8.046875,0 c 0.112848,0 0.221028,0.02474 0.325195,0.07423 0.105902,0.04765 0.200847,0.127371 0.28418,0.239164 0.07986,0.10996 0.143065,0.251421 0.18994,0.423692 0.04861,0.170437 0.07276,0.37736 0.07276,0.621105 0,0.256574 -0.02225,0.464755 -0.06738,0.624199 -0.04514,0.157608 -0.109537,0.295805 -0.192872,0.414927 -0.07813,0.10996 -0.17117,0.191687 -0.278808,0.244833 -0.107639,0.05131 -0.218425,0.0768 -0.333007,0.0768 -0.112848,0 -0.222222,-0.024 -0.328125,-0.07165 -0.105903,-0.04948 -0.200847,-0.130694 -0.28418,-0.244319 -0.0816,-0.111793 -0.145507,-0.250504 -0.192382,-0.415444 -0.04687,-0.166774 -0.07031,-0.375698 -0.07031,-0.626775 0,-0.243746 0.02415,-0.453416 0.07275,-0.629352 0.05035,-0.175937 0.115453,-0.316882 0.195313,-0.423176 0.09028,-0.115458 0.18403,-0.19518 0.28125,-0.239165 0.09722,-0.04582 0.205892,-0.06906 0.325685,-0.06906 z m 3.421875,0.06598 h 0.325195 c 0.11111,0 0.204155,0.004 0.278807,0.01134 0.07465,0.0073 0.142363,0.02457 0.203126,0.05206 0.08681,0.04032 0.1486,0.09805 0.185059,0.173186 0.03819,0.07331 0.05713,0.161278 0.05713,0.263906 0,0.115458 -0.01563,0.208925 -0.04687,0.2804 -0.02951,0.07147 -0.07568,0.132697 -0.138182,0.184011 -0.06597,0.05681 -0.146703,0.09455 -0.242188,0.112883 -0.09375,0.01649 -0.208335,0.02474 -0.34375,0.02474 h -0.27832 z m -31.661622,0.412351 0.395996,1.349938 h -0.791503 z m 8.12793,1.075208 1.041504,1.041704 c -0.0816,0.0678 -0.164225,0.115286 -0.247559,0.142777 -0.0816,0.02566 -0.176052,0.03866 -0.283691,0.03866 -0.07813,0 -0.15625,-0.01449 -0.234375,-0.04382 -0.07639,-0.02933 -0.145996,-0.07331 -0.208496,-0.131952 -0.0625,-0.05865 -0.11339,-0.132125 -0.15332,-0.220094 -0.03819,-0.0898 -0.05762,-0.195008 -0.05762,-0.315964 0,-0.106295 0.01682,-0.207264 0.0498,-0.302563 0.03472,-0.09713 0.06597,-0.166603 0.09375,-0.208754 z" />
</svg>