<?xml version="1.0" encoding="UTF-8" standalone="no"?>
<!-- Created with Inkscape (http://www.inkscape.org/) -->

<svg
   width="16"
   height="16"
   viewBox="0 0 16 16"
   version="1.1"
   id="svg5"
   xml:space="preserve"
   xmlns="http://www.w3.org/2000/svg"
   xmlns:svg="http://www.w3.org/2000/svg"><defs
     id="defs2" /><path
     style="display:inline;fill:#0161cf;stroke:none;stroke-width:0;stroke-dasharray:none"
     d="m 4.09178,15.99489 c -0.72153,-0.0136 -1.28285,-0.53846 -1.2797,-1.1804 l 3.1e-4,-3.45088 9.18946,-0.20257 0.002,-3.69708 -9.19064,-0.0309 5.6e-4,-6.15387 C 2.80277,0.71698 3.36318,0.00502 4.0205,0 l 6.92026,0.002 -0.0434,3.91599 c 10e-4,0.33993 0.69463,0.86761 0.97591,0.84513 l 4.12341,0.0216 -0.0126,9.76266 c 0.0127,0.74023 -0.78832,1.4415 -1.56851,1.45236 z"
     id="path306" /><path
     style="display:inline;fill:#004ea6;stroke:none;stroke-width:0;stroke-dasharray:none"
     d="M 0.88877,12.25004 C 0.21647,12.24204 0.00546,11.81892 0.0121,11.11024 L 0,7.73228 C 3.4e-4,7.17348 0.23234,6.88682 0.87718,6.8816 l 10.81547,-0.002 c 0.78146,-0.011 1.05743,0.34251 1.05149,0.96896 l -0.023,3.34827 c 0.006,0.64709 -0.23138,1.04025 -0.93967,1.04826 z m 9.98448,-8.25723 0.0395,-3.9569 c 0,0 5.0417,4.74794 5.08724,4.79038 L 11.7397,4.82534 C 11.18443,4.82581 10.87116,4.38647 10.87321,3.99282 Z"
     id="path304" /><text
     xml:space="preserve"
     style="font-style:normal;font-variant:normal;font-weight:bold;font-stretch:normal;font-size:4.33979px;font-family:Tahoma;-inkscape-font-specification:'Tahoma, Bold';font-variant-ligatures:normal;font-variant-caps:normal;font-variant-numeric:normal;font-variant-east-asian:normal;text-align:center;text-anchor:middle;opacity:1;fill:#ffffff;fill-opacity:1;stroke:none;stroke-width:0;stroke-miterlimit:11.9;paint-order:markers fill stroke"
     x="6.0445457"
     y="11.500723"
     id="text515"
     transform="scale(1.0372776,0.96406208)"><tspan
       id="tspan513"
       x="6.0445457"
       y="11.500723"
       style="stroke-width:0">LOGS</tspan></text></svg>
