<svg
   width="64"
   height="30"
   viewBox="0 0 64 30"
   fill="none"
   xml:space="preserve"
   xmlns:xlink="http://www.w3.org/1999/xlink"
   xmlns="http://www.w3.org/2000/svg">
  <linearGradient
   id="linearGradient1311"><stop
     style="stop-color:#bc0205;stop-opacity:1;"
     offset="0"
     id="stop1307" /><stop
     style="stop-color:#f0c6c9;stop-opacity:1;"
     offset="1"
     id="stop1309" /></linearGradient><linearGradient
   id="linearGradient2277"><stop
     style="stop-color:#0240bc;stop-opacity:1;"
     offset="0"
     id="stop2273" /><stop
     style="stop-color:#9dd0f0;stop-opacity:1;"
     offset="1"
     id="stop2275" /></linearGradient><linearGradient
   xlink:href="#linearGradient2277"
   id="linearGradient2271"
   gradientUnits="userSpaceOnUse"
   x1="45.649166"
   y1="264.64117"
   x2="702.21954"
   y2="561.71326"
   gradientTransform="matrix(0.08462373,0,0,0.09218412,-1.847673,-23.204474)" /><linearGradient
   xlink:href="#linearGradient1311"
   id="linearGradient530"
   gradientUnits="userSpaceOnUse"
   gradientTransform="matrix(0.06892656,0,0,0.07508455,15.218841,-17.44005)"
   x1="213.17627"
   y1="325.84793"
   x2="250.23529"
   y2="562.61194" />
  <path
   d="m 25.3496,13.660617 c 0.04925,5.243576 3.830685,10.602716 6.498741,15.874314 2.888366,-5.200068 6.473592,-11.95963 6.506595,-15.760002 0.02792,-3.433697 -2.96134,-6.6521433 -6.307597,-6.6489307 -3.670263,0.00925 -6.695535,3.3702157 -6.697739,6.5346187 z m 6.574665,5.846769 c -3.041749,-0.105927 -4.853202,-2.299373 -4.905916,-5.86191 -0.05296,-2.051999 1.809263,-4.8729615 5.10491,-4.8231055 2.088294,-0.00229 4.647257,2.0921895 4.651057,4.9758215 -0.05797,2.828126 -1.888776,5.68638 -4.850051,5.709194 z m -1.913053,-8.910805 0.0302,6.334551 -0.740919,0.0038 0.01764,0.979292 4.713526,0.01784 4e-5,-0.937274 -0.790159,-0.01023 0.02847,-4.150362 0.219592,-0.07735 0.01307,3.322042 c -0.0016,0.622103 1.30238,0.666841 1.316767,0.06595 l 0.01917,-4.049121 -0.749414,-0.866991 -0.263614,0.316676 0.650434,0.735842 0.0039,3.637398 c 0.0013,0.445176 -0.658128,0.42751 -0.656994,-0.0531 l 0.01907,-3.486478 -0.568154,-0.09915 0.0112,-1.679839 z m 0.516757,2.497854 -0.0069,-1.78885 2.326445,0.0014 -0.0083,1.770761 z"
   fill="url(#linearGradient530)" />
  <path
   fill="#3b11f1"
   d="m 56.966656,10.531812 c -0.13284,-0.04988 -0.294252,-0.03533 -0.347923,0.09729 -0.233493,0.699869 -0.51026,1.217598 -1.041869,1.866533 -0.433824,0.408244 -2.621124,-0.173493 -3.168971,1.437786 0,0 -3.697186,10.271507 -3.601333,10.621633 -0.41782,1.271601 7.062267,4.455674 7.592273,2.889773 l 3.641678,-10.53338 c 0.430918,-1.233631 -1.052387,-2.408581 -1.480007,-3.08666 -0.212788,-0.461993 0.05268,-1.638785 0.299849,-2.184453 0.180374,-0.351263 -0.423864,-0.592853 -0.482873,-0.218204 -0.161284,0.827859 -0.624431,1.897509 -0.374304,2.395894 0.332551,0.662833 1.818308,2.210215 1.65816,2.793589 L 56.0691,27.066747 c -0.329607,0.960333 -6.971871,-1.747398 -6.713351,-2.535112 -0.12544,-0.252751 3.45026,-10.257785 3.45026,-10.257785 0.438991,-1.30485 2.338275,-0.745644 3.160295,-1.344909 0.428849,-0.79528 0.834685,-1.436706 1.178525,-2.10682 0.05904,-0.125861 -0.04533,-0.240477 -0.178202,-0.290322 z m 2.324597,5.735 c -0.03157,-0.0091 -0.06667,-0.01146 -0.104546,-0.0046 -1.164715,0.299285 -5.406204,-1.503767 -5.736155,-2.248632 -0.0838,-0.279538 -0.504252,0.101495 -0.357585,0.326066 1.213033,1.385465 4.937669,2.628769 6.248929,2.464082 0.22712,-0.06643 0.170176,-0.472818 -0.05064,-0.536866 z m -4.660809,4.435366 c -0.488411,-0.197632 -1.319417,0.07113 -1.508455,0.574061 -0.201993,0.616085 -0.03732,1.186437 0.65376,1.465727 0.382678,0.151573 1.205475,0.13391 1.373547,-0.373872 0.09844,-0.151631 -0.16464,-0.322524 -0.256129,-0.201815 -0.232803,0.328905 -0.629714,0.300201 -0.950607,0.189512 -0.315853,-0.131701 -0.64758,-0.249358 -0.454971,-0.915386 0.12604,-0.391332 0.752104,-0.45871 1.053924,-0.356374 0.276656,0.09627 0.599387,0.30222 0.501854,0.6486 -0.0772,0.24442 0.27164,0.367541 0.358646,0.13534 0.153943,-0.433231 -0.249824,-0.960166 -0.771569,-1.165782 z" />
  <path
   fill="#e2c439"
   d="m 56.91146,7.9790086 c -0.275384,0.00884 -0.467464,0.079244 -0.518884,0.2263249 l -0.465492,1.3551382 c -0.193397,0.5487053 2.92322,1.8267773 3.61914,1.7410153 0.259569,-0.07591 0.24506,-0.532484 -0.05795,-0.477953 -0.823566,0.113322 -3.131,-1.0553773 -2.997393,-1.4486206 l 0.24544,-0.7640225 c 0.2019,-0.5480572 3.12904,0.7125377 3.371097,1.1913689 L 59.81575,10.678741 c -0.05187,0.199201 0.3534,0.412524 0.423828,0.172908 L 60.595053,9.8381064 C 60.525104,9.2889541 59.654329,8.7329984 58.722007,8.374023 58.061607,8.1197499 57.370429,7.964285 56.91146,7.9790086 Z M 7.940104,12.485827 4.4817707,14.046203 7.1308593,26.884171 c 0.033544,0.169449 0.428454,-0.103459 0.3919271,-0.264984 L 4.9967447,14.290101 7.6601564,13.112087 10.345052,26.070244 7.4010416,27.192029 c -0.4229603,0.164125 -0.2638189,0.608283 0.1523437,0.430158 l 3.2454427,-1.275715 z m 45.146485,6.03627 c -0.137909,0.0056 -0.309353,0.212165 -0.20508,0.37182 1.390987,0.997724 2.537698,1.545006 3.895184,1.568108 0.259574,-0.0759 0.184523,-0.509284 -0.118493,-0.454759 -0.952655,-0.123095 -2.494397,-0.552323 -3.440757,-1.375522 -0.01567,-0.05241 -0.04269,-0.0841 -0.07487,-0.09909 -0.01743,-0.0081 -0.03628,-0.01132 -0.05599,-0.0105 z m -1.274738,3.770208 c -0.137898,0.0056 -0.309358,0.211458 -0.20508,0.371115 1.344645,1.196631 2.611276,1.526231 3.893229,1.639803 0.259573,-0.0759 0.159791,-0.566917 -0.143229,-0.512395 -0.88446,9.33e-4 -2.786858,-0.670364 -3.414064,-1.389578 -0.01567,-0.05241 -0.04269,-0.0834 -0.07487,-0.0984 -0.01744,-0.0081 -0.03629,-0.01132 -0.05599,-0.0105 z" />
  <path
   d="m 2.9137224,11.620981 c -0.06302,0.0093 -0.1277147,0.03866 -0.1888733,0.0947 l -1.6820498,1.211716 3.146878,15.529682 1.6070027,0.485284 c 0.4320471,0.198139 0.6976884,-0.322862 0.269734,-0.547245 L 4.7132476,28.002732 1.6745896,13.309023 3.2139453,12.098869 C 3.4283884,11.91795 3.186802,11.580754 2.9137224,11.620981 Z m 2.9604623,-0.667348 c -0.2429963,0.06348 -0.3656863,0.487515 0.08544,0.607488 l 0.9272993,0.20311 c 0.5057349,0.151281 0.5333544,-0.424036 0.1166307,-0.573322 L 6.018646,10.95965 c -0.05036,-0.01721 -0.09946,-0.01777 -0.1444616,-0.006 z m -1.8602616,1.005952 c -0.083105,0.01874 -0.1595255,0.08242 -0.2037235,0.210032 l -0.224174,0.489076 c -0.1843405,0.498701 0.3248128,0.539577 0.5581377,0.136789 l 0.211838,-0.41318 C 4.4823031,12.157444 4.2262849,11.911587 4.0139231,11.959585 Z m -1.8571091,1.10474 c -0.2109596,0.06173 -0.287044,0.406655 0.023193,0.517614 l 0.6111463,0.129795 c 0.48822,0.08768 0.4839215,-0.344947 0.070685,-0.505415 L 2.321284,13.073103 c -0.05995,-0.02228 -0.1157853,-0.02302 -0.1644684,-0.0088 z"
   fill="#46afa7" />
  <path
   d="m 7.8088493,11.693999 c -0.020417,0.0057 -0.041636,0.01392 -0.063619,0.02482 L 3.3826744,13.473477 6.5698464,29.064865 11.610557,27.121755 8.5916524,12.48987 C 8.553308,12.294428 8.168182,12.47626 8.2115244,12.662232 L 11.158933,26.780109 6.9653264,28.383692 3.9423031,13.824479 7.9655027,12.160654 C 8.2287964,12.029387 8.1149731,11.607733 7.8088629,11.693993 Z"
   fill="#58dcd2" />
  <path
   d="M 3.426614,6.3964375 C 2.9087373,6.5235911 2.3832509,6.7910515 2.4645809,7.167889 l 0.8250855,3.939867 c 0.1136347,0.600598 2.370016,0.0297 2.2614245,-0.576374 L 4.977464,7.530049 C 4.9280216,7.2842017 4.4613927,7.3775999 4.5140587,7.6017541 l 0.6145957,2.8447129 c 0.0508,0.263128 -1.4154924,0.658832 -1.4766408,0.325872 L 2.9554649,7.1639869 C 2.9016489,6.9719168 3.310066,6.8600608 3.5928111,6.8010985 c 0.5055393,-0.1077531 0.8427402,0.012654 0.8427402,0.012654 0,0 -0.4327853,0.2719268 -0.9089924,0.3782657 C 3.1214833,7.2882924 3.211214,7.725976 3.6035843,7.6518447 4.126038,7.5170397 4.9316627,7.1388988 4.8454924,6.7025586 4.7757147,6.3877862 4.402442,6.1886847 3.530018,6.3729482 3.495729,6.3801892 3.461121,6.3879701 3.4265927,6.3964434 Z"
   fill="#0975cf" />
  <path
   fill="url(#linearGradient2271)"
   d="M 58.363933,0 58.5625,2.121269 h 0.680989 L 59.441407,0 Z M 6.9023436,0.12932854 c -0.7426596,0 -1.32558,0.25104645 -1.7486976,0.75277647 C 4.7305284,1.3814345 4.5188804,2.0621258 4.5188804,2.9239496 c 0,0.8546219 0.211648,1.5341993 0.6347656,2.0383302 0.4231176,0.50173 1.006038,0.7520736 1.7486976,0.7520736 0.7404571,0 1.3233757,-0.2481157 1.748698,-0.7450447 0.4253211,-0.4969289 0.6380211,-1.1787344 0.6380211,-2.0453591 0,-0.8666248 -0.2127,-1.54843 -0.6380211,-2.04535899 C 8.2257193,0.37926111 7.6428007,0.12932854 6.9023436,0.12932854 Z m 18.1640634,0 c -0.742659,0 -1.32558,0.25104645 -1.748698,0.75277647 -0.423118,0.49932949 -0.634766,1.18002079 -0.634766,2.04184459 0,0.8546219 0.211648,1.5341993 0.634766,2.0383302 0.423118,0.50173 1.006039,0.7520736 1.748698,0.7520736 0.740456,0 1.323377,-0.2481157 1.748697,-0.7450447 0.425323,-0.4969289 0.638021,-1.1787344 0.638021,-2.0453591 0,-0.8666248 -0.212698,-1.54843 -0.638021,-2.04535899 -0.42532,-0.4993295 -1.008241,-0.74926207 -1.748697,-0.74926207 z m 12.11198,0 c -0.74266,0 -1.325583,0.25104645 -1.7487,0.75277647 -0.42312,0.49932949 -0.634763,1.18002079 -0.634763,2.04184459 0,0.8546219 0.211643,1.5341993 0.634763,2.0383302 0.423117,0.50173 1.00604,0.7520736 1.7487,0.7520736 0.740449,0 1.323377,-0.2481157 1.748697,-0.7450447 0.425323,-0.4969289 0.63802,-1.1787344 0.63802,-2.0453591 0,-0.8666248 -0.212697,-1.54843 -0.63802,-2.04535899 -0.42532,-0.4993295 -1.008248,-0.74926207 -1.748697,-0.74926207 z m 14.01888,0 c -0.74266,0 -1.32558,0.25104645 -1.7487,0.75277647 -0.423118,0.49932949 -0.634763,1.18002079 -0.634763,2.04184459 0,0.8546219 0.211645,1.5341993 0.634763,2.0383302 0.42312,0.50173 1.006044,0.7520736 1.7487,0.7520736 0.740457,0 1.323377,-0.2481157 1.748697,-0.7450447 0.425323,-0.4969289 0.63802,-1.1787344 0.63802,-2.0453591 0,-0.8666248 -0.212697,-1.54843 -0.63802,-2.04535899 -0.42532,-0.4993295 -1.00824,-0.74926207 -1.748697,-0.74926207 z m -48.7838555,0.007732 c -0.7382524,0 -1.3260296,0.25327425 -1.76236983,0.75980518 C 0.21690521,1.4009969 0,2.0776436 0,2.927464 0,3.8084924 0.21690521,4.4925246 0.65104167,4.9798517 1.0851781,5.4647772 1.6712528,5.7073247 2.4095052,5.7073247 c 0.2358,0 0.4209104,-0.012955 0.5553385,-0.039362 0.134428,-0.026404 0.279332,-0.064857 0.4335936,-0.1152709 C 3.5240507,5.5118815 3.645972,5.4627034 3.764974,5.4050891 3.8839767,5.3450727 3.989074,5.2918513 4.0794271,5.24624 V 3.98599 h -0.11263 C 3.9050924,4.0460056 3.83244,4.1144093 3.748698,4.1912288 3.664956,4.2680485 3.5678693,4.3438373 3.4576824,4.4182567 c -0.101372,0.072018 -0.2260475,0.1381931 -0.373698,0.1982099 -0.1476505,0.057615 -0.3030693,0.086453 -0.4661459,0.086453 -0.1564654,0 -0.313987,-0.029951 -0.4726562,-0.089968 C 1.9887168,4.5529369 1.8465669,4.4556948 1.71875,4.32126 1.5865256,4.1820236 1.4799759,3.9993804 1.3984375,3.7737222 1.3168993,3.5456626 1.2760416,3.264665 1.2760416,2.9309784 c 0,-0.3168817 0.038755,-0.5916089 0.1158855,-0.8244695 C 1.4712618,1.8736484 1.5725542,1.6887776 1.6959635,1.5519425 1.8303915,1.4007027 1.9714902,1.2949625 2.1191407,1.234947 2.2689948,1.17253 2.4328252,1.1414649 2.6113282,1.1414649 c 0.1498542,0 0.2930557,0.027724 0.4296874,0.082939 0.1388355,0.052814 0.2656138,0.117875 0.3802084,0.1946957 0.1145947,0.076819 0.2169384,0.1559495 0.3072916,0.2375709 0.090353,0.07922 0.1657594,0.1476235 0.2252604,0.2052388 H 4.0794267 V 0.58338421 C 3.9978887,0.53777151 3.8906876,0.4834375 3.7584636,0.42102062 3.6262391,0.35860468 3.5036667,0.3094263 3.391276,0.2734174 3.2480331,0.23020612 3.0985228,0.19691321 2.9420572,0.17290664 2.7855919,0.14890009 2.6095441,0.13706013 2.4134115,0.13706054 Z m 18.1640615,0 c -0.738252,0 -1.325377,0.25327425 -1.761718,0.75980518 -0.434136,0.50413158 -0.651692,1.18077828 -0.651692,2.03059868 0,0.8810284 0.217556,1.5650606 0.651692,2.0523877 0.434137,0.4849255 1.020212,0.727473 1.758464,0.727473 0.2358,0 0.42091,-0.012955 0.555338,-0.039362 0.134427,-0.026404 0.278682,-0.064857 0.432943,-0.1152709 0.125613,-0.040811 0.248185,-0.089989 0.367188,-0.1476034 0.119,-0.060017 0.223448,-0.1132377 0.313801,-0.158849 V 3.98599 h -0.112626 c -0.06171,0.060015 -0.134358,0.1284191 -0.218099,0.2052388 -0.08375,0.07682 -0.180828,0.1526085 -0.291015,0.2270279 -0.101373,0.07202 -0.225396,0.1381931 -0.373048,0.1982099 -0.147649,0.057615 -0.303068,0.086453 -0.466145,0.086453 -0.156464,0 -0.313988,-0.029951 -0.472656,-0.089968 C 20.153435,4.5529356 20.011285,4.455694 19.883468,4.3212593 19.751241,4.1820223 19.644043,3.9993796 19.562504,3.7737215 c -0.08153,-0.2280596 -0.1224,-0.5090572 -0.1224,-0.842744 0,-0.3168817 0.03876,-0.5916087 0.11588,-0.8244693 0.07933,-0.2328607 0.180627,-0.4177313 0.304037,-0.5545665 0.134427,-0.1512397 0.275526,-0.25698 0.423176,-0.3169954 0.149855,-0.062417 0.314336,-0.093482 0.492839,-0.093482 0.149855,0 0.293056,0.027724 0.429688,0.082939 0.138836,0.052814 0.265613,0.117875 0.380208,0.1946955 0.114587,0.07682 0.216939,0.1559496 0.307292,0.2375711 0.09036,0.07922 0.165108,0.1476234 0.224609,0.2052386 h 0.125654 V 0.58338421 C 22.161953,0.53777155 22.054751,0.48343753 21.922527,0.42102062 21.7903,0.35860469 21.668381,0.30942638 21.555989,0.2734174 21.412748,0.23020612 21.262585,0.19691321 21.10612,0.17290664 20.949653,0.14890009 20.773607,0.13706013 20.577473,0.13706054 Z m 26.13086,0 c -0.738253,0 -1.32538,0.25327425 -1.76172,0.75980518 -0.434137,0.50413158 -0.651689,1.18077828 -0.651689,2.03059868 0,0.8810284 0.217552,1.5650606 0.651689,2.0523877 0.434134,0.4849255 1.020214,0.727473 1.758463,0.727473 0.235797,0 0.420911,-0.012955 0.55534,-0.039362 0.134428,-0.026404 0.278684,-0.064857 0.432944,-0.1152709 0.125613,-0.040811 0.248184,-0.089989 0.367187,-0.1476034 0.119,-0.060017 0.223449,-0.1132377 0.313804,-0.158849 V 3.98599 h -0.112627 c -0.06171,0.060015 -0.13436,0.1284191 -0.2181,0.2052388 -0.08375,0.07682 -0.180827,0.1526085 -0.291016,0.2270279 -0.101373,0.07202 -0.225397,0.1381931 -0.373048,0.1982099 -0.147649,0.057615 -0.303069,0.086453 -0.466147,0.086453 -0.156465,0 -0.313982,-0.029951 -0.472653,-0.089968 C 46.284293,4.5529356 46.142148,4.455694 46.014328,4.3212593 45.882101,4.1820223 45.774904,3.9993796 45.693364,3.7737215 c -0.08153,-0.2280596 -0.1224,-0.5090572 -0.1224,-0.842744 0,-0.3168817 0.03875,-0.5916087 0.11588,-0.8244693 0.07933,-0.2328607 0.180625,-0.4177313 0.304036,-0.5545665 0.134427,-0.1512397 0.275527,-0.25698 0.423177,-0.3169954 0.149856,-0.062417 0.314332,-0.093482 0.492836,-0.093482 0.149856,0 0.29306,0.027724 0.429691,0.082939 0.138836,0.052814 0.265613,0.117875 0.380205,0.1946955 0.1146,0.07682 0.216944,0.1559496 0.307295,0.2375711 0.09036,0.07922 0.165105,0.1476234 0.224605,0.2052386 h 0.125654 V 0.58338421 C 48.292813,0.53777151 48.18626,0.4834375 48.054036,0.42102062 47.921811,0.35860468 47.79924,0.3094263 47.686851,0.2734174 47.543607,0.23020612 47.393444,0.19691321 47.23698,0.17290664 47.080513,0.14890006 46.904467,0.13706013 46.708333,0.13706054 Z m -34.880859,0.007028 c -0.583991,0 -1.070876,0.15603142 -1.460938,0.46811309 C 9.9764747,0.9218822 9.78125,1.3278472 9.78125,1.8295773 c 0,0.3720961 0.082767,0.6812312 0.248047,0.9284944 0.16528,0.2472647 0.438415,0.4446768 0.819661,0.5911159 0.165281,0.062416 0.343031,0.1149355 0.532552,0.1581463 0.191726,0.043211 0.370927,0.089048 0.538412,0.1370595 0.134428,0.03841 0.250041,0.099429 0.347005,0.1834501 0.09696,0.08402 0.145833,0.1931029 0.145833,0.3275383 0,0.1200313 -0.02969,0.2172724 -0.08919,0.291692 -0.0595,0.072019 -0.132153,0.1285814 -0.218099,0.1693924 -0.07052,0.036011 -0.164452,0.062621 -0.28125,0.079424 -0.114595,0.016804 -0.207475,0.0246 -0.277995,0.0246 -0.279874,0 -0.56838,-0.061019 -0.865885,-0.1834495 C 10.382834,4.4146096 10.110751,4.2393515 9.8639324,4.0112926 H 9.7513017 v 1.2750106 c 0.2446151,0.11763 0.5093373,0.2159868 0.7936203,0.2952069 0.286485,0.07922 0.617952,0.1187851 0.994791,0.1187851 0.654511,0 1.17384,-0.1623043 1.557292,-0.4863878 0.385654,-0.3240841 0.578126,-0.7526162 0.578126,-1.2855539 0,-0.3720976 -0.08381,-0.6705044 -0.251303,-0.8961623 C 13.258547,2.8041337 13.005643,2.6226034 12.664063,2.4881687 12.489967,2.4209506 12.325485,2.3684315 12.171224,2.3300223 12.019166,2.2916119 11.860593,2.2520478 11.695313,2.2112369 11.439679,2.1464206 11.266785,2.0739724 11.176432,1.9947521 11.088282,1.9131305 11.044271,1.8040488 11.044271,1.6672136 c 0,-0.093625 0.02759,-0.177912 0.08268,-0.2523313 0.0573,-0.07682 0.12404,-0.1344962 0.201172,-0.1729066 0.09476,-0.048012 0.185538,-0.080191 0.271485,-0.096996 0.08595,-0.016804 0.182381,-0.025303 0.290364,-0.025303 0.277671,0 0.54765,0.05879 0.809896,0.176421 0.264449,0.1176306 0.488313,0.2618221 0.671223,0.4322668 h 0.109374 V 0.50395959 C 13.251279,0.39353046 12.990764,0.3059017 12.69987,0.24108526 12.411179,0.17626791 12.120572,0.14408887 11.827474,0.14408854 Z m 30.276042,0 c -0.583989,0 -1.07088,0.15603142 -1.46094,0.46811309 -0.39006,0.30968024 -0.585287,0.71564517 -0.585283,1.21737537 0,0.3720961 0.08276,0.6812311 0.248047,0.9284944 0.16528,0.2472646 0.438409,0.4446767 0.81966,0.5911159 0.16528,0.062416 0.343029,0.1149354 0.532553,0.1581462 0.191723,0.043211 0.370927,0.089048 0.538411,0.1370596 0.134429,0.03841 0.250043,0.099429 0.347005,0.18345 0.09696,0.08402 0.145835,0.193103 0.145835,0.3275383 0,0.1200313 -0.02971,0.2172725 -0.0892,0.291692 -0.05951,0.072019 -0.13216,0.1285814 -0.2181,0.1693925 -0.07052,0.036011 -0.164449,0.062621 -0.281249,0.079424 -0.1146,0.016804 -0.206824,0.0246 -0.277344,0.0246 -0.279872,0 -0.569032,-0.061019 -0.866536,-0.1834496 C 40.658868,4.4146073 40.386788,4.2393499 40.139968,4.011291 h -0.111987 v 1.2750108 c 0.244614,0.11763 0.508687,0.2159866 0.792971,0.295207 0.286485,0.07922 0.617952,0.1187849 0.994792,0.1187849 0.654508,0 1.173837,-0.1623041 1.557291,-0.4863878 0.385653,-0.3240839 0.578126,-0.7526161 0.578126,-1.2855539 0,-0.3720974 -0.08317,-0.6705043 -0.250653,-0.8961624 C 43.53524,2.8041316 43.281684,2.6226028 42.940104,2.4881679 42.766011,2.4209501 42.601527,2.3684309 42.447267,2.3300216 42.295207,2.2916111 42.136633,2.2520471 41.971353,2.2112361 41.71572,2.1464198 41.542827,2.0739716 41.452473,1.9947514 c -0.08815,-0.081622 -0.13216,-0.1907033 -0.13216,-0.3275385 0,-0.093625 0.02757,-0.1779121 0.08268,-0.2523314 0.05729,-0.07682 0.12404,-0.1344961 0.201174,-0.1729064 0.09476,-0.048012 0.185537,-0.080191 0.271482,-0.096997 0.08595,-0.016804 0.183035,-0.025303 0.291018,-0.025303 0.277673,0 0.547649,0.05879 0.809897,0.176421 0.264445,0.1176306 0.487665,0.2618223 0.670572,0.4322667 h 0.109373 V 0.50395959 C 43.527324,0.39353046 43.267456,0.3059017 42.976564,0.24108526 42.687873,0.17626791 42.396616,0.14408887 42.103516,0.14408854 Z m 20.048828,0 c -0.583991,0 -1.071531,0.15603142 -1.461588,0.46811309 C 60.300693,0.9218822 60.10612,1.3278472 60.10612,1.8295773 c 0,0.3720961 0.08277,0.6812312 0.248047,0.9284944 0.16528,0.2472647 0.438417,0.4446768 0.81966,0.5911159 0.16528,0.062416 0.34238,0.1149355 0.531902,0.1581463 0.191727,0.043211 0.371578,0.089048 0.539064,0.1370595 0.134423,0.03841 0.25004,0.099429 0.347003,0.1834501 0.09697,0.08402 0.145184,0.1931029 0.145184,0.3275383 0,0.1200313 -0.02967,0.2172724 -0.08919,0.291692 -0.05951,0.072019 -0.13216,0.1285814 -0.2181,0.1693924 -0.07052,0.036011 -0.1638,0.062621 -0.280597,0.079424 -0.1146,0.016804 -0.207476,0.0246 -0.277996,0.0246 -0.279873,0 -0.568384,-0.061019 -0.865887,-0.1834495 C 60.707708,4.4146075 60.435624,4.2393501 60.188808,4.0112911 h -0.112627 v 1.2750108 c 0.244613,0.11763 0.509336,0.2159867 0.79362,0.295207 0.286483,0.07922 0.617951,0.1187851 0.994791,0.1187851 0.654509,0 1.173189,-0.1623043 1.55664,-0.4863879 C 63.80688,4.8898257 64,4.4612922 64,3.9283544 64,3.5562571 63.91618,3.2578503 63.748696,3.0321921 63.583416,2.8041324 63.329864,2.6226034 62.98828,2.4881687 62.814187,2.4209506 62.650356,2.3684315 62.496093,2.3300223 62.344036,2.2916118 62.185464,2.2520478 62.020184,2.2112369 61.764551,2.1464206 61.591007,2.0739724 61.500649,1.9947521 c -0.08815,-0.081622 -0.13216,-0.1907033 -0.13216,-0.3275385 0,-0.093625 0.02756,-0.177912 0.08268,-0.2523313 0.05729,-0.07682 0.124694,-0.1344962 0.20182,-0.1729066 0.09476,-0.048012 0.184887,-0.080191 0.270834,-0.096996 0.08595,-0.016804 0.183029,-0.025303 0.291017,-0.025303 0.277669,0 0.547649,0.05879 0.809896,0.176421 0.264449,0.1176306 0.488313,0.2618221 0.671224,0.4322668 h 0.10872 V 0.50395959 C 63.575496,0.39353046 63.315633,0.3059017 63.02474,0.24108526 62.736049,0.17626791 62.445444,0.14408887 62.152344,0.14408854 Z M 13.797527,0.24108473 V 1.2637643 h 1.454425 v 4.3395352 h 1.236329 V 1.2637648 h 1.454428 V 0.24108526 Z m 16.36979,0 V 5.6032995 h 1.229167 V 3.6366624 h 0.44336 l 1.371745,1.9666371 h 1.50716 L 33.0625,3.323884 c 0.28428,-0.1512399 0.511304,-0.3542219 0.680989,-0.6086876 0.169691,-0.2568671 0.254558,-0.5903838 0.254558,-1.0008903 0,-0.2904755 -0.05137,-0.5296812 -0.154947,-0.71693003 C 33.739524,0.80772681 33.599476,0.65169448 33.423176,0.52926301 33.251287,0.41163252 33.064072,0.33472976 32.861328,0.29872081 32.658585,0.26031051 32.420399,0.24108526 32.147135,0.24108526 Z m 24.147136,0 V 5.6032995 h 3.328776 V 4.5806203 H 55.544271 V 3.2261847 h 1.933593 V 2.2035053 H 55.544271 V 1.2637648 h 2.098958 V 0.24108526 Z M 6.9055989,1.1414649 c 0.1432424,0 0.280536,0.03218 0.4127604,0.096997 0.134428,0.062416 0.2548978,0.1670432 0.3606771,0.3134811 0.101372,0.1440375 0.182036,0.3289079 0.2415365,0.5545664 0.061705,0.2232586 0.092448,0.494643 0.092448,0.8139264 0,0.3360872 -0.02864,0.6085866 -0.085937,0.8174407 -0.057297,0.2064537 -0.139012,0.38728 -0.2447917,0.5433196 C 7.5831242,4.4252343 7.4654082,4.5320887 7.3287766,4.6017063 7.1921452,4.668924 7.0510462,4.7029205 6.9055995,4.7029205 6.7623562,4.7029205 6.6233606,4.6718582 6.488933,4.6094381 6.3545044,4.5446212 6.2346856,4.4377668 6.1289064,4.288928 6.0253307,4.1424898 5.943616,3.9609605 5.8841147,3.7449046 5.824614,3.5264479 5.794922,3.2528345 5.794922,2.9239496 5.794922,2.6046667 5.825666,2.3299404 5.88737,2.0994802 5.951278,1.8690202 6.0340451,1.6841507 6.1354171,1.5449137 6.2500117,1.3936747 6.3687784,1.2890476 6.4921877,1.2314326 6.6155971,1.1714171 6.7535408,1.1414649 6.9055989,1.1414649 Z m 18.1640621,0 c 0.143244,0 0.281188,0.03218 0.413411,0.096997 0.134429,0.062416 0.254247,0.1670432 0.360027,0.3134811 0.101373,0.1440375 0.182036,0.3289079 0.241536,0.5545664 0.06171,0.2232586 0.09245,0.494643 0.09245,0.8139264 0,0.3360872 -0.02864,0.6085866 -0.08593,0.8174407 -0.05729,0.2064542 -0.139014,0.3872805 -0.244794,0.5433201 -0.09916,0.1440382 -0.216882,0.2508926 -0.353514,0.3205102 -0.136631,0.067218 -0.27773,0.1012142 -0.423178,0.1012142 -0.143242,0 -0.282238,-0.031062 -0.416666,-0.093482 C 24.518567,4.5446217 24.398749,4.4377674 24.292969,4.2889285 24.189396,4.1424903 24.107679,3.960961 24.048177,3.7449053 c -0.05951,-0.2184568 -0.08919,-0.4920701 -0.08919,-0.8209551 0,-0.319283 0.03075,-0.5940093 0.09245,-0.8244694 0.06391,-0.2304601 0.146676,-0.4153296 0.248047,-0.5545666 0.1146,-0.1512389 0.234013,-0.2558661 0.357422,-0.313481 0.123414,-0.060016 0.260703,-0.089967 0.41276,-0.089967 z m 12.111979,0 c 0.143244,0 0.281187,0.03218 0.413413,0.096997 0.134427,0.062416 0.254247,0.1670432 0.360023,0.3134811 0.101373,0.1440375 0.182037,0.3289079 0.241537,0.5545664 0.06171,0.2232586 0.09245,0.494643 0.09245,0.8139264 0,0.3360872 -0.02864,0.6085866 -0.08593,0.8174407 -0.05731,0.2064542 -0.139013,0.3872805 -0.244793,0.5433201 -0.09917,0.1440382 -0.216887,0.2508926 -0.353517,0.3205102 -0.136632,0.067218 -0.27773,0.1012142 -0.423176,0.1012142 -0.143244,0 -0.28224,-0.031062 -0.416667,-0.093482 C 36.630544,4.5446217 36.510727,4.4377668 36.404947,4.288928 36.301369,4.1424898 36.219656,3.9609605 36.160156,3.7449046 c -0.0595,-0.2184567 -0.08919,-0.4920701 -0.08919,-0.820955 0,-0.3192829 0.03076,-0.5940092 0.09244,-0.8244694 0.06391,-0.23046 0.146677,-0.4153295 0.248051,-0.5545665 0.114586,-0.151239 0.23336,-0.2558661 0.356769,-0.3134811 0.123413,-0.060016 0.261355,-0.089967 0.413411,-0.089967 z m 14.01888,0 c 0.143244,0 0.281191,0.03218 0.413413,0.096997 0.134427,0.062416 0.254247,0.1670432 0.360027,0.3134811 0.101373,0.1440375 0.182033,0.3289079 0.241533,0.5545664 0.06171,0.2232586 0.09245,0.494643 0.09245,0.8139264 0,0.3360872 -0.02864,0.6085866 -0.08593,0.8174407 C 52.164723,3.9443307 52.083,4.125157 51.97722,4.2811966 51.87806,4.4252348 51.760333,4.5320892 51.623703,4.6017068 51.487071,4.6689248 51.345976,4.702921 51.200527,4.702921 c -0.143244,0 -0.28224,-0.031062 -0.416667,-0.093482 C 50.649424,4.5446217 50.529607,4.4377668 50.423827,4.288928 50.320249,4.1424898 50.238536,3.9609605 50.179036,3.7449046 c -0.0595,-0.2184567 -0.08919,-0.4920701 -0.08919,-0.820955 0,-0.3192829 0.03076,-0.5940092 0.09245,-0.8244694 0.06391,-0.23046 0.146674,-0.4153295 0.248047,-0.5545665 0.1146,-0.151239 0.234009,-0.2558661 0.35742,-0.3134811 0.123413,-0.060016 0.260704,-0.089967 0.41276,-0.089967 z m -19.804036,0.086453 h 0.413412 c 0.141039,0 0.258755,0.00446 0.353515,0.014057 0.09476,0.0096 0.180682,0.032873 0.257813,0.068882 0.110187,0.052814 0.188748,0.1286021 0.235025,0.2270277 0.04848,0.096025 0.07292,0.2106758 0.07292,0.3451105 0,0.1512389 -0.02023,0.2739784 -0.05989,0.3676021 -0.03747,0.093624 -0.0958,0.1738677 -0.175129,0.2410855 -0.08375,0.074419 -0.186087,0.1235973 -0.307292,0.1476032 -0.119,0.021607 -0.264307,0.032332 -0.436199,0.032332 H 31.396484 Z M 25.400391,22.716839 c -0.30787,0 -0.577764,0.04124 -0.809244,0.123709 -0.231482,0.07998 -0.412038,0.181185 -0.541668,0.303641 -0.138888,0.13245 -0.238643,0.275917 -0.298828,0.43086 -0.06019,0.154944 -0.08984,0.313405 -0.08984,0.475847 0,0.152443 0.01577,0.28638 0.04817,0.401339 0.0324,0.112459 0.07913,0.217421 0.139324,0.314886 0.06019,0.09997 0.12804,0.190947 0.204425,0.273417 0.07871,0.07998 0.168043,0.162441 0.267579,0.247412 -0.10416,0.06497 -0.211805,0.14268 -0.322916,0.232651 -0.1088,0.08746 -0.203487,0.189698 -0.284505,0.307153 -0.08796,0.124964 -0.15994,0.265375 -0.215495,0.42032 -0.05324,0.154944 -0.08008,0.340659 -0.08008,0.558082 0,0.512312 0.17014,0.928416 0.510416,1.248301 0.342593,0.317384 0.812936,0.476547 1.410157,0.476547 0.277778,0 0.543548,-0.04499 0.798178,-0.134959 0.254628,-0.08997 0.503689,-0.241632 0.746744,-0.454056 l 0.451172,0.47233 h 1.545573 v -0.07451 l -1.236327,-1.248292 c 0.09491,-0.117463 0.172238,-0.241163 0.232422,-0.371116 0.06249,-0.129955 0.111106,-0.256393 0.145833,-0.378847 0.0324,-0.107468 0.05831,-0.235933 0.07683,-0.385878 0.02084,-0.152444 0.03125,-0.279899 0.03125,-0.382362 v -0.416101 h -1.21224 v 1.206834 l -0.992839,-1.034629 c 0.222223,-0.07998 0.405311,-0.173689 0.54883,-0.281149 0.145832,-0.109964 0.263888,-0.233667 0.354165,-0.371117 0.07408,-0.11246 0.12616,-0.2389 0.156251,-0.378849 0.03241,-0.139947 0.04817,-0.264671 0.04817,-0.37463 0,-0.172439 -0.03567,-0.332617 -0.107427,-0.480064 -0.06944,-0.149944 -0.170138,-0.2774 -0.302082,-0.382361 -0.136574,-0.10496 -0.305774,-0.188448 -0.507163,-0.250926 -0.201387,-0.06248 -0.439381,-0.09348 -0.714843,-0.09348 z m 15.604165,0 c -0.780089,0 -1.392796,0.260689 -1.83724,0.783 -0.444443,0.519811 -0.666667,1.228312 -0.666667,2.125486 0,0.867187 0.209927,1.556943 0.628907,2.069258 0.421297,0.512314 0.997688,0.785966 1.729168,0.820955 0.0092,0.209923 0.04492,0.406572 0.107427,0.589007 0.06481,0.182433 0.161097,0.339879 0.288409,0.47233 0.12732,0.134959 0.285448,0.238195 0.47526,0.31067 C 41.921951,29.962511 42.154591,30 42.427737,30 c 0.298611,0 0.517363,-0.0086 0.656251,-0.02602 0.141203,-0.0175 0.281687,-0.04474 0.420572,-0.08223 v -0.997376 h -0.128907 c -0.05092,0.03 -0.1352,0.06099 -0.253253,0.09348 -0.115733,0.03499 -0.225912,0.05272 -0.33008,0.05272 -0.270829,0 -0.460212,-0.05249 -0.569009,-0.157443 -0.10648,-0.102478 -0.162038,-0.289898 -0.166667,-0.562299 0.462964,-0.197428 0.820604,-0.531061 1.072916,-1.00089 0.254631,-0.472329 0.381511,-1.037364 0.381511,-1.694626 0,-0.902173 -0.223163,-1.611687 -0.66992,-2.129 -0.44676,-0.519812 -1.058814,-0.779485 -1.836591,-0.779485 z m 10.728517,0 c -0.780089,0 -1.392146,0.260689 -1.836589,0.783 -0.444444,0.519811 -0.666668,1.228312 -0.666668,2.125486 0,0.889679 0.222224,1.597163 0.666668,2.121973 0.444443,0.522311 1.0565,0.783704 1.836589,0.783704 0.777778,0 1.39048,-0.25866 1.83724,-0.775972 0.446758,-0.517314 0.66992,-1.22753 0.66992,-2.129705 0,-0.902173 -0.223162,-1.611687 -0.66992,-2.128999 -0.44676,-0.519814 -1.059462,-0.779487 -1.83724,-0.779487 z m -42.4264323,0.007 c -0.8379611,0 -1.499278,0.264125 -1.9830731,0.791435 -0.4814803,0.52731 -0.7220049,1.22831 -0.7220049,2.102995 0,0.929662 0.2405246,1.647689 0.7220049,2.155007 0.4837951,0.504815 1.1321637,0.757696 1.9446617,0.757696 0.3518507,0 0.7085511,-0.04771 1.0696617,-0.142683 0.363425,-0.09496 0.658565,-0.192432 0.885416,-0.292396 v -2.7475 H 8.9628907 v 1.045875 H 9.966146 v 1.094374 c -0.046296,0.005 -0.100912,0.0089 -0.1634116,0.01118 -0.0625,0.0025 -0.116464,0.0036 -0.1627604,0.0036 -0.5254616,0 -0.9402496,-0.154712 -1.2434896,-0.464599 -0.30324,-0.309887 -0.4544271,-0.790733 -0.4544271,-1.442998 0,-0.304888 0.039135,-0.572762 0.1178387,-0.802681 0.081019,-0.229916 0.189598,-0.419378 0.3261716,-0.569326 0.1435184,-0.154943 0.3067133,-0.270138 0.4895835,-0.345111 0.18287,-0.07496 0.3858513,-0.112459 0.6080729,-0.112459 0.1898144,0 0.3687793,0.02897 0.53776,0.08645 0.171296,0.05749 0.322194,0.125972 0.451823,0.205941 0.111111,0.06747 0.224104,0.149947 0.339844,0.247411 0.118055,0.09496 0.208334,0.168924 0.270833,0.221406 h 0.11849 V 23.218719 C 10.913123,23.066272 10.632812,22.946313 10.361979,22.858846 10.091147,22.768878 9.73951,22.723895 9.3066407,22.723895 Z m 9.6627603,0.0077 c -0.613425,0 -1.124784,0.162209 -1.534505,0.48709 -0.409721,0.322383 -0.614584,0.744969 -0.614584,1.26728 0,0.387361 0.08681,0.709746 0.260417,0.967153 0.173611,0.257404 0.460866,0.462567 0.861328,0.615012 0.173611,0.06497 0.35952,0.119496 0.558594,0.164474 0.201388,0.04499 0.39048,0.0927 0.566406,0.142682 0.141204,0.03998 0.262732,0.103704 0.364584,0.191181 0.101854,0.08746 0.152343,0.200945 0.152343,0.340892 0,0.124949 -0.03125,0.226171 -0.09375,0.30364 -0.06249,0.07499 -0.138888,0.133937 -0.229165,0.176424 -0.07408,0.03748 -0.172237,0.06475 -0.294921,0.08223 -0.120374,0.0175 -0.217595,0.02671 -0.291668,0.02671 -0.29398,0 -0.597007,-0.06374 -0.909506,-0.191182 C 17.452476,27.177666 17.166161,26.995 16.906902,26.757587 h -0.11784 v 1.327025 c 0.256944,0.122454 0.534723,0.224682 0.833334,0.307153 0.300925,0.08247 0.649089,0.123709 1.044921,0.123709 0.687499,0 1.23264,-0.168689 1.635416,-0.506066 0.405093,-0.337379 0.608075,-0.783473 0.608075,-1.33827 0,-0.38736 -0.0884,-0.6985 -0.264324,-0.933415 -0.173611,-0.237415 -0.439382,-0.425863 -0.798176,-0.565814 -0.182871,-0.06996 -0.355542,-0.125181 -0.517579,-0.165173 -0.159721,-0.04 -0.326389,-0.08122 -0.5,-0.123709 -0.268519,-0.06747 -0.450016,-0.142448 -0.544921,-0.224919 -0.09259,-0.08497 -0.139324,-0.198445 -0.139324,-0.340892 0,-0.09746 0.02937,-0.1847 0.08724,-0.262173 0.06019,-0.07998 0.130573,-0.139947 0.211588,-0.179935 0.09953,-0.04998 0.194228,-0.08373 0.284505,-0.10122 0.09028,-0.0175 0.192564,-0.02671 0.305991,-0.02671 0.291665,0 0.574797,0.06169 0.85026,0.184153 0.277777,0.122454 0.512948,0.2724 0.705078,0.449836 h 0.114587 v -1.27501 c -0.24074,-0.114955 -0.514107,-0.205943 -0.819661,-0.273418 -0.30324,-0.06747 -0.608798,-0.10122 -0.916667,-0.10122 z m -5.576172,0.101219 -1.746745,5.58151 h 1.302083 l 0.322917,-1.139356 h 1.625 l 0.322917,1.139356 h 1.33724 l -1.746745,-5.581506 z m 17.902995,0 v 5.581514 h 3.451172 v -1.064094 h -2.152995 v -4.517361 z m 3.860676,0 v 0.974939 h 0.743489 v 3.632417 H 35.1569 v 0.974181 h 2.785156 V 27.440114 H 37.198567 V 23.80767 h 0.743489 v -0.974884 z m 9.048829,0 v 3.564969 c 0,0.697248 0.186562,1.226828 0.559244,1.589196 0.375,0.362368 0.909723,0.544023 1.604167,0.544023 0.715276,0 1.254413,-0.183684 1.61784,-0.551052 0.36574,-0.369867 0.548827,-0.898429 0.548827,-1.585681 V 22.832684 H 47.23698 v 3.482736 c 0,0.402355 -0.07039,0.694752 -0.211591,0.877186 -0.138885,0.182431 -0.35764,0.273416 -0.656249,0.273416 -0.305553,0 -0.526836,-0.09474 -0.663411,-0.284665 -0.134258,-0.189929 -0.201173,-0.478579 -0.201173,-0.865937 v -3.482733 z m 10.802084,0 v 5.58151 h 1.291667 v -2.046712 h 0.464844 l 1.441405,2.046765 h 1.583335 l -1.739584,-2.37282 c 0.298609,-0.157443 0.536604,-0.368386 0.714844,-0.633289 0.17824,-0.267405 0.267576,-0.615014 0.267576,-1.04236 0,-0.302391 -0.05461,-0.550818 -0.163411,-0.745748 -0.1088,-0.197427 -0.255569,-0.359638 -0.440756,-0.48709 -0.180553,-0.122455 -0.377529,-0.202895 -0.590493,-0.240382 -0.212964,-0.04 -0.462964,-0.05974 -0.75,-0.05974 z m -29.663412,0.682491 c 0.03009,0 0.07176,0.0046 0.125,0.01477 0.05324,0.0099 0.101854,0.03522 0.145832,0.0752 0.04861,0.04247 0.0884,0.102464 0.118494,0.179937 0.03241,0.07747 0.04817,0.178686 0.04817,0.30364 0,0.154944 -0.02872,0.29466 -0.08659,0.419616 -0.05556,0.124963 -0.138888,0.242179 -0.25,0.352138 -0.162036,-0.144946 -0.289568,-0.280914 -0.382161,-0.408367 -0.09028,-0.129954 -0.135417,-0.268654 -0.135417,-0.416101 0,-0.102463 0.01643,-0.191418 0.04883,-0.266389 0.03241,-0.07498 0.06967,-0.128468 0.111334,-0.160958 0.05324,-0.04247 0.100266,-0.06873 0.141926,-0.07872 0.04167,-0.0099 0.07987,-0.01477 0.114587,-0.01477 z m 15.663412,0.254441 c 0.150463,0 0.295358,0.03374 0.434243,0.101219 0.141204,0.06497 0.267148,0.173688 0.378257,0.326133 0.10648,0.149946 0.190754,0.342846 0.253254,0.577762 0.06481,0.232414 0.09765,0.514582 0.09765,0.846961 0,0.349874 -0.03031,0.633757 -0.09049,0.85118 -0.06019,0.21492 -0.146051,0.403371 -0.257164,0.56581 -0.104174,0.149946 -0.227574,0.261392 -0.371094,0.333863 -0.143517,0.06996 -0.291882,0.104727 -0.44466,0.104727 -0.150462,0 -0.296297,-0.03273 -0.4375,-0.0977 -0.141204,-0.06747 -0.267146,-0.178219 -0.378257,-0.333162 -0.1088,-0.152445 -0.19466,-0.341596 -0.25716,-0.566515 -0.06249,-0.227418 -0.09375,-0.512315 -0.09375,-0.854693 0,-0.332381 0.0322,-0.618295 0.097,-0.858207 0.06713,-0.239915 0.153936,-0.432112 0.260416,-0.577059 0.120374,-0.157442 0.245374,-0.266154 0.375,-0.326133 0.129627,-0.06248 0.274524,-0.09417 0.434247,-0.09417 z m 10.729167,0 c 0.150464,0 0.294704,0.03374 0.433593,0.101219 0.141203,0.06497 0.267796,0.173688 0.378907,0.326133 0.10648,0.149946 0.190753,0.342846 0.253253,0.577762 0.06481,0.232414 0.09701,0.514582 0.09701,0.846961 0,0.349874 -0.02967,0.633757 -0.08984,0.85118 -0.06019,0.21492 -0.14605,0.403371 -0.257163,0.56581 -0.104173,0.149946 -0.228227,0.261392 -0.371744,0.333863 -0.143519,0.06996 -0.291233,0.104727 -0.444009,0.104727 -0.150464,0 -0.296296,-0.03273 -0.4375,-0.0977 -0.141204,-0.06747 -0.267796,-0.178219 -0.378907,-0.333162 -0.1088,-0.152445 -0.194009,-0.341596 -0.256509,-0.566515 -0.06249,-0.227418 -0.09375,-0.512315 -0.09375,-0.854693 0,-0.332381 0.0322,-0.618295 0.097,-0.858207 0.06713,-0.239915 0.153937,-0.432112 0.260417,-0.577059 0.120374,-0.157442 0.245374,-0.266154 0.375,-0.326133 0.129627,-0.06248 0.274523,-0.09417 0.434247,-0.09417 z m 4.5625,0.08997 h 0.433593 c 0.148147,0 0.272207,0.0054 0.371743,0.01546 0.09953,0.0099 0.189817,0.0335 0.270835,0.07099 0.115746,0.05498 0.198133,0.133706 0.246745,0.236163 0.05092,0.09997 0.07617,0.219925 0.07617,0.359873 0,0.157442 -0.02084,0.284897 -0.06249,0.382363 -0.03935,0.09746 -0.100907,0.180951 -0.184243,0.250924 -0.08796,0.07747 -0.195604,0.128932 -0.322917,0.153931 -0.125,0.02249 -0.27778,0.03374 -0.458333,0.03374 h -0.371094 z m -42.215496,0.562297 0.527995,1.840825 h -1.055338 z m 10.83724,1.466193 1.388672,1.420506 c -0.1088,0.09245 -0.218967,0.157207 -0.330079,0.194695 -0.1088,0.03499 -0.234736,0.05272 -0.378254,0.05272 -0.104174,0 -0.208334,-0.01976 -0.3125,-0.05976 -0.101854,-0.04 -0.194662,-0.09997 -0.277995,-0.179935 -0.08333,-0.07998 -0.151187,-0.180171 -0.204427,-0.300128 -0.05092,-0.122454 -0.07683,-0.26592 -0.07683,-0.43086 0,-0.144948 0.02243,-0.282633 0.0664,-0.412585 0.04629,-0.132451 0.08796,-0.227187 0.125,-0.284665 z" />
</svg>