<svg
   width="128"
   height="200"
   viewBox="0 0 128 200"
   fill="none"
   xml:space="preserve"
   xmlns="http://www.w3.org/2000/svg">
     <path d="m 87.025173,24.52635 c -1.413852,-0.50484 -3.131659,-0.357574 -3.702854,0.984706 -2.485007,7.083668 -5.430559,12.323819 -11.088341,18.891973 -4.617064,4.132003 -27.895906,-1.756005 -33.72649,14.552437 0,0 -39.34815629,103.962264 -38.3280152,107.506044 -4.4467454,12.87042 75.1617922,45.09777 80.8025092,29.24863 L 119.73936,89.097334 c 4.58617,-12.486112 -11.20026,-24.37827 -15.75131,-31.241394 -2.26463,-4.67603 0.5607,-16.586847 3.19122,-22.109784 1.91967,-3.55528 -4.51106,-6.000519 -5.13909,-2.208536 -1.71649,8.379115 -6.645636,19.205486 -3.983606,24.249868 3.539236,6.708802 19.351746,22.370514 17.647346,28.275087 L 77.47272,191.88341 C 73.964805,201.60337 3.2729949,174.19728 6.0243532,166.22449 4.6893292,163.66631 42.744536,62.401097 42.744536,62.401097 47.416588,49.194162 67.630146,54.854128 76.378683,48.7887 c 4.564134,-8.049368 8.883344,-14.541498 12.54274,-21.324017 0.628382,-1.273892 -0.482541,-2.433972 -1.89657,-2.938472 z m 24.740057,58.046351 c -0.33596,-0.09266 -0.70948,-0.116099 -1.11263,-0.04709 -12.395729,3.029197 -57.53676,-15.22028 -61.048328,-22.759362 -0.891932,-2.829311 -5.366632,1.027267 -3.805698,3.300262 12.909985,14.02288 52.550285,26.606891 66.505666,24.940028 2.41718,-0.672241 1.81115,-4.785589 -0.53901,-5.433874 z M 62.161486,127.46493 c -5.198015,-2.00032 -14.042194,0.71995 -16.05406,5.81032 -2.149761,6.23565 -0.397116,12.00844 6.95779,14.83525 4.072725,1.53413 12.829527,1.35535 14.618286,-3.78413 1.047706,-1.53472 -1.752219,-3.26438 -2.725922,-2.04267 -2.477663,3.32901 -6.701869,3.03849 -10.11705,1.91814 -3.361541,-1.3329 -6.892019,-2.52384 -4.842123,-9.265 1.341446,-3.96083 8.004433,-4.64279 11.216621,-3.607 2.944382,0.97436 6.37911,3.05889 5.34109,6.56474 -0.82169,2.47388 2.890991,3.72005 3.816979,1.36974 1.638377,-4.38493 -2.658802,-9.71824 -8.211611,-11.79939 z" fill="#3b11f1" />
     <path d="M 88.796513,0.00972875 C 85.865683,0.09914262 83.821427,0.81178863 83.274178,2.3004598 L 78.320058,16.01639 c -2.058268,5.55368 31.111042,18.489587 38.517532,17.621554 2.76253,-0.768262 2.6081,-5.389498 -0.61668,-4.837565 -8.765,1.146981 -33.322385,-10.681924 -31.900445,-14.662103 L 86.932616,6.4052814 C 89.081383,0.85816024 120.23414,13.617176 122.81029,18.463632 l -3.10413,8.871245 c -0.55208,2.016189 3.76114,4.175317 4.51067,1.750066 L 128,18.82645 C 127.25554,13.268248 117.98814,7.6411825 108.06567,4.0078395 101.03721,1.4342349 93.681206,-0.13929555 88.796513,0.00972875 Z M 48.089457,106.72079 c -1.467739,0.0562 -3.292364,2.1474 -2.182611,3.76334 14.803894,10.09841 27.008019,15.63767 41.455382,15.8715 2.762569,-0.76828 1.963832,-5.15467 -1.261057,-4.60281 -10.138832,-1.24582 -26.547189,-5.5903 -36.619042,-13.92223 -0.166736,-0.53046 -0.454303,-0.85121 -0.796821,-1.00309 -0.185539,-0.0823 -0.38619,-0.11473 -0.595851,-0.10674 z m -13.566713,38.15988 c -1.467596,0.0558 -3.292399,2.14027 -2.182611,3.75623 14.31071,12.11159 27.791111,15.44762 41.434593,16.59712 2.762569,-0.7683 1.700602,-5.73801 -1.524358,-5.18615 -9.413068,0.0101 -29.659761,-6.78504 -36.334952,-14.06452 -0.166736,-0.53045 -0.454302,-0.84408 -0.796785,-0.99597 -0.185538,-0.0823 -0.386225,-0.11467 -0.595887,-0.10671 z" fill="#e2c439" />
</svg>