<svg width="16" height="16" viewBox="0 0 16 16" fill="none" xml:space="preserve" xmlns:xlink="http://www.w3.org/1999/xlink" xmlns="http://www.w3.org/2000/svg">
    <linearGradient id="linearGradient1127">
        <stop style="stop-color:#c80000;stop-opacity:1;" offset="0" id="stop1123" />
        <stop style="stop-color:#ff8686;stop-opacity:1;" offset="1" id="stop1125" />
    </linearGradient>
    <linearGradient xlink:href="#linearGradient1127" id="linearGradient1129" x1="126.03729" y1="766.23578" x2="632.42773" y2="262.14044" gradientUnits="userSpaceOnUse" gradientTransform="matrix(0.0316542,0,0,0.0315722,-3.98961,-8.2486956)" />
    <circle cx="8" cy="8" r="8" fill="url(#linearGradient1129)" />
    <path d="m 3.9243597,13.268794 8.2809503,0.004 3.33e-4,-0.617723 c 0.0061,-0.315164 -0.269327,-0.593987 -0.705317,-0.602257 l -0.486466,-0.0027 -0.0023,-4.5033797 c -0.002,-0.097447 0.296994,0.00823 0.316807,0.1761634 0.122603,1.4556433 0.1923,3.0787733 0.99226,3.1635463 C 12.76995,10.834871 13.01736,10.497491 13.03953,9.4130377 13.06363,8.833031 12.869893,8.0577343 12.59164,7.5799777 12.467483,7.349961 12.43799,7.1199477 12.423246,6.8899343 12.361603,6.6775177 12.78601,5.426481 12.836523,4.989921 12.861156,4.6424177 12.59482,4.245611 12.27443,4.1017643 11.902356,3.937981 11.618596,3.828151 11.22055,3.733121 11.13682,3.716154 11.1208,3.9634243 11.17894,3.977541 l 0.498866,0.1598667 0.129347,0.64129 0.749457,0.3406833 c -0.10997,0.5966667 -0.417737,1.1896733 -0.403504,1.7863433 0.0017,0.33756 0.100627,0.6205167 0.270584,0.9068167 0.23302,0.41017 0.368033,1.13573 0.356016,1.6632567 -0.01787,0.7920403 -0.15614,1.1637803 -0.492303,1.1138533 -0.47086,-0.0782 -0.51614,-1.8350233 -0.709783,-3.0066467 -0.04023,-0.2271 -0.340954,-0.37243 -0.566287,-0.3885966 L 11.009,2.8287877 C 11.0145,2.4753177 10.78937,2.1460544 10.44511,2.150081 L 5.6648397,2.148411 c -0.4197267,0.001 -0.55272,0.40092 -0.5478934,0.66994 l -0.00763,9.23428 -0.60538,-0.0073 c -0.29382,-0.0088 -0.5799,0.260134 -0.58279,0.513967 z" fill="#f4d202" />
</svg>
