<svg width="16" height="4" viewBox="0 0 16 4" fill="none" xml:space="preserve" xmlns="http://www.w3.org/2000/svg">
    <path d="M 2.261137,0 C 1.0378656,8.7449333e-4 -0.23325042,0.98413363 0.03658359,2.570236 l 0.75511688,0.6969022 0.22312033,0.6360811 1.016632,0.00721 c 0.1129281,0.122354 0.267847,0.1202377 0.3748988,-0.011747 l 1.0994711,0.0018 L 3.7180467,3.249943 4.435326,2.5919494 C 4.7372527,1.188374 3.5598983,0.00148237 2.261137,0 Z m 3.9582077,0.87786597 c -0.318443,0 -0.5694587,0.038467 -0.753015,0.11543536 C 5.2841637,1.0689425 5.1472167,1.1737908 5.0554383,1.3078218 4.9650507,1.4405255 4.919833,1.5818649 4.919833,1.7318202 c 0,0.2282508 0.089012,0.4160444 0.2670067,0.5633457 0.1766033,0.1473012 0.472125,0.2653926 0.886518,0.3543041 0.2530853,0.053082 0.414377,0.1094578 0.483906,0.1691745 0.069529,0.059717 0.1042886,0.1274016 0.1042886,0.2030428 0,0.079622 -0.036851,0.1499555 -0.1105516,0.2109995 -0.07231,0.059717 -0.1759207,0.089607 -0.310807,0.089607 -0.1807754,0 -0.319814,-0.059067 -0.4171547,-0.1771729 C 5.763244,3.0721337 5.7235897,2.9659819 5.7041217,2.826643 l -0.899002,0.053739 c 0.02642,0.2946025 0.139778,0.5374275 0.3400216,0.7285208 0.2002434,0.1910937 0.5603897,0.286651 1.0804667,0.286651 0.2961933,0 0.5416453,-0.040485 0.7363267,-0.121434 C 7.1566157,3.691844 7.3081613,3.5717763 7.4166263,3.4138587 7.5250917,3.2559413 7.5793443,3.083408 7.5793443,2.8962956 7.5793443,2.7370511 7.5383097,2.5930632 7.4562657,2.4643404 7.375612,2.3356177 7.2456083,2.2281207 7.0662233,2.1418632 6.888229,2.0542786 6.5927073,1.9680122 6.1797053,1.8830818 6.012836,1.8499056 5.9071767,1.8140874 5.862678,1.7756032 5.816789,1.7384461 5.7938243,1.6966579 5.7938243,1.6502115 c 0,-0.063698 0.027817,-0.117467 0.08344,-0.1612594 0.055623,-0.045119 0.1383607,-0.067653 0.2482163,-0.067653 0.1334957,0 0.2377747,0.029849 0.312866,0.089566 0.076482,0.059717 0.1265514,0.155274 0.150191,0.2866509 L 7.4792167,1.7477338 C 7.4402807,1.4451691 7.3178887,1.224878 7.112083,1.0868659 6.9076677,0.9475269 6.6100973,0.87786597 6.2193447,0.87786597 Z M 7.998601,0.9276479 V 3.8458143 H 8.8475393 V 2.8306006 c 0,-0.1924206 0.032,-0.3257725 0.095966,-0.4000869 0.063967,-0.074314 0.1473733,-0.1114776 0.250276,-0.1114776 0.093169,0 0.1654917,0.027873 0.2169423,0.083608 C 9.462175,2.4570531 9.4879,2.5505928 9.4879,2.6832967 v 1.1625176 h 0.853142 V 2.5021662 c 0,-0.277351 -0.06676,-0.4830541 -0.200254,-0.6170849 -0.132105,-0.134031 -0.3135597,-0.2010431 -0.5443953,-0.2010431 -0.155745,0 -0.2906434,0.024551 -0.404671,0.073652 -0.1140274,0.0491 -0.228764,0.1307006 -0.3441824,0.2448261 V 0.9276479 Z m 5.727812,0 v 2.9181664 h 0.85104 V 0.9276479 Z m 1.422547,0 V 3.8458143 H 16 V 0.9276479 Z m -3.155902,0.7563903 c -0.390752,0 -0.6974,0.1021997 -0.919893,0.3065636 -0.221102,0.204364 -0.331657,0.4717402 -0.331657,0.8021729 1e-6,0.2322318 0.05492,0.4346133 0.164778,0.6071283 0.111246,0.171188 0.250997,0.2965943 0.419257,0.3762167 0.16826,0.078295 0.399114,0.1174346 0.692526,0.1174346 0.337911,0 0.59725,-0.045782 0.778025,-0.1373473 0.180776,-0.092893 0.335124,-0.2454987 0.463058,-0.4578248 L 12.42274,3.2247299 c -0.05284,0.063698 -0.1022,0.1081763 -0.148089,0.1333901 -0.07509,0.039811 -0.154357,0.059696 -0.237792,0.059696 -0.132105,0 -0.239187,-0.045782 -0.321231,-0.1373473 -0.05841,-0.063698 -0.09526,-0.1605588 -0.110552,-0.2906088 h 1.70208 v -0.091565 c 0,-0.278678 -0.04798,-0.5049388 -0.143928,-0.6787808 -0.09595,-0.173842 -0.2357,-0.306563 -0.419257,-0.3981288 C 12.560415,1.72982 12.310111,1.6840382 11.993058,1.6840382 Z m 0.03543,0.4797372 c 0.11681,0 0.210674,0.033842 0.281593,0.1015215 0.07231,0.067679 0.116817,0.1798006 0.133503,0.3363909 H 11.60713 c 0.01391,-0.1260686 0.04662,-0.2209535 0.09807,-0.2846513 0.08065,-0.102182 0.188405,-0.1532611 0.32329,-0.1532611 z" fill="#f40304" />
    <path d="M 2.1267746,3.610383 1.2327434,3.61366 1.0582401,3.0907514 0.40494557,2.4753046 C 0.3604651,2.26422 0.37500653,1.8336298 0.4676081,1.6771771 L 1.6142586,2.9290368 0.5369012,1.4777213 C 0.50631493,1.3593865 0.78084017,0.9566119 0.85683493,0.9566119 L 1.8744266,2.833001 1.0182824,0.7689886 C 1.0746039,0.69134207 1.3633776,0.51615107 1.4975103,0.4849061 L 2.0897109,2.8077663 1.7275688,0.4041775 C 1.7994318,0.3542703 2.0483001,0.3168795 2.1615578,0.3440773 L 2.2637519,2.8047655 2.3817237,0.3464329 c 0.1435692,-8.2e-4 0.388071,0.0586027 0.4348748,0.1169031 L 2.4474475,2.8035411 3.039427,0.51599173 c 0.085065,0.0345254 0.438084,0.18293537 0.443317,0.2696186 L 2.6342122,2.8457822 3.6673763,0.9553402 c 0.060737,0.053376 0.3280984,0.4317537 0.3280984,0.4684546 L 2.8899952,2.9629406 4.1019203,1.6600025 c 0.092174,0.08621 0.100336,0.7546516 0.044843,0.8060734 L 3.5062813,3.0567563 3.3388127,3.6029957 2.3783071,3.6095557 C 2.3411898,3.7050517 2.1658047,3.7126573 2.1267746,3.610389 Z" fill="#faf70c" />
</svg>