<svg width="32" height="45" viewBox="0 0 32 45" fill="none" xml:space="preserve" xmlns:xlink="http://www.w3.org/1999/xlink" xmlns="http://www.w3.org/2000/svg">
     <linearGradient
       id="linearGradient1019">
       <stop
         style="stop-color:#008c0b;stop-opacity:1;"
         offset="0.19615714"
         id="stop1017" />
         <stop
         style="stop-color:#4ffb5e;stop-opacity:1;"
         offset="1"
         id="stop1015" />
         </linearGradient>
         <radialGradient
       xlink:href="#linearGradient1019"
       id="radialGradient1021"
       cx="418.54395"
       cy="731.08771"
       fx="418.54395"
       fy="731.08771"
       r="331.61261"
       gradientTransform="matrix(0.05713969,-0.0566004,0.06200339,0.06787398,-53.126824,6.2621568)"
       gradientUnits="userSpaceOnUse" />
  <path d="m 2.8817137,44.999999 c -1.658722,10e-4 -2.89156799,-0.866952 -2.87661299,-2.811682 L 7.0549169e-7,22.079091 C -0.00109929,19.903198 1.2842437,18.86775 3.1117137,18.830835 l 19.9253773,-0.04255 -9e-6,-7.321506 C 23.058872,7.7627268 20.384097,4.3377481 16.230888,4.2612988 11.571222,4.2447678 9.3438001,8.7342068 9.3775071,11.607153 l -0.0151,4.253179 c -0.02309,1.346872 -4.2559575,1.295567 -4.2647284,0.008 l -0.00941,-4.254037 C 5.064382,7.3681178 8.4082517,0.0017399 16.133237,0 c 7.64808,0.01027 11.377312,6.3135228 11.284726,11.525781 l -0.03292,7.310454 1.600372,9.84e-4 c 2.65381,0.07196 2.99921,2.121588 3.01456,4.03286 l -0.009,19.108079 c -10e-4,2.123785 -0.84868,3.012261 -2.77577,3.01298 z M 22.880986,41.527365 c -0.0376,-4.400153 -0.182237,-5.445486 -5.164201,-7.441653 l 0.0054,-0.829672 c 0.306123,-0.614434 0.6537,-1.156926 0.80838,-2.034197 0.679028,0.03997 0.852461,-1.412279 0.670178,-2.125803 0.707707,-2.264109 0.439779,-3.476087 -0.652177,-4.104268 -0.742756,0.08331 -1.49298,-0.196375 -1.908378,-0.558319 -1.335124,-0.123434 -2.8878,-0.419095 -2.901952,1.697011 -1.723429,-0.184646 -0.622202,2.223691 -0.413067,3.346702 -0.869481,-0.67017 -0.458354,1.305509 0.253249,1.946148 0.178758,0.994171 0.567356,1.551322 0.957932,2.104353 l 0.01878,0.723089 c -6.0389384,1.682875 -4.8740039,4.087958 -4.9934039,7.378647 -0.02588,0.588849 0.4752889,0.882117 1.4093749,0.886484 l 10.119768,0.04384 c 1.170593,0.03646 1.78358,-0.209677 1.790147,-1.032359 z"
     fill="url(#radialGradient1021)" />
</svg>