<svg width="32" height="45" viewBox="0 0 32 45" fill="none" xml:space="preserve" xmlns:xlink="http://www.w3.org/1999/xlink" xmlns="http://www.w3.org/2000/svg">
     <linearGradient
       id="linearGradient1019">
       <stop
         style="stop-color:#ae0005;stop-opacity:1;"
         offset="0.21428572"
         id="stop1017" />
         <stop
         style="stop-color:#fb878a;stop-opacity:1;"
         offset="1"
         id="stop1015" />
         </linearGradient>
         <radialGradient
       xlink:href="#linearGradient1019"
       id="radialGradient1021"
       cx="416.46561"
       cy="585.71417"
       fx="416.46561"
       fy="585.71417"
       r="331.61261"
       gradientTransform="matrix(0.04824907,0,0,0.06785026,-4.0940443,-17.240866)"
       gradientUnits="userSpaceOnUse" />
  <path d="m 2.8817137,44.999994 c -1.658722,10e-4 -2.89156799,-0.83255 -2.87661299,-2.70011 L 7.0548591e-7,22.988624 C -0.00109929,20.899074 1.2842437,19.904714 3.1117137,19.869264 l -0.04865,-6.92129 C 3.0811137,7.4803345 7.7833127,-0.00667553 16.123236,4.4668358e-6 22.120906,0.01480447 29.167766,5.1657545 29.015816,13.022014 l -0.0304,6.85338 c 2.65381,0.0691 2.99921,2.0374 3.01456,3.87283 l -0.009,18.34984 c -0.001,2.03951 -0.84868,2.89273 -2.77577,2.89342 z m 11.8260483,-6.59629 2.550984,0.0273 c 0.47057,-0.015 0.71192,-0.25435 0.66345,-0.99837 l -0.54474,-4.50361 c -0.11177,-0.85647 -0.11132,-1.1151 0.46197,-1.64829 1.76582,-1.71178 0.56482,-4.79027 -1.78453,-4.8069 -2.555405,-0.0393 -3.386079,2.66281 -1.876028,4.55433 0.576834,0.73126 0.605087,1.06863 0.497171,1.95023 l -0.531149,4.40985 c -0.10392,0.65384 0.133651,1.0003 0.562872,1.01549 z m 9.745344,-18.51848 -0.007,-6.91469 c 0.015,-3.5302995 -3.24291,-8.1050595 -8.2803,-8.2110395 -5.311263,0.0343 -8.5400973,4.39303 -8.5947953,8.5422195 l 0.0032,6.58408 z"
     fill="url(#radialGradient1021)" />
</svg>