<svg width="48" height="12" viewBox="0 0 48 12" fill="none" xml:space="preserve" xmlns="http://www.w3.org/2000/svg">
    <path d="M 6.783411,0 C 3.1135968,0.00262348 -0.69975125,2.9524009 0.10975078,7.7107079 l 2.26535062,2.0907067 0.6693609,1.9082434 3.0498962,0.02162 c 0.3387843,0.367062 0.8035408,0.360713 1.1246963,-0.03524 l 3.2984132,0.0054 0.636672,-1.9516091 2.151838,-1.9739808 C 14.211758,3.565122 10.679695,0.00444712 6.783411,0 Z m 11.874623,2.6335979 c -0.955329,0 -1.708376,0.1154011 -2.259045,0.3463061 -0.546498,0.2269235 -0.957339,0.5414685 -1.232674,0.9435615 -0.271163,0.3981111 -0.406816,0.8221292 -0.406816,1.271995 0,0.6847524 0.267037,1.2481332 0.80102,1.6900373 0.52981,0.4419036 1.416375,0.7961778 2.659554,1.0629123 0.759256,0.1592444 1.243131,0.3283734 1.451718,0.5075233 0.208588,0.1791504 0.312866,0.3822048 0.312866,0.6091285 0,0.2388669 -0.110553,0.4498666 -0.331655,0.6329986 -0.216931,0.1791498 -0.527762,0.2688212 -0.932421,0.2688212 -0.542326,0 -0.959442,-0.1771994 -1.251464,-0.5315188 -0.179385,-0.2189618 -0.298348,-0.5374173 -0.356752,-0.955434 l -2.697006,0.1612176 c 0.07926,0.8838075 0.419334,1.6122825 1.020065,2.1855625 0.60073,0.573281 1.681169,0.859953 3.2414,0.859953 0.88858,0 1.624936,-0.121454 2.20898,-0.364302 0.584043,-0.246828 1.03868,-0.607031 1.364075,-1.080784 0.325396,-0.4737522 0.488154,-0.9913519 0.488154,-1.5526892 0,-0.4777334 -0.123104,-0.9096973 -0.369236,-1.2958655 C 22.126836,7.0068531 21.736825,6.6843622 21.19867,6.4255896 20.664687,6.1628358 19.778122,5.9040365 18.539116,5.6492453 18.038508,5.5497167 17.72153,5.4422621 17.588034,5.3268097 17.450367,5.2153384 17.381473,5.0899738 17.381473,4.9506346 c 0,-0.191093 0.08345,-0.3524011 0.250319,-0.4837783 0.166869,-0.1353577 0.415082,-0.2029592 0.744649,-0.2029592 0.400487,0 0.713324,0.089546 0.938598,0.2686966 0.229446,0.17915 0.379654,0.465822 0.450573,0.8599528 L 22.43765,5.2432013 C 22.320842,4.3355072 21.953666,3.674634 21.336249,3.2605977 20.723003,2.8425807 19.830292,2.6335979 18.658034,2.6335979 Z m 5.337769,0.1493458 v 8.7544993 h 2.546815 V 8.4918017 c 0,-0.5772618 0.096,-0.9773175 0.287897,-1.2002606 0.1919,-0.2229422 0.44212,-0.3344328 0.750828,-0.3344328 0.279507,0 0.496475,0.083618 0.650827,0.2508248 0.154355,0.1632261 0.23153,0.4438452 0.23153,0.8419571 v 3.4875528 h 2.559425 V 7.5064986 c 0,-0.8320529 -0.200277,-1.4491624 -0.600762,-1.8512546 -0.396315,-0.4020932 -0.940678,-0.6031294 -1.633185,-0.6031294 -0.467235,0 -0.87193,0.073654 -1.214013,0.2209556 -0.342082,0.1473009 -0.686292,0.3921019 -1.032547,0.7344783 V 2.7829437 Z m 17.183435,0 v 8.7544993 h 2.55312 V 2.7829437 Z m 4.267642,0 V 11.537443 H 48 V 2.7829437 Z m -9.467705,2.2691709 c -1.172257,0 -2.092202,0.3065991 -2.75968,0.9196907 -0.663307,0.6130921 -0.99497,1.4152208 -0.99497,2.4065189 3e-6,0.6966953 0.164765,1.3038399 0.494333,1.8213848 0.333737,0.513564 0.75299,0.889783 1.25777,1.12865 0.50478,0.234886 1.197342,0.352304 2.07758,0.352304 1.013732,0 1.79175,-0.137345 2.334075,-0.412042 0.542327,-0.278678 1.005372,-0.736496 1.389172,-1.3734744 L 37.26822,9.6741897 c -0.158525,0.1910935 -0.3066,0.3245289 -0.444267,0.4001703 -0.225273,0.119433 -0.46307,0.179089 -0.713375,0.179089 -0.396315,0 -0.717563,-0.137345 -0.963695,-0.4120421 C 34.97167,9.6503125 34.861115,9.3597306 34.815228,8.9695805 h 5.10624 V 8.6948856 c 0,-0.8360339 -0.143933,-1.5148165 -0.431783,-2.0363423 C 39.201835,6.1370172 38.782583,5.7388541 38.231913,5.4641569 37.681245,5.1894599 36.930333,5.0521146 35.979175,5.0521146 Z m 0.106305,1.4392117 c 0.350428,0 0.63202,0.1015272 0.844778,0.3045644 0.21693,0.2030371 0.35045,0.5394017 0.40051,1.0091728 h -2.509363 c 0.04172,-0.3782058 0.13985,-0.6628607 0.294203,-0.8539539 0.241962,-0.3065461 0.565215,-0.4597833 0.969872,-0.4597833 z"  fill="#f40304" />
    <path d="M 6.3803238,10.831149 3.6982303,10.84098 3.1747203,9.2722543 1.2148367,7.4259138 C 1.0813953,6.7926601 1.1250196,5.5008894 1.4028243,5.0315312 L 4.8427758,8.7871103 1.6107036,4.4331639 C 1.5189448,4.0781596 2.3425205,2.8698357 2.5705048,2.8698357 L 5.6232798,8.4990029 3.0548473,2.3069658 C 3.2238118,2.0740262 4.0901328,1.5484532 4.4925308,1.4547183 L 6.2691328,8.423299 5.1827065,1.2125325 C 5.3982953,1.0628108 6.1449003,0.95063863 6.4846735,1.032232 L 6.7912558,8.4142966 7.145171,1.0392987 c 0.4307078,-0.00246 1.164213,0.175808 1.3046245,0.3507093 L 7.3423425,8.4106232 9.118281,1.5479752 c 0.2551948,0.1035761 1.314252,0.5488061 1.329951,0.8088558 L 7.9026365,8.5373465 11.002129,2.8660206 c 0.182211,0.160128 0.984295,1.2952612 0.984295,1.4053639 L 8.6699855,8.8888218 12.305761,4.9800076 c 0.276521,0.2586285 0.301008,2.2639548 0.134529,2.4182202 l -1.921446,1.772041 -0.502406,1.6387182 -2.8815167,0.01968 c -0.1113518,0.286488 -0.6375073,0.309305 -0.7545975,0.0025 z" fill="#faf70c" />
</svg>