<?xml version="1.0" encoding="UTF-8" standalone="no"?>
<svg
   width="250"
   height="235"
   viewBox="0 0 250 235"
   fill="none"
   xml:space="preserve"
   version="1.1"
   id="svg313"
   xmlns="http://www.w3.org/2000/svg"
   xmlns:svg="http://www.w3.org/2000/svg"><defs
   id="defs317" />
    <path
   d="M 126.09229,0 C 57.876566,0.05139942 -13.007213,57.817834 2.0400855,151.00134 l 42.1090905,40.94299 12.4423,37.36974 56.692464,0.42344 c 6.29744,7.18828 14.9365,7.06399 20.90622,-0.69017 l 61.31202,0.10775 11.83465,-38.21902 39.99908,-38.65709 C 264.17284,69.816958 198.5177,0.08708398 126.09229,0 Z"
   fill="#f40304"
   id="path309"
   style="opacity:0.35;stroke-width:1.74169" />
    <path
   d="M 118.59957,212.10998 68.743926,212.30247 59.012756,181.5816 22.581787,145.42411 C 20.101336,133.0229 20.912236,107.72572 26.076156,98.534141 L 90.019107,172.08087 29.940287,86.816107 C 28.234646,79.863939 43.543546,56.200939 47.781386,56.200939 L 104.52738,166.43878 56.784506,45.178062 C 59.925276,40.616328 76.028747,30.32387 83.508647,28.488213 L 116.53271,164.95623 96.337867,23.745417 c 4.007433,-2.932054 17.885573,-5.128752 24.201383,-3.530895 l 5.69884,144.565418 6.57871,-144.427014 c 8.00615,-0.04806 21.64077,3.442898 24.25079,6.868054 L 136.48188,164.70801 169.49363,30.314509 c 4.74363,2.028359 24.42972,10.747445 24.72156,15.840092 L 146.89682,167.18967 204.5112,56.126218 c 3.38701,3.135847 18.29639,25.365533 18.29639,27.52171 l -61.64703,90.424812 67.58298,-76.547611 c 5.14008,5.064811 5.59523,44.335771 2.50067,47.356801 l -35.71647,34.70245 -9.33889,32.09155 -53.56257,0.38545 c -2.06984,5.61039 -11.85021,6.05723 -14.02671,0.0485 z"
   fill="#faf70c"
   id="path311"
   style="opacity:0.35;stroke-width:1.74169" />
</svg>
