<svg
   width="128"
   height="200"
   fill="none"
   viewBox="0 0 128 200"
   xml:space="preserve"
   xmlns:xlink="http://www.w3.org/1999/xlink"
   xmlns="http://www.w3.org/2000/svg">
  <linearGradient
   id="linearGradient1311"><stop
     style="stop-color:#bc0205;stop-opacity:1;"
     offset="0"
     id="stop1307" /><stop
     style="stop-color:#f0c6c9;stop-opacity:1;"
     offset="1"
     id="stop1309" /></linearGradient><linearGradient
   id="linearGradient2277"><stop
     style="stop-color:#0240bc;stop-opacity:1;"
     offset="0"
     id="stop2273" /><stop
     style="stop-color:#9dd0f0;stop-opacity:1;"
     offset="1"
     id="stop2275" /></linearGradient><linearGradient
   xlink:href="#linearGradient2277"
   id="linearGradient2271"
   gradientUnits="userSpaceOnUse"
   x1="45.649166"
   y1="264.64117"
   x2="702.21954"
   y2="561.71326"
   gradientTransform="matrix(0.25387118,0,0,0.2611883,-5.5430194,-65.745996)" /><linearGradient
   xlink:href="#linearGradient1311"
   id="linearGradient530"
   gradientUnits="userSpaceOnUse"
   gradientTransform="matrix(0.67837283,0,0,0.67013035,-99.706579,-219.25223)"
   x1="213.17627"
   y1="325.84793"
   x2="250.23529"
   y2="562.61194" />
  <path
   d="M 0,58.321569 C 0.484799,105.12053 37.701481,152.95094 63.960401,200 92.387591,153.58934 127.67327,93.26016 127.99809,59.341805 128.27284,28.696019 98.852681,-0.02865355 65.918931,2.1450977e-5 29.796321,0.08251645 0.021698,30.07923 0,58.321569 Z M 64.707631,110.50403 C 34.770841,109.55864 16.942575,89.98212 16.423785,58.186419 15.902508,39.872319 34.230491,14.695194 66.666131,15.14016 87.219051,15.11969 112.40428,33.812973 112.44168,59.549419 111.87114,84.7905 93.852401,110.30043 64.707631,110.50403 Z m -18.8282,-79.529025 0.29726,56.535935 -7.29209,0.0346 0.17368,8.74018 46.39036,0.15923 4e-4,-8.36518 -7.77672,-0.0911 0.28017,-37.042035 2.16122,-0.690339 0.12794,29.649254 c -0.0164,5.55225 12.81798,5.95158 12.95958,0.58854 l 0.18863,-36.138439 -7.3757,-7.737908 -2.59447,2.826336 6.40154,6.5674 0.0377,32.463822 c 0.0131,3.973189 -6.47726,3.815529 -6.46611,-0.474019 l 0.18766,-31.116849 -5.59177,-0.884918 0.11056,-14.992584 z m 5.08592,22.293375 -0.0679,-15.965498 22.89679,0.01291 -0.081,15.804067 z"
   fill="url(#linearGradient530)" />
</svg>