<svg
   width="192"
   height="85"
   fill="none"
   viewBox="0 0 192 85"
   xml:space="preserve"
   xmlns:xlink="http://www.w3.org/1999/xlink"
   xmlns="http://www.w3.org/2000/svg">
     <linearGradient
       id="linearGradient1311"><stop
         style="stop-color:#bc0205;stop-opacity:1;"
         offset="0"
         id="stop1307" /><stop
         style="stop-color:#f0c6c9;stop-opacity:1;"
         offset="1"
         id="stop1309" /></linearGradient><linearGradient
       id="linearGradient2277"><stop
         style="stop-color:#0240bc;stop-opacity:1;"
         offset="0"
         id="stop2273" /><stop
         style="stop-color:#9dd0f0;stop-opacity:1;"
         offset="1"
         id="stop2275" /></linearGradient><linearGradient
       xlink:href="#linearGradient2277"
       id="linearGradient2271"
       gradientUnits="userSpaceOnUse"
       x1="45.649166"
       y1="264.64117"
       x2="702.21954"
       y2="561.71326"
       gradientTransform="matrix(0.25387118,0,0,0.2611883,-5.5430194,-65.745996)" /><linearGradient
       xlink:href="#linearGradient1311"
       id="linearGradient530"
       gradientUnits="userSpaceOnUse"
       gradientTransform="matrix(0.20677966,0,0,0.2127395,45.656525,-49.413469)"
       x1="213.17627"
       y1="325.84793"
       x2="250.23529"
       y2="562.61194" />
       <path
     d="M 76.048799,38.705078 C 76.196574,53.561871 87.540856,68.746108 95.545025,83.682294 104.21012,68.948773 114.9658,49.796681 115.06481,39.028962 115.14856,29.300154 106.18079,20.181223 96.142018,20.190326 85.131229,20.216515 76.055413,29.739268 76.048799,38.705078 Z M 95.772794,55.270915 C 86.647547,54.970792 81.213186,48.756032 81.05505,38.662173 c -0.158894,-5.813992 5.427788,-13.806719 15.314727,-13.66546 6.264883,-0.0065 13.941773,5.927869 13.953173,14.098158 -0.17391,8.013028 -5.66633,16.111411 -14.550156,16.176044 z m -5.739157,-25.247274 0.09061,17.947891 -2.222755,0.01098 0.05294,2.774656 14.140578,0.05055 1.2e-4,-2.655608 -2.370476,-0.02894 0.0854,-11.75936 0.658776,-0.219155 0.039,9.412448 c -0.005,1.762619 3.90714,1.889387 3.9503,0.186838 l 0.0575,-11.472504 -2.24824,-2.456475 -0.79084,0.897248 1.9513,2.084886 0.0115,10.305961 c 0.004,1.261327 -1.97438,1.211277 -1.97098,-0.150482 l 0.0572,-9.878351 -1.704466,-0.280926 0.0337,-4.759544 z m 1.550273,7.077252 -0.02068,-5.068405 6.979334,0.0041 -0.0247,5.017157 z"
     fill="url(#linearGradient530)" />
     <path
     fill="#3b11f1"
     d="m 170.89997,29.840131 c -0.39854,-0.141322 -0.88276,-0.100097 -1.04377,0.275653 -0.70048,1.982961 -1.53078,3.449859 -3.12561,5.28851 -1.30147,1.156689 -7.86337,-0.491566 -9.50691,4.073725 0,0 -11.09156,29.102595 -10.804,30.09462 -1.25346,3.602871 21.1868,12.624409 22.77682,8.187693 l 10.92503,-29.844573 c 1.29276,-3.49529 -3.15716,-6.824312 -4.44002,-8.745535 -0.63836,-1.308981 0.15805,-4.643226 0.89955,-6.189285 0.54112,-0.995245 -1.27159,-1.679751 -1.44862,-0.618245 -0.48385,2.345601 -1.87329,5.376273 -1.12291,6.788368 0.99765,1.878023 5.45492,6.262272 4.97448,7.915164 L 168.2073,76.6891 c -0.98882,2.720947 -20.91561,-4.950954 -20.14005,-7.182811 -0.37632,-0.716123 10.35078,-29.06372 10.35078,-29.06372 1.31697,-3.697073 7.01482,-2.112655 9.48088,-3.810576 1.28655,-2.253293 2.50406,-4.070663 3.53558,-5.969322 0.17713,-0.356606 -0.13602,-0.681352 -0.53461,-0.822579 z m 6.97379,16.24916 c -0.0947,-0.02594 -0.19999,-0.0325 -0.31363,-0.01318 -3.49414,0.847975 -16.21861,-4.260678 -17.20846,-6.371125 -0.25142,-0.792021 -1.51276,0.287567 -1.07276,0.923856 3.6391,3.925484 14.81301,7.448179 18.74679,6.981567 0.68136,-0.188183 0.51053,-1.33965 -0.15194,-1.521127 z M 163.89133,58.65616 c -1.46523,-0.559957 -3.95825,0.201542 -4.52536,1.626508 -0.60598,1.745572 -0.11194,3.361575 1.96128,4.152893 1.14803,0.429458 3.61642,0.379409 4.12064,-1.059304 0.29533,-0.429622 -0.49392,-0.913815 -0.76839,-0.571813 -0.69841,0.931904 -1.88914,0.850576 -2.85182,0.536952 -0.94756,-0.373126 -1.94274,-0.706511 -1.36491,-2.593591 0.37813,-1.108771 2.25631,-1.299677 3.16177,-1.009722 0.82997,0.272756 1.79816,0.856287 1.50556,1.837695 -0.23162,0.692524 0.81492,1.041367 1.07594,0.383438 0.46183,-1.227491 -0.74947,-2.72047 -2.31471,-3.303056 z" />
     <path
     fill="#e2c439"
     d="m 170.73438,22.607188 c -0.82615,0.02503 -1.40239,0.224524 -1.55665,0.641254 l -1.39648,3.839557 c -0.58019,1.554666 8.76966,5.175869 10.85742,4.932877 0.77871,-0.215063 0.73518,-1.508705 -0.17383,-1.354201 -2.4707,0.321079 -9.393,-2.990235 -8.99218,-4.104424 l 0.73632,-2.16473 c 0.6057,-1.552829 9.38712,2.018856 10.11329,3.375545 l -0.875,2.483365 c -0.15562,0.5644 1.0602,1.168814 1.27148,0.489903 l 1.06641,-2.871703 c -0.20985,-1.555931 -2.82217,-3.131139 -5.61914,-4.148236 -1.9812,-0.72044 -4.05473,-1.160924 -5.43164,-1.119207 z m -146.914068,12.769317 -10.375,4.421068 7.947266,36.374233 c 0.100632,0.480107 1.285362,-0.293123 1.175781,-0.750785 l -7.578125,-34.932408 7.990235,-3.337706 8.054687,36.714774 -8.832031,3.178389 c -1.268881,0.465019 -0.791457,1.723466 0.457031,1.218781 l 9.736328,-3.614521 z m 135.439458,17.10276 c -0.41373,0.01572 -0.92806,0.601132 -0.61524,1.053489 4.17296,2.826889 7.61309,4.377518 11.68555,4.442974 0.77872,-0.215067 0.55357,-1.442967 -0.35547,-1.288483 -2.85796,-0.348747 -7.48319,-1.564916 -10.32227,-3.897309 -0.047,-0.148496 -0.12806,-0.238282 -0.22461,-0.280798 -0.0523,-0.02303 -0.10886,-0.03212 -0.16796,-0.02988 z m -3.82422,10.682255 c -0.41369,0.01561 -0.92807,0.599135 -0.61524,1.051497 4.03394,3.390451 7.83383,4.324318 11.67969,4.646104 0.77872,-0.215072 0.47937,-1.606266 -0.42969,-1.451783 -2.65338,0.0027 -8.36057,-1.899364 -10.24219,-3.937139 -0.047,-0.148491 -0.12806,-0.236286 -0.2246,-0.278807 -0.0523,-0.02303 -0.10887,-0.0321 -0.16797,-0.02987 z" />
     <path
     d="m 8.741167,32.92611 c -0.18906,0.0263 -0.383145,0.109525 -0.56662,0.26834 l -5.046149,3.433195 9.440634,44.000761 4.821008,1.374969 c 1.296141,0.561396 2.093065,-0.914772 0.809202,-1.550526 L 14.139743,79.341063 5.023769,37.708894 9.641836,34.280125 C 10.285165,33.767521 9.560406,32.812133 8.741167,32.92611 Z m 8.881387,-1.890821 c -0.728989,0.179864 -1.097059,1.381291 0.25632,1.721215 l 2.781898,0.575482 c 1.517205,0.428626 1.600063,-1.201437 0.349892,-1.624414 l -2.954726,-0.655234 c -0.151079,-0.04876 -0.298381,-0.05034 -0.433385,-0.01707 z m -5.580785,2.850195 c -0.249314,0.05309 -0.478576,0.233519 -0.61117,0.595093 l -0.672522,1.385715 c -0.553022,1.412984 0.974438,1.528801 1.674413,0.387571 l 0.635514,-1.170677 c 0.378905,-0.637101 -0.389149,-1.333693 -1.026235,-1.197702 z m -5.571327,3.1301 c -0.632879,0.17491 -0.861132,1.152191 0.06958,1.466572 l 1.833439,0.367749 c 1.46466,0.248442 1.451764,-0.977342 0.212058,-1.432 L 6.963852,37.040451 c -0.179851,-0.06311 -0.347356,-0.06523 -0.493405,-0.02487 z"
     fill="#46afa7" />
     <path
     d="m 23.426548,33.132992 c -0.06125,0.0162 -0.12491,0.03946 -0.190856,0.07033 L 10.148023,38.174847 19.709539,82.35044 34.831671,76.844962 25.774957,35.387959 c -0.115033,-0.553753 -1.270411,-0.03856 -1.140384,0.48836 l 8.842225,40.000646 -12.580819,4.54348 -9.06907,-41.251096 12.069599,-4.714167 c 0.789881,-0.371925 0.448411,-1.566609 -0.469919,-1.322207 z"
     fill="#58dcd2" />
     <path
     d="m 10.279842,18.123237 c -1.55363,0.360268 -3.130089,1.118073 -2.886099,2.185779 l 2.475256,11.162957 c 0.340906,1.701691 7.110048,0.08414 6.784274,-1.633062 L 14.932392,21.335136 C 14.784065,20.638569 13.384178,20.903197 13.542176,21.5383 l 1.843787,8.060018 c 0.1524,0.745532 -4.246477,1.86669 -4.429922,0.923307 L 8.866395,20.29796 c -0.161449,-0.544199 1.063803,-0.861124 1.912038,-1.028183 1.516618,-0.305303 2.528221,0.03587 2.528221,0.03587 0,0 -1.298356,0.770459 -2.726977,1.071753 -1.215227,0.272766 -0.946035,1.512869 0.231077,1.30283 1.56736,-0.381954 3.984234,-1.453353 3.725723,-2.68965 -0.209333,-0.891855 -1.329151,-1.455976 -3.946423,-0.933896 -0.102868,0.02051 -0.20669,0.04256 -0.310275,0.06657 z"
     fill="#0975cf" />
     <path
     fill="url(#linearGradient2271)"
     d="m 175.0918,0 0.5957,6.0102619 h 2.04297 L 178.32422,0 Z M 20.707031,0.36643082 c -2.227979,0 -3.97674,0.71129818 -5.246093,2.13286638 -1.269353,1.4147667 -1.904297,3.3433917 -1.904297,5.7852256 0,2.4214282 0.634944,4.3468972 1.904297,5.7752682 1.269353,1.421568 3.018114,2.130875 5.246093,2.130875 2.221371,0 3.970127,-0.702995 5.246094,-2.11096 1.275963,-1.407965 1.914063,-3.339747 1.914063,-5.7951832 0,-2.4554369 -0.6381,-4.3872174 -1.914063,-5.7951831 C 24.677158,1.074573 22.928402,0.36643082 20.707031,0.36643082 Z m 54.492188,0 c -2.227978,0 -3.976742,0.71129818 -5.246094,2.13286638 -1.269355,1.4147667 -1.904297,3.3433917 -1.904297,5.7852256 0,2.4214282 0.634942,4.3468972 1.904297,5.7752682 1.269352,1.421568 3.018116,2.130875 5.246094,2.130875 2.221367,0 3.970131,-0.702995 5.246093,-2.11096 1.275967,-1.407965 1.914063,-3.339747 1.914063,-5.7951832 0,-2.4554369 -0.638096,-4.3872174 -1.914063,-5.7951831 C 79.16935,1.074573 77.420586,0.36643082 75.199219,0.36643082 Z m 36.335941,0 c -2.22798,0 -3.97675,0.71129818 -5.2461,2.13286638 -1.26936,1.4147667 -1.90429,3.3433917 -1.90429,5.7852256 0,2.4214282 0.63493,4.3468972 1.90429,5.7752682 1.26935,1.421568 3.01812,2.130875 5.2461,2.130875 2.22135,0 3.97013,-0.702995 5.24609,-2.11096 1.27597,-1.407965 1.91406,-3.339747 1.91406,-5.7951832 0,-2.4554369 -0.63809,-4.3872174 -1.91406,-5.7951831 -1.27596,-1.4147667 -3.02474,-2.12290888 -5.24609,-2.12290888 z m 42.05664,0 c -2.22798,0 -3.97674,0.71129818 -5.2461,2.13286638 -1.26935,1.4147667 -1.90429,3.3433917 -1.90429,5.7852256 0,2.4214282 0.63494,4.3468972 1.90429,5.7752682 1.26936,1.421568 3.01813,2.130875 5.2461,2.130875 2.22137,0 3.97013,-0.702995 5.24609,-2.11096 1.27597,-1.407965 1.91406,-3.339747 1.91406,-5.7951832 0,-2.4554369 -0.63809,-4.3872174 -1.91406,-5.7951831 C 157.56193,1.074573 155.81317,0.36643082 153.5918,0.36643082 Z M 7.2402344,0.38833701 C 5.0254772,0.38833701 3.2621457,1.1059473 1.953125,2.541118 0.65071562,3.9694905 0,5.8866558 0,8.2944801 c 0,2.4962469 0.65071562,4.4343379 1.953125,5.8150979 1.3024094,1.373955 3.0606334,2.061173 5.2753906,2.061173 0.7074001,0 1.2627313,-0.03671 1.6660156,-0.111522 0.4032839,-0.07481 0.837996,-0.183764 1.3007808,-0.326601 0.376839,-0.115629 0.742604,-0.254969 1.09961,-0.41821 0.357006,-0.170045 0.6723,-0.32084 0.943359,-0.450072 v -3.570709 h -0.33789 c -0.185114,0.170044 -0.403071,0.363854 -0.654297,0.581509 -0.251226,0.217656 -0.542486,0.432391 -0.873047,0.643246 -0.304116,0.204053 -0.6781425,0.391548 -1.1210939,0.561595 -0.4429514,0.163239 -0.9092078,0.244951 -1.3984375,0.244951 -0.4693964,0 -0.9419611,-0.08486 -1.4179687,-0.254909 C 5.9661504,12.899986 5.5397006,12.624467 5.15625,12.243568 4.7595769,11.849065 4.4399278,11.331576 4.1953125,10.692212 3.9506976,10.046043 3.828125,9.2498833 3.828125,8.3044374 3.828125,7.4066061 3.9443889,6.6282124 4.1757812,5.968441 4.4137852,5.3086699 4.7176625,4.7848693 5.0878906,4.3971698 5.4911745,3.9686571 5.9144705,3.6690598 6.3574219,3.499016 6.8069842,3.3221682 7.2984759,3.2341502 7.8339844,3.2341502 c 0.4495627,0 0.8791672,0.078552 1.2890625,0.2349938 0.4165064,0.1496398 0.7968414,0.3339794 1.1406251,0.5516376 0.343783,0.2176559 0.650815,0.4418566 0.921875,0.6731175 0.27106,0.2244574 0.497278,0.4182668 0.675781,0.5815097 h 0.376953 V 1.6529217 C 11.993666,1.5236858 11.672063,1.3697394 11.275391,1.1928916 10.878717,1.0160464 10.511,0.87670777 10.173828,0.77468253 9.7440994,0.6522506 9.2955682,0.55792068 8.8261719,0.48990207 8.3567758,0.4218835 7.8286324,0.388337 7.2402344,0.38833701 Z m 54.4921876,0 c -2.214759,0 -3.976135,0.71761029 -5.285156,2.15278099 -1.302408,1.4283725 -1.955078,3.3455378 -1.955078,5.7533621 0,2.4962469 0.65267,4.4343379 1.955078,5.8150979 1.30241,1.373955 3.060631,2.061173 5.27539,2.061173 0.7074,0 1.262729,-0.03671 1.666016,-0.111522 0.403281,-0.07481 0.836045,-0.183764 1.298828,-0.326601 0.376842,-0.115629 0.744555,-0.254969 1.101562,-0.41821 0.357003,-0.170045 0.670346,-0.32084 0.941407,-0.450072 v -3.570709 h -0.337891 c -0.185115,0.170044 -0.403073,0.363854 -0.654297,0.581509 -0.25123,0.217656 -0.542484,0.432391 -0.873047,0.643246 -0.304116,0.204053 -0.676187,0.391548 -1.11914,0.561595 -0.44295,0.163239 -0.909209,0.244951 -1.398438,0.244951 -0.469394,0 -0.941963,-0.08486 -1.417968,-0.254909 C 60.460293,12.899986 60.033842,12.624467 59.650391,12.243568 59.25372,11.849065 58.932116,11.331576 58.6875,10.692212 58.442884,10.046043 58.320312,9.2498833 58.320312,8.3044374 c 0,-0.8978313 0.116263,-1.676225 0.347657,-2.3359964 0.238001,-0.6597711 0.541879,-1.1835717 0.912109,-1.5712712 0.403282,-0.4285127 0.826578,-0.72811 1.269531,-0.8981538 0.449565,-0.1768478 0.943009,-0.2648658 1.478516,-0.2648658 0.449565,0 0.879169,0.078552 1.289063,0.2349938 0.416507,0.1496398 0.79684,0.3339794 1.140624,0.5516376 0.343782,0.2176559 0.650815,0.4418566 0.921876,0.6731175 0.27106,0.2244574 0.495324,0.4182668 0.673828,0.5815097 h 0.376953 V 1.6529217 C 66.485853,1.5236858 66.164253,1.3697394 65.767578,1.1928916 65.370908,1.0160464 65.005142,0.87670777 64.667969,0.77468253 64.238241,0.6522506 63.787754,0.55792068 63.318359,0.48990207 62.848962,0.4218835 62.320818,0.388337 61.732422,0.38833701 Z m 78.392578,0 c -2.21476,0 -3.97614,0.71761029 -5.28516,2.15278099 -1.30241,1.4283725 -1.95507,3.3455378 -1.95507,5.7533621 0,2.4962469 0.65266,4.4343379 1.95507,5.8150979 1.3024,1.373955 3.06064,2.061173 5.27539,2.061173 0.70739,0 1.26273,-0.03671 1.66602,-0.111522 0.40328,-0.07481 0.83605,-0.183764 1.29883,-0.326601 0.37684,-0.115629 0.74455,-0.254969 1.10156,-0.41821 0.35701,-0.170045 0.67035,-0.32084 0.94141,-0.450072 v -3.570709 h -0.33789 c -0.18512,0.170044 -0.40308,0.363854 -0.6543,0.581509 -0.25123,0.217656 -0.54248,0.432391 -0.87305,0.643246 -0.30411,0.204053 -0.67619,0.391548 -1.11914,0.561595 -0.44295,0.163239 -0.90921,0.244951 -1.39844,0.244951 -0.4694,0 -0.94195,-0.08486 -1.41796,-0.254909 -0.4694,-0.170043 -0.89584,-0.445562 -1.2793,-0.826461 -0.39667,-0.394503 -0.71827,-0.911992 -0.96289,-1.551356 -0.24461,-0.646169 -0.36719,-1.4423287 -0.36719,-2.3877746 0,-0.8978313 0.11626,-1.676225 0.34766,-2.3359964 0.238,-0.6597711 0.54188,-1.1835717 0.91211,-1.5712712 0.40328,-0.4285127 0.82658,-0.72811 1.26953,-0.8981538 0.44957,-0.1768478 0.943,-0.2648658 1.47851,-0.2648658 0.44957,0 0.87918,0.078552 1.28907,0.2349938 0.41651,0.1496398 0.79684,0.3339794 1.14062,0.5516376 0.34379,0.2176559 0.65083,0.4418566 0.92188,0.6731175 0.27107,0.2244574 0.49532,0.4182668 0.67382,0.5815097 h 0.37696 V 1.6529217 C 144.87844,1.5236858 144.55878,1.3697394 144.16211,1.1928916 143.76543,1.0160464 143.39772,0.87670777 143.06055,0.77468253 142.63082,0.6522506 142.18033,0.55792068 141.71094,0.48990207 141.24154,0.42188343 140.7134,0.38833698 140.125,0.38833701 Z M 35.482422,0.40825172 c -1.751972,0 -3.212628,0.44208903 -4.382813,1.32632028 -1.170185,0.8774272 -1.755859,2.0276612 -1.755859,3.4492292 0,1.0542723 0.2483,1.9301551 0.744141,2.6307342 0.49584,0.7005827 1.315245,1.2599175 2.458984,1.6748278 0.495841,0.1768453 1.029092,0.3256519 1.597656,0.4480812 0.575176,0.1224316 1.112781,0.2523016 1.615235,0.3883366 0.403284,0.10883 0.750123,0.281712 1.041015,0.519775 0.290893,0.23806 0.4375,0.547125 0.4375,0.928025 0,0.340088 -0.08907,0.615606 -0.267578,0.826461 -0.178502,0.204052 -0.39646,0.364314 -0.654297,0.479945 -0.211558,0.102028 -0.493356,0.177425 -0.84375,0.225036 -0.343783,0.04761 -0.622425,0.0697 -0.833984,0.0697 -0.839624,0 -1.705142,-0.172886 -2.597656,-0.519774 -0.892513,-0.34689 -1.708762,-0.843455 -2.449219,-1.489622 h -0.337891 v 3.61253 c 0.733845,0.333287 1.528012,0.611962 2.38086,0.836419 0.859457,0.22446 1.853857,0.336559 2.984375,0.336559 1.963531,0 3.521522,-0.459862 4.671875,-1.378099 1.156959,-0.918238 1.734375,-2.132412 1.734375,-3.642402 0,-1.054276 -0.251452,-1.8997619 -0.753907,-2.5391266 C 39.775641,7.9450445 39.016926,7.4307087 37.992188,7.0498102 37.469902,6.8593596 36.976456,6.7105554 36.513672,6.6017291 36.057499,6.4928995 35.581778,6.3808012 35.085938,6.2651703 34.319036,6.0815239 33.800355,5.876254 33.529297,5.6517971 33.264847,5.4205356 33.132812,5.1114708 33.132812,4.7237712 c 0,-0.2652705 0.08277,-0.504084 0.248047,-0.7149385 0.171891,-0.2176558 0.372122,-0.3810728 0.603516,-0.489902 0.284282,-0.1360346 0.556614,-0.2272084 0.814453,-0.2748231 0.257837,-0.047612 0.547144,-0.071693 0.871094,-0.071693 0.833012,0 1.64295,0.166573 2.429687,0.4998594 0.793346,0.3332867 1.464939,0.7418294 2.013672,1.2247552 h 0.328125 V 1.4278853 C 39.753837,1.1150028 38.97229,0.86672136 38.099609,0.68307484 37.233537,0.49942568 36.361715,0.40825172 35.482422,0.40825172 Z m 90.828128,0 c -1.75197,0 -3.21264,0.44208903 -4.38282,1.32632028 -1.17018,0.8774272 -1.75586,2.0276612 -1.75585,3.4492292 0,1.0542723 0.24829,1.9301551 0.74414,2.6307342 0.49584,0.7005827 1.31523,1.2599175 2.45898,1.6748278 0.49584,0.1768453 1.02909,0.3256519 1.59766,0.4480812 0.57517,0.1224316 1.11278,0.2523016 1.61523,0.3883366 0.40329,0.10883 0.75013,0.281712 1.04102,0.519775 0.29089,0.23806 0.4375,0.547125 0.4375,0.928025 0,0.340088 -0.0891,0.615606 -0.26758,0.826461 -0.17851,0.204052 -0.39647,0.364314 -0.6543,0.479945 -0.21157,0.102028 -0.49335,0.177425 -0.84375,0.225036 -0.34378,0.04761 -0.62047,0.0697 -0.83203,0.0697 -0.83962,0 -1.7071,-0.172886 -2.59961,-0.519774 -0.89252,-0.34689 -1.70876,-0.843455 -2.44922,-1.489622 h -0.33594 v 3.61253 c 0.73384,0.333287 1.52606,0.611962 2.37891,0.836419 0.85946,0.22446 1.85386,0.336559 2.98438,0.336559 1.96352,0 3.52151,-0.459862 4.67187,-1.378099 1.15696,-0.918238 1.73438,-2.132412 1.73438,-3.642402 0,-1.054276 -0.2495,-1.8997619 -0.75196,-2.5391266 -0.49584,-0.6461689 -1.25651,-1.1605007 -2.28125,-1.5413992 -0.52228,-0.1904506 -1.01573,-0.3392548 -1.47851,-0.4480811 -0.45618,-0.1088297 -0.9319,-0.2209279 -1.42774,-0.3365588 -0.7669,-0.1836464 -1.28558,-0.3889162 -1.55664,-0.6133732 -0.26444,-0.2312614 -0.39648,-0.5403263 -0.39648,-0.9280259 0,-0.2652705 0.0827,-0.504084 0.24804,-0.7149385 0.17189,-0.2176558 0.37212,-0.3810727 0.60352,-0.489902 0.28428,-0.1360346 0.55661,-0.2272085 0.81445,-0.2748231 0.25784,-0.047612 0.5491,-0.071693 0.87305,-0.071693 0.83302,0 1.64295,0.166573 2.42969,0.4998594 0.79334,0.3332867 1.463,0.7418293 2.01172,1.2247552 h 0.32812 V 1.4278853 c -0.68756,-0.3128825 -1.46716,-0.56116394 -2.33984,-0.74481046 -0.86607,-0.18364916 -1.73984,-0.27482311 -2.61914,-0.27482312 z m 60.14648,0 c -1.75197,0 -3.21459,0.44208903 -4.38476,1.32632028 -1.17019,0.8774272 -1.75391,2.0276612 -1.75391,3.4492292 0,1.0542723 0.2483,1.9301551 0.74414,2.6307342 0.49584,0.7005827 1.31525,1.2599175 2.45898,1.6748278 0.49584,0.1768453 1.02714,0.3256519 1.59571,0.4480812 0.57518,0.1224316 1.11473,0.2523016 1.61719,0.3883366 0.40327,0.10883 0.75012,0.281712 1.04101,0.519775 0.2909,0.23806 0.43555,0.547125 0.43555,0.928025 0,0.340088 -0.089,0.615606 -0.26758,0.826461 -0.1785,0.204052 -0.39646,0.364314 -0.6543,0.479945 -0.21156,0.102028 -0.4914,0.177425 -0.84179,0.225036 -0.34379,0.04761 -0.62243,0.0697 -0.83399,0.0697 -0.83962,0 -1.70515,-0.172886 -2.59766,-0.519774 -0.89251,-0.34689 -1.70876,-0.843455 -2.44921,-1.489622 h -0.33789 v 3.61253 c 0.73384,0.333287 1.52801,0.611962 2.38086,0.836419 0.85945,0.22446 1.85385,0.336559 2.98437,0.336559 1.96353,0 3.51957,-0.459862 4.66992,-1.378099 1.15697,-0.918232 1.73633,-2.13241 1.73633,-3.6424 0,-1.054276 -0.25146,-1.8997618 -0.75391,-2.5391266 -0.49584,-0.6461689 -1.2565,-1.1605007 -2.28125,-1.5413992 -0.52228,-0.1904506 -1.01377,-0.3392548 -1.47656,-0.4480811 -0.45617,-0.1088297 -0.93189,-0.220928 -1.42773,-0.3365588 -0.7669,-0.1836464 -1.28753,-0.3889161 -1.5586,-0.6133732 -0.26445,-0.2312613 -0.39648,-0.5403262 -0.39648,-0.9280259 0,-0.2652704 0.0827,-0.504084 0.24805,-0.7149385 0.1719,-0.2176559 0.37407,-0.3810728 0.60546,-0.489902 0.28428,-0.1360346 0.55466,-0.2272086 0.8125,-0.2748231 0.25784,-0.047612 0.54909,-0.071693 0.87305,-0.071693 0.83301,0 1.64295,0.166573 2.42969,0.4998594 0.79335,0.3332867 1.46494,0.7418294 2.01367,1.2247552 h 0.32617 V 1.4278853 C 190.72649,1.1150028 189.9469,0.86672136 189.07422,0.68307484 188.20815,0.49942568 187.33633,0.40825173 186.45703,0.40825172 Z M 41.392578,0.68307484 V 3.5806664 h 4.363281 V 15.876013 h 3.708985 V 3.5806664 h 4.363281 V 0.68307484 Z m 49.109375,0 V 15.876013 h 3.6875 v -5.572138 h 1.330078 l 4.115235,5.572138 h 4.521484 L 99.1875,9.4176702 c 0.85284,-0.428513 1.53391,-1.0036285 2.04297,-1.7246145 0.50907,-0.7277904 0.76367,-1.6727543 0.76367,-2.8358559 0,-0.8230138 -0.15411,-1.500763 -0.46484,-2.0313013 C 101.21857,2.288559 100.79843,1.8464674 100.26953,1.4995783 99.753857,1.166292 99.192219,0.94840082 98.583984,0.84637552 97.975754,0.73754633 97.261196,0.68307484 96.441406,0.68307484 Z m 72.441407,0 V 15.876013 h 9.98633 v -2.897591 h -6.29688 V 9.1408557 h 5.80078 V 6.2432642 h -5.80078 V 3.5806664 h 6.29688 V 0.68307484 Z M 20.716797,3.2341502 c 0.429727,0 0.841608,0.091176 1.238281,0.2748231 0.403284,0.1768452 0.764693,0.4732888 1.082031,0.8881965 0.304118,0.4081061 0.546108,0.9319062 0.72461,1.5712712 0.185115,0.6325663 0.277344,1.4014889 0.277343,2.3061244 0,0.9522474 -0.08592,1.7243289 -0.257812,2.3160816 -0.171891,0.584954 -0.417036,1.097295 -0.734375,1.539407 -0.297504,0.408108 -0.650652,0.710862 -1.060547,0.908112 -0.409894,0.19045 -0.833191,0.286772 -1.269531,0.286772 -0.42973,0 -0.846717,-0.08801 -1.25,-0.264866 -0.403284,-0.183647 -0.76274,-0.486401 -1.080078,-0.908111 -0.310727,-0.414908 -0.555871,-0.929241 -0.734375,-1.541399 -0.178502,-0.6189611 -0.267578,-1.3941988 -0.267578,-2.3260392 0,-0.9046351 0.09223,-1.6830261 0.277343,-2.3359964 0.191725,-0.6529698 0.440025,-1.1767673 0.744141,-1.5712713 0.343783,-0.4285102 0.700084,-0.724954 1.070312,-0.8881965 0.370229,-0.1700439 0.784059,-0.2549084 1.240235,-0.2549084 z m 54.492187,0 c 0.429731,0 0.843563,0.091176 1.240235,0.2748231 0.403285,0.1768452 0.762738,0.4732888 1.080078,0.8881965 0.304114,0.4081061 0.546109,0.9319062 0.724609,1.5712712 0.185115,0.6325663 0.277344,1.4014889 0.277344,2.3061244 0,0.9522474 -0.08593,1.7243289 -0.257812,2.3160816 -0.171896,0.584954 -0.417036,1.097295 -0.734376,1.539407 -0.297501,0.408108 -0.65065,0.710862 -1.060546,0.908112 -0.409894,0.19045 -0.833189,0.286772 -1.269532,0.286772 -0.429726,0 -0.846717,-0.08801 -1.25,-0.264866 -0.403285,-0.183647 -0.762738,-0.486401 -1.080078,-0.908111 -0.310724,-0.414908 -0.555871,-0.929241 -0.734375,-1.541399 -0.178504,-0.6189611 -0.267578,-1.3941988 -0.267578,-2.3260392 0,-0.9046351 0.09223,-1.6830261 0.277344,-2.3359964 0.191726,-0.6529698 0.440027,-1.1767673 0.744141,-1.5712713 0.343784,-0.4285102 0.702038,-0.724954 1.072265,-0.8881965 0.37023,-0.1700439 0.78211,-0.2549084 1.238281,-0.2549084 z m 36.335936,0 c 0.42973,0 0.84356,0.091176 1.24024,0.2748231 0.40328,0.1768452 0.76274,0.4732888 1.08007,0.8881965 0.30412,0.4081061 0.54611,0.9319062 0.72461,1.5712712 0.18512,0.6325663 0.27735,1.4014889 0.27735,2.3061244 0,0.9522474 -0.0859,1.7243289 -0.25781,2.3160816 -0.1719,0.584954 -0.41704,1.097295 -0.73438,1.539407 -0.29751,0.408108 -0.65066,0.710862 -1.06055,0.908112 -0.4099,0.19045 -0.83319,0.286772 -1.26953,0.286772 -0.42973,0 -0.84672,-0.08801 -1.25,-0.264866 -0.40329,-0.183647 -0.76274,-0.486401 -1.08008,-0.908111 -0.31073,-0.414908 -0.55587,-0.929241 -0.73437,-1.541399 -0.17851,-0.6189611 -0.26758,-1.3941988 -0.26758,-2.3260392 0,-0.9046351 0.0923,-1.6830261 0.27734,-2.3359964 0.19173,-0.6529698 0.44003,-1.1767673 0.74415,-1.5712713 0.34377,-0.4285102 0.70008,-0.724954 1.07031,-0.8881965 0.37022,-0.1700439 0.78406,-0.2549084 1.24023,-0.2549084 z m 42.05664,0 c 0.42973,0 0.84357,0.091176 1.24024,0.2748231 0.40328,0.1768452 0.76274,0.4732888 1.08008,0.8881965 0.30411,0.4081061 0.5461,0.9319062 0.7246,1.5712712 0.18512,0.6325663 0.27735,1.4014889 0.27735,2.3061244 0,0.9522474 -0.0859,1.7243289 -0.25781,2.3160816 -0.17189,0.584954 -0.41704,1.097295 -0.73438,1.539407 -0.2975,0.408108 -0.65066,0.710862 -1.06055,0.908112 -0.4099,0.19045 -0.83318,0.286772 -1.26953,0.286772 -0.42973,0 -0.84672,-0.08801 -1.25,-0.264866 -0.40329,-0.183647 -0.76274,-0.486401 -1.08008,-0.908111 -0.31073,-0.414908 -0.55587,-0.929241 -0.73437,-1.541399 -0.17851,-0.6189611 -0.26758,-1.3941988 -0.26758,-2.3260392 0,-0.9046351 0.0923,-1.6830261 0.27735,-2.3359964 0.19171,-0.6529698 0.44002,-1.1767673 0.74414,-1.5712713 0.34378,-0.4285102 0.70203,-0.724954 1.07226,-0.8881965 0.37023,-0.1700439 0.78211,-0.2549084 1.23828,-0.2549084 z M 94.189453,3.4791013 h 1.240235 c 0.423118,0 0.776267,0.012626 1.060546,0.03983 0.284283,0.027208 0.542048,0.093139 0.773438,0.1951642 0.330566,0.1496398 0.566246,0.3643728 0.705078,0.6432455 0.145452,0.2720695 0.21875,0.5969145 0.21875,0.9778126 0,0.4285104 -0.06069,0.7762721 -0.179688,1.0415397 -0.11239,0.2652704 -0.287389,0.4926247 -0.52539,0.6830749 -0.251227,0.2108543 -0.558257,0.3501927 -0.921875,0.4182091 -0.357008,0.061218 -0.79292,0.091608 -1.308594,0.091608 h -1.0625 z M 76.201172,64.364369 c -0.923609,0 -1.733292,0.116834 -2.427734,0.350499 -0.694443,0.226585 -1.236113,0.513358 -1.625,0.860316 -0.416666,0.375281 -0.71593,0.781764 -0.896485,1.220773 -0.180555,0.439007 -0.269531,0.887976 -0.269531,1.348226 0,0.431926 0.04731,0.811415 0.144531,1.137131 0.09722,0.318634 0.237414,0.616029 0.417969,0.892179 0.180555,0.283231 0.384115,0.541016 0.613281,0.774682 0.236111,0.226585 0.504124,0.460252 0.802735,0.700998 -0.3125,0.1841 -0.635418,0.404269 -0.96875,0.659178 -0.326389,0.247827 -0.610461,0.537476 -0.853516,0.870272 -0.263888,0.354039 -0.479818,0.751893 -0.646484,1.190901 -0.159722,0.439007 -0.240235,0.965201 -0.240235,1.581228 0,1.451559 0.510419,2.630516 1.53125,3.536854 1.027775,0.899258 2.438807,1.350218 4.230469,1.350218 0.833331,0 1.630644,-0.127455 2.394531,-0.382362 0.763887,-0.254908 1.51107,-0.684625 2.240235,-1.286491 l 1.353515,1.338269 h 4.636719 V 80.296144 L 82.929688,76.75929 c 0.284721,-0.332796 0.51671,-0.683297 0.697265,-1.051497 0.1875,-0.3682 0.333334,-0.726445 0.4375,-1.073403 0.09722,-0.304474 0.174913,-0.668472 0.230469,-1.093319 0.0625,-0.431927 0.09375,-0.793049 0.09375,-1.08336 v -1.178952 h -3.636719 v 3.419358 L 77.773438,71.76667 c 0.666664,-0.226585 1.215929,-0.492116 1.646484,-0.796588 0.437499,-0.311554 0.791667,-0.662056 1.0625,-1.051497 0.222222,-0.318636 0.378472,-0.676881 0.46875,-1.073404 0.09722,-0.396524 0.144531,-0.749901 0.144531,-1.061454 0,-0.488574 -0.106988,-0.942411 -0.322265,-1.360176 -0.208333,-0.424846 -0.510418,-0.785968 -0.90625,-1.083361 -0.409722,-0.297392 -0.91732,-0.533936 -1.521485,-0.710955 -0.604165,-0.177019 -1.318144,-0.264866 -2.144531,-0.264866 z m 46.812498,0 c -2.34027,0 -4.17839,0.738619 -5.51172,2.2185 -1.33333,1.4728 -2,3.480214 -2,6.02221 0,2.457028 0.62978,4.411336 1.88672,5.862893 1.26389,1.451559 2.99306,2.226909 5.1875,2.32604 0.0278,0.594784 0.13477,1.151957 0.32227,1.668853 0.19444,0.516896 0.48329,0.962988 0.86523,1.338269 0.38195,0.382362 0.85634,0.674889 1.42578,0.880231 C 125.76584,84.893788 126.46376,85 127.2832,85 c 0.89583,0 1.55209,-0.02411 1.96875,-0.07369 0.42361,-0.04956 0.84506,-0.126791 1.26172,-0.233003 V 81.86741 h -0.38672 c -0.15277,0.08497 -0.4056,0.172816 -0.75976,0.264865 -0.34722,0.09913 -0.67774,0.149362 -0.99024,0.149362 -0.81249,0 -1.38064,-0.148698 -1.70703,-0.44609 -0.31944,-0.290312 -0.48611,-0.821374 -0.5,-1.593178 1.38889,-0.559381 2.46181,-1.504671 3.21875,-2.835856 0.76389,-1.338266 1.14453,-2.939196 1.14453,-4.801439 0,-2.556158 -0.66949,-4.566448 -2.00976,-6.032167 -1.34028,-1.472796 -3.17644,-2.208538 -5.50977,-2.208538 z m 32.18555,0 c -2.34027,0 -4.17644,0.738619 -5.50977,2.2185 -1.33333,1.4728 -2,3.480214 -2,6.02221 0,2.520755 0.66667,4.525292 2,6.012254 1.33333,1.479881 3.1695,2.220491 5.50977,2.220491 2.33333,0 4.17144,-0.732866 5.51172,-2.198585 1.34027,-1.465719 2.00976,-3.478001 2.00976,-6.03416 0,-2.556158 -0.66949,-4.566448 -2.00976,-6.032167 -1.34028,-1.472801 -3.17839,-2.208543 -5.51172,-2.208543 z m -127.279298,0.01991 c -2.513883,0 -4.497834,0.748355 -5.949219,2.242397 -1.444441,1.494043 -2.166015,3.480215 -2.166015,5.958484 0,2.634047 0.721574,4.668456 2.166015,6.105852 1.451385,1.430316 3.396491,2.146807 5.833985,2.146807 1.055552,0 2.125653,-0.135199 3.208984,-0.404268 1.090275,-0.26907 1.975696,-0.545222 2.65625,-0.828453 V 71.82044 h -6.78125 v 2.96331 h 3.009766 v 3.100722 c -0.138889,0.01416 -0.302735,0.02478 -0.490235,0.03186 -0.187499,0.007 -0.349393,0.01 -0.488281,0.01 -1.576385,0 -2.820749,-0.438347 -3.730469,-1.316362 -0.90972,-0.878016 -1.363281,-2.240412 -1.363281,-4.088492 0,-0.863854 0.117405,-1.622831 0.353516,-2.274262 0.243054,-0.65143 0.568794,-1.188245 0.978515,-1.613091 0.430555,-0.439008 0.92014,-0.76539 1.46875,-0.977813 0.54861,-0.212423 1.157554,-0.318635 1.824219,-0.318635 0.569443,0 1.106338,0.08209 1.613281,0.24495 0.513888,0.162858 0.966581,0.356917 1.355469,0.583502 0.333332,0.19118 0.67231,0.424848 1.019531,0.700998 0.354166,0.269069 0.625001,0.478617 0.8125,0.627313 h 0.355469 V 65.78632 C 32.739369,65.354389 31.898435,65.014509 31.085938,64.766682 30.27344,64.511775 29.21853,64.384319 27.919922,64.384319 Z m 28.988281,0.0219 c -1.840273,0 -3.374352,0.45959 -4.603515,1.38009 -1.229164,0.913419 -1.84375,2.110742 -1.84375,3.590624 0,1.097519 0.260418,2.010946 0.78125,2.740265 0.520831,0.72932 1.382598,1.310611 2.583984,1.742538 0.520832,0.1841 1.07856,0.338551 1.675781,0.466004 0.604165,0.127454 1.171442,0.262653 1.699219,0.404269 0.42361,0.113292 0.788195,0.293854 1.09375,0.541681 0.305555,0.247827 0.457031,0.56934 0.457031,0.965863 0,0.354039 -0.09375,0.640812 -0.28125,0.860316 -0.187499,0.212423 -0.416667,0.379486 -0.6875,0.49986 -0.222222,0.106211 -0.516711,0.183436 -0.884765,0.233001 -0.361111,0.04957 -0.652779,0.07568 -0.875,0.07568 -0.881943,0 -1.791019,-0.180561 -2.728516,-0.541681 -0.937498,-0.361119 -1.796443,-0.878683 -2.574219,-1.551356 h -0.353515 v 3.759899 c 0.770831,0.346958 1.604168,0.636607 2.5,0.870272 0.902775,0.233666 1.947268,0.350499 3.134765,0.350499 2.062495,0 3.69792,-0.477955 4.90625,-1.433859 1.215275,-0.955904 1.824219,-2.219831 1.824219,-3.791763 0,-1.097519 -0.265192,-1.979082 -0.792969,-2.644674 -0.520832,-0.672673 -1.318145,-1.206611 -2.394531,-1.603134 -0.54861,-0.198262 -1.066625,-0.354704 -1.552734,-0.467997 -0.479166,-0.113292 -0.979169,-0.230125 -1.5,-0.350499 -0.805554,-0.19118 -1.350045,-0.403606 -1.634766,-0.637271 -0.277777,-0.240746 -0.417969,-0.56226 -0.417969,-0.965863 0,-0.276151 0.08811,-0.523316 0.261719,-0.74282 0.180555,-0.226585 0.391711,-0.396524 0.634766,-0.509816 0.29861,-0.141616 0.582682,-0.237207 0.853515,-0.286772 0.270833,-0.04957 0.577692,-0.07568 0.917969,-0.07568 0.874998,0 1.724394,0.174808 2.550781,0.521765 0.833331,0.346958 1.538847,0.771808 2.115235,1.274542 h 0.34375 v -3.61253 c -0.722221,-0.325715 -1.542321,-0.583501 -2.458985,-0.774682 -0.90972,-0.191181 -1.826391,-0.286772 -2.75,-0.286771 z m -16.728515,0.286772 -5.240235,15.814277 h 3.90625 l 0.96875,-3.228175 h 4.875 l 0.96875,3.228175 h 4.011719 L 44.429688,64.692962 Z m 53.708984,0 V 80.50724 H 104.24219 V 77.492151 H 97.783203 V 64.692962 Z m 11.582028,0 v 2.762171 h 2.23047 V 77.74706 h -2.23047 v 2.76018 h 8.35547 V 77.74706 H 111.5957 V 67.455134 h 2.23047 v -2.762172 z m 27.14649,0 v 10.100745 c 0,1.975535 0.55968,3.476006 1.67773,4.502718 1.125,1.026711 2.72917,1.541399 4.8125,1.541399 2.14583,0 3.76324,-0.52044 4.85352,-1.561314 1.09722,-1.047954 1.64648,-2.545549 1.64648,-4.49276 V 64.692956 h -3.89648 v 9.867749 c 0,1.140004 -0.21116,1.968461 -0.63477,2.485357 -0.41666,0.516896 -1.07292,0.774683 -1.96875,0.774683 -0.91666,0 -1.58051,-0.268409 -1.99023,-0.806547 -0.40278,-0.538138 -0.60352,-1.355974 -0.60352,-2.453493 v -9.867743 z m 32.40625,0 v 15.814277 h 3.875 v -5.799165 h 1.39453 l 4.32422,5.799165 h 4.75 l -5.21875,-6.723208 c 0.89583,-0.446089 1.60981,-1.043754 2.14453,-1.794316 0.53472,-0.757643 0.80273,-1.742541 0.80273,-2.953353 0,-0.856773 -0.16384,-1.560651 -0.49023,-2.112951 -0.32639,-0.559381 -0.76671,-1.018971 -1.32227,-1.380091 -0.54166,-0.346957 -1.13259,-0.574871 -1.77148,-0.681083 -0.63889,-0.113293 -1.38889,-0.169275 -2.25,-0.169275 z m -88.990237,1.933725 c 0.09028,0 0.215278,0.0135 0.375,0.04183 0.159722,0.02832 0.305556,0.09979 0.4375,0.213087 0.145833,0.120373 0.265191,0.290313 0.355469,0.509816 0.09722,0.219504 0.144531,0.506278 0.144531,0.860316 0,0.439008 -0.08616,0.83487 -0.259765,1.188909 -0.166667,0.354039 -0.416668,0.686173 -0.75,0.997727 -0.48611,-0.410684 -0.868708,-0.795926 -1.146485,-1.157044 -0.270833,-0.368201 -0.40625,-0.761186 -0.40625,-1.178952 0,-0.290312 0.04926,-0.542345 0.146485,-0.754768 0.09722,-0.212423 0.208984,-0.363997 0.333984,-0.456047 0.159722,-0.120373 0.300781,-0.194722 0.425781,-0.223044 0.125,-0.02833 0.239584,-0.04183 0.34375,-0.04183 z m 46.990237,0.720913 c 0.45139,0 0.88607,0.09559 1.30273,0.286772 0.42361,0.1841 0.80144,0.492116 1.13477,0.924043 0.31944,0.424846 0.57226,0.971397 0.75976,1.63699 0.19445,0.658512 0.29297,1.457981 0.29297,2.399724 0,0.991307 -0.0909,1.795645 -0.27148,2.411672 -0.18056,0.608946 -0.43815,1.142884 -0.77149,1.603135 -0.3125,0.424845 -0.68272,0.740607 -1.11328,0.945949 -0.43055,0.198261 -0.87565,0.296729 -1.33398,0.296729 -0.45139,0 -0.88889,-0.09271 -1.3125,-0.276815 -0.42361,-0.19118 -0.80144,-0.50495 -1.13477,-0.943957 -0.32639,-0.431927 -0.58398,-0.967857 -0.77148,-1.605127 -0.1875,-0.64435 -0.28125,-1.451563 -0.28125,-2.42163 0,-0.941741 0.0966,-1.751832 0.29101,-2.431586 0.20139,-0.679754 0.46181,-1.224314 0.78125,-1.634999 0.36111,-0.446088 0.73612,-0.754104 1.125,-0.924043 0.38889,-0.177019 0.82357,-0.266857 1.30274,-0.266857 z m 32.1875,0 c 0.45139,0 0.88411,0.09559 1.30078,0.286772 0.42361,0.1841 0.80339,0.492116 1.13672,0.924043 0.31944,0.424846 0.57226,0.971397 0.75976,1.63699 0.19445,0.658512 0.29102,1.457981 0.29102,2.399724 0,0.991307 -0.089,1.795645 -0.26953,2.411672 -0.18056,0.608946 -0.43815,1.142884 -0.77149,1.603135 -0.3125,0.424845 -0.68468,0.740607 -1.11523,0.945949 -0.43056,0.198261 -0.8737,0.296729 -1.33203,0.296729 -0.45139,0 -0.88889,-0.09271 -1.3125,-0.276815 -0.42361,-0.19118 -0.80339,-0.50495 -1.13672,-0.943957 -0.32639,-0.431927 -0.58203,-0.967857 -0.76953,-1.605127 -0.1875,-0.64435 -0.28125,-1.451563 -0.28125,-2.42163 0,-0.941741 0.0966,-1.751832 0.29101,-2.431586 0.20139,-0.679754 0.46181,-1.224314 0.78125,-1.634999 0.36111,-0.446088 0.73612,-0.754104 1.125,-0.924043 0.38889,-0.177019 0.82357,-0.266857 1.30274,-0.266857 z m 13.6875,0.254908 h 1.30078 c 0.44444,0 0.81662,0.01549 1.11523,0.04381 0.29861,0.02832 0.56945,0.09493 0.8125,0.201139 0.34722,0.155776 0.5944,0.378822 0.74024,0.669134 0.15277,0.283231 0.22851,0.623111 0.22851,1.019634 0,0.446088 -0.0625,0.80721 -0.1875,1.083361 -0.11805,0.276149 -0.30273,0.512693 -0.55273,0.710954 -0.26389,0.219504 -0.58681,0.365325 -0.96875,0.436133 -0.375,0.06373 -0.83334,0.09559 -1.375,0.09559 h -1.11328 z m -126.646487,1.593178 1.583985,5.215665 h -3.166016 z m 32.511719,4.15421 4.166016,4.024765 c -0.326389,0.261988 -0.656902,0.445426 -0.990235,0.551637 -0.326388,0.09913 -0.704211,0.149361 -1.134765,0.149361 -0.3125,0 -0.625001,-0.05599 -0.9375,-0.169275 -0.305555,-0.113293 -0.583986,-0.283232 -0.833985,-0.509817 -0.249999,-0.226585 -0.453559,-0.510482 -0.613281,-0.850358 -0.152778,-0.346958 -0.230469,-0.753442 -0.230469,-1.220773 0,-0.410685 0.06727,-0.800794 0.199219,-1.168993 0.138888,-0.375282 0.263889,-0.643689 0.375,-0.806547 z" />
</svg>