<svg
   width="16"
   height="7.5"
   viewBox="0 0 16 7.5"
   fill="none"
   xml:space="preserve"
   xmlns:xlink="http://www.w3.org/1999/xlink"
   xmlns="http://www.w3.org/2000/svg">
  <linearGradient
   id="linearGradient1311"><stop
     style="stop-color:#bc0205;stop-opacity:1;"
     offset="0"
     id="stop1307" /><stop
     style="stop-color:#f0c6c9;stop-opacity:1;"
     offset="1"
     id="stop1309" /></linearGradient><linearGradient
   id="linearGradient2277"><stop
     style="stop-color:#0240bc;stop-opacity:1;"
     offset="0"
     id="stop2273" /><stop
     style="stop-color:#9dd0f0;stop-opacity:1;"
     offset="1"
     id="stop2275" /></linearGradient><linearGradient
   xlink:href="#linearGradient2277"
   id="linearGradient2271"
   gradientUnits="userSpaceOnUse"
   x1="45.649166"
   y1="264.64117"
   x2="702.21954"
   y2="561.71326"
   gradientTransform="matrix(0.02115593,0,0,0.02304603,-0.46191825,-5.8011185)" /><linearGradient
   xlink:href="#linearGradient1311"
   id="linearGradient530"
   gradientUnits="userSpaceOnUse"
   gradientTransform="matrix(0.01723164,0,0,0.01877114,3.8047102,-4.3600125)"
   x1="213.17627"
   y1="325.84793"
   x2="250.23529"
   y2="562.61194" />
  <path
   d="M 6.3374,3.4151543 C 6.3497125,4.7260482 7.2950712,6.0658332 7.9620852,7.3837327 8.6841767,6.0837157 9.5804833,4.3938252 9.588734,3.4437323 9.595714,2.585308 8.848399,1.7806964 8.0118347,1.7814996 7.094269,1.7838121 6.337951,2.6240535 6.3374,3.4151543 Z M 7.9810662,4.8768465 C 7.220629,4.8503647 6.7677657,4.3020032 6.7545872,3.411369 6.7413472,2.8983693 7.206903,2.1931286 8.0308147,2.2055926 8.5528882,2.2050201 9.192629,2.72864 9.193579,3.449548 9.1790865,4.1565795 8.721385,4.871143 7.9810662,4.8768465 Z M 7.502803,2.6491453 l 0.00755,1.5836377 -0.1852298,9.5e-4 0.00441,0.244823 1.1783815,0.00446 10e-6,-0.2343185 -0.1975397,-0.00256 0.00712,-1.0375905 0.054898,-0.019338 0.00327,0.8305105 c -4e-4,0.1555257 0.325595,0.1667103 0.3291917,0.016487 L 8.7096522,3.0239298 8.5222987,2.807182 8.4563952,2.886351 8.6190037,3.0703115 8.6199787,3.979661 c 3.25e-4,0.111294 -0.164532,0.1068775 -0.1642485,-0.013275 l 0.00477,-0.8716195 -0.1420385,-0.024787 0.0028,-0.4199597 z m 0.1291892,0.6244635 -0.00173,-0.4472125 0.5816113,3.5e-4 -0.00207,0.4426902 z"
   fill="url(#linearGradient530)" />
  <path
   fill="#3b11f1"
   d="m 14.241664,2.632953 c -0.03321,-0.01247 -0.07356,-0.00883 -0.08698,0.024322 -0.05837,0.1749672 -0.127565,0.3043995 -0.260467,0.4666333 -0.108456,0.102061 -0.655281,-0.043373 -0.792243,0.3594464 0,0 -0.924296,2.5678768 -0.900333,2.6554083 -0.104455,0.3179002 1.765567,1.1139185 1.898068,0.7224432 l 0.91042,-2.633345 C 15.117858,3.9194535 14.747032,3.625716 14.640127,3.4561962 14.586927,3.340698 14.653297,3.0465 14.715087,2.910083 14.760177,2.822267 14.609121,2.7618697 14.594369,2.855532 c -0.04032,0.2069647 -0.156108,0.4743772 -0.09358,0.5989735 0.08314,0.1657082 0.454577,0.5525537 0.41454,0.6983972 l -0.898054,2.613784 C 13.934873,7.00677 12.274307,6.3298372 12.338937,6.1329088 12.307577,6.069721 13.201502,3.5684625 13.201502,3.5684625 13.31125,3.24225 13.786071,3.3820515 13.991576,3.2322353 c 0.107212,-0.19882 0.208671,-0.3591765 0.294631,-0.526705 0.01476,-0.031465 -0.01133,-0.060119 -0.04455,-0.07258 z m 0.581149,1.43375 c -0.0079,-0.00228 -0.01667,-0.00287 -0.02614,-0.00115 -0.291179,0.074821 -1.351551,-0.3759417 -1.434039,-0.562158 -0.02095,-0.069884 -0.126063,0.025374 -0.0894,0.081517 0.303258,0.3463663 1.234417,0.6571922 1.562232,0.6160205 0.05678,-0.016608 0.04254,-0.1182045 -0.01266,-0.1342165 z m -1.165202,1.1088415 c -0.122103,-0.049408 -0.329854,0.017783 -0.377114,0.1435153 -0.0505,0.1540212 -0.0093,0.2966092 0.16344,0.3664317 0.09567,0.037893 0.301369,0.033478 0.343387,-0.093468 0.02461,-0.037908 -0.04116,-0.080631 -0.06403,-0.050454 -0.0582,0.082226 -0.157429,0.07505 -0.237652,0.047378 -0.07896,-0.032925 -0.161895,-0.062339 -0.113743,-0.2288465 0.03151,-0.097833 0.188026,-0.1146775 0.263481,-0.089094 0.06916,0.024068 0.149847,0.075555 0.125464,0.16215 -0.0193,0.061105 0.06791,0.091885 0.08966,0.033835 0.03849,-0.1083078 -0.06246,-0.2400415 -0.192892,-0.2914455 z" />
  <path
   fill="#e2c439"
   d="m 14.227865,1.9947521 c -0.06885,0.00221 -0.116866,0.019811 -0.129721,0.056581 l -0.116373,0.3387845 c -0.04835,0.1371764 0.730805,0.4566944 0.904785,0.4352539 0.06489,-0.018978 0.06126,-0.133121 -0.01449,-0.1194883 -0.205892,0.028331 -0.78275,-0.2638443 -0.749349,-0.3621551 l 0.06136,-0.1910057 c 0.05048,-0.1370143 0.78226,0.1781345 0.842775,0.2978423 l -0.07292,0.2191203 c -0.01297,0.0498 0.08835,0.103131 0.105957,0.043227 l 0.08887,-0.2533857 C 15.131276,2.3222385 14.913582,2.1832496 14.680502,2.0935057 14.515402,2.0299375 14.342607,1.9910712 14.227865,1.9947521 Z M 1.985026,3.1214568 1.1204427,3.5115508 1.7827148,6.7210427 c 0.00839,0.042362 0.1071135,-0.025865 0.097982,-0.066246 L 1.2491862,3.5725253 1.9150391,3.2780218 2.586263,6.517561 1.8502604,6.7980073 C 1.7445203,6.8390385 1.7843057,6.950078 1.8883463,6.9055467 L 2.699707,6.586618 Z m 11.286621,1.5090675 c -0.03448,0.0014 -0.07734,0.053041 -0.05127,0.092955 0.347747,0.249431 0.634425,0.3862515 0.973796,0.3920269 0.06489,-0.018975 0.04613,-0.127321 -0.02962,-0.1136897 -0.238164,-0.030774 -0.623599,-0.1380808 -0.860189,-0.3438805 -0.0039,-0.013103 -0.01067,-0.021025 -0.01872,-0.024773 -0.0044,-0.00203 -0.0091,-0.00283 -0.014,-0.00263 z m -0.318684,0.942552 c -0.03448,0.0014 -0.07734,0.052865 -0.05127,0.092779 0.336161,0.2991578 0.652819,0.3815578 0.973307,0.4099508 0.06489,-0.018975 0.03995,-0.1417293 -0.03581,-0.1280988 -0.221115,2.332e-4 -0.696715,-0.167591 -0.853516,-0.3473945 -0.0039,-0.013103 -0.01067,-0.02085 -0.01872,-0.0246 -0.0044,-0.00202 -0.0091,-0.00283 -0.014,-0.00263 z" />
  <path
   d="m 0.7284306,2.9052453 c -0.015755,0.00233 -0.0319287,0.00967 -0.0472183,0.023675 L 0.26069983,3.2318492 1.0474193,7.1142697 1.44917,7.2355907 C 1.5571818,7.2851257 1.6235921,7.1548747 1.516603,7.0987795 L 1.1783119,7.000683 0.4186474,3.3272558 0.80348632,3.0247173 C 0.8570971,2.9794875 0.7967005,2.8951885 0.7284306,2.9052453 Z m 0.7401156,-0.166837 c -0.060749,0.01587 -0.091422,0.1218787 0.02136,0.151872 l 0.2318248,0.050777 c 0.1264337,0.03782 0.1333386,-0.106009 0.029158,-0.1433305 L 1.5046615,2.7399125 c -0.01259,-0.0043 -0.024865,-0.00444 -0.036115,-0.0015 z m -0.4650654,0.251488 c -0.0207763,0.00469 -0.0398814,0.020605 -0.0509309,0.052508 l -0.0560435,0.122269 c -0.0460851,0.1246752 0.0812032,0.1348942 0.1395344,0.034197 l 0.052959,-0.103295 C 1.1205758,3.039361 1.0565712,2.9778968 1.0034808,2.9898963 Z m -0.4642773,0.276185 c -0.0527399,0.015432 -0.071761,0.1016637 0.005798,0.1294035 l 0.15278658,0.032449 c 0.122055,0.02192 0.12098037,-0.086237 0.0176713,-0.1263537 L 0.580321,3.2682758 c -0.0149875,-0.00557 -0.0289463,-0.00576 -0.0411171,-0.0022 z"
   fill="#46afa7" />
  <path
   d="m 1.9522123,2.9234998 c -0.0051,0.00142 -0.010409,0.00348 -0.015905,0.00621 L 0.8456686,3.3683693 1.6424616,7.2662162 2.9026393,6.7804387 2.1479131,3.1224675 c -0.00959,-0.04886 -0.1058676,-0.0034 -0.095032,0.04309 L 2.7897332,6.6950272 1.7413316,7.095923 0.98557577,3.4561198 1.9913757,3.0401635 c 0.065823,-0.032817 0.037368,-0.1382303 -0.03916,-0.1166652 z"
   fill="#58dcd2" />
  <path
   d="M 0.8566535,1.5991094 C 0.72718432,1.6308978 0.59581273,1.6977629 0.61614522,1.7919722 L 0.8224166,2.776939 c 0.0284087,0.1501495 0.592504,0.00743 0.5653561,-0.1440935 L 1.244366,1.8825122 C 1.2320054,1.8210504 1.1153482,1.8444 1.1285147,1.9004385 l 0.1536489,0.7111783 c 0.0127,0.065782 -0.3538731,0.164708 -0.3691602,0.081468 L 0.73886623,1.7909967 c -0.013454,-0.048018 0.0886503,-0.075981 0.15933654,-0.090722 0.12638483,-0.026938 0.21068503,0.00316 0.21068503,0.00316 0,0 -0.1081963,0.067982 -0.22724807,0.094566 C 0.78037082,1.8220731 0.8028035,1.931494 0.90089608,1.9129612 1.0315095,1.8792599 1.2329157,1.7847247 1.2113731,1.6756396 1.1939287,1.5969465 1.1006105,1.5471712 0.8825045,1.593237 0.8739325,1.595047 0.8652802,1.596997 0.8566482,1.599107 Z"
   fill="#0975cf" />
  <path
   fill="url(#linearGradient2271)"
   d="m 14.590983,0 0.04964,0.53031725 H 14.81087 L 14.860352,0 Z M 1.7255859,0.03233213 c -0.1856649,0 -0.331395,0.06276162 -0.4371744,0.18819412 -0.1057794,0.12483237 -0.1586914,0.2950052 -0.1586914,0.51046115 0,0.21365547 0.052912,0.3835498 0.1586914,0.5095825 0.1057794,0.1254325 0.2515095,0.1880184 0.4371744,0.1880184 0.1851143,0 0.3308439,-0.062029 0.4371745,-0.1862611 0.1063303,-0.1242323 0.1595053,-0.29468363 0.1595053,-0.5113398 0,-0.2166562 -0.053175,-0.3871075 -0.1595053,-0.51133975 C 2.0564298,0.09481528 1.9107002,0.03233213 1.7255859,0.03233213 Z m 4.5410158,0 c -0.1856647,0 -0.331395,0.06276162 -0.4371745,0.18819412 -0.1057795,0.12483238 -0.1586915,0.2950052 -0.1586915,0.51046115 0,0.21365548 0.052912,0.3835498 0.1586915,0.5095825 0.1057795,0.1254326 0.2515098,0.1880184 0.4371745,0.1880184 0.185114,0 0.3308443,-0.062029 0.4371743,-0.1862611 C 6.8101067,1.1180949 6.8632812,0.94764358 6.8632812,0.7309874 6.8632812,0.5143312 6.8101067,0.3438799 6.703776,0.21964765 6.597446,0.09481528 6.4517157,0.03233213 6.2666017,0.03233213 Z m 3.0279951,0 c -0.185665,0 -0.3313958,0.06276162 -0.437175,0.18819412 -0.10578,0.12483238 -0.1586908,0.2950052 -0.1586908,0.51046115 0,0.21365548 0.052911,0.3835498 0.1586908,0.5095825 0.1057792,0.1254326 0.25151,0.1880184 0.437175,0.1880184 0.1851122,0 0.3308442,-0.062029 0.4371742,-0.1862611 C 9.8381018,1.1180949 9.891276,0.94764358 9.891276,0.7309874 9.891276,0.5143312 9.8381018,0.3438799 9.731771,0.21964765 9.625441,0.09481528 9.479709,0.03233213 9.2945968,0.03233213 Z m 3.5047202,0 c -0.185665,0 -0.331395,0.06276162 -0.437175,0.18819412 -0.10578,0.12483238 -0.158691,0.2950052 -0.158691,0.51046115 0,0.21365548 0.05291,0.3835498 0.158691,0.5095825 0.10578,0.1254326 0.251511,0.1880184 0.437175,0.1880184 0.185114,0 0.330844,-0.062029 0.437174,-0.1862611 0.106331,-0.1242323 0.159505,-0.29468362 0.159505,-0.5113398 0,-0.2166562 -0.05317,-0.3871075 -0.159505,-0.51133975 -0.10633,-0.12483237 -0.25206,-0.18731552 -0.437174,-0.18731552 z m -12.19596413,0.001933 c -0.1845631,0 -0.3315074,0.06331857 -0.44059245,0.1899513 C 0.0542263,0.35024923 0,0.5194109 0,0.731866 0,0.9521231 0.0542263,1.1231311 0.16276042,1.2449629 0.27129453,1.3661943 0.4178132,1.4268312 0.6023763,1.4268312 c 0.05895,0 0.1052276,-0.00324 0.13883462,-0.00984 0.033607,-0.0066 0.069833,-0.016214 0.10839841,-0.028818 0.0314033,-0.010203 0.0618837,-0.022497 0.0916342,-0.036901 0.0297507,-0.015004 0.056025,-0.028309 0.0786133,-0.039712 V 0.9964975 H 0.99169928 C 0.9762731,1.0115014 0.95811,1.0286023 0.9371745,1.0478072 0.916239,1.0670122 0.8919673,1.0859592 0.8644206,1.1045642 c -0.025343,0.018004 -0.0565119,0.034548 -0.0934245,0.049552 -0.0369126,0.014404 -0.0757673,0.021613 -0.11653648,0.021613 -0.0391164,0 -0.0784968,-0.00749 -0.11816405,-0.022492 C 0.4971792,1.1382342 0.46164173,1.1139237 0.4296875,1.080315 0.3966314,1.0455059 0.36999398,0.9998451 0.34960938,0.94343055 0.32922483,0.88641565 0.3190104,0.81616625 0.3190104,0.7327446 c 0,-0.0792204 0.009689,-0.14790223 0.0289714,-0.20611738 0.0198337,-0.0582151 0.0451568,-0.10443282 0.0760091,-0.13864159 0.033607,-0.03781 0.0688817,-0.064245 0.1057943,-0.0792489 0.0374635,-0.0156042 0.0784211,-0.0233705 0.12304687,-0.0233705 0.0374636,0 0.0732639,0.006931 0.10742185,0.0207348 0.0347089,0.0132035 0.0664034,0.0294687 0.0950521,0.0486739 0.0286487,0.0192047 0.0542346,0.0389874 0.0768229,0.0593927 0.0225882,0.019805 0.0414398,0.0369059 0.0563151,0.0513097 H 1.0198567 V 0.14584605 C 0.99947217,0.13444288 0.9726719,0.12085938 0.9396159,0.10525515 0.90655977,0.08965117 0.87591667,0.07735657 0.847819,0.06835435 0.81200827,0.05755153 0.7746307,0.0492283 0.7355143,0.04322666 0.69639797,0.03722502 0.65238602,0.03426503 0.60335287,0.03426513 Z m 4.54101533,0 c -0.184563,0 -0.3313442,0.06331857 -0.4404295,0.1899513 -0.108534,0.1260329 -0.162923,0.29519457 -0.162923,0.50764967 0,0.2202571 0.054389,0.3912652 0.162923,0.5130969 0.1085343,0.1212314 0.255053,0.1818683 0.439616,0.1818683 0.05895,0 0.1052275,-0.00324 0.1388345,-0.00984 0.033607,-0.0066 0.06967,-0.016214 0.1082358,-0.028818 0.031403,-0.010203 0.062046,-0.022497 0.091797,-0.036901 0.02975,-0.015004 0.055862,-0.028309 0.07845,-0.039712 V 0.9964975 H 5.532715 C 5.517288,1.0115012 5.499126,1.0286023 5.47819,1.0478072 c -0.020937,0.019205 -0.045207,0.038152 -0.072754,0.056757 -0.025343,0.018005 -0.056349,0.034548 -0.093262,0.049553 -0.036912,0.014404 -0.075767,0.021613 -0.1165362,0.021613 -0.039116,0 -0.078497,-0.00749 -0.118164,-0.022492 -0.039116,-0.015004 -0.074654,-0.039314 -0.106608,-0.072923 -0.033057,-0.034809 -0.059856,-0.0804699 -0.080241,-0.13688442 -0.020383,-0.0570149 -0.0306,-0.12726431 -0.0306,-0.21068601 0,-0.0792204 0.00969,-0.14790217 0.02897,-0.20611732 0.019833,-0.0582152 0.045157,-0.10443282 0.076009,-0.13864162 0.033607,-0.0378099 0.068882,-0.064245 0.105794,-0.0792489 0.037464,-0.0156042 0.078584,-0.0233705 0.1232097,-0.0233705 0.037464,0 0.073264,0.006931 0.107422,0.0207347 0.034709,0.0132035 0.066403,0.0294687 0.095052,0.0486739 0.028647,0.019205 0.054235,0.0389874 0.076823,0.0593928 0.02259,0.019805 0.041277,0.0369059 0.056152,0.0513097 h 0.031414 V 0.14584605 C 5.5404882,0.13444289 5.5136877,0.12085938 5.4806317,0.10525515 5.447575,0.08965117 5.4170952,0.07735659 5.3889972,0.06835435 5.353187,0.05755153 5.3156463,0.0492283 5.27653,0.04322666 5.2374133,0.03722502 5.1934017,0.03426503 5.1443682,0.03426513 Z m 6.5327148,0 c -0.184563,0 -0.331345,0.06331857 -0.44043,0.1899513 -0.108534,0.1260329 -0.162922,0.29519457 -0.162922,0.50764967 0,0.2202571 0.05439,0.3912652 0.162922,0.5130969 0.108534,0.1212314 0.255054,0.1818683 0.439616,0.1818683 0.05895,0 0.105228,-0.00324 0.138835,-0.00984 0.03361,-0.0066 0.06967,-0.016214 0.108236,-0.028818 0.0314,-0.010203 0.06205,-0.022497 0.0918,-0.036901 0.02975,-0.015004 0.05586,-0.028309 0.07845,-0.039712 V 0.9964975 H 12.06543 C 12.05,1.0115012 12.03184,1.0286023 12.01091,1.0478072 c -0.02094,0.019205 -0.04521,0.038152 -0.07275,0.056757 -0.02534,0.018005 -0.05635,0.034548 -0.09326,0.049553 -0.03691,0.014404 -0.07577,0.021613 -0.116537,0.021613 -0.03912,0 -0.0785,-0.00749 -0.118163,-0.022492 -0.03912,-0.015004 -0.07465,-0.039314 -0.106608,-0.072923 -0.03306,-0.034809 -0.05986,-0.0804699 -0.08024,-0.13688442 -0.02038,-0.0570149 -0.0306,-0.12726431 -0.0306,-0.21068601 0,-0.0792204 0.0097,-0.14790217 0.02897,-0.20611732 0.01983,-0.0582152 0.04516,-0.10443282 0.07601,-0.13864162 0.03361,-0.0378099 0.06888,-0.064245 0.105794,-0.0792489 0.03746,-0.0156042 0.07858,-0.0233705 0.123209,-0.0233705 0.03746,0 0.07327,0.006931 0.107423,0.0207347 0.03471,0.0132035 0.0664,0.0294687 0.09505,0.0486739 0.02865,0.019205 0.05424,0.0389874 0.07682,0.0593928 0.02259,0.019805 0.04128,0.0369059 0.05615,0.0513097 h 0.03141 V 0.14584605 c -0.02038,-0.0114032 -0.04702,-0.0249867 -0.08008,-0.0405909 -0.03306,-0.01560398 -0.0637,-0.02789858 -0.0918,-0.0369008 C 11.885898,0.05755153 11.848358,0.0492283 11.80924,0.04322666 11.77012,0.03722506 11.72611,0.03426506 11.677078,0.03426516 Z m -8.7202145,0.001757 c -0.1459978,0 -0.267719,0.03900786 -0.3652345,0.11702828 -0.097515,0.0774201 -0.1463215,0.17891139 -0.1463215,0.30434391 0,0.093024 0.020692,0.1703078 0.062012,0.2321236 0.04132,0.0618162 0.1096037,0.1111692 0.2049152,0.14777898 0.04132,0.015604 0.085758,0.0287339 0.133138,0.0395366 0.047931,0.0108027 0.092732,0.022262 0.134603,0.0342649 0.033607,0.009603 0.06251,0.0248573 0.086751,0.0458625 0.02424,0.021005 0.036458,0.0482757 0.036458,0.0818845 0,0.030008 -0.00742,0.054318 -0.022298,0.072923 -0.014875,0.018005 -0.033038,0.032145 -0.054525,0.042348 -0.01763,0.009 -0.041113,0.015655 -0.070312,0.019856 -0.028649,0.0042 -0.051869,0.00615 -0.069499,0.00615 -0.069969,0 -0.142095,-0.015255 -0.2164713,-0.045862 C 2.5957085,1.1036524 2.5276878,1.0598379 2.4659831,1.0028231 h -0.028158 v 0.3187527 c 0.061154,0.029408 0.1273344,0.053997 0.1984051,0.073802 0.071621,0.019805 0.154488,0.029696 0.2486978,0.029696 0.1636277,0 0.29346,-0.040576 0.389323,-0.121597 0.096414,-0.081021 0.1445315,-0.188154 0.1445315,-0.32138842 0,-0.0930244 -0.020952,-0.1676261 -0.062826,-0.22404058 C 3.3146368,0.70103342 3.2514107,0.65565085 3.1660158,0.62204218 3.1224918,0.60523765 3.0813713,0.59210787 3.042806,0.58250557 3.0047915,0.57290297 2.9651483,0.56301195 2.9238283,0.55280922 2.8599198,0.53660515 2.8166963,0.5184931 2.794108,0.49868803 2.77207,0.47828263 2.761068,0.45101223 2.761068,0.41680343 c 0,-0.0234063 0.0069,-0.044478 0.02067,-0.0630828 0.014325,-0.019205 0.03101,-0.0336241 0.050293,-0.0432267 0.02369,-0.012003 0.046384,-0.0200477 0.067871,-0.024249 0.021488,-0.004201 0.045595,-0.006326 0.072591,-0.006326 0.069418,0 0.1369125,0.0146975 0.202474,0.0441052 0.066112,0.0294077 0.1220783,0.0654555 0.1678058,0.1080667 h 0.027343 V 0.1259899 C 3.3128198,0.09838262 3.247691,0.07647542 3.1749675,0.06027131 3.1027948,0.04406698 3.030143,0.03602222 2.9568685,0.03602213 Z m 7.5690105,0 c -0.145997,0 -0.26772,0.03900786 -0.365235,0.11702828 -0.09751,0.0774201 -0.146322,0.17891129 -0.146321,0.30434384 0,0.093024 0.02069,0.17030778 0.06201,0.2321236 0.04132,0.0618161 0.109602,0.11116917 0.204915,0.14777898 0.04132,0.015604 0.08576,0.0287338 0.133138,0.0395366 0.04793,0.0108027 0.09273,0.022262 0.134603,0.0342649 0.03361,0.009602 0.06251,0.0248572 0.08675,0.0458625 0.02424,0.021005 0.03646,0.0482757 0.03646,0.0818846 0,0.030008 -0.0074,0.054318 -0.0223,0.072923 -0.01488,0.018005 -0.03304,0.032145 -0.05452,0.042348 -0.01763,0.009 -0.04111,0.015655 -0.07031,0.019856 -0.02865,0.0042 -0.05171,0.00615 -0.06934,0.00615 -0.06997,0 -0.142258,-0.015255 -0.216634,-0.045862 -0.07438,-0.030608 -0.142397,-0.074423 -0.204102,-0.1314374 h -0.028 v 0.3187528 c 0.06115,0.029408 0.127172,0.053997 0.198243,0.073802 0.07162,0.019805 0.154488,0.029696 0.248698,0.029696 0.163627,0 0.293459,-0.040576 0.389323,-0.1215969 0.09641,-0.081021 0.144531,-0.1881541 0.144531,-0.32138817 0,-0.0930243 -0.02079,-0.16762608 -0.06266,-0.2240406 -0.04132,-0.0570145 -0.104706,-0.1023967 -0.190101,-0.13600542 -0.04352,-0.0168044 -0.08464,-0.0299343 -0.123209,-0.0395366 -0.03801,-0.009603 -0.07766,-0.0194936 -0.118979,-0.0296964 -0.06391,-0.0162041 -0.107131,-0.0343161 -0.12972,-0.0541212 -0.02204,-0.0204055 -0.03304,-0.0476758 -0.03304,-0.0818846 0,-0.0234063 0.0069,-0.044478 0.02067,-0.0630829 0.01432,-0.019205 0.03101,-0.033624 0.05029,-0.0432266 0.02369,-0.012003 0.04638,-0.0200477 0.06787,-0.0242493 0.02149,-0.004201 0.04576,-0.006326 0.07276,-0.006326 0.06942,0 0.136912,0.0146975 0.202474,0.0441053 0.06611,0.0294076 0.121916,0.0654556 0.167643,0.10806668 h 0.02734 V 0.1259899 C 10.881831,0.09838262 10.816864,0.07647542 10.744141,0.06027131 10.671968,0.04406698 10.599154,0.03602222 10.525879,0.03602213 Z m 5.012207,0 c -0.145998,0 -0.267883,0.03900786 -0.365397,0.11702828 -0.09752,0.0774201 -0.146159,0.17891139 -0.146159,0.30434391 0,0.093024 0.02069,0.1703078 0.06201,0.2321236 0.04132,0.0618162 0.109604,0.1111692 0.204915,0.14777898 0.04132,0.015604 0.08559,0.0287339 0.132975,0.0395366 0.04793,0.0108027 0.0929,0.022262 0.134766,0.0342649 0.03361,0.009603 0.06251,0.0248573 0.08675,0.0458625 0.02424,0.021005 0.0363,0.0482757 0.0363,0.0818845 0,0.030008 -0.0074,0.054318 -0.0223,0.072923 -0.01488,0.018005 -0.03304,0.032145 -0.05452,0.042348 -0.01763,0.009 -0.04095,0.015655 -0.07015,0.019856 -0.02865,0.0042 -0.05187,0.00615 -0.0695,0.00615 -0.06997,0 -0.142096,-0.015255 -0.216471,-0.045862 -0.07438,-0.030608 -0.142397,-0.074423 -0.204101,-0.1314374 h -0.02816 v 0.3187527 c 0.06115,0.029408 0.127334,0.053997 0.198405,0.073802 0.07162,0.019805 0.154488,0.029696 0.248698,0.029696 0.163627,0 0.293297,-0.040576 0.38916,-0.121597 C 15.95172,1.2224564 16,1.115323 16,0.9820886 16,0.88906427 15.979045,0.81446258 15.937174,0.75804802 15.895854,0.7010331 15.832466,0.65565085 15.74707,0.62204218 c -0.04352,-0.0168045 -0.08448,-0.0299343 -0.123047,-0.0395366 -0.03801,-0.009603 -0.07766,-0.0194936 -0.118977,-0.0296964 -0.06391,-0.0162041 -0.107294,-0.0343161 -0.129884,-0.0541212 -0.02204,-0.0204055 -0.03304,-0.0476758 -0.03304,-0.0818846 0,-0.0234063 0.0069,-0.044478 0.02067,-0.0630828 0.01432,-0.019205 0.03117,-0.0336241 0.05045,-0.0432267 0.02369,-0.012003 0.04622,-0.0200477 0.06771,-0.024249 0.02149,-0.004201 0.04576,-0.006326 0.07275,-0.006326 0.06942,0 0.136912,0.0146975 0.202474,0.0441052 0.06611,0.0294077 0.122078,0.0654555 0.167806,0.1080667 h 0.02718 V 0.1259899 C 15.893874,0.09838262 15.828908,0.07647542 15.756185,0.06027131 15.684012,0.04406698 15.611361,0.03602222 15.538086,0.03602213 Z M 3.4493818,0.06027118 v 0.2556699 H 3.812988 V 1.4008249 H 4.1220702 V 0.3159412 h 0.363607 V 0.06027131 Z m 4.0924474,0 V 1.4008249 H 7.849121 V 0.9091656 h 0.11084 l 0.3429362,0.4916593 h 0.37679 L 8.265625,0.830971 c 0.07107,-0.03781 0.127826,-0.0885555 0.1702472,-0.1521719 0.042423,-0.0642168 0.06364,-0.14759595 0.06364,-0.25022257 0,-0.0726189 -0.012842,-0.1324203 -0.038737,-0.17923251 C 8.434881,0.2019317 8.399869,0.16292362 8.355794,0.13231575 8.3128218,0.10290813 8.266018,0.08368244 8.215332,0.0746802 8.1646463,0.06507763 8.1050998,0.06027131 8.0367838,0.06027131 Z m 6.0367838,0 V 1.4008249 h 0.832194 V 1.1451551 H 13.886068 V 0.80654617 h 0.483398 V 0.55087632 H 13.886068 V 0.3159412 h 0.524739 V 0.06027131 Z M 1.7263997,0.28536622 c 0.035811,0 0.070134,0.008045 0.1031901,0.0242493 0.033607,0.015604 0.063724,0.0417608 0.090169,0.0783703 0.025343,0.0360094 0.045509,0.082227 0.060384,0.1386416 0.015426,0.0558146 0.023112,0.12366075 0.023112,0.2034816 0,0.0840218 -0.00716,0.15214665 -0.021484,0.20436017 -0.014324,0.0516134 -0.034753,0.09682 -0.061198,0.13582991 -0.024792,0.03601 -0.054221,0.062723 -0.088379,0.080128 -0.034158,0.016804 -0.069433,0.025303 -0.1057942,0.025303 -0.035811,0 -0.07056,-0.00777 -0.1041667,-0.023371 C 1.5886261,1.1361553 1.5586714,1.1094417 1.5322266,1.072232 1.5063327,1.0356224 1.485904,0.99024012 1.4710287,0.93622615 1.4561535,0.88161197 1.4487305,0.81320862 1.4487305,0.7309874 c 0,-0.0798207 0.00769,-0.1485023 0.023112,-0.20611735 0.015977,-0.057615 0.036669,-0.10383237 0.062012,-0.13864162 0.028649,-0.0378098 0.05834,-0.0639665 0.089193,-0.0783703 0.030852,-0.0150039 0.065338,-0.0224919 0.1033522,-0.0224919 z m 4.5410155,0 c 0.035811,0 0.070297,0.008045 0.1033528,0.0242493 0.033607,0.015604 0.063562,0.0417608 0.090007,0.0783703 0.025343,0.0360094 0.045509,0.082227 0.060384,0.1386416 0.015428,0.0558146 0.023112,0.12366075 0.023112,0.2034816 0,0.0840218 -0.00716,0.15214665 -0.021482,0.20436017 -0.014323,0.0516136 -0.034754,0.0968201 -0.061199,0.13583011 -0.02479,0.03601 -0.05422,0.062723 -0.088379,0.080127 -0.034158,0.016805 -0.069432,0.025304 -0.1057945,0.025304 -0.03581,0 -0.070559,-0.00777 -0.1041665,-0.02337 C 6.1296417,1.1361554 6.0996872,1.1094418 6.0732422,1.0722321 6.047349,1.0356226 6.0269197,0.99024025 6.0120442,0.93622633 5.9971667,0.88161212 5.9897467,0.8132088 5.9897467,0.73098755 c 0,-0.0798207 0.00769,-0.14850232 0.023112,-0.20611735 0.015977,-0.057615 0.036669,-0.1038324 0.062012,-0.13864165 0.02865,-0.0378097 0.058503,-0.0639665 0.089355,-0.0783703 0.030854,-0.015004 0.065176,-0.0224917 0.1031895,-0.022492 z m 3.0279948,0 c 0.035811,0 0.070297,0.008045 0.1033533,0.0242493 0.033607,0.015604 0.063562,0.0417608 0.090006,0.0783703 0.025343,0.0360094 0.045509,0.082227 0.060384,0.1386416 0.015427,0.0558146 0.023112,0.12366075 0.023112,0.2034816 0,0.0840218 -0.00716,0.15214665 -0.021482,0.20436017 -0.014328,0.0516136 -0.034753,0.0968201 -0.061198,0.13583011 -0.024793,0.03601 -0.054222,0.062723 -0.088379,0.080127 -0.034158,0.016805 -0.069432,0.025304 -0.105794,0.025304 -0.035811,0 -0.07056,-0.00777 -0.1041668,-0.02337 C 9.157636,1.1361554 9.1276818,1.1094417 9.1012368,1.072232 9.0753423,1.0356224 9.054914,0.99024012 9.040039,0.93622615 9.025164,0.88161197 9.0177415,0.81320862 9.0177415,0.7309874 c 0,-0.0798207 0.00769,-0.1485023 0.02311,-0.20611735 0.015977,-0.057615 0.036669,-0.10383237 0.062013,-0.13864162 0.028646,-0.0378098 0.05834,-0.0639665 0.089192,-0.0783703 0.030853,-0.015004 0.065339,-0.0224917 0.1033535,-0.0224919 z m 3.50472,0 c 0.03581,0 0.0703,0.008045 0.103353,0.0242493 0.03361,0.015604 0.06356,0.0417608 0.09001,0.0783703 0.02534,0.0360094 0.04551,0.082227 0.06038,0.1386416 0.01543,0.0558146 0.02311,0.12366075 0.02311,0.2034816 0,0.0840218 -0.0072,0.15214665 -0.02148,0.20436017 -0.01432,0.0516136 -0.03475,0.0968201 -0.0612,0.13583011 -0.02479,0.03601 -0.05422,0.062723 -0.08838,0.080127 -0.03416,0.016805 -0.06943,0.025304 -0.105794,0.025304 -0.03581,0 -0.07056,-0.00777 -0.104167,-0.02337 -0.03361,-0.016204 -0.06356,-0.042918 -0.09001,-0.080128 -0.0259,-0.03661 -0.04632,-0.0819919 -0.0612,-0.13600588 -0.01488,-0.0546142 -0.0223,-0.12301753 -0.0223,-0.20523875 0,-0.0798207 0.0077,-0.1485023 0.02311,-0.20611735 0.01598,-0.057615 0.03667,-0.10383237 0.06201,-0.13864162 0.02865,-0.0378098 0.0585,-0.0639665 0.08936,-0.0783703 0.03085,-0.015004 0.06518,-0.0224917 0.10319,-0.0224917 z m -4.951009,0.0216133 h 0.103353 c 0.03526,0 0.064689,0.001115 0.088379,0.003514 0.02369,0.0024 0.04517,0.008218 0.064453,0.0172205 0.027547,0.0132035 0.047187,0.0321505 0.058756,0.0567569 0.01212,0.0240063 0.01823,0.0526689 0.01823,0.0862776 0,0.0378097 -0.00506,0.0684946 -0.014973,0.0919005 -0.00937,0.023406 -0.02395,0.0434669 -0.043782,0.0602714 -0.020937,0.0186047 -0.046522,0.0308993 -0.076823,0.0369008 -0.02975,0.005402 -0.066077,0.008083 -0.1090497,0.008083 H 7.849121 Z M 6.3500977,5.6792097 c -0.076968,0 -0.144441,0.01031 -0.202311,0.030927 -0.05787,0.019995 -0.1030095,0.045296 -0.135417,0.07591 -0.034722,0.033113 -0.059661,0.068979 -0.074707,0.107715 -0.015047,0.038736 -0.02246,0.078351 -0.02246,0.1189618 0,0.038111 0.00394,0.071595 0.012042,0.1003348 0.0081,0.028115 0.019782,0.054355 0.034831,0.078721 0.015047,0.024993 0.03201,0.047737 0.051106,0.068354 0.019678,0.019995 0.042011,0.04061 0.066895,0.061853 -0.02604,0.016243 -0.052951,0.03567 -0.080729,0.058163 -0.0272,0.021865 -0.050872,0.047424 -0.071126,0.076788 -0.02199,0.031241 -0.039985,0.066344 -0.053874,0.10508 -0.01331,0.038736 -0.02002,0.085165 -0.02002,0.1395205 0,0.128078 0.042535,0.232104 0.127604,0.3120753 0.085648,0.079346 0.203234,0.1191367 0.3525393,0.1191367 0.069444,0 0.135887,-0.011247 0.1995445,-0.03374 0.063657,-0.022493 0.1259223,-0.060408 0.186686,-0.113514 L 6.833495,7.1035798 H 7.2198883 V 7.0849523 L 6.9108065,6.7728793 c 0.023728,-0.029366 0.04306,-0.060291 0.058106,-0.092779 0.015622,-0.032489 0.027776,-0.064098 0.036458,-0.094712 0.0081,-0.026867 0.014577,-0.058983 0.019208,-0.096469 0.00521,-0.038111 0.00781,-0.069975 0.00781,-0.095591 V 6.2893032 H 6.7293302 V 6.5910117 L 6.4811205,6.3323545 c 0.055556,-0.019995 0.1013278,-0.043422 0.1372075,-0.070287 0.036458,-0.027491 0.065972,-0.058417 0.088541,-0.092779 0.01852,-0.028115 0.03154,-0.059725 0.039063,-0.094712 0.0081,-0.034987 0.012043,-0.066168 0.012043,-0.093657 0,-0.04311 -0.00892,-0.083154 -0.026857,-0.1200159 C 6.713758,5.8234176 6.688583,5.7915536 6.655597,5.7653136 6.6214537,5.739072 6.5791537,5.7182 6.5288065,5.7025805 6.4784597,5.6869605 6.4189612,5.6792105 6.3500958,5.6792105 Z m 3.9010413,0 c -0.195022,0 -0.348199,0.065172 -0.45931,0.1957501 -0.1111107,0.1299527 -0.1666667,0.3070779 -0.1666667,0.5313714 0,0.2167968 0.052482,0.3892358 0.1572267,0.5173146 0.1053243,0.1280785 0.249422,0.1964914 0.432292,0.2052387 0.0023,0.052481 0.01123,0.101643 0.02686,0.1472518 0.0162,0.045608 0.04027,0.08497 0.0721,0.1180824 0.03183,0.03374 0.07136,0.059549 0.118815,0.077668 C 10.480488,7.4906277 10.538648,7.5 10.606934,7.5 c 0.07465,0 0.129341,-0.00215 0.164063,-0.0065 0.0353,-0.00438 0.07042,-0.011185 0.105143,-0.020558 V 7.223598 h -0.03223 c -0.01273,0.0075 -0.0338,0.015248 -0.06331,0.02337 -0.02893,0.00875 -0.05648,0.01318 -0.08252,0.01318 -0.06771,0 -0.115053,-0.013122 -0.142252,-0.039361 -0.02662,-0.02562 -0.04051,-0.072475 -0.04167,-0.1405748 0.115741,-0.049357 0.205151,-0.1327652 0.268229,-0.2502225 0.06366,-0.1180822 0.09538,-0.259341 0.09538,-0.4236565 0,-0.2255432 -0.05579,-0.4029217 -0.16748,-0.53225 C 10.598598,5.744126 10.445584,5.6792078 10.25114,5.6792078 Z m 2.682129,0 c -0.195022,0 -0.348036,0.065172 -0.459147,0.1957501 -0.111111,0.1299527 -0.166667,0.3070779 -0.166667,0.5313714 0,0.2224198 0.05556,0.3992908 0.166667,0.5304933 0.111111,0.1305777 0.264125,0.195926 0.459147,0.195926 0.194445,0 0.34762,-0.064665 0.45931,-0.193993 0.11169,-0.1293285 0.16748,-0.3068825 0.16748,-0.5324263 0,-0.2255432 -0.05579,-0.4029217 -0.16748,-0.5322497 -0.11169,-0.1299535 -0.264865,-0.1948718 -0.45931,-0.1948718 z m -10.6066078,0.00175 c -0.2094903,0 -0.3748195,0.066031 -0.4957683,0.1978587 C 1.7105218,6.010646 1.6503907,6.185896 1.6503907,6.4045673 c 0,0.2324155 0.060131,0.4119222 0.1805012,0.5387517 0.1209488,0.1262038 0.2830409,0.189424 0.4861654,0.189424 0.087963,0 0.1771378,-0.011927 0.2674155,-0.035671 0.090856,-0.02374 0.1646412,-0.048108 0.221354,-0.073099 V 6.3370983 H 2.2407227 V 6.598567 h 0.2508138 v 0.2735935 c -0.011574,0.00125 -0.025228,0.00223 -0.040853,0.0028 -0.015625,6.25e-4 -0.029116,9e-4 -0.04069,9e-4 -0.1313654,0 -0.2350624,-0.038678 -0.3108724,-0.1161498 -0.07581,-0.077472 -0.1136068,-0.1976832 -0.1136068,-0.3607495 0,-0.076222 0.00978,-0.1431905 0.02946,-0.2006702 0.020255,-0.057479 0.0474,-0.1048445 0.081543,-0.1423315 0.03588,-0.038736 0.076678,-0.067535 0.1223959,-0.086278 0.045717,-0.01874 0.096463,-0.028115 0.1520182,-0.028115 0.047454,0 0.092195,0.00724 0.13444,0.021612 0.042824,0.014373 0.080549,0.031493 0.1129558,0.051485 0.027778,0.016868 0.056026,0.037487 0.084961,0.061853 0.029514,0.02374 0.052084,0.042231 0.067708,0.055352 h 0.029623 V 5.8046797 C 2.7282808,5.766568 2.658203,5.7365782 2.5904948,5.7147115 2.5227867,5.6922195 2.4348775,5.6809737 2.3266602,5.6809737 Z m 2.4156901,0.00192 c -0.1533563,0 -0.281196,0.040552 -0.3836263,0.1217724 -0.1024302,0.080596 -0.153646,0.1862423 -0.153646,0.31682 0,0.09684 0.021702,0.1774365 0.065104,0.2417883 0.043403,0.064351 0.1152165,0.1156417 0.215332,0.153753 0.043403,0.016243 0.08988,0.029874 0.1396485,0.041119 0.050347,0.011247 0.09762,0.023175 0.1416015,0.03567 0.035301,0.00999 0.065683,0.025926 0.091146,0.047795 0.025463,0.021865 0.038086,0.050236 0.038086,0.085223 0,0.031237 -0.00781,0.056543 -0.023437,0.07591 -0.015623,0.018747 -0.034722,0.033484 -0.057291,0.044106 -0.01852,0.00937 -0.043059,0.016188 -0.07373,0.020558 -0.030094,0.00437 -0.054399,0.00668 -0.072917,0.00668 -0.073495,0 -0.1492517,-0.015935 -0.2273765,-0.047796 C 4.363119,6.7944165 4.2915402,6.74875 4.2267255,6.6893967 h -0.02946 V 7.021153 c 0.064236,0.030614 0.1336807,0.056171 0.2083335,0.076788 0.075231,0.020618 0.1622722,0.030927 0.2612302,0.030927 0.1718748,0 0.30816,-0.042172 0.408854,-0.1265165 C 5.1769565,6.9180065 5.227702,6.8064832 5.227702,6.667784 c 0,-0.09684 -0.0221,-0.174625 -0.066081,-0.2333538 C 5.1182182,6.375077 5.0517755,6.327965 4.962077,6.2929772 4.9163592,6.2754872 4.8731915,6.261682 4.8326822,6.251684 c -0.03993,-0.01 -0.081597,-0.020305 -0.125,-0.030927 C 4.6405522,6.203889 4.5951782,6.185145 4.571452,6.164527 4.548305,6.143285 4.536621,6.114916 4.536621,6.079304 c 0,-0.024365 0.00734,-0.046175 0.02181,-0.065543 C 4.573479,5.993766 4.591074,5.978774 4.611328,5.968777 4.63621,5.956282 4.659885,5.947845 4.682454,5.943472 c 0.02257,-0.00437 0.048141,-0.00668 0.076498,-0.00668 0.072916,0 0.1436992,0.015422 0.212565,0.046038 0.069444,0.030613 0.128237,0.0681 0.1762695,0.112459 h 0.028647 V 5.7765392 C 5.1162482,5.7478005 5.0479065,5.7250535 4.971518,5.7081847 4.895708,5.6913172 4.8193185,5.6828797 4.7423503,5.6828797 Z M 3.3483073,5.7081895 2.911621,7.103567 H 3.2371418 L 3.317871,6.818728 h 0.40625 L 3.80485,7.103567 H 4.13916 L 3.702474,5.7081905 Z m 4.4757487,0 V 7.103568 H 8.686849 V 6.8375445 H 8.1486003 V 5.7082043 Z m 0.965169,0 V 5.9519242 H 8.9750973 V 6.8600285 H 8.789225 V 7.1035738 H 9.485514 V 6.8600285 H 9.2996417 V 5.9519175 H 9.485514 v -0.243721 z m 2.262207,0 v 0.8912423 c 0,0.174312 0.04664,0.306707 0.139811,0.397299 0.09375,0.090592 0.227431,0.1360057 0.401042,0.1360057 0.178819,0 0.313603,-0.045921 0.40446,-0.137763 0.09143,-0.092467 0.137207,-0.2246072 0.137207,-0.3964202 V 5.708171 h -0.324707 v 0.870684 c 0,0.1005887 -0.0176,0.173688 -0.0529,0.2192965 -0.03472,0.045608 -0.08941,0.068354 -0.164062,0.068354 -0.07639,0 -0.131709,-0.023685 -0.165853,-0.071166 C 11.39287,6.7478575 11.37614,6.6756948 11.37614,6.5788553 V 5.7081717 Z m 2.700521,0 V 7.103567 H 14.07487 V 6.591889 h 0.116211 l 0.360351,0.5116912 h 0.395834 L 14.51237,6.5103752 c 0.07465,-0.039361 0.134151,-0.092097 0.178711,-0.1583222 0.04456,-0.066851 0.06689,-0.1537535 0.06689,-0.26059 0,-0.075598 -0.01365,-0.1377045 -0.04085,-0.186437 -0.0272,-0.049357 -0.06389,-0.08991 -0.110189,-0.1217725 -0.04514,-0.030614 -0.09438,-0.050724 -0.147623,-0.060096 -0.05324,-0.01 -0.115741,-0.014935 -0.1875,-0.014935 z M 6.3361003,5.8788122 c 0.00752,0 0.01794,0.00115 0.03125,0.00369 0.01331,0.00247 0.025463,0.0088 0.036458,0.0188 0.012153,0.010618 0.0221,0.025616 0.029624,0.044984 0.0081,0.019367 0.012042,0.044671 0.012042,0.07591 0,0.038736 -0.00718,0.073665 -0.021647,0.104904 -0.01389,0.031241 -0.034722,0.060545 -0.0625,0.088035 -0.040509,-0.036237 -0.072392,-0.070228 -0.09554,-0.1020917 -0.02257,-0.032489 -0.033854,-0.067164 -0.033854,-0.1040253 0,-0.025616 0.00411,-0.047854 0.012207,-0.066597 0.0081,-0.018745 0.017418,-0.032117 0.027833,-0.04024 0.01331,-0.010618 0.025067,-0.017183 0.035482,-0.01968 0.010417,-0.00247 0.019967,-0.00369 0.028647,-0.00369 z m 3.9158527,0.06361 c 0.03762,0 0.07384,0.00843 0.108561,0.025305 0.0353,0.016243 0.06679,0.043422 0.09456,0.081533 0.02662,0.037486 0.04769,0.085712 0.06331,0.1444405 0.0162,0.058104 0.02441,0.1286455 0.02441,0.2117402 0,0.087468 -0.0076,0.1584393 -0.02262,0.212795 -0.01505,0.05373 -0.03651,0.1008428 -0.06429,0.1414525 -0.02604,0.037486 -0.05689,0.065348 -0.09277,0.083466 -0.03588,0.01749 -0.07297,0.026182 -0.111165,0.026182 -0.03761,0 -0.07407,-0.00818 -0.109375,-0.024425 -0.0353,-0.016868 -0.06679,-0.044555 -0.09456,-0.083291 C 10.020814,6.7235094 9.999349,6.6762214 9.983724,6.6199917 9.968102,6.5631367 9.960287,6.4919129 9.960287,6.4063184 c 0,-0.083095 0.00805,-0.1545737 0.02425,-0.2145517 0.016782,-0.059979 0.038485,-0.108028 0.065105,-0.1442648 0.03009,-0.03936 0.06134,-0.066539 0.09375,-0.081533 0.03241,-0.01562 0.06863,-0.023543 0.108561,-0.023543 z m 2.682292,0 c 0.03762,0 0.07368,0.00843 0.108398,0.025305 0.0353,0.016243 0.06695,0.043422 0.09473,0.081533 0.02662,0.037486 0.04769,0.085712 0.06331,0.1444405 0.0162,0.058104 0.02425,0.1286455 0.02425,0.2117402 0,0.087468 -0.0074,0.1584393 -0.02246,0.212795 -0.01505,0.05373 -0.03651,0.1008428 -0.06429,0.1414525 -0.02604,0.037486 -0.05706,0.065348 -0.09294,0.083466 -0.03588,0.01749 -0.07281,0.026182 -0.111002,0.026182 -0.03762,0 -0.07407,-0.00818 -0.109375,-0.024425 -0.0353,-0.016868 -0.06695,-0.044555 -0.09473,-0.083291 -0.0272,-0.038111 -0.0485,-0.085399 -0.06413,-0.1416287 -0.01562,-0.056855 -0.02344,-0.1280788 -0.02344,-0.2136733 0,-0.083095 0.008,-0.1545737 0.02425,-0.2145517 0.01678,-0.059979 0.03849,-0.108028 0.06511,-0.1442648 0.03009,-0.03936 0.06134,-0.066539 0.09375,-0.081533 0.03241,-0.01562 0.06863,-0.023543 0.108561,-0.023543 z m 1.140625,0.022493 h 0.108398 c 0.03704,0 0.06805,0.00135 0.09294,0.00386 0.02488,0.00248 0.04745,0.00838 0.06771,0.017748 0.02894,0.013745 0.04953,0.033427 0.06169,0.059041 0.01273,0.024992 0.01904,0.054981 0.01904,0.089968 0,0.03936 -0.0052,0.071224 -0.01562,0.095591 -0.0098,0.024365 -0.02523,0.045238 -0.04606,0.062731 -0.02199,0.019367 -0.0489,0.032233 -0.08073,0.038483 -0.03125,0.00562 -0.06944,0.00843 -0.114583,0.00843 h -0.09277 z M 3.520996,6.1054893 3.6529948,6.5656955 H 3.3891603 Z m 2.70931,0.3665482 0.347168,0.3551265 c -0.0272,0.023112 -0.054742,0.039302 -0.08252,0.048674 -0.0272,0.00875 -0.058684,0.01318 -0.094563,0.01318 -0.026044,0 -0.052084,-0.00494 -0.078125,-0.01494 C 6.296803,6.864078 6.2736,6.849085 6.252767,6.829094 6.231934,6.809099 6.21497,6.784051 6.20166,6.754062 6.18893,6.723448 6.182452,6.687582 6.182452,6.646347 c 0,-0.036237 0.00561,-0.070658 0.0166,-0.1031462 0.011573,-0.033113 0.02199,-0.056797 0.03125,-0.071166 z" />
</svg>